<svg width="60" height="52" viewBox="0 0 60 52" fill="none" xmlns="http://www.w3.org/2000/svg">
<path d="M4 26.2853C4 25.6644 4 25.0435 4 24.4226C4.14437 24.3191 4.12375 24.1432 4.16499 23.9983C4.7528 21.6596 6.17589 20.0452 8.40335 19.1552C10.1771 18.4515 11.9817 17.8513 13.807 17.2821C17.4266 16.268 21.1081 15.6264 24.8412 15.2952C25.9137 15.2331 26.9965 15.14 28.0689 15.1193C30.1933 15.0779 32.3279 15.0676 34.4523 15.2021C36.3291 15.3159 38.206 15.5022 40.0725 15.7713C42.4134 16.1128 44.713 16.6509 47.0024 17.2615C48.8689 17.8513 50.7251 18.4619 52.5401 19.207C56.0772 20.6558 57.7581 24.5778 56.2422 28.086C55.1388 30.6317 53.9116 33.1154 52.7463 35.63C52.2719 36.6649 51.612 37.5031 50.622 38.0826C50.0342 38.4241 49.7661 38.9519 49.7764 39.6349C49.7867 40.587 49.7867 41.5287 49.7764 42.4808C49.7145 46.2476 46.033 48.8451 42.4752 47.6447C41.7431 47.3963 41.1553 46.9306 40.5056 46.5477C40.454 46.4753 40.4128 46.4028 40.3509 46.3407C39.2475 45.1507 38.7113 43.7433 38.7422 42.1186C38.7628 40.5352 38.7525 38.9519 38.7422 37.3582C38.7422 36.3234 38.206 35.7335 37.185 35.5783C34.6585 35.1851 32.1114 35.0712 29.5539 35.0712C26.8005 35.1851 24.0575 35.3817 21.3556 36.0026C19.7469 36.3544 18.1794 36.8408 16.6223 37.3996C15.4982 37.8032 14.4257 38.3724 13.2398 38.6311C12.5592 38.776 11.9096 38.5897 11.2496 38.6104C11.1464 38.5483 11.0536 38.4655 10.9402 38.4345C9.59959 37.9688 8.68179 37.0478 8.09398 35.7646C7.80524 35.1437 7.48556 34.5331 7.21744 33.8915C6.17589 31.3561 4.63936 29.007 4 26.2853ZM24.2121 30.3316C27.3161 30.3316 29.853 27.8273 29.8633 24.7434C29.8736 21.6285 27.3368 19.0517 24.2534 19.0414C21.2938 19.031 18.6126 21.2974 18.5816 24.671C18.561 28.1791 21.4897 30.404 24.2121 30.3316ZM35.896 30.3213C36.0713 30.3213 36.2363 30.3316 36.4116 30.3213C38.1338 30.2074 39.6084 28.7483 39.5672 27.1546C39.5362 25.9335 38.8453 25.0849 37.845 24.5054C36.886 23.9466 35.8651 23.4706 34.8751 22.9531C34.2873 22.6427 34.0913 22.0632 34.3595 21.4733C34.6482 20.842 35.5351 20.4798 36.4116 20.6351C37.1747 20.7696 37.8347 21.1214 38.4328 21.6078C38.8763 21.9597 39.3094 21.9286 39.6084 21.5457C39.8869 21.1939 39.8353 20.7696 39.4125 20.4074C38.1338 19.3415 36.7004 18.793 35.0195 19.1552C33.782 19.4243 32.8642 20.4384 32.6889 21.7424C32.5445 22.7876 33.1632 23.8224 34.277 24.4019C35.0298 24.7848 35.7826 25.1574 36.5354 25.5403C36.8757 25.7162 37.1953 25.9024 37.4738 26.1715C38.2369 26.9166 38.1647 27.7859 37.2882 28.3964C36.9582 28.6241 36.5869 28.7586 36.1847 28.7793C34.9369 28.8311 33.9057 28.3861 33.0807 27.4444C32.6786 26.989 32.2558 26.927 31.8742 27.2685C31.5339 27.5686 31.5442 28.0446 31.9051 28.4689C32.9776 29.659 34.3079 30.2799 35.896 30.3213ZM48.0439 27.9825C48.0542 27.5479 47.817 27.3202 47.4458 27.1857C46.7342 26.9269 46.033 26.6372 45.3111 26.4095C44.8883 26.275 44.7646 26.1094 44.9399 25.6748C45.2286 24.9918 45.4761 24.2881 45.703 23.5844C45.8164 23.2222 45.9814 23.1394 46.3424 23.2843C47.2086 23.6258 48.0852 23.9362 48.9617 24.2363C49.4051 24.3916 49.7661 24.2156 49.9311 23.8224C50.127 23.3567 49.9001 22.9428 49.302 22.7151C48.1573 22.2908 47.0127 21.8769 45.868 21.4629C45.208 21.2249 44.8677 21.3802 44.6305 22.0425C43.5684 24.94 42.5165 27.8376 41.475 30.7352C41.2275 31.4286 41.3718 31.7597 42.0628 32.0184C43.2177 32.4531 44.383 32.8773 45.5483 33.2913C45.7236 33.3534 45.8989 33.4258 46.0949 33.3637C46.4352 33.2499 46.6724 33.0533 46.693 32.6704C46.7239 32.2771 46.5383 32.0081 46.1774 31.8735C45.3214 31.5527 44.4758 31.2319 43.6096 30.9318C43.228 30.7973 43.1352 30.6214 43.2899 30.2488C43.5684 29.5658 43.8262 28.8621 44.0427 28.1584C44.1665 27.7652 44.3418 27.6824 44.7233 27.8376C45.4864 28.1481 46.2702 28.4275 47.0436 28.6862C47.5695 28.8518 48.0336 28.5103 48.0439 27.9825ZM11.5589 22.5909C10.9711 22.5702 10.6618 23.1497 10.9196 23.8741C11.9714 26.7924 13.0336 29.7003 14.0958 32.6186C14.3329 33.2706 14.6629 33.4362 15.3332 33.1981C16.2923 32.867 17.241 32.5151 18.1897 32.1633C18.7363 31.9563 18.9632 31.5424 18.7982 31.087C18.6435 30.6628 18.2207 30.5179 17.6638 30.7042C17.0966 30.9008 16.5295 31.1077 15.9726 31.3147C15.3539 31.5424 15.3539 31.5424 15.1373 30.9318C14.2092 28.3861 13.2811 25.8507 12.3736 23.305C12.2395 22.9117 12.0333 22.6323 11.5589 22.5909Z" fill="#8EE1E0"/>
<path d="M31.4313 0C31.9366 0.217319 32.4729 0.113832 32.9988 0.186272C35.4428 0.517424 37.7528 1.22112 39.908 2.42155C41.4858 3.30117 42.8986 4.37741 44.0949 5.72272C45.8789 7.71998 47.0132 10.0173 47.3329 12.7183C47.4979 14.1464 47.3329 15.5227 47.0442 16.9094C47.0236 17.0233 47.0236 17.1475 47.0029 17.2716C44.7136 16.6611 42.414 16.123 40.0731 15.7815C38.2065 15.5021 36.3297 15.3261 34.4528 15.2123C32.3285 15.0778 30.2042 15.0881 28.0695 15.1295C26.9867 15.1502 25.9142 15.2433 24.8418 15.3054C24.7799 15.2019 24.7283 15.0985 24.6665 14.995C24.1096 14.2292 23.6455 13.422 23.3774 12.501C23.4805 12.4389 23.5837 12.3768 23.6868 12.3147C25.1924 11.4558 25.4708 10.0691 24.4293 8.70309C24.7902 8.54786 25.1614 8.40298 25.4708 8.14427C25.6152 8.02008 25.7596 7.89591 25.8833 7.76138C26.1927 7.39918 26.1927 6.94384 25.8833 6.65408C25.5636 6.34363 25.1614 6.34363 24.7799 6.69548C24.1818 7.25429 23.5321 7.45092 22.7793 7.03698C22.7999 6.83001 22.7999 6.62304 22.8309 6.42642C23.1299 4.28428 23.8621 2.32841 25.3574 0.714043C25.9142 0.496724 26.4917 0.393243 27.0795 0.310455C27.8427 0.20697 28.6058 0.103485 29.3792 0C30.0598 0 30.7404 0 31.4313 0ZM39.5884 7.84416C39.9287 7.28534 39.9184 6.8921 39.5574 6.60234C39.1965 6.31258 38.8871 6.36432 38.3818 6.79896C37.6497 7.43022 36.8659 7.38883 36.0306 6.68513C35.6284 6.34363 35.2056 6.34363 34.886 6.68513C34.5972 6.99558 34.6178 7.43022 34.9478 7.80277C35.3397 8.2374 35.8347 8.49612 36.3709 8.70309C35.4222 9.92421 35.5666 11.2178 36.7319 12.0767C37.9487 12.9667 39.774 12.9667 40.9702 12.0663C41.5477 11.6317 41.919 11.0832 41.9396 10.3278C41.9808 9.09633 41.0012 8.06148 39.5884 7.84416ZM30.3898 8.52716C28.9048 8.5789 27.7911 9.29295 26.9558 10.483C26.698 10.8452 26.7805 11.3006 27.1208 11.5386C27.4817 11.7869 27.8323 11.7559 28.1417 11.4454C28.2964 11.2902 28.4201 11.0936 28.5748 10.9384C29.5648 9.90351 30.9363 9.82072 31.9779 10.7314C32.2048 10.928 32.3904 11.1867 32.6069 11.4144C32.9266 11.7455 33.3391 11.7973 33.6691 11.5489C33.9991 11.3006 34.0816 10.8556 33.8341 10.4934C33.0091 9.2826 31.8851 8.56856 30.3898 8.52716Z" fill="#EEECFE"/>
<path d="M13.8079 17.2818C13.6326 16.1952 13.3748 15.1293 13.3851 14.0117C13.4057 11.2383 14.2925 8.75465 15.9838 6.59181C18.2731 3.66319 21.2843 1.79011 24.8523 0.807006C25.0173 0.765612 25.1927 0.744913 25.3577 0.713867C23.8624 2.32823 23.1302 4.27376 22.8311 6.41589C22.8002 6.62286 22.8002 6.82983 22.7796 7.02645C22.5424 6.96436 22.4083 6.74705 22.2124 6.60217C21.8412 6.32276 21.3977 6.3745 21.1296 6.72635C20.8202 7.11959 20.9646 7.49214 21.2224 7.84399C21.0059 7.89573 20.779 7.92677 20.5831 8.00956C19.5003 8.4235 18.8506 9.28242 18.8506 10.2655C18.8609 11.2383 19.5312 12.0972 20.614 12.5008C21.5318 12.8423 22.4599 12.7802 23.3777 12.5008C23.6458 13.4115 24.1099 14.229 24.6667 14.9948C24.7389 15.0879 24.7802 15.2018 24.842 15.3053C21.0987 15.6261 17.4172 16.2573 13.8079 17.2818Z" fill="#D3D3FE"/>
<path d="M29.6047 38.2787C29.5944 37.2128 29.5738 36.1469 29.5635 35.0811C32.1209 35.0811 34.6681 35.1949 37.1946 35.5881C38.2052 35.7434 38.7414 36.3332 38.7517 37.3681C38.7517 38.9514 38.7724 40.5347 38.7517 42.1284C38.7208 43.7634 39.257 45.1605 40.3605 46.3506C40.4223 46.4127 40.4636 46.4851 40.5151 46.5575C40.4533 47.6752 40.1026 48.6893 39.3808 49.5586C39.257 49.5482 39.1642 49.4758 39.0611 49.4034C36.7821 47.6338 35.6271 45.3054 35.5652 42.4285C35.5446 41.4143 35.5652 40.4002 35.5652 39.3757C35.5652 38.5685 35.5446 38.5478 34.7506 38.4857C33.0284 38.3615 31.3269 38.258 29.6047 38.2787Z" fill="#5ABED5"/>
<path d="M24.2117 30.3307C21.4892 30.4031 18.5605 28.1782 18.5812 24.6804C18.6121 21.3068 21.2933 19.0405 24.2529 19.0508C27.3363 19.0612 29.8835 21.6379 29.8628 24.7528C29.8525 27.8263 27.3157 30.3307 24.2117 30.3307ZM20.1693 24.6701C20.1693 26.9674 21.9223 28.7681 24.1807 28.7681C26.4598 28.7784 28.3263 26.9467 28.3263 24.7114C28.3263 22.4658 26.4598 20.5927 24.222 20.5927C21.9739 20.5927 20.1693 22.4037 20.1693 24.6701Z" fill="#FCFEFE"/>
<path d="M35.8968 30.3209C34.2984 30.2795 32.9681 29.6586 31.9162 28.4582C31.545 28.0443 31.545 27.5682 31.8853 27.2578C32.2668 26.9163 32.7 26.9784 33.0918 27.4337C33.9168 28.3754 34.948 28.8204 36.1958 28.7687C36.6083 28.748 36.9693 28.6134 37.2993 28.3858C38.1758 27.7752 38.2377 26.9059 37.4849 26.1608C37.2064 25.8918 36.8868 25.7055 36.5465 25.5296C35.7937 25.1467 35.0409 24.7741 34.2881 24.3912C33.1743 23.8117 32.5556 22.7769 32.7 21.7317C32.8753 20.4278 33.7931 19.4136 35.0306 19.1446C36.7115 18.7824 38.1449 19.3308 39.4236 20.3967C39.8464 20.7486 39.898 21.1832 39.6195 21.5351C39.3205 21.9076 38.8874 21.949 38.4439 21.5971C37.8458 21.1108 37.1858 20.7589 36.4227 20.6244C35.5462 20.4692 34.649 20.8314 34.3706 21.4626C34.1024 22.0525 34.2984 22.632 34.8862 22.9424C35.8762 23.4599 36.8868 23.9359 37.8561 24.4947C38.8564 25.0742 39.5474 25.9228 39.5783 27.1439C39.6195 28.7376 38.1449 30.1967 36.4227 30.3106C36.2474 30.3313 36.0721 30.3209 35.8968 30.3209Z" fill="#FCFEFD"/>
<path d="M48.0446 27.9821C48.0343 28.5098 47.5703 28.8617 47.0443 28.6858C46.2606 28.4271 45.4872 28.1476 44.7241 27.8372C44.3425 27.682 44.1775 27.7647 44.0435 28.158C43.8166 28.8617 43.5588 29.5654 43.2907 30.2484C43.136 30.6313 43.2288 30.8072 43.6104 30.9314C44.4766 31.2212 45.3222 31.5523 46.1781 31.8731C46.539 32.0076 46.7247 32.2767 46.6937 32.6699C46.6628 33.0425 46.4256 33.2495 46.0956 33.3633C45.8997 33.4254 45.7244 33.3633 45.5491 33.2909C44.3838 32.8666 43.2185 32.4526 42.0635 32.018C41.3726 31.7593 41.2179 31.4281 41.4757 30.7348C42.5276 27.8372 43.5794 24.9396 44.6313 22.042C44.8788 21.3797 45.2191 21.2245 45.8687 21.4625C47.0134 21.8764 48.1581 22.2904 49.3027 22.7147C49.9009 22.932 50.1277 23.3563 49.9318 23.822C49.7668 24.2152 49.3955 24.3911 48.9624 24.2359C48.0859 23.9358 47.2093 23.6253 46.3431 23.2838C45.9822 23.139 45.8275 23.2218 45.7038 23.5839C45.4769 24.2876 45.2294 24.9913 44.9406 25.6743C44.755 26.109 44.8891 26.2746 45.3119 26.4091C46.0337 26.6368 46.735 26.9265 47.4465 27.1852C47.8178 27.3094 48.0549 27.5474 48.0446 27.9821Z" fill="#FCFDFD"/>
<path d="M11.3116 41.8075C11.1981 40.7416 11.26 39.6757 11.26 38.6098C11.92 38.5994 12.58 38.7754 13.2503 38.6305C14.4362 38.3821 15.4984 37.8026 16.6327 37.399C18.1899 36.8402 19.7574 36.3642 21.3661 36.002C21.3558 37.1092 21.3351 38.2062 21.3248 39.3135C19.7367 39.6343 18.2208 40.1827 16.7358 40.8037C14.9827 41.5487 13.24 42.149 11.3116 41.8075Z" fill="#5ABED5"/>
<path d="M11.5591 22.5904C12.0335 22.6318 12.2294 22.9112 12.3738 23.3044C13.2916 25.8502 14.2197 28.3855 15.1375 30.9313C15.3643 31.5418 15.354 31.5418 15.9728 31.3142C16.5399 31.1072 17.0968 30.8899 17.664 30.7036C18.2208 30.5173 18.6436 30.6726 18.7983 31.0865C18.9633 31.5418 18.7365 31.9661 18.1899 32.1627C17.2412 32.5146 16.2924 32.8664 15.3334 33.1976C14.6631 33.4356 14.3331 33.27 14.0959 32.6181C13.0338 29.6998 11.9716 26.7919 10.9197 23.8736C10.6619 23.1492 10.9713 22.5697 11.5591 22.5904Z" fill="#FCFDFD"/>
<path d="M29.6048 38.279C31.3167 38.2583 33.0285 38.3618 34.73 38.4963C35.5241 38.5584 35.5447 38.5791 35.5447 39.3863C35.5447 40.4005 35.5241 41.4146 35.5447 42.4391C35.6066 45.316 36.7616 47.6548 39.0406 49.414C39.1334 49.4865 39.2262 49.5589 39.3603 49.5692C37.9372 51.4113 35.5963 52.1564 33.4204 51.4527C31.1517 50.7283 29.6358 48.7414 29.5945 46.2991C29.5636 43.6292 29.6048 40.9489 29.6048 38.279Z" fill="#6AD6D3"/>
<path d="M11.3121 41.8079C13.2405 42.1494 14.9936 41.5388 16.7363 40.8144C18.2213 40.1935 19.7475 39.645 21.3253 39.3242C21.3047 40.8351 21.5006 42.3667 21.2222 43.8569C20.7684 46.3198 18.4069 48.0997 15.9835 47.8824C13.3436 47.6444 11.3739 45.5851 11.3018 42.9979C11.3018 42.6047 11.3121 42.2011 11.3121 41.8079Z" fill="#6AD6D3"/>
<path d="M39.587 7.84473C40.9998 8.06205 41.9898 9.0969 41.9589 10.3284C41.9382 11.0735 41.5567 11.6323 40.9895 12.0669C39.7933 12.9672 37.968 12.9672 36.7511 12.0773C35.5858 11.2183 35.4415 9.93512 36.3902 8.70365C37.5967 8.99341 38.6589 8.68296 39.587 7.84473Z" fill="#ECA1AB"/>
<path d="M23.3759 12.501C22.4581 12.7804 21.53 12.8528 20.6122 12.501C19.5294 12.0974 18.8591 11.2384 18.8488 10.2657C18.8384 9.28258 19.4881 8.42366 20.5812 8.00972C20.7875 7.92693 21.0143 7.90623 21.2206 7.85449C22.1384 8.70307 23.2005 9.00317 24.4277 8.71341C25.4692 10.0794 25.1908 11.4661 23.6852 12.325C23.5821 12.3768 23.479 12.4389 23.3759 12.501Z" fill="#ECA1AB"/>
<path d="M30.39 8.52734C31.8853 8.57909 32.999 9.28279 33.8343 10.4832C34.0921 10.8454 33.9993 11.2904 33.6693 11.5388C33.3393 11.7871 32.9268 11.7457 32.6071 11.4042C32.3906 11.1766 32.2153 10.9282 31.9781 10.7212C30.9262 9.81056 29.565 9.89335 28.575 10.9282C28.4203 11.0938 28.2966 11.2801 28.1419 11.4353C27.8325 11.7457 27.4819 11.7768 27.121 11.5284C26.7807 11.2904 26.6982 10.8454 26.956 10.4729C27.7913 9.28278 28.9153 8.57909 30.39 8.52734Z" fill="#596178"/>
<path d="M24.4283 8.70327C23.2114 8.99302 22.139 8.69292 21.2212 7.84435C20.9634 7.4925 20.819 7.13031 21.1284 6.72672C21.3965 6.37487 21.8399 6.33347 22.2111 6.60253C22.3968 6.73706 22.5308 6.95438 22.7783 7.02682C23.5311 7.4511 24.1808 7.24414 24.7789 6.68532C25.1605 6.33347 25.5626 6.33347 25.8823 6.64392C26.1917 6.94403 26.202 7.39936 25.8823 7.75121C25.7586 7.89609 25.6142 8.02027 25.4698 8.1341C25.1502 8.40316 24.7892 8.54804 24.4283 8.70327Z" fill="#596077"/>
<path d="M39.5876 7.84407C38.6698 8.6823 37.5973 8.98241 36.3805 8.703C35.8545 8.49603 35.3492 8.23731 34.9574 7.80267C34.6274 7.44048 34.6067 7.00584 34.8955 6.68503C35.2152 6.34353 35.6277 6.34353 36.0401 6.68503C36.8754 7.39908 37.6592 7.43013 38.3914 6.79887C38.8967 6.36423 39.206 6.31249 39.567 6.60225C39.9176 6.90235 39.9279 7.2956 39.5876 7.84407Z" fill="#596077"/>
<path d="M20.1709 24.6701C20.1709 22.4038 21.9756 20.5928 24.2237 20.5928C26.4614 20.5928 28.328 22.4659 28.328 24.7115C28.328 26.9468 26.4614 28.7784 24.1824 28.7681C21.924 28.7681 20.1606 26.9675 20.1709 24.6701Z" fill="#8EE1E0"/>
</svg>
