<svg width="60" height="48" viewBox="0 0 60 48" fill="none" xmlns="http://www.w3.org/2000/svg">
<g clip-path="url(#clip0_1297_399)">
<path d="M0 31.7819C0 31.4289 0 31.0759 0 30.7229C0.246242 30.3816 0.480758 30.0168 0.738725 29.6874C1.72369 28.4518 2.74384 27.2398 3.7288 26.0043C4.4089 25.1453 4.4089 24.2981 3.7288 23.4391C3.17769 22.7331 2.57968 22.0624 2.04029 21.3446C1.34847 20.4386 0.469032 19.6619 0 18.6029C0 18.2852 0 17.9793 0 17.6616C0.44558 16.8496 1.03187 16.2966 2.06374 16.3084C6.20295 16.3319 10.3422 16.3201 14.4814 16.3201C14.6455 16.3201 14.8918 16.2024 14.9621 16.4966C14.798 16.5319 14.7042 16.6614 14.6221 16.7908C12.1714 20.2738 9.70896 23.7568 7.25827 27.2398C7.14101 27.4046 6.9065 27.5693 7.04721 27.7929C7.16446 27.9694 7.41071 27.887 7.59832 27.887C10.0725 27.8988 12.5583 27.8988 15.0325 27.8988C17.2604 27.887 19.4766 27.8753 21.7045 27.8635C22.5722 27.9106 23.4399 27.9106 24.3076 27.8635C28.3764 27.8753 32.457 27.8753 36.5259 27.887C37.1239 27.887 37.7336 27.8635 38.3316 27.8517C38.5662 27.8635 38.8007 27.8753 39.0235 27.887C41.0286 27.8988 43.022 27.8988 45.0271 27.9106C46.6101 27.9106 48.193 27.9106 49.7643 27.9106C50.7258 27.9106 51.6756 27.8988 52.6371 27.9106C53.0944 27.9106 53.1648 27.7458 52.8951 27.3928C52.8365 27.3104 52.7896 27.2281 52.7309 27.1457C50.6672 24.2275 48.6269 21.2858 46.5397 18.3793C46.0824 17.7322 45.7306 17.0026 45.0857 16.5084C45.2147 16.1907 45.4844 16.3437 45.6837 16.3437C49.6588 16.3319 53.6455 16.3672 57.6206 16.3201C58.7932 16.3084 59.614 16.6731 60.0361 17.8028C60.0361 18.1205 60.0361 18.4264 60.0361 18.7441C59.6491 19.4031 59.1567 19.9679 58.6759 20.5562C57.8903 21.5211 57.0929 22.486 56.319 23.4627C55.6272 24.3216 55.6272 25.1689 56.3073 26.0279C56.9639 26.8515 57.644 27.6517 58.3007 28.4871C58.9104 29.2638 59.6374 29.9462 60.0478 30.8641C60.0478 31.1818 60.0478 31.4877 60.0478 31.8054C59.5319 32.9115 58.6407 33.2528 57.4681 33.1939C56.2604 33.1351 55.0409 33.2057 53.8331 33.1704C53.3289 33.1586 53.2234 33.3116 53.2234 33.794C53.2469 38.2419 53.2234 42.6899 53.2469 47.1495C53.2469 47.679 53.1296 47.8202 52.5785 47.8202C37.5343 47.8085 22.4901 47.8085 7.44588 47.8202C6.9065 47.8202 6.77751 47.679 6.77751 47.1495C6.80096 42.6781 6.78924 38.2066 6.80096 33.7352C6.80096 33.3116 6.70716 33.1586 6.26158 33.1704C5.03037 33.2057 3.79916 33.1351 2.56795 33.1939C1.4071 33.2292 0.515935 32.888 0 31.7819ZM19.9808 35.2178C20.0277 35.2178 20.0746 35.2296 20.1097 35.2296C20.1449 35.3237 20.1801 35.4061 20.2036 35.5002C21.0361 38.2066 21.8686 40.9248 22.7129 43.6312C22.9357 44.349 23.3578 44.6785 23.9558 44.6432C24.5538 44.6079 24.9408 44.2196 25.0815 43.49C25.2574 42.5839 25.4333 41.6897 25.6209 40.7836C26.1837 37.9831 26.7348 35.1825 27.2977 32.3702C27.4501 31.6054 27.2156 31.1465 26.6527 31.017C26.0899 30.8876 25.6912 31.2171 25.5271 31.9819C25.2222 33.4999 24.9173 35.0178 24.6242 36.5357C24.3545 37.9007 24.0731 39.2657 23.7682 40.7954C23.6627 40.4894 23.604 40.3365 23.5689 40.1953C22.7129 37.4065 21.8452 34.6295 21.0009 31.8407C20.8485 31.3465 20.6022 30.97 20.0394 30.97C19.5117 30.9817 19.2655 31.3347 19.1248 31.8172C18.6675 33.3587 18.1867 34.8884 17.7177 36.4181C17.2838 37.8301 16.8382 39.2421 16.4044 40.6542C16.123 39.6657 15.9236 38.6891 15.7243 37.7124C15.3373 35.7591 14.9504 33.794 14.5634 31.8407C14.411 31.0994 13.813 30.7582 13.2384 31.0641C12.699 31.3583 12.7108 31.8407 12.8163 32.3467C13.555 36.0768 14.282 39.7952 15.0208 43.5253C15.1615 44.2196 15.5367 44.5961 16.123 44.6314C16.7327 44.6785 17.1548 44.349 17.3776 43.6312C17.8818 42.0074 18.3861 40.3835 18.8903 38.7479C19.242 37.5948 19.6173 36.4063 19.9808 35.2178ZM39.1173 34.9825C39.3635 35.3355 39.5628 35.6179 39.7622 35.9121C41.5914 38.5714 43.4206 41.2307 45.2499 43.8901C45.5665 44.349 45.9651 44.6314 46.5397 44.4667C47.1143 44.3019 47.3019 43.8312 47.3019 43.2782C47.3019 43.2429 47.3019 43.1958 47.3019 43.1605C47.2667 39.501 47.2432 35.8297 47.2081 32.1702C47.2081 32.0172 47.1963 31.8525 47.1729 31.6995C47.0791 31.2288 46.7625 30.9817 46.3052 30.97C45.8479 30.9582 45.5313 31.2288 45.4257 31.6877C45.3788 31.876 45.4023 32.0761 45.4023 32.2761C45.4257 34.9001 45.4609 37.5242 45.4844 40.16C45.4844 40.3482 45.5665 40.5718 45.3554 40.7718C45.2147 40.5953 45.0974 40.4424 44.9919 40.2776C43.1744 37.6301 41.3569 34.9943 39.5277 32.3467C39.2932 32.0055 39.0704 31.6642 38.8124 31.3465C38.5779 31.0523 38.2613 30.9347 37.8743 31.0406C37.4991 31.1465 37.2998 31.4171 37.2177 31.7937C37.1942 31.8878 37.1942 31.9937 37.1942 32.0878C37.1942 35.9239 37.1942 39.7716 37.1942 43.6077C37.1942 43.7606 37.2177 43.9254 37.2763 44.0666C37.417 44.4667 37.7102 44.6549 38.1323 44.6549C38.5427 44.6432 38.8476 44.4431 38.9531 44.0313C39.0117 43.8077 39.0235 43.5724 39.0235 43.337C39.0235 40.7836 39.0235 38.2419 39.0352 35.6885C39.0235 35.4885 38.9648 35.2649 39.1173 34.9825ZM30.745 37.8183C30.745 39.654 30.745 41.5014 30.745 43.337C30.745 43.5724 30.7568 43.8077 30.8154 44.0313C30.9327 44.4314 31.2258 44.6432 31.6479 44.6432C32.0583 44.6432 32.3515 44.4431 32.5039 44.0548C32.586 43.843 32.5743 43.6312 32.5743 43.4194C32.5743 39.6775 32.5743 35.9356 32.5743 32.1937C32.5743 31.9819 32.586 31.7701 32.5039 31.5583C32.3398 31.17 32.0583 30.9582 31.6479 30.97C31.2375 30.9817 30.9327 31.1935 30.8154 31.5936C30.7568 31.8172 30.745 32.0525 30.745 32.2879C30.745 34.1353 30.745 35.9827 30.745 37.8183Z" fill="#D94A54"/>
<path d="M19.347 0.0117188C20.1678 0.89424 20.6837 1.9768 21.2348 3.02405C21.4459 3.42413 21.2231 3.81244 20.8596 4.02424C20.4727 4.23605 20.0271 4.24781 19.7457 3.8595C19.1476 3.03582 18.62 2.16507 18.1861 1.24725C17.9047 0.647134 18.3151 0.305892 18.7607 0.0117188C18.96 0.0117188 19.1476 0.0117188 19.347 0.0117188Z" fill="#FAF3B0"/>
<path d="M41.2739 0.0117713C42.0478 0.564819 42.1181 0.894294 41.6256 1.71798C41.2387 2.3534 40.8752 3.00058 40.4765 3.62423C40.1482 4.14197 39.6205 4.28318 39.1749 4.02431C38.7411 3.76543 38.6121 3.22415 38.9404 2.69464C39.5033 1.78858 39.9137 0.77662 40.6876 0C40.8869 0.011767 41.0745 0.0117713 41.2739 0.0117713Z" fill="#FAF3B0"/>
<path d="M29.3145 7.86051C30.5692 7.5428 31.6011 7.97818 32.1991 9.14311C32.8088 10.3316 33.3951 11.52 33.958 12.7203C34.3918 13.6263 35.0602 14.1441 36.0686 14.2853C37.3233 14.45 38.5779 14.6618 39.8326 14.8265C40.8879 14.9677 41.6853 15.4502 42.037 16.4857C42.3888 17.5212 42.0605 18.4037 41.2866 19.145C40.3602 20.0393 39.4456 20.9571 38.5193 21.8514C37.8157 22.5339 37.5343 23.3223 37.7219 24.2989C37.9447 25.4756 38.1206 26.6523 38.32 27.829C37.7219 27.8408 37.1122 27.8643 36.5142 27.8643C32.4453 27.8643 28.3648 27.8525 24.2959 27.8408C24.3194 27.7113 24.3311 27.5701 24.3663 27.4407C24.6711 26.2875 25.1402 25.1814 25.3629 24.0048C25.5271 23.0987 25.5506 22.2162 25.0933 21.3807C24.8587 20.9689 24.7415 20.51 24.6242 20.0511C24.4014 19.2038 24.6125 18.4508 25.1519 17.8036C25.5857 17.2976 26.0548 16.8269 26.5824 16.4268C27.0749 16.0503 27.4267 15.5679 27.626 14.9677C28.0364 13.7558 28.1185 12.4849 28.2709 11.2141C28.3999 10.0374 28.5289 8.84893 29.3145 7.86051Z" fill="#F3DC45"/>
<path d="M19.9795 35.2187C19.616 36.4071 19.2408 37.5956 18.8773 38.7841C18.373 40.4079 17.8688 42.0318 17.3646 43.6674C17.1418 44.3734 16.7197 44.7028 16.11 44.6675C15.5237 44.6322 15.1484 44.2557 15.0077 43.5615C14.269 39.8313 13.5303 36.113 12.8033 32.3829C12.7095 31.8769 12.686 31.3944 13.2254 31.1003C13.8 30.7943 14.398 31.1356 14.5504 31.8769C14.9491 33.8302 15.3243 35.7953 15.7113 37.7486C15.9106 38.7252 16.0982 39.7019 16.3914 40.6903C16.8252 39.2783 17.2708 37.8662 17.7047 36.4542C18.1737 34.9245 18.6545 33.3948 19.1118 31.8533C19.2525 31.3827 19.4987 31.0179 20.0264 31.0061C20.5892 30.9944 20.8355 31.3827 20.9879 31.8769C21.8322 34.6656 22.6999 37.4544 23.5558 40.2314C23.6028 40.3726 23.6497 40.5256 23.7552 40.8315C24.0601 39.3018 24.3415 37.9369 24.6112 36.5719C24.916 35.0539 25.2092 33.536 25.5141 32.0181C25.6665 31.2532 26.0652 30.9238 26.6397 31.0532C27.2143 31.1826 27.4371 31.6415 27.2847 32.4064C26.7335 35.2069 26.1707 38.0075 25.6079 40.8198C25.432 41.7258 25.2561 42.6201 25.0685 43.5262C24.9278 44.2557 24.5408 44.644 23.9428 44.6793C23.3331 44.7146 22.9227 44.3851 22.6999 43.6674C21.8556 40.961 21.0231 38.2428 20.1905 35.5364C20.1671 35.4423 20.1319 35.3599 20.0967 35.2658C20.0733 35.2305 20.0264 35.2187 19.9795 35.2187Z" fill="#F8F2F6"/>
<path d="M29.3143 7.86133C28.5287 8.84975 28.4115 10.0382 28.259 11.2267C28.1066 12.4857 28.0128 13.7566 27.6141 14.9803C27.4148 15.5804 27.0747 16.0629 26.5705 16.4394C26.0311 16.8395 25.5621 17.3102 25.14 17.8162C24.5888 18.4634 24.3895 19.2164 24.6123 20.0637C24.7296 20.5226 24.8585 20.9697 25.0813 21.3933C25.5504 22.2288 25.5269 23.1231 25.351 24.0174C25.1282 25.1941 24.6592 26.3001 24.3543 27.4533C24.3191 27.5827 24.3074 27.7239 24.284 27.8534C23.4163 27.9004 22.5486 27.9004 21.6808 27.8534C21.8919 26.6179 22.0912 25.3823 22.3023 24.1586C22.4547 23.276 22.1733 22.5465 21.5519 21.9228C20.6255 21.0168 19.7226 20.1107 18.7846 19.2164C17.9872 18.4516 17.5885 17.5691 17.9755 16.4747C18.3507 15.4275 19.1481 14.945 20.2386 14.8156C21.5519 14.6626 22.8652 14.4508 24.1667 14.239C25.011 14.0978 25.6207 13.6036 25.9959 12.8388C26.5822 11.6268 27.1802 10.4148 27.7783 9.21453C28.1066 8.55558 28.5639 8.03783 29.3143 7.86133Z" fill="#E9B14D"/>
<path d="M39.1164 34.9832C38.964 35.2656 39.0226 35.4774 39.0226 35.6892C39.0226 38.2427 39.0226 40.7843 39.0109 43.3378C39.0109 43.5731 38.9991 43.8084 38.9405 44.032C38.8233 44.4321 38.5301 44.6439 38.1197 44.6557C37.7093 44.6674 37.4044 44.4674 37.2637 44.0673C37.2168 43.9261 37.1816 43.7614 37.1816 43.6084C37.1816 39.7724 37.1816 35.9246 37.1816 32.0886C37.1816 31.9944 37.1816 31.8885 37.2051 31.7944C37.2872 31.4178 37.4865 31.159 37.8617 31.0413C38.2487 30.9354 38.5653 31.0531 38.7998 31.3472C39.0578 31.665 39.2806 32.018 39.5151 32.3474C41.3326 34.995 43.1501 37.6308 44.9793 40.2784C45.0848 40.4313 45.2021 40.5843 45.3428 40.7726C45.5421 40.5725 45.4718 40.349 45.4718 40.1607C45.4483 37.5367 45.4132 34.9126 45.3897 32.2768C45.3897 32.0768 45.3662 31.8768 45.4131 31.6885C45.5304 31.2413 45.8353 30.9707 46.2926 30.9707C46.7499 30.9825 47.0665 31.2296 47.1603 31.7003C47.1955 31.8532 47.1955 32.0062 47.1955 32.1709C47.2306 35.8305 47.2658 39.5017 47.2893 43.1613C47.2893 43.1966 47.2893 43.2436 47.2893 43.2789C47.2893 43.832 47.1017 44.3027 46.5271 44.4674C45.9643 44.6321 45.5656 44.3497 45.2373 43.8908C43.408 41.2315 41.5788 38.5722 39.7496 35.9128C39.562 35.6186 39.3626 35.3362 39.1164 34.9832Z" fill="#F7F1F5"/>
<path d="M45.0146 27.8992C45.0264 27.5462 45.0498 27.1932 45.0498 26.8402C45.0616 23.3925 45.0616 19.9448 45.0733 16.4971C45.7182 16.9913 46.07 17.7326 46.5273 18.368C48.6027 21.2745 50.6548 24.2044 52.7185 27.1344C52.7771 27.2168 52.824 27.2991 52.8827 27.3815C53.1406 27.7345 53.082 27.8992 52.6247 27.8992C51.6632 27.8875 50.7134 27.8992 49.7519 27.8992C48.1806 27.8875 46.5976 27.8875 45.0146 27.8992Z" fill="#C32430"/>
<path d="M14.9622 16.4971C14.9739 20.0389 14.9739 23.5925 14.9856 27.1344C14.9856 27.3933 15.0091 27.6404 15.0208 27.8992C12.5466 27.8992 10.0608 27.8992 7.58662 27.8875C7.39901 27.8875 7.15277 27.9698 7.03551 27.7933C6.8948 27.5698 7.14104 27.405 7.24657 27.2403C9.69727 23.7573 12.1597 20.2743 14.6104 16.7912C14.7042 16.65 14.7863 16.5324 14.9622 16.4971Z" fill="#C32430"/>
<path d="M30.7451 37.8185C30.7451 35.9829 30.7451 34.1355 30.7451 32.2998C30.7451 32.0645 30.7568 31.8291 30.8155 31.6056C30.9327 31.2055 31.2376 30.9937 31.648 30.9819C32.0584 30.9701 32.3516 31.1819 32.504 31.5703C32.5861 31.7821 32.5743 31.9939 32.5743 32.2057C32.5743 35.9476 32.5743 39.6895 32.5743 43.4313C32.5743 43.6431 32.5861 43.8549 32.504 44.0668C32.3516 44.4551 32.0584 44.6551 31.648 44.6551C31.2376 44.6551 30.9327 44.4433 30.8155 44.0432C30.7568 43.8196 30.7451 43.5843 30.7451 43.349C30.7451 41.5016 30.7451 39.6542 30.7451 37.8185Z" fill="#F7EFF2"/>
<path d="M17.2487 6.69518C17.2721 7.10703 17.0728 7.37766 16.7327 7.55417C16.3927 7.73067 16.0644 7.67184 15.8064 7.4365C14.7042 6.35394 13.6137 5.27137 12.5466 4.15351C12.1831 3.77697 12.2535 3.31806 12.617 2.94151C12.957 2.5885 13.4612 2.52967 13.8247 2.88268C14.9152 3.94171 15.9823 5.03604 17.0611 6.10683C17.2135 6.28334 17.2604 6.48338 17.2487 6.69518Z" fill="#FAF3AF"/>
<path d="M47.7236 3.56521C47.7001 3.90645 47.5477 4.13003 47.3483 4.33006C46.3634 5.30672 45.4019 6.29515 44.4052 7.2718C43.9244 7.75425 43.4319 7.76602 43.0215 7.35417C42.6698 6.9894 42.6932 6.41282 43.1036 5.98921C44.1003 4.97725 45.1087 3.96529 46.1171 2.9651C46.3986 2.68269 46.7386 2.56502 47.1256 2.74152C47.5008 2.90626 47.6884 3.2122 47.7236 3.56521Z" fill="#FAF3AF"/>
<path d="M50.3034 9.37864C50.3268 9.76695 50.0806 10.0141 49.7757 10.2023C49.0956 10.6259 48.4155 11.0495 47.7237 11.4378C47.1374 11.7791 46.6215 11.6849 46.34 11.2143C46.0469 10.7436 46.1876 10.2729 46.7856 9.89639C47.4774 9.46101 48.1693 9.02564 48.8845 8.62557C49.5998 8.22549 50.3151 8.60203 50.3034 9.37864Z" fill="#FAF3B0"/>
<path d="M10.7053 8.47266C10.7639 8.48442 10.9281 8.49619 11.057 8.57856C11.8427 9.04924 12.64 9.49638 13.4022 10.0024C13.883 10.3201 13.9533 10.8025 13.6954 11.2261C13.4374 11.6497 12.9684 11.7792 12.4759 11.4968C11.6902 11.0614 10.9281 10.6025 10.1659 10.12C9.75548 9.86115 9.63823 9.46108 9.79066 8.9904C9.91965 8.62563 10.2245 8.48442 10.7053 8.47266Z" fill="#FAF3B0"/>
</g>
<defs>
<clipPath id="clip0_1297_399">
<rect width="60" height="48" fill="white"/>
</clipPath>
</defs>
</svg>
