<svg width="100" height="100" viewBox="0 0 100 100" fill="none" xmlns="http://www.w3.org/2000/svg">
<path d="M78.0367 50.5188C78.0367 62.6559 78.0156 74.7718 78.0367 86.9089C78.0367 88.4287 77.5304 89.5052 76.1171 90.0962C69.789 90.0962 63.4609 90.0962 57.1328 90.0962C57.1328 77.1148 57.1328 64.1334 57.1328 51.152C57.1328 50.941 57.1539 50.7299 57.1539 50.5188C64.1148 50.5188 71.0757 50.5188 78.0367 50.5188Z" fill="#2275FE"/>
<path d="M22.9811 90.0962C21.5257 89.4418 21.0616 88.302 21.0827 86.74C21.1249 74.6663 21.1038 62.5925 21.1038 50.5188C28.0436 50.5188 35.0046 50.5188 41.9444 50.5188C41.9444 50.6243 41.9655 50.7299 41.9655 50.8354C41.9655 63.9223 41.9655 77.0093 41.9655 90.0962C35.6374 90.0962 29.3093 90.0962 22.9811 90.0962Z" fill="#199AFE"/>
<path d="M41.9664 90.0973C41.9664 77.0103 41.9664 63.9234 41.9664 50.8365C41.9664 50.7309 41.9453 50.6254 41.9453 50.5199C41.9453 45.4539 41.9453 40.388 41.9453 35.3221H41.9664C44.4976 35.3221 47.05 35.301 49.5812 35.301L49.5601 35.3432C49.5601 53.6016 49.5601 71.86 49.5601 90.1184C47.0289 90.0973 44.4976 90.0973 41.9664 90.0973Z" fill="#FDEABD"/>
<path d="M49.5605 90.0964C49.5605 71.838 49.5605 53.5797 49.5605 35.3213C52.0918 35.3213 54.6441 35.3213 57.1754 35.3213C57.1754 40.3872 57.1754 45.4531 57.1754 50.519C57.1754 50.7301 57.1543 50.9412 57.1543 51.1522C57.1543 64.1336 57.1543 77.115 57.1543 90.0964C54.623 90.0964 52.0918 90.0964 49.5605 90.0964Z" fill="#FED77C"/>
<path d="M57.1539 35.3005C54.6226 35.3005 52.0703 35.3005 49.5391 35.3005L49.5602 35.2583C49.5602 32.2821 49.5602 29.3269 49.5391 26.3507C49.6023 26.2241 49.6656 26.1185 49.6867 25.9919C50.5305 23.0157 51.3531 20.0395 52.2391 17.0632C53.357 13.2849 55.825 10.7731 59.5375 9.48548C60.107 9.29551 60.7187 9.29551 61.2461 9C62.3007 9 63.3554 9 64.4101 9C65.0851 9.18997 65.7601 9.33773 66.414 9.56991C70.6328 11.0686 73.607 14.9524 73.9023 19.3851C74.2187 24.1133 71.8351 28.4193 67.7218 30.4035C64.6421 31.881 61.5203 33.2741 58.4195 34.7095C58.0398 34.8783 57.6601 35.0894 57.3015 35.2583C57.2383 35.3005 57.1961 35.3005 57.1539 35.3005ZM53.6523 31.2056C53.7578 31.1844 53.8633 31.1844 53.9476 31.1422C57.7445 29.3903 61.5414 27.6594 65.3382 25.8864C68.0171 24.641 69.346 21.6226 68.5867 18.7308C67.8484 15.9656 65.6336 14.1714 62.8914 14.1292C60.2336 14.087 57.9133 15.8601 57.1328 18.5619C56.2258 21.707 55.3187 24.8732 54.4539 28.0394C54.1797 29.0737 53.7156 30.0868 53.6523 31.2056C53.6523 31.2267 53.6312 31.2478 53.6101 31.2689C53.6312 31.2478 53.6523 31.2267 53.6523 31.2056Z" fill="#FEA434"/>
<path d="M49.5585 26.3937C49.5585 29.3699 49.5585 32.325 49.5796 35.3013C47.0483 35.3013 44.496 35.3224 41.9647 35.3224C39.2436 34.0559 36.5226 32.7894 33.8226 31.5229C32.3038 30.8053 30.7007 30.2353 29.3929 29.1377C24.4991 25.1694 23.8031 17.7605 27.853 12.9479C29.5405 10.9427 31.671 9.67621 34.2655 9.21183C34.4132 9.19072 34.5819 9.21183 34.6874 9.04297C35.6366 9.04297 36.5858 9.04297 37.5351 9.04297C37.5983 9.19072 37.746 9.16962 37.8726 9.19072C42.3866 10.035 45.403 12.6313 46.7952 17.0218C47.1749 18.2038 47.4702 19.407 47.8077 20.589C48.3983 22.5309 48.8202 24.494 49.5585 26.3937ZM45.4241 31.2063C45.4241 31.2274 45.4452 31.2485 45.4663 31.2696H45.5085C45.4874 31.2485 45.4663 31.2274 45.4241 31.2063C45.4241 31.0797 45.4663 30.9319 45.4241 30.8053C44.2007 26.4781 43.0405 22.1299 41.6905 17.845C40.8679 15.2276 37.8093 13.6656 35.1515 14.1722C32.3671 14.7421 30.7007 16.6207 30.321 19.8502C30.0468 22.1932 31.1437 24.684 33.6538 25.866C35.5733 26.7736 37.514 27.6602 39.4546 28.5256C41.4585 29.4332 43.378 30.4464 45.4241 31.2063Z" fill="#FEC43C"/>
<path d="M41.9242 35.3221C41.9242 40.388 41.9242 45.4539 41.9242 50.5199C34.9843 50.5199 28.0234 50.5199 21.0836 50.5199C20.3242 50.4987 19.5648 50.4987 18.8055 50.4776C17.0125 50.4354 16 49.4222 16 47.6703C16 44.4197 16 41.1901 16 37.9395C16 36.3564 17.0336 35.301 18.6156 35.301C26.3992 35.301 34.1617 35.301 41.9242 35.3221Z" fill="#2275FE"/>
<path d="M57.1543 35.3003C57.1965 35.3003 57.2387 35.2792 57.2809 35.2581C64.8957 35.2581 72.5105 35.2792 80.1253 35.2581C81.0324 35.2581 81.855 35.3847 82.4667 36.1235C82.8886 36.6301 83.0995 37.2 83.0995 37.8543C83.0785 41.1683 83.0995 44.5033 83.0995 47.8173C83.0995 49.3793 82.0449 50.4347 80.4839 50.4769C79.6613 50.498 78.8597 50.498 78.0371 50.498C71.0761 50.498 64.1363 50.498 57.1754 50.498C57.1754 45.4532 57.1754 40.3873 57.1543 35.3003Z" fill="#2A51FE"/>
<path d="M53.6518 31.2068C53.6306 31.228 53.6306 31.2492 53.6094 31.2704C53.6306 31.2492 53.6518 31.228 53.6518 31.2068C53.6518 31.2068 53.673 31.2068 53.6518 31.2068Z" fill="#FEFEFD"/>
<path d="M45.4469 31.2068C45.468 31.2279 45.4891 31.249 45.5312 31.2701C45.5102 31.2701 45.4891 31.2701 45.4891 31.2701C45.4469 31.249 45.4469 31.2279 45.4469 31.2068C45.4469 31.2068 45.4258 31.2068 45.4469 31.2068Z" fill="#FEFEFD"/>
</svg>
