<svg width="100" height="100" viewBox="0 0 100 100" fill="none" xmlns="http://www.w3.org/2000/svg">
<path d="M15 52.7329C15 52.3684 15 52.0038 15 51.6392C15.2186 50.5455 15.2186 49.4518 15 48.3581C15 47.9935 15 47.629 15 47.2644C15.1639 47.1915 15.1275 47.0457 15.1457 46.9181C15.2732 45.6968 15.4372 44.4754 15.674 43.2724C18.3882 28.9083 30.3198 17.4791 44.8017 15.3828C45.6214 15.2734 46.4593 15.2917 47.2426 15C48.1534 15 49.0642 15 49.9751 15C49.9751 25.9918 49.9751 36.9653 49.9751 47.9571C49.9751 48.1211 49.9933 48.267 49.9933 48.431C49.9751 48.4857 49.9751 48.5222 49.9568 48.5769C48.9003 49.6159 47.862 50.6549 46.8054 51.6939C45.6943 52.7876 44.9656 52.7876 43.8544 51.6757C41.5045 49.3242 39.1546 46.9727 36.8048 44.6213C35.9668 43.7828 35.1471 43.7828 34.2909 44.5848C32.9794 45.8244 31.6678 47.0457 30.3745 48.3034C29.5365 49.1237 29.5183 49.9804 30.338 50.8007C34.9649 55.449 39.6101 60.079 44.237 64.7091C45.0385 65.5111 45.8946 65.4929 46.6961 64.7091C47.8073 63.6154 48.8821 62.5216 49.9751 61.4097C49.9386 61.4279 49.9386 61.4644 49.9568 61.5008C49.9568 69.3209 49.9568 77.1409 49.9568 84.9609C47.2062 85.0156 44.5102 84.6692 41.8506 84.0312C27.8788 80.6407 17.441 69.2115 15.3643 55.0297C15.255 54.2824 15.3097 53.4803 15 52.7329Z" fill="#00DE76"/>
<path d="M49.957 84.9791C49.957 77.1591 49.957 69.3391 49.957 61.5191C50.1392 61.3186 50.3396 61.118 50.5217 60.9358C56.8427 54.6105 63.1638 48.2852 69.4848 41.9599C70.5595 40.8844 70.5595 40.1188 69.503 39.0616C68.3189 37.8767 67.1167 36.6737 65.9326 35.4888C64.8032 34.3769 64.0928 34.3586 62.9816 35.4706C59.8666 38.5877 56.7517 41.7229 53.6185 44.84C52.4162 46.0431 51.1957 47.2462 49.9752 48.431C49.9752 48.267 49.957 48.1211 49.957 47.9571C49.957 36.9653 49.957 25.9918 49.957 15C50.8678 15 51.7786 15 52.6895 15C52.7623 15.1641 52.908 15.1276 53.0356 15.1276C54.2378 15.1823 55.4219 15.3646 56.5695 15.6015C65.1129 17.3332 72.1261 21.5987 77.5363 28.4526C81.3253 33.2649 83.657 38.697 84.5678 44.7671C84.6953 45.6056 84.6588 46.4624 84.9503 47.2826C84.9503 49.1602 84.9503 51.0195 84.9503 52.897C84.8046 52.9335 84.8228 53.0611 84.8046 53.1704C84.6953 54.7563 84.4585 56.324 84.0759 57.8734C81.2524 69.1386 74.5671 77.2502 64.0199 82.0808C59.5752 84.1042 54.8754 85.0703 49.957 84.9791Z" fill="#00AA5E"/>
<path d="M15 48.3582C15.2186 49.4519 15.2186 50.5456 15 51.6393C15 50.5456 15 49.4519 15 48.3582Z" fill="#2EE48E"/>
<path d="M49.9931 48.4306C51.2136 47.2275 52.4158 46.0426 53.6363 44.8396C56.7513 41.7225 59.8845 38.5872 62.9994 35.4701C64.1106 34.3582 64.8393 34.3582 65.9504 35.4883C67.1345 36.6732 68.3368 37.8763 69.5208 39.0611C70.5773 40.1184 70.5773 40.884 69.5026 41.9595C63.1816 48.2847 56.8606 54.61 50.5396 60.9353C50.3392 61.1358 50.157 61.3363 49.9749 61.5186C49.9566 61.4822 49.9566 61.4457 49.9931 61.4275C49.9931 57.1438 49.9749 52.8601 49.9749 48.5764C49.9749 48.5399 49.9749 48.4852 49.9931 48.4306Z" fill="#DCE9EE"/>
<path d="M49.9568 48.5767C49.9568 52.8604 49.975 57.1441 49.975 61.4278C48.882 62.5215 47.8073 63.6334 46.6961 64.7272C45.8946 65.5292 45.0384 65.5292 44.2369 64.7272C39.5918 60.0971 34.9649 55.4489 30.338 50.8188C29.5182 49.9985 29.5364 49.1418 30.3744 48.3215C31.6677 47.082 32.9793 45.8425 34.2909 44.6029C35.147 43.8009 35.9668 43.8009 36.8047 44.6394C39.1546 46.9908 41.5045 49.3423 43.8544 51.6938C44.9655 52.8057 45.6942 52.824 46.8054 51.712C47.8619 50.6548 48.9002 49.6157 49.9568 48.5767Z" fill="#FEF4F4"/>
</svg>
