<svg width="404" height="221" viewBox="0 0 404 221" fill="none" xmlns="http://www.w3.org/2000/svg">
<g clip-path="url(#clip0_685_469)">
<path d="M403.999 75.4777C403.999 117.761 403.999 160.113 403.999 202.465C403.485 202.808 403.558 203.356 403.412 203.836C401.431 213.567 391.012 221.996 380.447 221.996C341.341 221.996 302.234 221.996 263.128 221.996C263.128 207.194 263.201 192.46 263.201 177.657C264.962 181.837 268.191 183.619 273.033 183.482C281.911 183.345 290.789 183.482 299.74 183.413C305.096 183.413 308.764 180.193 308.764 175.738C308.764 171.215 305.022 168.063 299.74 168.063C290.862 168.063 281.911 168.2 273.033 167.994C268.191 167.926 264.962 169.707 263.201 173.819C263.201 164.773 263.201 155.796 263.201 146.75C265.036 151.067 268.411 152.78 273.327 152.575C277.875 152.369 282.498 152.506 287.047 152.506C311.919 152.506 336.718 152.506 361.591 152.506C364.966 152.506 367.754 151.615 369.588 148.874C371.276 146.338 371.422 143.734 369.882 141.062C368.121 138.183 365.406 137.018 361.884 137.018C332.243 137.018 302.675 137.087 273.033 136.95C268.191 136.95 264.962 138.663 263.201 142.775C263.201 133.592 263.201 124.409 263.201 115.225C265.036 119.543 268.411 121.256 273.327 121.051C277.875 120.845 282.498 120.982 287.047 120.982C311.919 120.982 336.718 120.982 361.591 120.982C364.966 120.982 367.754 120.091 369.588 117.35C371.276 114.814 371.422 112.21 369.882 109.537C368.121 106.659 365.406 105.494 361.884 105.494C332.243 105.494 302.675 105.563 273.033 105.426C268.191 105.426 264.962 107.139 263.201 111.251C263.128 99.2578 263.128 87.1964 263.055 75.2035C264.155 75.2035 265.256 75.135 266.356 75.135C312.286 75.4777 358.142 75.4777 403.999 75.4777ZM348.091 183.893C352.86 183.893 357.629 183.962 362.398 183.893C367.314 183.825 370.909 180.604 370.982 176.286C371.056 171.9 367.387 168.542 362.324 168.474C352.86 168.405 343.468 168.405 334.004 168.474C328.941 168.474 325.273 171.832 325.273 176.218C325.273 180.604 328.941 183.825 334.077 183.893C338.773 183.893 343.468 183.893 348.091 183.893Z" fill="#CED0F3"/>
<path d="M263.201 177.586C263.201 192.389 263.128 207.123 263.128 221.925C224.095 221.925 185.062 222.131 146.029 221.857C136.344 221.788 129.007 217.06 124.605 208.63C123.578 206.643 123.358 204.382 122.184 202.463C122.257 160.111 122.257 117.759 122.257 75.4754C168.113 75.4754 213.97 75.4754 259.899 75.4754C261 75.4754 262.1 75.4069 263.201 75.4069L263.128 75.5439C263.201 87.5368 263.201 99.5982 263.274 111.591C263.274 112.825 263.274 114.127 263.274 115.36C263.274 124.543 263.274 133.726 263.274 142.91C263.274 144.143 263.274 145.445 263.274 146.679C263.274 155.725 263.274 164.702 263.274 173.748C263.201 175.05 263.201 176.284 263.201 177.586ZM194.38 98.159C183.081 97.8849 172.809 107 172.369 117.69C172.075 125.64 175.67 131.739 182.347 136.331C169.067 140.785 160.409 149.351 156.961 162.098C154.76 170.185 156.007 178.408 156.007 186.632C156.007 189.236 158.502 191.018 161.51 191.018C172.515 191.018 183.448 190.95 194.453 190.95C205.532 190.95 216.611 191.018 227.69 191.018C230.771 191.018 232.899 188.894 232.899 185.878C232.972 180.67 232.899 175.462 232.899 170.185C232.899 154.971 222.407 141.333 206.926 136.468C207.513 136.057 208.027 135.577 208.614 135.166C216.097 129.615 218.959 119.815 215.584 111.591C212.135 103.162 203.404 97.6793 194.38 98.159Z" fill="#E5E6F4"/>
<path d="M263.129 36.9626C264.009 36.9626 264.963 36.894 265.844 36.894C303.482 36.894 341.048 36.894 378.687 36.894C391.233 36.894 400.551 43.8842 403.486 55.3973C403.559 55.6029 403.779 55.74 404 55.877C404 62.3875 404 68.8979 404 75.4083C358.143 75.4083 312.287 75.4083 266.431 75.4083C265.33 75.4083 264.229 75.4768 263.129 75.4768L263.202 75.3397C263.129 62.593 263.129 49.7778 263.129 36.9626Z" fill="#FEB201"/>
<path d="M263.128 36.9626C263.128 49.7778 263.128 62.5245 263.128 75.3397C262.027 75.3397 260.926 75.4083 259.826 75.4083C213.97 75.4083 168.113 75.4083 122.184 75.4083C122.184 68.8979 122.184 62.3875 122.184 55.877C123.064 55.3288 122.917 54.3694 123.137 53.6155C126.219 43.8156 135.61 36.9626 146.542 36.894C185.209 36.894 223.728 36.894 262.321 36.894C262.614 36.894 262.834 36.9626 263.128 36.9626Z" fill="#FEC90F"/>
<path d="M263.201 115.361C263.201 114.128 263.201 112.826 263.201 111.592C264.962 107.412 268.19 105.698 273.033 105.767C302.674 105.835 332.242 105.835 361.884 105.835C365.406 105.835 368.12 107 369.881 109.879C371.495 112.483 371.349 115.156 369.588 117.691C367.754 120.364 364.966 121.323 361.591 121.323C336.718 121.255 311.919 121.323 287.046 121.323C282.498 121.323 277.875 121.186 273.326 121.392C268.41 121.46 265.035 119.679 263.201 115.361Z" fill="#2F4247"/>
<path d="M263.201 146.748C263.201 145.515 263.201 144.213 263.201 142.979C264.962 138.799 268.19 137.085 273.033 137.154C302.674 137.222 332.242 137.222 361.884 137.222C365.406 137.222 368.12 138.388 369.881 141.266C371.495 143.87 371.349 146.543 369.588 149.078C367.754 151.751 364.966 152.71 361.591 152.71C336.718 152.642 311.919 152.71 287.046 152.71C282.498 152.71 277.875 152.573 273.326 152.779C268.41 152.779 265.035 150.997 263.201 146.748Z" fill="#2F4247"/>
<path d="M263.201 177.588C263.201 176.354 263.201 175.052 263.201 173.819C264.962 169.638 268.19 167.857 273.033 167.994C281.911 168.131 290.788 167.994 299.739 168.062C305.095 168.062 308.764 171.283 308.764 175.738C308.764 180.261 305.022 183.413 299.739 183.413C290.862 183.413 281.911 183.276 273.033 183.482C268.264 183.55 264.962 181.7 263.201 177.588Z" fill="#304248"/>
<path d="M348.09 183.893C343.394 183.893 338.772 183.893 334.076 183.893C329.013 183.825 325.271 180.604 325.271 176.218C325.271 171.832 328.94 168.542 334.003 168.474C343.467 168.405 352.859 168.405 362.323 168.474C367.386 168.474 371.054 171.832 370.981 176.286C370.908 180.604 367.313 183.825 362.397 183.893C357.628 183.962 352.859 183.893 348.09 183.893Z" fill="#304248"/>
<path d="M206.925 136.468C202.963 138.455 198.928 139.895 194.379 139.758V139.62C194.379 125.777 194.379 112.003 194.379 98.1594C203.477 97.6797 212.134 103.162 215.583 111.591C218.958 119.884 216.023 129.615 208.613 135.166C208.026 135.646 207.512 136.057 206.925 136.468Z" fill="#B65E4A"/>
<path d="M194.379 98.16C194.379 112.003 194.379 125.778 194.379 139.621C189.977 139.827 186.088 138.25 182.347 136.4C175.67 131.74 172.075 125.641 172.368 117.76C172.808 107 183.08 97.8858 194.379 98.16Z" fill="#C46D5A"/>
<ellipse cx="197.073" cy="185.534" rx="49.2683" ry="17.9472" fill="#E5E6F4"/>
<path d="M281.815 39.5836C281.815 81.867 281.815 124.219 281.815 166.571C281.302 166.914 281.375 167.462 281.228 167.942C279.247 177.673 268.829 186.102 258.263 186.102C219.157 186.102 180.051 186.102 140.944 186.102C140.944 171.3 141.018 156.565 141.018 141.763C142.779 145.943 146.007 147.725 150.849 147.588C159.727 147.451 168.605 147.588 177.556 147.519C182.912 147.519 186.581 144.298 186.581 139.844C186.581 135.321 182.839 132.169 177.556 132.169C168.678 132.169 159.727 132.306 150.849 132.1C146.007 132.031 142.779 133.813 141.018 137.925C141.018 128.879 141.018 119.902 141.018 110.856C142.852 115.173 146.227 116.886 151.143 116.681C155.692 116.475 160.314 116.612 164.863 116.612C189.736 116.612 214.535 116.612 239.407 116.612C242.782 116.612 245.57 115.721 247.405 112.98C249.092 110.444 249.239 107.84 247.698 105.167C245.937 102.289 243.222 101.124 239.701 101.124C210.059 101.124 180.491 101.193 150.849 101.056C146.007 101.056 142.779 102.769 141.018 106.881C141.018 97.6976 141.018 88.5145 141.018 79.3314C142.852 83.6488 146.227 85.3621 151.143 85.1565C155.692 84.9509 160.314 85.088 164.863 85.088C189.736 85.088 214.535 85.088 239.407 85.088C242.782 85.088 245.57 84.1971 247.405 81.4559C249.092 78.9202 249.239 76.3161 247.698 73.6434C245.937 70.7651 243.222 69.6001 239.701 69.6001C210.059 69.6001 180.491 69.6686 150.849 69.5315C146.007 69.5315 142.779 71.2448 141.018 75.3566C140.944 63.3638 140.944 51.3024 140.871 39.3095C141.972 39.3095 143.072 39.241 144.173 39.241C190.102 39.5836 235.959 39.5836 281.815 39.5836ZM225.907 147.999C230.676 147.999 235.445 148.068 240.214 147.999C245.13 147.931 248.725 144.71 248.799 140.392C248.872 136.006 245.203 132.648 240.141 132.58C230.676 132.511 221.285 132.511 211.82 132.58C206.757 132.58 203.089 135.938 203.089 140.324C203.089 144.71 206.757 147.931 211.893 147.999C216.589 147.999 221.285 147.999 225.907 147.999Z" fill="#CED0F3"/>
<path d="M141.017 141.692C141.017 156.495 140.944 171.229 140.944 186.031C101.911 186.031 62.8782 186.237 23.8453 185.963C14.1604 185.894 6.82342 181.166 2.42121 172.736C1.39403 170.749 1.17392 168.487 0 166.569C0.0733701 124.217 0.0733701 81.8647 0.0733701 39.5812C45.9297 39.5812 91.786 39.5812 137.716 39.5812C138.816 39.5812 139.917 39.5127 141.017 39.5127L140.944 39.6498C141.017 51.6426 141.017 63.704 141.091 75.6969C141.091 76.9304 141.091 78.2325 141.091 79.4661C141.091 88.6492 141.091 97.8323 141.091 107.015C141.091 108.249 141.091 109.551 141.091 110.785C141.091 119.831 141.091 128.808 141.091 137.854C141.017 139.156 141.017 140.39 141.017 141.692ZM72.1962 62.2649C60.8972 61.9908 50.6254 71.1053 50.1852 81.7961C49.8917 89.7457 53.4868 95.8449 60.1635 100.436C46.8835 104.891 38.2258 113.457 34.7774 126.204C32.5763 134.291 33.8236 142.514 33.8236 150.738C33.8236 153.342 36.3182 155.124 39.3264 155.124C50.3319 155.124 61.264 155.055 72.2696 155.055C83.3484 155.055 94.4273 155.124 105.506 155.124C108.588 155.124 110.716 152.999 110.716 149.984C110.789 144.776 110.716 139.567 110.716 134.291C110.716 119.077 100.224 105.439 84.7425 100.574C85.3294 100.162 85.843 99.6826 86.43 99.2714C93.9137 93.7205 96.7752 83.9206 93.4001 75.6969C89.9518 67.2676 81.2207 61.7852 72.1962 62.2649Z" fill="#E5E6F4"/>
<path d="M140.945 1.06853C141.826 1.06853 142.78 1 143.66 1C181.299 1 218.864 1 256.503 1C269.05 1 278.368 7.99013 281.302 19.5033C281.376 19.7089 281.596 19.8459 281.816 19.983C281.816 26.4934 281.816 33.0038 281.816 39.5142C235.96 39.5142 190.103 39.5142 144.247 39.5142C143.146 39.5142 142.046 39.5828 140.945 39.5828L141.019 39.4457C140.945 26.699 140.945 13.8838 140.945 1.06853Z" fill="#FEB201"/>
<path d="M140.944 1.06853C140.944 13.8838 140.944 26.6305 140.944 39.4457C139.843 39.4457 138.743 39.5142 137.642 39.5142C91.786 39.5142 45.9297 39.5142 0 39.5142C0 33.0038 0 26.4934 0 19.983C0.880441 19.4348 0.733701 18.4753 0.953812 17.7215C4.03536 7.9216 13.4267 1.06853 24.3589 1C63.0249 1 101.544 1 140.137 1C140.43 1 140.651 1.06853 140.944 1.06853Z" fill="#FEC90F"/>
<path d="M141.018 79.4671C141.018 78.2336 141.018 76.9315 141.018 75.6979C142.778 71.5176 146.007 69.8043 150.849 69.8728C180.491 69.9414 210.059 69.9414 239.7 69.9414C243.222 69.9414 245.937 71.1064 247.698 73.9847C249.312 76.5888 249.165 79.2615 247.404 81.7972C245.57 84.4699 242.782 85.4293 239.407 85.4293C214.534 85.3608 189.735 85.4293 164.863 85.4293C160.314 85.4293 155.692 85.2922 151.143 85.4978C146.227 85.5663 142.852 83.7845 141.018 79.4671Z" fill="#2F4247"/>
<path d="M141.018 110.854C141.018 109.621 141.018 108.319 141.018 107.085C142.778 102.905 146.007 101.191 150.849 101.26C180.491 101.328 210.059 101.328 239.7 101.328C243.222 101.328 245.937 102.493 247.698 105.372C249.312 107.976 249.165 110.649 247.404 113.184C245.57 115.857 242.782 116.816 239.407 116.816C214.534 116.748 189.735 116.816 164.863 116.816C160.314 116.816 155.692 116.679 151.143 116.885C146.227 116.885 142.852 115.103 141.018 110.854Z" fill="#2F4247"/>
<path d="M141.018 141.694C141.018 140.46 141.018 139.158 141.018 137.925C142.778 133.744 146.007 131.963 150.849 132.1C159.727 132.237 168.605 132.1 177.556 132.168C182.912 132.168 186.58 135.389 186.58 139.844C186.58 144.367 182.839 147.519 177.556 147.519C168.678 147.519 159.727 147.382 150.849 147.588C146.08 147.656 142.778 145.806 141.018 141.694Z" fill="#304248"/>
<path d="M225.906 147.999C221.21 147.999 216.588 147.999 211.892 147.999C206.83 147.93 203.088 144.71 203.088 140.324C203.088 135.938 206.756 132.648 211.819 132.58C221.284 132.511 230.675 132.511 240.14 132.58C245.202 132.58 248.871 135.938 248.797 140.392C248.724 144.71 245.129 147.93 240.213 147.999C235.444 148.068 230.675 147.999 225.906 147.999Z" fill="#304248"/>
<path d="M84.7425 100.576C100.224 105.51 110.642 119.079 110.715 134.293C110.715 139.501 110.715 144.709 110.715 149.986C110.715 153.002 108.588 155.126 105.506 155.126C94.4273 155.126 83.3484 155.058 72.2695 155.058C72.2695 137.993 72.2695 120.929 72.2695 103.865C76.7451 104.002 80.7805 102.563 84.7425 100.576Z" fill="#1B9CF6"/>
<path d="M72.1967 103.864C72.1967 120.928 72.1967 137.992 72.1967 155.056C61.1912 155.056 50.2591 155.124 39.2536 155.124C36.2454 155.124 33.7508 153.343 33.7508 150.739C33.7508 142.583 32.5769 134.291 34.7046 126.205C38.153 113.389 46.8107 104.892 60.0907 100.437C63.8325 102.287 67.7212 103.864 72.1234 103.658C72.1967 103.726 72.1967 103.864 72.1967 103.864Z" fill="#30C3FE"/>
<path d="M84.7416 100.574C80.7796 102.561 76.7443 104.001 72.1953 103.863V103.726C72.1953 89.8832 72.1953 76.1085 72.1953 62.2654C81.2932 61.7856 89.9509 67.2681 93.3993 75.6974C96.7743 83.9896 93.8395 93.7209 86.4291 99.2719C85.8421 99.7516 85.3286 100.163 84.7416 100.574Z" fill="#B65E4A"/>
<path d="M72.1957 62.2659C72.1957 76.1091 72.1957 89.8838 72.1957 103.727C67.7935 103.933 63.9048 102.356 60.163 100.506C53.4863 95.8459 49.8911 89.7467 50.1846 81.8657C50.6248 71.1064 60.8967 61.9918 72.1957 62.2659Z" fill="#C46D5A"/>
</g>
<defs>
<clipPath id="clip0_685_469">
<rect width="404" height="221" fill="white"/>
</clipPath>
</defs>
</svg>
