<svg width="100" height="100" viewBox="0 0 100 100" fill="none" xmlns="http://www.w3.org/2000/svg">
<path d="M92.9642 32.45C92.9642 46.1297 92.9642 59.7873 92.9642 73.467C92.8093 73.5776 92.8314 73.7547 92.7872 73.9097C92.1899 77.0529 89.0488 79.7756 85.8635 79.7756C74.0733 79.7756 62.2831 79.7756 50.4928 79.7756C50.4928 74.9943 50.515 70.2352 50.515 65.4539C51.0459 66.8042 52.0192 67.3797 53.4791 67.3354C56.1557 67.2912 58.8322 67.3355 61.5309 67.3133C63.1457 67.3133 64.2518 66.273 64.2518 64.8341C64.2518 63.3732 63.1236 62.355 61.5309 62.355C58.8544 62.355 56.1557 62.3993 53.4791 62.3328C52.0192 62.3107 51.0459 62.8862 50.515 64.2144C50.515 61.2925 50.515 58.3927 50.515 55.4709C51.068 56.8654 52.0855 57.4188 53.5676 57.3524C54.939 57.286 56.3326 57.3302 57.7041 57.3302C65.203 57.3302 72.6797 57.3302 80.1785 57.3302C81.1961 57.3302 82.0366 57.0425 82.5897 56.1571C83.0984 55.3381 83.1427 54.4969 82.6781 53.6336C82.1472 52.7039 81.3288 52.3276 80.267 52.3276C71.3303 52.3276 62.4158 52.3498 53.4791 52.3055C52.0192 52.3055 51.0459 52.8589 50.515 54.187C50.515 51.2209 50.515 48.2547 50.515 45.2886C51.068 46.6831 52.0855 47.2365 53.5676 47.1701C54.939 47.1037 56.3326 47.148 57.7041 47.148C65.203 47.148 72.6797 47.148 80.1785 47.148C81.1961 47.148 82.0366 46.8602 82.5897 45.9748C83.0984 45.1558 83.1427 44.3146 82.6781 43.4513C82.1472 42.5216 81.3288 42.1453 80.267 42.1453C71.3303 42.1453 62.4158 42.1675 53.4791 42.1232C52.0192 42.1232 51.0459 42.6766 50.515 44.0047C50.4928 40.131 50.4928 36.2352 50.4707 32.3615C50.8025 32.3615 51.1343 32.3394 51.4661 32.3394C65.3135 32.45 79.1389 32.45 92.9642 32.45ZM76.1083 67.4904C77.5462 67.4904 78.984 67.5125 80.4218 67.4904C81.9039 67.4683 82.9878 66.4279 83.0099 65.0334C83.0321 63.6167 81.926 62.5321 80.3997 62.5099C77.5462 62.4878 74.7148 62.4878 71.8612 62.5099C70.3349 62.5099 69.2289 63.5946 69.2289 65.0112C69.2289 66.4279 70.3349 67.4683 71.8833 67.4904C73.299 67.4904 74.7148 67.4904 76.1083 67.4904Z" fill="#CED0F3"/>
<path d="M50.5156 65.4316C50.5156 70.2129 50.4935 74.972 50.4935 79.7533C38.7254 79.7533 26.9572 79.8197 15.1892 79.7311C12.2693 79.709 10.0572 78.1816 8.72999 75.459C8.4203 74.8171 8.35393 74.0866 8 73.4668C8 59.7871 8 46.1296 8 32.4499C21.8253 32.4499 35.6506 32.4499 49.498 32.4499C49.8298 32.4499 50.1616 32.4277 50.4935 32.4277L50.4713 32.472C50.4934 36.3457 50.4935 40.2415 50.5156 44.1152C50.5156 44.5137 50.5156 44.9342 50.5156 45.3327C50.5156 48.2988 50.5156 51.265 50.5156 54.2311C50.5156 54.6296 50.5156 55.0501 50.5156 55.4486C50.5156 58.3704 50.5156 61.2702 50.5156 64.1921C50.5156 64.6126 50.5156 65.0332 50.5156 65.4316ZM29.7666 39.7988C26.36 39.7103 23.2631 42.6543 23.1304 46.1074C23.0419 48.6751 24.1258 50.6452 26.1388 52.1283C22.135 53.5671 19.5248 56.334 18.4851 60.4512C17.8215 63.0632 18.1976 65.7194 18.1976 68.3757C18.1976 69.2168 18.9497 69.7923 19.8566 69.7923C23.1747 69.7923 26.4706 69.7702 29.7887 69.7702C33.1289 69.7702 36.4691 69.7923 39.8093 69.7923C40.7383 69.7923 41.3798 69.1061 41.3798 68.1322C41.4019 66.4499 41.3798 64.7676 41.3798 63.0632C41.3798 58.1491 38.2166 53.7441 33.5491 52.1725C33.7261 52.0397 33.881 51.8848 34.0579 51.752C36.3142 49.959 37.1769 46.7936 36.1594 44.1374C35.1197 41.4147 32.4874 39.6217 29.7666 39.7988Z" fill="#E5E6F4"/>
<path d="M50.4928 20.0319C50.7583 20.0319 51.0458 20.0098 51.3113 20.0098C62.637 20.0098 73.9848 20.0098 85.3105 20.0098C89.0931 20.0098 91.9024 22.2676 92.7872 25.9863C92.8093 26.0527 92.8757 26.097 92.942 26.1413C92.942 28.2441 92.942 30.347 92.942 32.4499C79.1167 32.4499 65.2914 32.4499 51.4661 32.4499C51.1343 32.4499 50.8025 32.472 50.4707 32.472L50.4928 32.4277C50.4928 28.2884 50.4928 24.1712 50.4928 20.0319Z" fill="#FEB201"/>
<path d="M50.4935 20.032C50.4935 24.1713 50.4935 28.2885 50.4935 32.4278C50.1617 32.4278 49.8298 32.4499 49.498 32.4499C35.6727 32.4499 21.8474 32.4499 8 32.4499C8 30.3471 8 28.2442 8 26.1413C8.26545 25.9643 8.22122 25.6544 8.28758 25.4109C9.21664 22.2455 12.0481 20.032 15.344 20.0098C26.9573 19.9877 38.5926 20.0098 50.2059 20.0098C50.3386 20.0098 50.405 20.032 50.4935 20.032Z" fill="#FEC90F"/>
<path d="M50.5156 45.355C50.5156 44.9565 50.5156 44.536 50.5156 44.1375C51.0465 42.7873 52.0198 42.2339 53.4798 42.256C62.4164 42.2781 71.331 42.2781 80.2677 42.2781C81.3294 42.2781 82.1479 42.6544 82.6788 43.5841C83.1655 44.4253 83.1212 45.2886 82.5903 46.1076C82.0373 46.9709 81.1967 47.2807 80.1792 47.2807C72.6803 47.2586 65.2036 47.2807 57.7048 47.2807C56.3333 47.2807 54.9397 47.2365 53.5682 47.3029C52.0862 47.3029 51.0686 46.7495 50.5156 45.355Z" fill="#2F4247"/>
<path d="M50.5156 55.4707C50.5156 55.0723 50.5156 54.6517 50.5156 54.2532C51.0465 52.903 52.0198 52.3496 53.4798 52.3717C62.4164 52.3939 71.331 52.3939 80.2677 52.3939C81.3294 52.3939 82.1479 52.7702 82.6788 53.6999C83.1655 54.541 83.1212 55.4043 82.5903 56.2233C82.0373 57.0866 81.1967 57.3965 80.1792 57.3965C72.6803 57.3743 65.2036 57.3965 57.7048 57.3965C56.3333 57.3965 54.9397 57.3522 53.5682 57.4186C52.0862 57.4407 51.0686 56.8652 50.5156 55.4707Z" fill="#2F4247"/>
<path d="M50.5156 65.4316C50.5156 65.0332 50.5156 64.6126 50.5156 64.2142C51.0465 62.8639 52.0198 62.2884 53.4798 62.3327C56.1564 62.377 58.8329 62.3327 61.5316 62.3548C63.1464 62.3548 64.2524 63.3952 64.2524 64.834C64.2524 66.2949 63.1243 67.3132 61.5316 67.3132C58.855 67.3132 56.1564 67.2689 53.4798 67.3353C52.0419 67.3574 51.0465 66.7819 50.5156 65.4316Z" fill="#304248"/>
<path d="M76.1099 67.4902C74.6942 67.4902 73.3006 67.4902 71.8849 67.4902C70.3586 67.4681 69.2305 66.4277 69.2305 65.0111C69.2305 63.5944 70.3365 62.5319 71.8628 62.5098C74.7164 62.4876 77.5478 62.4876 80.4013 62.5098C81.9276 62.5098 83.0337 63.5944 83.0115 65.0332C82.9894 66.4277 81.9055 67.4681 80.4234 67.4902C78.9856 67.4902 77.5478 67.4902 76.1099 67.4902Z" fill="#304248"/>
<path d="M33.5495 52.1726C38.217 53.7664 41.3581 58.1492 41.3802 63.0632C41.3802 64.7455 41.3802 66.4278 41.3802 68.1322C41.3802 69.1062 40.7387 69.7924 39.8096 69.7924C36.4695 69.7924 33.1293 69.7703 29.7891 69.7703C29.7891 64.2585 29.7891 58.7468 29.7891 53.2351C31.1384 53.2794 32.355 52.8145 33.5495 52.1726Z" fill="#1B9CF6"/>
<path d="M29.7667 53.2352C29.7667 58.7469 29.7667 64.2586 29.7667 69.7703C26.4486 69.7703 23.1526 69.7925 19.8346 69.7925C18.9276 69.7925 18.1755 69.217 18.1755 68.3758C18.1755 65.7417 17.8216 63.0633 18.4631 60.4513C19.5028 56.312 22.113 53.5672 26.1168 52.1284C27.2449 52.7261 28.4173 53.2352 29.7445 53.1688C29.7667 53.1688 29.7667 53.2352 29.7667 53.2352Z" fill="#30C3FE"/>
<path d="M33.5482 52.1727C32.3537 52.8146 31.1371 53.2794 29.7656 53.2352V53.1909C29.7656 48.7195 29.7656 44.2703 29.7656 39.799C32.5086 39.644 35.1188 41.4149 36.1584 44.1375C37.176 46.8159 36.2912 49.9591 34.057 51.7521C33.88 51.8849 33.7252 52.0399 33.5482 52.1727Z" fill="#B65E4A"/>
<path d="M29.7662 39.7989C29.7662 44.2703 29.7662 48.7195 29.7662 53.1908C28.4389 53.2573 27.2665 52.7481 26.1384 52.1505C24.1254 50.6453 23.0415 48.6752 23.13 46.1297C23.2627 42.6323 26.3596 39.6882 29.7662 39.7989Z" fill="#C46D5A"/>
</svg>
