<svg width="247" height="258" viewBox="0 0 247 258" fill="none" xmlns="http://www.w3.org/2000/svg">
<path d="M130.59 12C133.696 12.9506 136.801 13.8379 139.906 14.7885C138.702 19.1615 137.498 23.5344 136.357 27.9074C133.886 37.0969 131.477 46.3497 129.069 55.6026C120.64 55.6026 112.148 55.6026 103.719 55.6026C106.381 45.6526 109.042 35.7026 111.641 25.7526C113.479 18.7812 117.408 13.9647 124.696 12.3169C124.823 12.3169 124.886 12.1268 125.013 12C126.851 12 128.689 12 130.59 12Z" fill="#E9672D"/>
<path d="M103.656 55.6023C112.085 55.6023 120.577 55.6023 129.006 55.6023C132.365 55.6023 135.787 55.729 139.146 55.6657C146.244 55.5389 151.631 58.3908 155.244 64.5383C156.701 67.7705 157.018 71.1928 157.081 74.6784C157.081 89.8887 157.081 105.099 157.081 120.246C157.081 126.14 157.081 131.97 157.081 137.864C157.081 143.124 157.081 148.448 157.081 153.708C157.081 154.659 157.018 155.546 157.018 156.497C157.018 176.397 157.018 196.297 157.018 216.197C157.018 227.414 150.364 234.132 139.146 234.132C130.527 234.132 121.971 234.196 113.352 234.259C112.338 234.196 111.324 234.196 110.31 234.196C80.46 234.196 50.5466 234.196 20.6965 234.196C13.9153 234.132 11 231.217 11 224.372C11 171.39 11 118.344 11 65.3622C11 58.581 13.9787 55.6657 20.8233 55.6657C47.5045 55.6657 74.2492 55.6657 100.93 55.6657C101.818 55.6657 102.768 55.6023 103.656 55.6023ZM132.618 128.611C132.555 101.803 110.817 80.1288 84.009 80.002C57.2644 79.8753 35.273 101.93 35.3363 128.801C35.3997 155.673 57.3912 177.601 84.1992 177.411C110.944 177.221 132.682 155.293 132.618 128.611ZM112.592 204.536C114.62 203.965 115.76 202.825 115.317 200.67C114.936 198.515 113.225 198.261 111.451 198.198C110.12 198.135 108.852 198.198 107.522 198.135C106.381 198.071 106.064 198.515 106.064 199.592C106.127 201.874 106 204.219 106.127 206.5C106.191 207.578 105.367 209.606 106.824 209.606C108.599 209.606 107.712 207.514 107.712 206.437C107.712 204.789 108.345 204.472 109.74 204.662C111.894 204.853 112.338 206.817 113.415 208.148C114.113 209.035 114.556 210.303 116.204 209.542C115.317 207.768 114.049 206.12 112.592 204.536ZM65.0597 209.986C67.7848 209.986 69.496 208.845 69.6861 207.007C69.9396 204.599 68.4186 203.775 66.4539 203.268C65.6934 203.078 64.9963 202.761 64.2358 202.508C63.4119 202.254 62.5246 202.064 62.588 200.923C62.7147 199.719 63.6654 199.529 64.616 199.402C65.8202 199.275 67.0243 199.466 67.5947 200.67C67.9116 201.304 68.2918 201.811 68.989 201.367C69.6227 200.923 69.2425 200.226 68.8622 199.719C67.5313 197.881 65.63 197.881 63.6654 198.198C62.081 198.452 61.067 199.402 60.9402 200.923C60.8768 202.381 61.7007 203.395 63.095 203.902C64.2358 204.282 65.5033 204.599 66.644 204.979C67.4679 205.296 68.2918 205.74 68.1017 206.817C67.9749 207.768 67.2144 208.275 66.3272 208.402C64.7428 208.655 63.1584 208.528 62.2711 206.881C61.9542 206.247 61.7007 205.676 60.9402 206.057C59.9262 206.564 60.6233 207.324 60.8768 207.831C61.9542 209.542 63.5386 210.049 65.0597 209.986ZM104.099 204.029C104.099 200.543 101.881 198.008 98.7756 198.008C95.4167 197.945 93.0718 200.416 93.0084 204.155C92.945 207.388 95.3533 209.986 98.5221 210.049C101.881 209.986 104.099 207.641 104.099 204.029ZM76.0871 209.986C78.5587 209.986 80.2065 208.972 80.5234 207.134C80.8402 205.169 79.953 204.155 77.1644 203.332C76.2772 203.078 75.3899 202.761 74.5027 202.444C73.8689 202.254 73.3619 201.874 73.4253 201.113C73.4886 200.289 73.9323 199.846 74.6928 199.656C76.2138 199.275 77.6715 199.212 78.4953 200.796C78.8756 201.494 79.3192 201.811 79.953 201.367C80.5867 200.987 80.0797 200.353 79.8896 199.909C78.8756 198.071 77.1011 197.945 75.2632 198.135C73.6154 198.261 72.2211 198.895 71.9676 200.796C71.7775 202.698 72.9183 203.585 74.566 204.092C75.6434 204.409 76.7842 204.726 77.8616 205.169C78.5587 205.423 79.0657 205.867 79.0657 206.69C79.0657 207.641 78.432 208.148 77.6715 208.338C75.9603 208.782 74.2492 208.782 73.2351 206.944C72.9183 206.374 72.6648 205.74 71.9042 206.183C71.2071 206.627 71.5874 207.261 71.8409 207.831C72.7281 209.479 74.2492 209.986 76.0871 209.986ZM40.5332 204.092C40.5332 205.613 40.5332 207.197 40.5332 208.718C40.5332 209.289 40.5966 209.859 41.3571 209.859C42.1176 209.923 42.3711 209.352 42.2443 208.782C41.6106 205.676 43.1316 204.726 45.9201 205.043C46.3004 205.106 46.6806 204.979 47.0609 204.853C48.772 204.346 49.5326 203.141 49.4692 201.367C49.4058 199.719 48.4552 198.642 46.8074 198.325C45.8567 198.135 44.7794 198.198 43.8287 198.198C39.9628 198.198 40.6599 197.818 40.5965 201.304C40.5332 202.191 40.5332 203.141 40.5332 204.092ZM82.6782 204.092C82.6782 205.613 82.6782 207.197 82.6782 208.718C82.6782 209.225 82.5514 209.859 83.4387 209.859C84.2626 209.859 84.2625 209.225 84.1992 208.718C83.6288 205.74 84.9597 204.726 87.7482 205.043C88.3186 205.106 89.0157 204.916 89.5228 204.662C91.7409 203.775 92.1845 200.543 90.3466 199.022C89.5861 198.388 83.8823 197.628 83.1218 198.325C81.981 199.402 82.8049 200.923 82.6148 202.254C82.6148 202.825 82.6782 203.458 82.6782 204.092ZM58.0883 209.796C59.6093 209.859 59.6727 209.352 59.4192 208.782C58.0883 205.486 56.7574 202.191 55.3631 198.959C54.8561 197.754 53.652 197.818 53.2717 198.768C51.8141 202.064 50.6099 205.486 49.3424 208.909C49.2157 209.289 49.1523 209.733 49.7227 209.796C50.1029 209.859 50.5466 209.859 50.7367 209.479C50.9268 209.035 51.1169 208.655 51.2437 208.211C51.5606 206.881 52.1943 206.057 53.7787 206.247C55.2998 206.437 57.0743 205.867 57.5179 208.211C57.5813 208.845 57.708 209.796 58.0883 209.796ZM120.45 204.789C120.45 205.93 120.45 207.134 120.45 208.275C120.45 208.909 120.197 209.796 121.274 209.859C122.415 209.923 122.161 208.972 122.161 208.338C122.161 206.437 122.288 204.472 122.161 202.571C122.035 200.606 122.161 199.212 124.696 199.656C125.203 199.719 125.901 199.846 125.901 199.022C125.964 198.008 125.14 198.261 124.57 198.261C122.415 198.261 120.26 198.198 118.105 198.261C117.598 198.261 116.711 197.945 116.711 198.959C116.711 199.909 117.535 199.846 118.042 199.719C120.26 199.339 120.704 200.416 120.45 202.318C120.323 203.078 120.45 203.902 120.45 204.789Z" fill="#135D9C"/>
<path d="M155.243 64.5394C151.631 58.3919 146.244 55.54 139.146 55.6668C135.787 55.7301 132.365 55.6034 129.006 55.6034C131.414 46.3505 133.822 37.161 136.294 27.9081C137.435 23.5352 138.639 19.1622 139.843 14.7893C147.892 16.8807 155.941 18.9721 163.989 21.1269C182.685 26.1336 201.381 31.1403 220.077 36.2104C222.549 36.8441 225.02 37.4779 227.365 38.3651C235.351 41.4072 239.597 49.0757 237.442 57.3145C233.006 74.426 228.379 91.4742 223.816 108.522C222.168 114.606 220.457 120.69 218.746 126.775C218.112 126.204 217.415 125.697 216.845 125.127C205.754 114.036 194.6 102.882 183.509 91.791C182.812 91.0939 182.305 90.1433 181.164 90.0799C181.164 89.6363 181.101 89.1293 181.101 88.6856C181.101 86.6576 181.101 84.6296 181.101 82.6649C181.101 81.7143 181.418 81.0805 182.432 81.3974C187.629 82.9818 193.903 82.7917 195.867 89.6996C195.994 90.2066 196.501 90.5869 196.691 91.0939C197.262 92.9318 198.783 93.5656 200.494 94.0726C202.395 94.643 202.649 94.0092 202.459 92.298C202.142 89.1293 201.952 86.0238 201.635 82.855C201.571 81.9044 202.015 81.2073 202.459 80.5101C203.916 78.3553 205.374 76.1372 206.831 73.919C208.86 70.877 208.543 70.2432 204.803 69.863C204.17 69.7996 203.789 70.0531 203.346 70.37C201.128 71.6375 198.909 72.8416 196.755 74.2359C195.614 74.9964 194.537 75.0598 193.332 74.7429C190.607 73.919 187.819 73.2219 185.094 72.4614C183.953 72.1445 183.319 71.8276 184.206 70.4334C185.917 67.8349 187.438 65.1732 189.023 62.5114C191.748 58.0117 194.537 53.5754 197.198 49.0123C197.579 48.3785 198.529 47.6814 197.262 46.9209C194.473 45.2097 191.178 45.6534 188.769 47.8715C182.051 54.1457 175.27 60.42 168.616 66.6942C167.729 67.5181 167.031 67.5814 165.954 67.2646C162.975 66.4407 159.997 65.7435 157.018 64.983C156.574 64.2859 155.877 64.5394 155.243 64.5394Z" fill="#DBC59F"/>
<path d="M157.082 137.866C157.082 131.972 157.082 126.141 157.082 120.247C157.462 120.311 157.842 120.311 158.223 120.374C177.616 125.571 197.072 130.768 216.465 135.965C210.634 157.766 204.804 179.504 198.973 201.305C195.805 213.156 192.636 224.944 189.53 236.796C187.376 245.034 180.214 250.548 172.165 249.788C167.919 249.407 163.926 247.886 159.87 246.809C147.449 243.577 135.027 240.155 122.605 236.796C119.5 235.972 116.394 235.021 113.289 234.134C121.908 234.07 130.464 234.07 139.083 234.007C150.301 234.007 156.955 227.289 156.955 216.072C156.955 196.172 156.955 176.272 156.955 156.372C156.955 155.421 157.018 154.534 157.018 153.583C157.589 153.71 158.286 153.71 158.793 153.963C160.694 154.914 161.328 154.09 161.708 152.252C162.279 149.464 163.293 146.802 163.863 144.013C164.243 142.302 165.701 140.274 164.75 139.07C163.863 137.929 161.582 137.802 159.87 137.486C159.046 137.359 157.906 136.535 157.082 137.866ZM164.37 231.219C165.701 231.409 166.018 230.648 166.208 229.888C166.715 228.05 167.159 226.148 167.666 224.311C171.595 209.607 175.588 194.904 179.517 180.138C180.468 176.525 181.291 176.905 176.982 175.765C176.158 175.574 175.271 175.448 174.51 175.067C172.989 174.37 172.419 174.814 172.039 176.398C168.933 188.25 165.701 200.038 162.532 211.889C161.138 217.086 159.744 222.283 158.413 227.543C158.223 228.24 157.525 229.254 158.856 229.634C160.821 230.205 162.786 230.712 164.37 231.219ZM183.636 160.681C184.84 160.998 185.031 159.794 185.284 158.907C186.298 155.041 187.185 151.175 188.326 147.309C188.833 145.534 188.39 144.964 186.678 144.71C185.411 144.52 184.08 144.203 182.876 143.76C181.355 143.126 180.784 143.823 180.468 145.154C179.77 147.879 179.073 150.668 178.376 153.393C176.792 159.54 176.855 159.604 183.193 160.618C183.193 160.618 183.256 160.618 183.636 160.681Z" fill="#E3E7DA"/>
<path d="M216.463 136.029C197.07 130.832 177.614 125.635 158.221 120.438C157.841 120.312 157.46 120.312 157.08 120.312C157.08 105.101 157.08 89.8912 157.08 74.7444C159.171 74.8711 161.073 75.8218 163.164 76.202C164.749 76.4555 165.446 77.2794 165.889 78.8004C168.361 87.1661 171.023 95.4049 173.368 103.834C174.255 106.939 175.459 109.157 179.072 109.221C179.135 109.221 179.198 109.221 179.325 109.284C181.163 110.108 181.86 109.474 181.67 107.51C181.29 101.743 181.1 95.9753 181.226 90.1447C182.367 90.2081 182.937 91.1587 183.571 91.8559C194.725 102.947 205.816 114.037 216.907 125.192C217.477 125.762 218.174 126.332 218.808 126.839C218.491 129.945 217.477 132.987 216.463 136.029Z" fill="#CCB994"/>
<path d="M132.617 128.613C132.68 155.294 110.942 177.222 84.1344 177.349C57.3264 177.476 35.335 155.611 35.2716 128.739C35.2082 101.931 57.2631 79.8132 83.9443 79.94C110.816 80.1301 132.554 101.805 132.617 128.613ZM72.0296 90.5238C71.7128 90.5238 71.3959 90.397 71.1424 90.4604C61.2557 93.8193 53.7774 100.03 48.6439 109.093C48.0736 110.107 48.2637 110.424 49.4044 110.424C54.3478 110.424 59.2911 110.36 64.2344 110.424C65.1217 110.424 65.5019 110.107 65.6287 109.283C67.0229 102.819 69.4946 96.6079 72.0296 90.5238C72.0296 90.4604 72.093 90.4604 72.1564 90.397C72.1564 90.397 72.1564 90.3336 72.1564 90.2703C72.093 90.397 72.093 90.4604 72.0296 90.5238ZM96.2392 90.4604C96.1125 90.397 95.9857 90.2069 95.9224 90.2069C95.6689 90.3336 95.7956 90.5238 95.9224 90.7139C97.8236 95.277 99.7249 99.84 101.056 104.593C101.563 106.495 101.246 109.22 102.767 110.107C104.225 110.994 106.633 110.424 108.661 110.424C112.337 110.424 115.949 110.424 120.005 110.424C114.428 100.474 106.886 93.5658 96.2392 90.4604ZM83.9443 138.816C87.3032 138.816 90.5988 138.753 93.9577 138.816C95.2886 138.88 95.6689 138.373 95.7322 137.105C96.2392 131.465 96.2392 125.824 95.7322 120.184C95.6055 118.916 95.2252 118.409 93.8943 118.409C87.2399 118.473 80.5854 118.473 73.9309 118.409C72.8535 118.409 72.4099 118.726 72.3465 119.803C71.7128 125.697 71.7128 131.528 72.3465 137.422C72.4733 138.563 72.9169 138.816 73.9309 138.753C77.2898 138.816 80.5854 138.816 83.9443 138.816ZM113.287 138.816C116.076 138.816 118.864 138.753 121.653 138.816C122.73 138.816 123.111 138.499 123.364 137.485C124.758 131.591 124.822 125.697 123.364 119.803C123.111 118.789 122.73 118.409 121.653 118.409C116.139 118.473 110.689 118.473 105.175 118.409C103.908 118.409 103.591 118.853 103.718 120.057C104.351 125.761 104.351 131.465 103.718 137.168C103.591 138.436 103.971 138.816 105.175 138.753C107.9 138.753 110.626 138.816 113.287 138.816ZM54.3478 138.816C57.1363 138.816 59.9248 138.816 62.7134 138.816C63.7274 138.816 64.2978 138.689 64.171 137.422C63.5373 131.528 63.5373 125.697 64.171 119.803C64.2978 118.789 63.9175 118.409 62.9035 118.409C57.3264 118.409 51.7494 118.409 46.1723 118.409C45.2216 118.409 44.8414 118.726 44.5879 119.677C43.1302 125.634 43.1936 131.591 44.5879 137.549C44.8414 138.563 45.3484 138.753 46.1723 138.689C48.8974 138.816 51.6226 138.816 54.3478 138.816ZM84.0077 146.865C81.1558 146.865 78.3039 146.865 75.4519 146.865C74.3112 146.865 73.8042 146.928 74.1844 148.386C75.8956 155.167 78.3039 161.632 81.9163 167.652C83.2472 169.87 84.7048 169.87 86.0357 167.652C89.6481 161.758 91.9931 155.294 93.7042 148.639C94.0211 147.309 93.831 146.802 92.3733 146.865C89.5848 146.928 86.7962 146.865 84.0077 146.865ZM83.9443 110.487C86.7329 110.487 89.5214 110.424 92.3099 110.487C93.5775 110.487 94.1478 110.297 93.7676 108.839C91.9931 102.058 89.6481 95.5938 85.9723 89.5731C84.7048 87.5451 83.2472 87.5451 81.9797 89.6365C78.3039 95.5938 75.8956 102.122 74.1844 108.903C73.7408 110.487 74.3746 110.551 75.5787 110.487C78.3672 110.424 81.1558 110.487 83.9443 110.487ZM72.4099 167.272C69.3045 160.744 67.1497 154.533 65.8188 148.132C65.6921 147.435 65.4386 146.865 64.4879 146.865C59.4812 146.865 54.4111 146.865 49.4044 146.865C48.0736 146.865 48.2637 147.499 48.7707 148.323C49.7847 149.907 50.672 151.491 51.8127 152.949C56.9462 159.794 63.664 164.547 72.4099 167.272ZM119.942 146.865C114.365 146.865 109.231 146.928 104.161 146.865C102.83 146.865 102.26 147.245 102.006 148.576C101.309 152.062 100.359 155.484 99.0912 158.78C98.0771 161.505 96.9364 164.23 95.6689 167.272C106.633 163.66 114.555 157.068 119.942 146.865Z" fill="#E4BC2A"/>
<path d="M181.226 90.0795C181.1 95.8468 181.29 101.677 181.67 107.445C181.797 109.409 181.163 110.043 179.325 109.219C179.262 109.219 179.198 109.156 179.072 109.156C175.522 109.092 174.255 106.874 173.368 103.769C171.023 95.4031 168.361 87.1009 165.889 78.7353C165.446 77.2142 164.685 76.3904 163.164 76.1368C161.136 75.82 159.235 74.806 157.08 74.6792C157.017 71.1935 156.636 67.7712 155.242 64.5391C155.876 64.6024 156.573 64.3489 157.017 65.0461C164.685 72.7779 172.354 80.5098 180.086 88.2417C180.339 88.4952 180.783 88.5585 181.1 88.6853C181.163 89.1289 181.163 89.5725 181.226 90.0795Z" fill="#E3E6D9"/>
<path d="M157.08 137.865C157.904 136.471 159.045 137.358 159.932 137.548C161.643 137.928 163.988 137.992 164.812 139.133C165.763 140.337 164.242 142.365 163.925 144.076C163.354 146.864 162.34 149.526 161.77 152.315C161.39 154.153 160.756 154.977 158.855 154.026C158.348 153.772 157.65 153.772 157.08 153.646C157.08 148.449 157.08 143.125 157.08 137.865Z" fill="#C8BEB2"/>
<path d="M112.59 204.535C114.111 206.119 115.316 207.767 116.203 209.668C114.555 210.429 114.111 209.161 113.414 208.274C112.4 206.943 111.957 204.978 109.738 204.788C108.344 204.662 107.647 204.915 107.71 206.563C107.71 207.64 108.661 209.732 106.823 209.732C105.302 209.732 106.189 207.704 106.126 206.626C105.999 204.345 106.126 202 106.063 199.718C106.063 198.641 106.38 198.197 107.52 198.261C108.851 198.324 110.119 198.261 111.45 198.324C113.224 198.387 114.935 198.577 115.316 200.796C115.759 202.76 114.618 203.964 112.59 204.535ZM110.436 199.528C109.612 199.845 108.217 198.958 107.901 200.225C107.647 201.176 107.077 202.633 108.408 203.267C110.055 204.091 113.414 203.014 113.731 201.683C113.921 200.669 113.414 200.035 112.527 199.718C111.893 199.591 111.196 199.591 110.436 199.528Z" fill="#E2EBF2"/>
<path d="M65.0596 209.986C63.5385 210.05 61.9541 209.543 61.0035 207.832C60.75 207.325 59.9895 206.564 61.0669 206.057C61.8274 205.677 62.0809 206.311 62.3978 206.881C63.285 208.529 64.806 208.592 66.4538 208.402C67.3411 208.275 68.1016 207.705 68.2283 206.818C68.3551 205.804 67.5312 205.297 66.7707 204.98C65.6299 204.536 64.4258 204.283 63.2217 203.902C61.8274 203.459 61.0035 202.381 61.0669 200.924C61.1936 199.403 62.1443 198.452 63.792 198.198C65.7567 197.882 67.658 197.882 68.9889 199.719C69.3057 200.227 69.7494 200.924 69.1156 201.367C68.4818 201.811 68.0382 201.367 67.7213 200.67C67.0876 199.466 65.9468 199.276 64.7427 199.403C63.792 199.529 62.8414 199.719 62.7146 200.924C62.5879 202.064 63.5385 202.255 64.3624 202.508C65.1229 202.762 65.8201 203.078 66.5806 203.269C68.5452 203.776 70.1296 204.599 69.8127 207.008C69.4959 208.846 67.7847 209.986 65.0596 209.986Z" fill="#ECF1F6"/>
<path d="M104.099 204.028C104.099 207.641 101.881 209.986 98.5223 209.986C95.3535 209.986 92.8818 207.387 93.0086 204.092C93.1353 200.416 95.4169 197.944 98.7758 197.944C101.881 198.008 104.163 200.543 104.099 204.028ZM94.7197 204.028C94.7197 206.817 96.114 208.528 98.5223 208.592C100.931 208.655 102.515 206.817 102.578 203.965C102.642 201.367 100.931 199.339 98.7124 199.339C96.3041 199.275 94.7831 201.113 94.7197 204.028Z" fill="#ECF1F6"/>
<path d="M76.0876 209.984C74.3131 209.984 72.7287 209.477 71.8414 207.766C71.5879 207.259 71.1443 206.562 71.9048 206.118C72.6653 205.675 72.9188 206.309 73.2357 206.879C74.2497 208.717 75.9609 208.717 77.672 208.273C78.4325 208.083 79.0029 207.513 79.0663 206.625C79.0663 205.802 78.5593 205.358 77.8621 205.104C76.7848 204.724 75.644 204.407 74.5666 204.027C72.9188 203.52 71.7781 202.633 71.9682 200.732C72.1583 198.83 73.5526 198.197 75.2637 198.07C77.1016 197.943 78.8762 198.07 79.8902 199.844C80.1437 200.225 80.5873 200.922 79.9536 201.302C79.3832 201.682 78.8762 201.429 78.4959 200.732C77.672 199.084 76.151 199.211 74.6933 199.591C73.9328 199.781 73.4892 200.225 73.4258 201.048C73.3625 201.809 73.8695 202.126 74.5032 202.379C75.3905 202.696 76.2777 203.013 77.165 203.267C80.0169 204.154 80.9042 205.104 80.5239 207.069C80.2071 208.907 78.5593 209.984 76.0876 209.984Z" fill="#F0F4F8"/>
<path d="M40.5341 204.093C40.5341 203.143 40.5341 202.255 40.5341 201.305C40.5975 197.819 39.9003 198.199 43.7663 198.199C44.7803 198.199 45.7943 198.199 46.7449 198.326C48.3927 198.643 49.28 199.72 49.4067 201.368C49.4701 203.143 48.7096 204.347 46.9984 204.854C46.6182 204.98 46.2379 205.044 45.8577 205.044C43.0691 204.79 41.5481 205.678 42.1819 208.783C42.3086 209.353 42.0551 209.86 41.2946 209.86C40.5341 209.797 40.4707 209.29 40.4707 208.72C40.5341 207.135 40.5341 205.614 40.5341 204.093ZM44.3366 199.657C42.9424 199.403 42.0551 199.657 42.1819 201.622C42.2452 203.079 42.4354 204.03 44.1465 203.713C45.6675 203.459 47.7589 203.903 47.7589 201.558C47.7589 199.53 45.9844 199.657 44.3366 199.657Z" fill="#E2EBF2"/>
<path d="M82.6773 204.093C82.6773 203.459 82.6139 202.825 82.6773 202.255C82.8674 200.924 81.9802 199.403 83.1843 198.325C83.9448 197.628 89.6487 198.389 90.4092 199.023C92.1837 200.544 91.7401 203.712 89.5853 204.663C89.0149 204.917 88.3811 205.107 87.8108 205.043C84.9588 204.726 83.628 205.74 84.2617 208.719C84.3885 209.226 84.3251 209.86 83.5012 209.86C82.6773 209.86 82.7407 209.226 82.7407 208.719C82.6773 207.198 82.6773 205.614 82.6773 204.093ZM86.67 199.656C85.4659 199.656 83.9448 199.149 84.135 201.431C84.2617 202.825 84.0716 204.093 86.0996 203.776C87.6206 203.522 89.6487 204.093 89.7754 201.684C89.9022 199.593 88.191 199.593 86.67 199.656Z" fill="#F0F4F8"/>
<path d="M58.0887 209.797C57.7084 209.797 57.5816 208.846 57.4549 208.149C57.0113 205.804 55.2367 206.374 53.7157 206.184C52.1313 205.994 51.4976 206.818 51.1807 208.149C51.0539 208.593 50.8638 209.036 50.6737 209.416C50.4835 209.86 50.0399 209.86 49.6597 209.733C49.1526 209.607 49.1527 209.163 49.2794 208.846C50.5469 205.487 51.7511 202.065 53.2087 198.706C53.6523 197.755 54.7931 197.692 55.3001 198.896C56.6944 202.128 58.0253 205.424 59.3562 208.719C59.6731 209.353 59.6097 209.86 58.0887 209.797ZM54.2227 199.657C53.6523 201.304 53.2721 202.572 52.7651 203.713C52.2581 204.79 52.7017 204.98 53.7157 205.043C56.124 205.17 56.1874 205.107 55.3635 202.825C55.0466 201.938 54.7297 200.987 54.2227 199.657Z" fill="#F0F4F8"/>
<path d="M120.449 204.791C120.449 203.967 120.386 203.08 120.449 202.256C120.703 200.355 120.259 199.278 118.041 199.658C117.534 199.785 116.647 199.848 116.71 198.897C116.71 197.883 117.598 198.2 118.105 198.2C120.259 198.137 122.414 198.2 124.569 198.2C125.139 198.2 125.963 197.947 125.9 198.961C125.836 199.785 125.139 199.721 124.696 199.594C122.161 199.151 121.97 200.545 122.161 202.51C122.287 204.411 122.224 206.376 122.161 208.277C122.161 208.911 122.414 209.861 121.273 209.798C120.196 209.735 120.513 208.847 120.449 208.214C120.386 207.073 120.449 205.932 120.449 204.791Z" fill="#E2EBF2"/>
<path d="M181.163 88.6212C180.783 88.4945 180.339 88.4311 180.149 88.1776C172.48 80.4457 164.749 72.7139 157.08 64.982C160.059 65.7425 163.037 66.4396 166.016 67.2635C167.093 67.5804 167.791 67.4537 168.678 66.6931C175.396 60.3556 182.114 54.1447 188.831 47.8705C191.24 45.589 194.535 45.2087 197.324 46.9199C198.591 47.6804 197.641 48.4409 197.26 49.0113C194.535 53.511 191.81 58.0106 189.085 62.5103C187.501 65.1721 185.979 67.8339 184.268 70.4323C183.318 71.8266 184.015 72.1435 185.156 72.4604C187.881 73.2209 190.669 73.918 193.394 74.7419C194.662 75.1221 195.676 74.9954 196.817 74.2349C198.972 72.8406 201.19 71.6365 203.408 70.3689C203.852 70.1154 204.232 69.7986 204.866 69.8619C208.541 70.2422 208.858 70.876 206.894 73.918C205.436 76.1362 203.978 78.2909 202.521 80.5091C202.014 81.2062 201.633 81.9034 201.697 82.854C201.95 86.0228 202.14 89.1282 202.521 92.297C202.711 93.9448 202.457 94.6419 200.556 94.0715C198.845 93.5645 197.387 92.9942 196.753 91.0929C196.563 90.5859 196.12 90.2056 195.93 89.6986C193.965 82.854 187.691 82.9808 182.494 81.3964C181.48 81.0795 181.163 81.7766 181.163 82.6639C181.163 84.6285 181.163 86.5932 181.163 88.6212Z" fill="#F4F8EA"/>
<path d="M164.368 231.217C162.721 230.774 160.819 230.267 158.855 229.633C157.524 229.253 158.221 228.239 158.411 227.541C159.742 222.345 161.136 217.148 162.53 211.888C165.699 200.036 168.931 188.248 172.037 176.397C172.48 174.813 172.987 174.369 174.508 175.066C175.269 175.383 176.156 175.573 176.98 175.763C181.29 176.904 180.466 176.524 179.515 180.136C175.649 194.903 171.657 209.606 167.664 224.309C167.157 226.147 166.713 228.048 166.206 229.886C166.016 230.647 165.763 231.407 164.368 231.217Z" fill="#C8BEB2"/>
<path d="M183.637 160.681C183.257 160.617 183.193 160.617 183.13 160.617C176.792 159.667 176.729 159.54 178.313 153.393C179.01 150.667 179.771 147.879 180.405 145.154C180.721 143.823 181.292 143.126 182.813 143.759C184.017 144.266 185.285 144.583 186.615 144.71C188.327 144.964 188.834 145.534 188.263 147.309C187.122 151.111 186.299 155.04 185.221 158.906C185.031 159.794 184.841 160.998 183.637 160.681Z" fill="#C8BEB2"/>
<path d="M83.9462 138.816C80.5872 138.816 77.2917 138.752 73.9328 138.816C72.9187 138.816 72.4751 138.562 72.3484 137.485C71.7146 131.591 71.7146 125.76 72.3484 119.866C72.4751 118.789 72.9187 118.472 73.9328 118.472C80.5872 118.535 87.2417 118.535 93.8962 118.472C95.2271 118.472 95.6073 118.979 95.7341 120.246C96.2411 125.887 96.2411 131.527 95.7341 137.168C95.6073 138.435 95.2271 138.942 93.9595 138.879C90.6006 138.752 87.2417 138.816 83.9462 138.816Z" fill="#155E9B"/>
<path d="M113.288 138.816C110.563 138.816 107.901 138.752 105.176 138.816C103.972 138.879 103.592 138.499 103.718 137.231C104.352 131.527 104.352 125.824 103.718 120.12C103.592 118.916 103.845 118.472 105.176 118.472C110.69 118.535 116.14 118.535 121.654 118.472C122.731 118.472 123.112 118.852 123.365 119.866C124.823 125.76 124.759 131.654 123.365 137.548C123.112 138.562 122.731 138.942 121.654 138.879C118.865 138.752 116.077 138.816 113.288 138.816Z" fill="#155E9B"/>
<path d="M54.3481 138.816C51.623 138.816 48.8978 138.816 46.236 138.816C45.3488 138.816 44.8418 138.689 44.6516 137.675C43.2574 131.718 43.194 125.76 44.6516 119.803C44.9051 118.852 45.2854 118.535 46.236 118.535C51.8131 118.535 57.3902 118.535 62.9673 118.535C63.9813 118.535 64.3615 118.916 64.2348 119.93C63.601 125.824 63.601 131.654 64.2348 137.548C64.3615 138.816 63.7912 138.942 62.7771 138.942C59.8618 138.816 57.1367 138.816 54.3481 138.816Z" fill="#155E9B"/>
<path d="M84.0087 146.863C86.7972 146.863 89.5857 146.927 92.3743 146.863C93.8319 146.8 94.0854 147.37 93.7052 148.638C91.994 155.292 89.5857 161.693 86.0367 167.651C84.7058 169.805 83.2481 169.805 81.9173 167.651C78.3048 161.63 75.8965 155.166 74.1854 148.384C73.8051 146.927 74.3121 146.863 75.4529 146.863C78.3048 146.927 81.1567 146.863 84.0087 146.863Z" fill="#185F99"/>
<path d="M83.9446 110.484C81.1561 110.484 78.3676 110.484 75.579 110.484C74.3749 110.484 73.7411 110.484 74.1848 108.9C75.8959 102.119 78.3042 95.6542 81.98 89.6335C83.2475 87.542 84.7052 87.542 85.9727 89.5701C89.6485 95.5274 91.9934 102.055 93.7679 108.836C94.1482 110.357 93.5778 110.547 92.3103 110.484C89.5217 110.421 86.7332 110.484 83.9446 110.484Z" fill="#155E9B"/>
<path d="M72.4114 167.272C63.6022 164.483 56.9477 159.793 51.7509 152.949C50.6101 151.491 49.7228 149.843 48.7088 148.322C48.2018 147.499 48.0117 146.865 49.3426 146.865C54.3493 146.865 59.4194 146.865 64.4261 146.865C65.3767 146.865 65.6302 147.435 65.7569 148.132C67.2146 154.597 69.306 160.807 72.4114 167.272Z" fill="#185F99"/>
<path d="M119.943 146.865C114.493 157.068 106.571 163.659 95.6699 167.272C96.8741 164.23 98.0148 161.505 99.0922 158.779C100.36 155.484 101.31 152.062 102.008 148.576C102.261 147.245 102.831 146.865 104.162 146.865C109.296 146.928 114.366 146.865 119.943 146.865Z" fill="#185F99"/>
<path d="M96.2407 90.4587C106.888 93.6275 114.366 100.536 120.007 110.486C115.951 110.486 112.338 110.486 108.662 110.486C106.634 110.486 104.226 111.056 102.768 110.169C101.247 109.218 101.564 106.556 101.057 104.655C99.7898 99.9017 97.8885 95.3387 95.9238 90.7756C96.0506 90.6489 96.1773 90.5221 96.2407 90.4587Z" fill="#155E9B"/>
<path d="M72.0294 90.5209C69.4944 96.6684 67.0227 102.816 65.7552 109.344C65.6284 110.104 65.1848 110.484 64.3609 110.484C59.4176 110.421 54.4743 110.421 49.531 110.484C48.3902 110.484 48.2001 110.167 48.7704 109.153C53.9039 100.091 61.3822 93.8165 71.2689 90.5209C71.459 90.3942 71.7759 90.5209 72.0294 90.5209Z" fill="#155E9B"/>
<path d="M72.0312 90.5221C72.0312 90.4585 72.0948 90.3314 72.0948 90.2678C72.0948 90.3314 72.1584 90.3314 72.0948 90.3949C72.1584 90.4585 72.0948 90.4585 72.0312 90.5221Z" fill="#155E9B"/>
<path d="M95.9237 90.7131C95.797 90.5229 95.6702 90.3328 95.9237 90.2061C95.9871 90.2061 96.1138 90.3328 96.2406 90.4596C96.1772 90.5229 96.0505 90.6497 95.9237 90.7131Z" fill="#155E9B"/>
<path d="M110.438 199.528C111.136 199.591 111.896 199.591 112.53 199.781C113.417 200.035 113.924 200.732 113.734 201.746C113.48 203.014 110.122 204.091 108.41 203.33C107.079 202.697 107.65 201.239 107.903 200.288C108.22 198.894 109.615 199.845 110.438 199.528Z" fill="#17609F"/>
<path d="M94.7188 204.028C94.7188 201.113 96.3031 199.338 98.7114 199.338C100.93 199.338 102.577 201.43 102.577 203.965C102.514 206.816 100.93 208.654 98.5213 208.591C96.1764 208.528 94.7188 206.753 94.7188 204.028Z" fill="#17609F"/>
<path d="M44.3367 199.656C45.9845 199.656 47.759 199.53 47.759 201.558C47.759 203.966 45.6676 203.522 44.1466 203.712C42.3721 203.966 42.2453 203.079 42.1819 201.621C42.0552 199.656 42.9424 199.403 44.3367 199.656Z" fill="#17609F"/>
<path d="M86.6704 199.657C88.1914 199.657 89.9026 199.593 89.7758 201.685C89.7124 204.093 87.621 203.523 86.1 203.776C84.072 204.093 84.1987 202.825 84.1354 201.431C83.9452 199.15 85.4662 199.657 86.6704 199.657Z" fill="#17609F"/>
<path d="M54.2227 199.656C54.7297 200.987 55.0466 201.938 55.3635 202.825C56.1874 205.107 56.124 205.17 53.7157 205.043C52.7017 204.98 52.3215 204.79 52.7651 203.712C53.3355 202.572 53.6523 201.304 54.2227 199.656Z" fill="#17609F"/>
</svg>
