<svg width="20" height="21" viewBox="0 0 20 21" fill="none" xmlns="http://www.w3.org/2000/svg">
<path d="M19.9997 11.8746C19.9547 11.5396 19.9197 11.1996 19.8547 10.8696C19.5396 9.15951 18.7546 7.69448 17.5246 6.46945C17.2846 6.22945 16.9196 6.23445 16.6846 6.46445C16.4496 6.68946 16.4396 7.06947 16.6796 7.31447C17.3046 7.95449 17.8096 8.6695 18.1796 9.48452C19.3496 12.0946 18.8296 15.2146 16.8596 17.2947C16.7996 17.3597 16.7346 17.4197 16.6796 17.4847C16.4446 17.7397 16.4496 18.1097 16.6846 18.3397C16.9246 18.5747 17.2846 18.5697 17.5346 18.3197C18.0296 17.8297 18.4546 17.2897 18.8096 16.6947C19.4746 15.5747 19.8647 14.3646 19.9597 13.0646C19.9647 13.0196 19.9797 12.9746 19.9897 12.9296C19.9997 12.5796 19.9997 12.2296 19.9997 11.8746Z" fill="white"/>
<path d="M12.8002 12.3989C12.8002 9.83884 12.8002 7.27878 12.7952 4.71872C12.7952 4.57872 12.7752 4.41872 12.7102 4.29871C12.5352 3.96871 12.1152 3.90371 11.8052 4.15371C11.2352 4.60372 10.6702 5.05873 10.1052 5.51374C8.78015 6.57377 7.45512 7.63879 6.12509 8.69381C6.04009 8.75881 5.91509 8.79881 5.81009 8.79881C4.97007 8.80882 4.13505 8.80382 3.29503 8.80382C2.49501 8.80882 2 9.30383 2 10.1038C2 11.6389 2 13.1739 2 14.7089C2 15.504 2.49501 15.999 3.29503 15.999C4.14005 15.999 4.98007 15.994 5.82509 16.004C5.92009 16.004 6.03509 16.044 6.11009 16.104C7.98513 17.594 9.85518 19.094 11.7252 20.5941C11.9202 20.7541 12.1252 20.8641 12.3852 20.7791C12.6252 20.6991 12.7852 20.4941 12.8002 20.2441C12.8052 20.1741 12.8052 20.1041 12.8052 20.0341C12.8002 17.489 12.8002 14.944 12.8002 12.3989Z" fill="white"/>
<path d="M17.6056 12.3092C17.5806 10.7741 17.0206 9.36412 15.8755 8.19909C15.6605 7.97909 15.3855 7.92908 15.1405 8.05909C14.9055 8.18409 14.7705 8.4441 14.8405 8.7091C14.8755 8.84411 14.9655 8.97411 15.0605 9.07411C15.8105 9.85913 16.2605 10.7891 16.3705 11.8642C16.5205 13.3292 16.0955 14.6142 15.0855 15.6993C14.9805 15.8093 14.8805 15.9493 14.8405 16.0893C14.7605 16.3543 14.9005 16.6143 15.1355 16.7393C15.3755 16.8693 15.6505 16.8243 15.8605 16.6193C16.3505 16.1293 16.7455 15.5743 17.0406 14.9492C17.4156 14.1492 17.5956 13.2942 17.6056 12.3092Z" fill="white"/>
</svg>
