<svg width="30" height="30" viewBox="0 0 30 30" fill="none" xmlns="http://www.w3.org/2000/svg">
<path d="M15.1676 3C15.6499 3.07936 16.1321 3.1404 16.6022 3.24417C19.2636 3.81798 21.2964 5.28911 22.6942 7.62095C23.6953 9.29353 24.0921 11.1309 23.9823 13.066C23.8663 15.1964 23.0544 17.0521 21.7298 18.7186C19.3552 21.7158 17.0234 24.7435 14.6671 27.759C14.6122 27.8262 14.5572 27.8933 14.484 27.9788C14.3069 27.7529 14.1421 27.5393 13.9773 27.3317C11.6577 24.3589 9.34415 21.3922 7.02452 18.4195C5.92574 17.0094 5.22375 15.4283 5.05283 13.6398C4.70488 9.90396 6.07835 6.93117 9.09387 4.72141C10.2781 3.8485 11.6272 3.34794 13.08 3.12209C13.4645 3.06104 13.8552 3.03663 14.2398 3C14.5511 3 14.8563 3 15.1676 3ZM14.429 7.38288C11.8408 7.38899 9.50897 9.43393 9.35025 12.2236C9.18544 15.1659 11.444 17.5221 14.1482 17.6442C17.1515 17.7846 19.5505 15.5443 19.6055 12.596C19.6604 9.88565 17.5483 7.43172 14.429 7.38288Z" fill="#DC3833"/>
</svg>
