<svg width="29" height="19" viewBox="0 0 29 19" fill="none" xmlns="http://www.w3.org/2000/svg">
<g clip-path="url(#clip0_1327_379)">
<path d="M29.2013 18.846C29.0574 19.0937 28.8815 19.3014 28.5616 19.3014C28.2017 19.3014 27.9379 19.0298 27.9299 18.6303C27.9059 17.9591 27.7699 17.3199 27.474 16.7207C26.4824 14.6753 24.1074 13.6925 21.9723 14.4356C21.8923 14.4596 21.8203 14.4995 21.7723 14.5235C22.0122 15.1547 22.3081 15.7619 22.476 16.4011C22.652 17.0802 22.7239 17.7913 22.8039 18.4865C22.8599 18.9658 22.588 19.2774 22.1962 19.2934C21.8043 19.3094 21.5404 19.0138 21.5324 18.5264C21.4925 16.6967 20.8527 15.0908 19.5652 13.7964C17.534 11.759 15.079 11.0958 12.3441 11.9827C9.60123 12.8696 8.00987 14.8431 7.53806 17.6955C7.49008 17.9671 7.49008 18.2468 7.47409 18.5264C7.4501 19.0138 7.1942 19.3094 6.80235 19.2934C6.41051 19.2774 6.17061 18.9738 6.17861 18.4865C6.2106 17.1202 6.49049 16.0895 7.25818 14.5395C6.78637 14.3078 6.29057 14.2039 5.77877 14.1879C3.20381 14.092 1.17262 15.9776 1.06067 18.5584C1.04468 18.9499 0.916727 19.1496 0.620846 19.2535C0.189019 19.4053 -0.218819 19.0857 -0.210822 18.5903C-0.186831 17.1122 0.324957 15.8178 1.33255 14.7392C3.00388 12.9495 5.51488 12.4142 7.78596 13.357C7.96989 13.4369 8.05785 13.4049 8.1858 13.2611C11.5524 9.36205 17.4461 9.37004 20.8287 13.2771C20.9327 13.3969 21.0126 13.4449 21.1806 13.373C24.7871 11.8948 28.6016 14.0841 29.1614 17.9192C29.1694 17.9751 29.1934 18.031 29.2093 18.079C29.2014 18.3506 29.2013 18.5983 29.2013 18.846Z" fill="black"/>
<path d="M14.5198 0.126C16.9828 0.13399 18.982 2.15542 18.974 4.62428C18.966 7.08516 16.9348 9.09061 14.4718 9.07463C12.0088 9.06664 10.0096 7.03722 10.0176 4.57635C10.0256 2.12346 12.0408 0.118011 14.5198 0.126ZM14.5598 7.79625C16.359 7.71635 17.7665 6.25421 17.6945 4.5364C17.6225 2.73069 16.1351 1.32448 14.3998 1.40438C12.6245 1.49226 11.2251 2.9544 11.2971 4.66423C11.3611 6.45396 12.8405 7.86816 14.5598 7.79625Z" fill="black"/>
<path d="M26.6416 8.44318C26.6416 10.2089 25.2101 11.6311 23.4429 11.6311C21.6836 11.6311 20.2441 10.193 20.2441 8.4352C20.2441 6.68542 21.6916 5.23926 23.4429 5.23926C25.2101 5.23926 26.6416 6.67743 26.6416 8.44318ZM25.3621 8.44318C25.3621 7.38053 24.5064 6.52562 23.4509 6.51763C22.4033 6.51763 21.5316 7.38054 21.5316 8.4352C21.5316 9.48986 22.3873 10.3528 23.4509 10.3528C24.5064 10.3528 25.3621 9.49784 25.3621 8.44318Z" fill="black"/>
<path d="M5.58676 11.6234C3.81948 11.5995 2.40404 10.1533 2.42803 8.39555C2.45203 6.63778 3.90744 5.21559 5.66673 5.23956C7.42603 5.26353 8.84946 6.71768 8.81747 8.47544C8.79348 10.2492 7.35405 11.6554 5.58676 11.6234ZM7.53798 8.45946C7.54598 7.38882 6.68233 6.50994 5.61875 6.51793C4.57917 6.51793 3.72351 7.37285 3.70752 8.41153C3.69153 9.4582 4.55518 10.3371 5.60275 10.3451C6.66633 10.361 7.52999 9.51412 7.53798 8.45946Z" fill="black"/>
</g>
<defs>
<clipPath id="clip0_1327_379">
<rect width="29" height="19" fill="white"/>
</clipPath>
</defs>
</svg>
