<svg width="47" height="42" viewBox="0 0 47 42" fill="none" xmlns="http://www.w3.org/2000/svg">
<path d="M42.9971 8.70312C42.9971 18.5521 42.9971 28.4088 42.9971 38.2578C42.9667 38.3416 42.9362 38.4254 42.921 38.5092C42.6467 39.5832 42.0068 40.3525 40.9707 40.7715C40.7422 40.8629 40.4908 40.9238 40.2546 41C29.0788 41 17.9107 41 6.7349 41C6.65111 40.9771 6.57492 40.9391 6.49112 40.9238C5.41697 40.6496 4.64754 40.0098 4.22854 38.9814C4.12951 38.7529 4.07618 38.5016 4 38.2654C4 28.4164 4 18.5598 4 8.71074C4.02285 8.6498 4.05333 8.59648 4.06856 8.53555C4.39614 7.14922 5.37888 6.20469 6.773 6.00664C7.19961 5.9457 7.64908 5.99902 8.11378 5.99902C8.11378 5.42773 8.10617 4.93262 8.11378 4.44512C8.12902 3.35586 8.7918 2.46465 9.82024 2.12187C9.91166 2.09141 10.0031 2.0457 10.0945 2.00762C10.3764 2.00762 10.6506 2.00762 10.9325 2.00762C12.5323 2.58652 12.9818 3.23398 12.9818 4.94785C12.9818 5.27539 12.9818 5.60293 12.9818 5.93047C15.7014 5.93047 18.3754 5.93047 21.0722 5.93047C21.0722 5.40488 21.057 4.90977 21.0722 4.41465C21.1103 3.47773 21.5293 2.76172 22.3444 2.30469C22.5806 2.16758 22.8548 2.09902 23.1139 2C23.3957 2 23.67 2 23.9519 2C23.9823 2.02285 24.0052 2.05332 24.0433 2.06094C25.3231 2.45703 25.9326 3.27969 25.9402 4.6127C25.9402 5.05449 25.9402 5.48867 25.9402 5.93809C28.6522 5.93809 31.3186 5.93809 34.0154 5.93809C34.0154 5.4125 34.0001 4.90976 34.0154 4.40703C34.0459 3.47773 34.4725 2.76172 35.2876 2.30469C35.5238 2.16758 35.798 2.09902 36.057 2C36.3389 2 36.6132 2 36.895 2C36.9255 2.02285 36.9484 2.05332 36.9865 2.06094C38.2815 2.46465 38.8757 3.2873 38.8757 4.64316C38.8757 5.06973 38.8757 5.49629 38.8757 5.96094C39.2262 5.96094 39.5385 5.9457 39.8509 5.96094C41.0698 6.01426 41.9992 6.57031 42.5934 7.64434C42.7838 7.97187 42.8676 8.34512 42.9971 8.70312ZM5.51601 16.625C5.51601 16.8002 5.51601 16.9221 5.51601 17.0516C5.51601 22.8787 5.51601 28.7059 5.51601 34.533C5.51601 35.7746 6.17878 36.4297 7.42054 36.4297C18.1392 36.4297 28.8503 36.4297 39.569 36.4297C40.8107 36.4297 41.4735 35.767 41.4735 34.533C41.4735 28.7059 41.4735 22.8787 41.4735 17.0516C41.4735 16.9145 41.4735 16.785 41.4735 16.625C41.2678 16.625 41.1231 16.625 40.9707 16.625C36.3389 16.625 31.6995 16.625 27.0677 16.625C26.5115 16.625 26.1687 16.3279 26.1611 15.8633C26.1611 15.3986 26.5039 15.1092 27.06 15.1016C27.1515 15.1016 27.2353 15.1016 27.3267 15.1016C31.8823 15.1016 36.4456 15.1016 41.0012 15.1016C41.1459 15.1016 41.2983 15.1016 41.4659 15.1016C41.4659 13.0297 41.4888 10.9959 41.4507 8.96973C41.4431 8.34512 41.0621 7.83476 40.4603 7.64434C39.9728 7.49199 39.4319 7.49199 38.8834 7.42344C38.8834 7.90332 38.8834 8.26894 38.8834 8.63457C38.8681 10.0514 37.8244 11.133 36.4608 11.1406C35.0972 11.1406 34.0382 10.0666 34.0154 8.6498C34.0078 8.26895 34.0154 7.8957 34.0154 7.50723C31.3033 7.50723 28.637 7.50723 25.9326 7.50723C25.9326 7.96426 25.9478 8.39082 25.9326 8.81738C25.8869 10.0514 24.866 11.0797 23.6319 11.133C22.253 11.1939 21.1103 10.1352 21.0722 8.72598C21.057 8.31465 21.0722 7.90332 21.0722 7.49199C18.3449 7.49199 15.6862 7.49199 12.9818 7.49199C12.9818 7.88809 12.9894 8.26133 12.9818 8.64219C12.9665 10.0514 11.9 11.133 10.5363 11.133C9.1727 11.133 8.1214 10.0514 8.10617 8.63457C8.10617 8.26133 8.10617 7.88047 8.10617 7.48438C7.81668 7.48438 7.58052 7.48438 7.33674 7.48438C6.20164 7.48438 5.51601 8.16992 5.51601 9.3125C5.51601 11.1178 5.51601 12.9154 5.51601 14.7207C5.51601 14.8426 5.51601 14.9645 5.51601 15.1016C5.72169 15.1016 5.87406 15.1016 6.02642 15.1016C10.5973 15.1016 15.1682 15.1016 19.739 15.1016C19.8762 15.1016 20.0209 15.0939 20.158 15.1092C20.5466 15.1549 20.8284 15.4824 20.8284 15.8633C20.8284 16.2441 20.5389 16.5641 20.1504 16.6098C20.0133 16.625 19.8685 16.6174 19.7314 16.6174C15.1605 16.6174 10.5897 16.6174 6.0188 16.6174C5.86644 16.625 5.72169 16.625 5.51601 16.625ZM41.4278 37.4961C40.6736 37.9684 39.8356 37.9531 38.99 37.9531C29.1017 37.9455 19.2134 37.9607 9.31745 37.9379C8.04522 37.9379 6.7349 38.1969 5.52362 37.4961C5.45506 38.7301 6.15593 39.4689 7.35197 39.4689C18.1011 39.4689 28.8579 39.4689 39.6071 39.4689C39.7061 39.4689 39.8128 39.4689 39.9118 39.4613C40.9022 39.3928 41.5802 38.5244 41.4278 37.4961ZM11.4505 6.57031C11.4505 5.9 11.4581 5.22207 11.4505 4.55176C11.4429 3.92715 11.062 3.51582 10.5211 3.52344C9.98784 3.53105 9.62979 3.94238 9.62979 4.54414C9.62217 5.89238 9.62979 7.23301 9.62979 8.58125C9.62979 9.19062 9.98784 9.59434 10.5211 9.60957C11.062 9.6248 11.4505 9.20586 11.4505 8.58887C11.4581 7.91094 11.4505 7.24063 11.4505 6.57031ZM37.3597 6.56269C37.3597 5.89238 37.3597 5.21445 37.3597 4.54414C37.3521 3.93477 37.0017 3.53105 36.4684 3.51582C35.9275 3.50059 35.539 3.91953 35.539 4.54414C35.5314 5.89238 35.5314 7.23301 35.539 8.58125C35.539 9.19824 35.9275 9.61719 36.4684 9.60957C36.9941 9.59434 37.3521 9.19062 37.3597 8.58125C37.3597 7.91094 37.3597 7.24062 37.3597 6.56269ZM24.4089 6.58555C24.4089 5.9 24.4166 5.21445 24.4089 4.52891C24.4013 3.92715 24.0357 3.52344 23.5024 3.52344C22.9767 3.52344 22.5958 3.93477 22.5958 4.52891C22.5882 5.88477 22.5882 7.24824 22.5958 8.6041C22.5958 9.19824 22.9844 9.60957 23.51 9.60957C24.0433 9.60957 24.4089 9.20586 24.4166 8.59648C24.4166 7.92617 24.4089 7.25586 24.4089 6.58555Z" fill="#C1C1C1"/>
<path d="M26.8934 33.2989C26.6115 33.1999 26.3144 33.139 26.0478 33.0019C25.3088 32.6362 24.5851 32.2478 23.8614 31.8517C23.6176 31.7145 23.4271 31.6993 23.1681 31.844C22.4749 32.2401 21.7588 32.5905 21.0503 32.9638C20.3647 33.3294 19.6866 33.3675 19.0467 32.8952C18.422 32.4382 18.2316 31.806 18.3763 31.0442C18.5363 30.2216 18.643 29.3913 18.8029 28.5687C18.8486 28.3478 18.7801 28.2183 18.6353 28.0735C18.0335 27.4946 17.4393 26.9005 16.8375 26.3216C16.289 25.7884 16.0604 25.1638 16.3042 24.4249C16.548 23.686 17.0965 23.3204 17.8583 23.2214C18.6887 23.1147 19.519 22.9929 20.3418 22.8481C20.4942 22.8177 20.677 22.6806 20.7532 22.5435C21.1341 21.8274 21.4921 21.0962 21.8349 20.3649C22.1701 19.6489 22.6958 19.1995 23.5109 19.2071C24.3261 19.2071 24.8441 19.6642 25.1793 20.3802C25.5221 21.1114 25.8802 21.8427 26.2611 22.5587C26.3296 22.6958 26.5277 22.8253 26.6801 22.8481C27.5257 22.9929 28.3865 23.1071 29.2398 23.2366C29.9559 23.3433 30.4587 23.7241 30.7024 24.4097C30.9462 25.1181 30.7634 25.7351 30.2454 26.253C29.6359 26.8624 29.0188 27.4642 28.3941 28.0583C28.2342 28.2106 28.1656 28.3478 28.2113 28.5839C28.3789 29.4446 28.516 30.3054 28.6608 31.1661C28.8284 32.2782 28.0132 33.2456 26.8934 33.2989ZM23.5033 30.0235C23.6862 30.0997 23.869 30.153 24.0366 30.2368C24.9127 30.6938 25.7888 31.1585 26.6648 31.6079C26.7715 31.6612 26.9619 31.7069 27.0381 31.646C27.1143 31.5927 27.1295 31.4022 27.1067 31.2727C26.9467 30.2825 26.7867 29.2923 26.6039 28.3097C26.5277 27.8983 26.6496 27.6013 26.9391 27.327C27.6552 26.6415 28.3637 25.9483 29.0645 25.2476C29.156 25.1561 29.255 24.9962 29.2245 24.9124C29.1941 24.821 29.0188 24.7524 28.8969 24.7296C27.9294 24.5772 26.9696 24.4249 26.0021 24.303C25.5754 24.2497 25.2783 24.0745 25.0879 23.6708C24.6689 22.7872 24.2347 21.9188 23.7928 21.0429C23.7319 20.921 23.6024 20.8296 23.5109 20.7153C23.4043 20.8296 23.2595 20.921 23.1986 21.0505C22.7644 21.896 22.3377 22.7415 21.934 23.6099C21.7359 24.0364 21.4464 24.2497 20.9817 24.303C20.0371 24.4173 19.1 24.562 18.1554 24.7144C18.0107 24.7372 17.8811 24.8438 17.744 24.92C17.8202 25.0419 17.8659 25.1866 17.9649 25.2856C18.6658 25.9864 19.3743 26.672 20.0904 27.3651C20.357 27.6241 20.4637 27.906 20.3951 28.2868C20.2123 29.2618 20.0523 30.2368 19.8999 31.2118C19.8771 31.3565 19.9304 31.5165 19.9533 31.6688C20.1056 31.6384 20.2732 31.6308 20.4104 31.5622C21.2788 31.1204 22.1397 30.6558 23.0081 30.214C23.1605 30.1378 23.3281 30.0921 23.5033 30.0235Z" fill="#C1C1C1"/>
<path d="M23.463 16.6181C23.044 16.6029 22.7087 16.2296 22.7316 15.8106C22.762 15.4068 23.1202 15.0868 23.5164 15.1021C23.9354 15.1173 24.2707 15.4906 24.2478 15.9096C24.2249 16.3134 23.8668 16.6334 23.463 16.6181Z" fill="#C1C1C1"/>
</svg>
