<svg width="30" height="30" viewBox="0 0 30 30" fill="none" xmlns="http://www.w3.org/2000/svg">
<path d="M13.8319 2.35547C14.3527 2.35547 14.8735 2.35547 15.3944 2.35547C15.5545 2.37546 15.714 2.39738 15.8742 2.41415C18.3469 2.67788 20.563 3.56969 22.4843 5.13276C24.8808 7.08143 26.3717 9.57306 26.9212 12.6031C27.0025 13.0532 27.0501 13.5091 27.1132 13.9624C27.1132 14.4783 27.1132 14.9942 27.1132 15.51C27.0995 15.5642 27.0813 15.6177 27.0742 15.6725C27.0006 16.1981 26.9615 16.7313 26.8508 17.2491C25.498 23.6123 19.4628 27.8669 12.9686 27.0061C9.63456 26.5637 6.89365 25.0116 4.81486 22.3962C2.53099 19.5228 1.7022 16.2451 2.30182 12.6354C2.7289 10.0625 3.9086 7.85394 5.76278 6.00973C7.62934 4.15326 9.87154 2.98934 12.4835 2.54247C12.9308 2.46573 13.382 2.41673 13.8319 2.35547ZM14.6021 3.90306C8.57661 3.91274 3.67683 8.7696 3.67553 14.7343C3.67422 20.7061 8.59744 25.5784 14.6235 25.5687C20.649 25.5591 25.5494 20.7016 25.5501 14.7369C25.5514 8.76444 20.6301 3.89404 14.6021 3.90306Z" fill="#969696"/>
<path d="M14.037 22.2423C11.7837 22.1623 9.5897 20.9894 8.08511 18.6029C7.91258 18.3295 7.86506 18.0522 8.01806 17.7569C8.29671 17.221 9.04412 17.1991 9.37811 17.7343C9.78436 18.3856 10.2694 18.9614 10.8749 19.4392C13.6223 21.6097 17.8366 20.903 19.7038 17.9561C19.7513 17.8813 19.7976 17.8052 19.8464 17.7311C20.1016 17.348 20.556 17.2352 20.9297 17.4615C21.2982 17.6846 21.4076 18.1438 21.1758 18.5403C20.7058 19.3431 20.1055 20.0383 19.3718 20.6173C18.0117 21.6916 16.3847 22.2442 14.037 22.2423Z" fill="#969696"/>
<path d="M7.91359 11.6792C7.91684 10.819 8.61347 10.1368 9.48393 10.1406C10.3329 10.1445 11.0321 10.839 11.0361 11.6812C11.04 12.5292 10.3277 13.2353 9.46961 13.2346C8.60501 13.234 7.91033 12.5395 7.91359 11.6792Z" fill="#969696"/>
<path d="M21.3122 11.6824C21.3141 12.542 20.6175 13.2351 19.7522 13.2345C18.8948 13.2339 18.1825 12.5245 18.189 11.6779C18.1955 10.8345 18.8954 10.1432 19.7444 10.1406C20.6149 10.1374 21.3102 10.8216 21.3122 11.6824Z" fill="#969696"/>
</svg>
