<svg width="30" height="30" viewBox="0 0 30 30" fill="none" xmlns="http://www.w3.org/2000/svg">
<path d="M14.5387 2.02425C15.4406 1.98733 16.3546 1.98733 17.2565 2.06117C17.287 2.06117 17.3114 2.06732 17.3418 2.06732C17.7379 2.10424 18.1279 2.15961 18.5119 2.25191C18.8897 2.3442 19.2614 2.46111 19.627 2.59032C20.992 3.0764 22.2535 3.75937 23.3808 4.68231C23.4661 4.74999 23.5393 4.82383 23.588 4.92227C23.6368 5.04533 23.7038 5.14993 23.7891 5.25453C24.429 6.04211 24.886 6.93428 25.2699 7.86952C25.7513 9.02627 26.0378 10.2322 26.1535 11.4813C26.3485 13.5979 26.0743 15.6468 25.2516 17.6157C24.7398 18.8463 24.0512 19.9723 23.1797 20.9814C22.0463 22.2981 20.7178 23.3564 19.17 24.1255C17.8903 24.7593 16.5435 25.1777 15.1237 25.3192C13.3747 25.4976 11.6441 25.3746 9.95 24.8454C8.7678 24.4763 7.67091 23.941 6.64105 23.258C6.39729 23.098 6.22666 22.8396 5.92807 22.7534C5.76963 22.6796 5.68431 22.5381 5.58681 22.4089C4.28273 20.6922 3.41131 18.7787 3.10052 16.6374C2.96646 15.7022 2.99693 14.7423 3.0213 13.7948C3.04568 13.0134 3.11271 12.2442 3.30771 11.4874C3.80741 9.58003 4.66664 7.86952 5.94025 6.36206C7.50637 4.51618 9.43812 3.23022 11.7233 2.47957C12.6008 2.19038 13.5088 2.06732 14.429 2.02425C14.4655 2.0304 14.5021 2.02425 14.5387 2.02425Z" fill="#FED83B"/>
<path d="M14.4899 27.1577C14.2583 27.1393 14.0267 27.1147 13.7952 27.0839C13.3381 27.0224 12.8811 26.9362 12.4362 26.8193C12.1194 26.7393 11.8025 26.6409 11.4917 26.5363C10.7909 26.2963 10.1145 26.001 9.46853 25.638C8.82258 25.2811 8.2132 24.8565 7.64647 24.3889C7.06146 23.9028 6.51911 23.3614 6.01942 22.783C6.00723 22.7707 5.99504 22.7522 5.98285 22.7399C5.96457 22.7215 5.95848 22.6969 5.94629 22.6784C6.14129 22.7092 6.26926 22.863 6.41552 22.9676C8.0121 24.112 9.77322 24.8319 11.705 25.1457C12.6312 25.2934 13.5636 25.318 14.496 25.2688C15.6416 25.2134 16.7568 24.9611 17.8415 24.5673C19.0785 24.1182 20.2242 23.4906 21.2601 22.6722C22.5825 21.6263 23.6733 20.3772 24.5081 18.8944C25.1602 17.7315 25.6172 16.4886 25.8793 15.178C26.123 13.9782 26.1535 12.7599 26.056 11.5416C25.9707 10.5141 25.7574 9.5173 25.4222 8.55129C25.0139 7.35763 24.435 6.25625 23.6855 5.24718C23.6184 5.15488 23.5392 5.06874 23.5148 4.95184C23.655 4.878 23.7464 4.97645 23.8378 5.05644C25.9585 6.96999 27.3174 9.33272 27.878 12.1508C27.9573 12.5507 27.9512 12.9629 27.9755 13.3752C27.9816 13.4552 27.9512 13.5413 27.9999 13.6151C27.9999 13.7136 27.9999 13.812 27.9999 13.9105C27.9634 14.0274 27.9634 14.1381 27.9999 14.2551C27.9999 14.5012 27.9999 14.7473 27.9999 14.9934C27.9573 15.1226 27.9573 15.258 27.9999 15.3872C27.9999 15.4672 27.9999 15.5533 27.9999 15.6333C27.9451 16.0025 27.9634 16.3778 27.9146 16.7531C27.7866 17.7253 27.5002 18.6544 27.1224 19.5527C26.6105 20.7771 25.9219 21.8908 25.0627 22.8999C24.1181 24.0074 23.0091 24.9181 21.7537 25.6503C20.5715 26.3394 19.304 26.807 17.9633 27.0716C17.5185 27.1577 17.0615 27.1639 16.6105 27.1823C15.8975 27.2008 15.1906 27.2069 14.4899 27.1577Z" fill="#F3C434"/>
<path d="M27.9875 15.386C27.9143 15.2568 27.9143 15.1214 27.9875 14.9922C27.9875 15.1276 27.9875 15.2568 27.9875 15.386Z" fill="#F6CD46"/>
<path d="M27.9875 14.2547C27.9143 14.1378 27.9143 14.0271 27.9875 13.9102C27.9875 14.0271 27.9875 14.144 27.9875 14.2547Z" fill="#F6CC44"/>
<path d="M15.5008 22.6959C11.881 22.6774 8.77925 20.2778 7.81033 16.746C7.71283 16.383 7.83471 16.1061 8.1333 16.0077C8.4319 15.9092 8.70612 16.0815 8.80972 16.4691C9.15707 17.7305 9.79692 18.8072 10.7293 19.724C13.0388 21.9945 16.8292 22.2898 19.4496 20.407C20.7963 19.441 21.7104 18.1673 22.1735 16.5676C22.1918 16.4999 22.2101 16.4261 22.2406 16.3584C22.3563 16.0692 22.6123 15.9215 22.8743 16.0077C23.1546 16.0938 23.3009 16.3584 23.2217 16.666C23.051 17.3428 22.8012 17.9889 22.4538 18.598C21.3509 20.5239 19.736 21.7976 17.6153 22.4129C16.9267 22.6097 16.2198 22.6959 15.5008 22.6959Z" fill="#3E4347"/>
<path d="M17.6406 12.6818C17.6467 12.1895 17.8356 11.5927 18.3049 11.1128C19.0727 10.3375 20.1635 10.3806 20.8765 11.2112C21.6869 12.1526 21.626 13.7462 20.7424 14.6199C19.9685 15.3829 18.7741 15.2783 18.1281 14.3923C17.7991 13.9246 17.6406 13.4139 17.6406 12.6818Z" fill="#3E4347"/>
<path d="M13.381 12.941C13.3505 13.5809 13.1616 14.1224 12.7411 14.5592C11.9611 15.3653 10.8703 15.3284 10.139 14.4793C9.34074 13.5502 9.40168 11.9442 10.267 11.089C11.0409 10.326 12.1744 10.3999 12.8508 11.2613C13.2225 11.7227 13.4236 12.3873 13.381 12.941Z" fill="#3E4347"/>
<path d="M20.4864 12.0899C20.4986 12.2745 20.4193 12.3914 20.2061 12.3852C19.9501 12.3791 19.749 12.176 19.749 11.9115C19.749 11.7146 19.8343 11.6038 20.0354 11.5977C20.2792 11.5977 20.4803 11.813 20.4864 12.0899Z" fill="#595E62"/>
<path d="M12.4355 12.1203C12.4233 12.268 12.3684 12.391 12.1612 12.391C11.9236 12.3849 11.6555 12.1387 11.6737 11.9111C11.6859 11.7265 11.7834 11.6034 11.9845 11.6096C12.1978 11.6034 12.4355 11.868 12.4355 12.1203Z" fill="#595E62"/>
</svg>
