<svg width="23" height="23" viewBox="0 0 23 23" fill="none" xmlns="http://www.w3.org/2000/svg">
<g clip-path="url(#clip0_1118_379)">
<path d="M8.73442 18.1698C8.94212 18.1474 9.14982 18.1361 9.35751 18.1081C11.1987 17.861 12.6863 16.1259 12.647 14.2786C12.6414 13.9922 12.4505 13.7508 12.1867 13.6946C11.9172 13.6385 11.6366 13.7732 11.5355 14.0428C11.485 14.1719 11.485 14.3179 11.4738 14.4583C11.3615 15.9013 10.1827 16.9907 8.74004 16.985C7.60052 16.9794 6.5901 16.2776 6.19716 15.2219C5.793 14.1326 6.09612 12.9366 6.97182 12.1842C7.49386 11.7349 8.10573 11.544 8.78495 11.5103C9.11614 11.4935 9.3519 11.224 9.34067 10.9208C9.32944 10.6063 9.06001 10.3593 8.72881 10.3536C6.78096 10.3368 5.04642 11.9146 4.87241 13.8743C4.64787 16.1821 6.42731 18.1474 8.73442 18.1698Z" fill="white"/>
<path d="M16.6213 0.00561371C16.8402 0.117915 17.076 0.20214 17.2668 0.348132C17.598 0.60081 17.6935 0.982632 17.7496 1.37569C17.7664 1.4936 17.7833 1.66206 17.8619 1.71821C18.0303 1.83613 18.238 1.89227 18.4344 1.96527C18.4681 1.9765 18.5243 1.92597 18.5692 1.89789C18.7319 1.79121 18.8891 1.67329 19.0519 1.57221C19.5403 1.28585 20.1353 1.32516 20.5563 1.69576C20.8201 1.92598 21.0727 2.17864 21.3029 2.44255C21.679 2.87491 21.7183 3.47012 21.4264 3.96986C21.3927 4.02601 21.3534 4.08216 21.3197 4.13832C21.0054 4.58752 21.0054 4.58751 21.2467 5.08164C21.2748 5.1434 21.3534 5.19956 21.4208 5.21641C21.6172 5.26694 21.8193 5.2894 22.0102 5.33994C22.5827 5.49154 22.9645 5.96883 22.9869 6.56403C22.9981 6.86163 22.9981 7.16484 22.9869 7.46244C22.9645 8.07448 22.5659 8.56299 21.9765 8.70898C21.8923 8.73144 21.8025 8.75951 21.7127 8.75951C21.4039 8.76513 21.2187 8.89427 21.1176 9.20872C21.0503 9.41648 21.0503 9.55686 21.185 9.73092C21.432 10.0398 21.6228 10.3711 21.606 10.7922C21.5892 11.0954 21.505 11.3705 21.3029 11.5951C21.084 11.8366 20.8538 12.078 20.6068 12.297C20.1465 12.7181 19.5459 12.7687 19.0126 12.4542C18.934 12.4093 18.8498 12.3644 18.7881 12.3026C18.5635 12.078 18.3446 12.0724 18.0471 12.2072C17.8113 12.3139 17.7552 12.4655 17.7271 12.6788C17.6766 13.1337 17.5363 13.5548 17.1153 13.7962C16.9244 13.9085 16.6943 13.9928 16.4697 14.0152C16.1442 14.0545 15.813 14.0377 15.4818 14.0209C14.9092 13.9984 14.4433 13.6166 14.2917 13.0663C14.2693 12.9877 14.2356 12.9034 14.2356 12.8248C14.2524 12.4206 14.0391 12.224 13.6743 12.123C13.5451 12.0893 13.4553 12.0893 13.3487 12.1679C13.0624 12.37 12.793 12.5946 12.4225 12.6395C12.0352 12.6845 11.6871 12.6058 11.4008 12.3476C11.137 12.1117 10.8844 11.8647 10.6543 11.6007C10.2782 11.174 10.2389 10.59 10.5195 10.0959C10.5588 10.0229 10.5925 9.9443 10.6543 9.88815C11.0023 9.58493 10.89 9.25926 10.6992 8.93359C10.6655 8.87744 10.5757 8.83251 10.5083 8.81566C10.3062 8.76513 10.0929 8.74268 9.89645 8.68653C9.36317 8.52931 8.99829 8.06886 8.97584 7.51297C8.96461 7.20414 8.95901 6.90093 8.97023 6.5921C8.99269 5.93514 9.40246 5.44662 10.048 5.30624C10.1378 5.2894 10.222 5.26133 10.3118 5.26133C10.57 5.25572 10.6935 5.12656 10.8114 4.88511C10.9686 4.57067 10.8227 4.39099 10.6655 4.16639C10.1715 3.47012 10.2276 2.84122 10.8339 2.2348C11.0135 2.05511 11.1875 1.86982 11.3784 1.70136C11.8106 1.32515 12.4056 1.27462 12.8996 1.56099C12.9726 1.60029 13.0512 1.63399 13.1073 1.69576C13.4104 2.04951 13.736 1.92035 14.056 1.74067C14.1121 1.71259 14.157 1.63399 14.1739 1.56661C14.2132 1.415 14.23 1.25778 14.2581 1.10617C14.3703 0.555897 14.6959 0.202139 15.2292 0.0449165C15.2572 0.0393014 15.2741 0.0168452 15.3021 0C15.7512 0.00561508 16.1891 0.00561371 16.6213 0.00561371ZM18.513 10.7697C18.6365 10.8259 18.7656 10.8652 18.8723 10.9326C19.0968 11.0786 19.3157 11.2358 19.5347 11.393C19.6694 11.4941 19.7873 11.4997 19.9051 11.3649C20.0342 11.2189 20.1746 11.0842 20.3205 10.955C20.4553 10.8315 20.4721 10.7192 20.3598 10.5676C20.2027 10.3598 20.0623 10.1408 19.9051 9.92745C19.7423 9.69723 19.7255 9.46701 19.8434 9.20872C19.995 8.87743 20.1353 8.54052 20.2644 8.19801C20.3654 7.92287 20.5563 7.77689 20.837 7.73196C21.0952 7.69266 21.3534 7.6365 21.6116 7.59719C21.7632 7.57473 21.8362 7.49612 21.8305 7.34452C21.8249 7.13676 21.8249 6.92339 21.8305 6.71563C21.8362 6.53595 21.752 6.45734 21.5836 6.43488C21.3253 6.39557 21.0671 6.33943 20.8089 6.30012C20.5282 6.26081 20.3542 6.10358 20.2588 5.83967C20.1353 5.50277 20.0006 5.17148 19.849 4.84581C19.7199 4.57067 19.7367 4.32922 19.9164 4.08777C20.0679 3.88563 20.2026 3.66665 20.3542 3.46451C20.4553 3.32974 20.4609 3.21182 20.3261 3.09391C20.1802 2.95914 20.0343 2.81315 19.8995 2.66715C19.776 2.53801 19.6638 2.53801 19.529 2.63908C19.3213 2.7963 19.1024 2.93668 18.8891 3.09391C18.659 3.25674 18.4344 3.27359 18.1706 3.15568C17.8338 2.99846 17.4858 2.86369 17.1377 2.72893C16.8907 2.63347 16.7448 2.47063 16.6999 2.20672C16.655 1.94281 16.6045 1.67891 16.5652 1.40938C16.5371 1.24093 16.4641 1.15671 16.2845 1.16233C16.0768 1.17356 15.8635 1.16794 15.6558 1.16233C15.4986 1.15671 15.4256 1.2297 15.4032 1.38131C15.3639 1.6396 15.3078 1.8979 15.2685 2.15619C15.2236 2.44256 15.072 2.62785 14.8026 2.72893C14.4601 2.85807 14.1233 2.99283 13.7921 3.15006C13.5339 3.26797 13.3038 3.25112 13.0792 3.08829C12.8659 2.93668 12.647 2.79069 12.4393 2.63347C12.299 2.52679 12.1867 2.5324 12.0688 2.66155C11.9285 2.80754 11.7882 2.95352 11.6422 3.08829C11.5131 3.2062 11.5131 3.32412 11.6141 3.45889C11.7713 3.67787 11.9229 3.89686 12.0801 4.12147C12.226 4.33484 12.2541 4.55383 12.1418 4.79528C11.9846 5.14341 11.8387 5.49155 11.704 5.85091C11.6085 6.09798 11.4457 6.24396 11.1819 6.28888C10.9181 6.3338 10.6543 6.38434 10.3848 6.42365C10.2164 6.45172 10.1378 6.53033 10.1434 6.71001C10.1547 6.91777 10.149 7.13115 10.1434 7.33891C10.1378 7.49613 10.2108 7.56913 10.3623 7.59159C10.6206 7.63089 10.8788 7.68704 11.137 7.72634C11.4233 7.77126 11.6085 7.91726 11.7096 8.1924C11.8387 8.53492 11.979 8.87182 12.1306 9.20311C12.2485 9.46141 12.226 9.69163 12.0632 9.92184C11.9116 10.1352 11.7657 10.3542 11.6085 10.562C11.5075 10.6967 11.5075 10.8146 11.6366 10.9326C11.7825 11.0673 11.9285 11.2133 12.0632 11.3593C12.1867 11.4884 12.299 11.4828 12.4337 11.3818C12.6414 11.2245 12.8603 11.0785 13.0736 10.9269C13.3038 10.7641 13.5339 10.7473 13.7921 10.8652C14.1177 11.0168 14.4489 11.1515 14.7857 11.2751C15.0664 11.3761 15.2292 11.5614 15.2741 11.859C15.3134 12.1173 15.3695 12.3756 15.4088 12.6339C15.4313 12.7855 15.5098 12.8529 15.667 12.8529C15.8747 12.8473 16.088 12.8417 16.2957 12.8529C16.4754 12.8585 16.5539 12.7743 16.5764 12.6058C16.6157 12.3532 16.6718 12.1061 16.7055 11.8534C16.7448 11.5502 16.9132 11.3761 17.1939 11.2695C17.5195 11.1459 17.8394 10.9999 18.165 10.8708C18.2716 10.8427 18.3839 10.8146 18.513 10.7697Z" fill="black"/>
<path d="M0.00561203 13.4824C0.0785863 13.3139 0.129108 13.1286 0.224536 12.9714C0.471526 12.539 0.858846 12.2751 1.3416 12.2358C1.89733 12.1965 2.25658 12.0112 2.40815 11.4272C2.46989 11.1858 2.50919 11.023 2.34079 10.8321C2.18923 10.658 2.06574 10.4558 1.95347 10.2593C1.64473 9.72589 1.69524 9.04645 2.09941 8.5804C2.39692 8.23788 2.72811 7.91783 3.07053 7.61461C3.53644 7.20471 4.2325 7.15418 4.76578 7.47424C5.00715 7.62023 5.24292 7.78868 5.46745 7.95714C5.57411 8.03575 5.65832 8.03574 5.77058 7.97959C5.98389 7.87852 6.21404 7.7999 6.42735 7.69322C6.50594 7.65391 6.5789 7.55846 6.60136 7.47424C6.6631 7.24402 6.68557 7.00257 6.73609 6.77235C6.80906 6.45229 7.10657 6.25015 7.39847 6.30069C7.70159 6.35684 7.92052 6.63759 7.87561 6.95765C7.81948 7.37317 7.74089 7.78307 7.6623 8.19297C7.61739 8.42319 7.47144 8.56918 7.25252 8.65902C6.7866 8.84432 6.32631 9.03523 5.86601 9.23176C5.62463 9.33844 5.4057 9.32721 5.18678 9.17561C4.88927 8.96223 4.58615 8.75448 4.28864 8.54672C4.04726 8.37827 3.90132 8.39511 3.69362 8.59725C3.48593 8.79939 3.27823 9.00715 3.07615 9.21491C2.89091 9.40582 2.87406 9.55181 3.02562 9.77642C3.2277 10.074 3.4354 10.366 3.64309 10.658C3.82834 10.9107 3.82273 11.1577 3.69362 11.4329C3.50838 11.8315 3.33437 12.2358 3.18842 12.6513C3.07615 12.977 2.88529 13.1455 2.5541 13.196C2.21168 13.2465 1.87487 13.3083 1.53807 13.3757C1.26862 13.4262 1.17881 13.5385 1.1732 13.8024C1.16758 14.1 1.16758 14.4032 1.1732 14.7008C1.17881 14.9704 1.27985 15.0883 1.55491 15.1388C1.90294 15.2006 2.24536 15.2623 2.59339 15.3185C2.88529 15.369 3.06492 15.5263 3.17157 15.8126C3.32875 16.245 3.50838 16.6717 3.70485 17.0929C3.82834 17.368 3.82834 17.6038 3.64871 17.8509C3.44102 18.1373 3.24455 18.4236 3.04246 18.7156C2.87406 18.9627 2.87968 19.0974 3.08737 19.3108C3.28946 19.5186 3.49715 19.7263 3.70485 19.9285C3.90693 20.125 4.04727 20.1362 4.28303 19.9734C4.57493 19.7769 4.86121 19.5747 5.14749 19.367C5.40009 19.1817 5.64147 19.1761 5.92214 19.3108C6.33192 19.5017 6.75292 19.6814 7.17954 19.833C7.47144 19.9397 7.63984 20.1194 7.68475 20.4226C7.74088 20.7707 7.80263 21.1133 7.86437 21.4614C7.90928 21.7253 8.02716 21.8264 8.28538 21.832C8.59412 21.8376 8.89725 21.8376 9.20598 21.832C9.45859 21.8264 9.57085 21.7365 9.62137 21.4839C9.68312 21.1638 9.75048 20.8381 9.79539 20.5124C9.84591 20.1362 10.0312 19.9172 10.4016 19.8049C10.789 19.687 11.1707 19.513 11.5355 19.3333C11.8387 19.1817 12.0969 19.1817 12.3719 19.3838C12.647 19.5916 12.9333 19.7825 13.214 19.979C13.4497 20.1418 13.5901 20.1306 13.7921 19.9285C13.9886 19.7376 14.1851 19.5354 14.3815 19.3389C14.6173 19.0974 14.6342 18.9627 14.4433 18.6932C14.2468 18.4124 14.0504 18.126 13.8483 17.8509C13.6743 17.6095 13.6686 17.368 13.7978 17.0929C13.9942 16.6717 14.1682 16.245 14.331 15.8126C14.4321 15.5375 14.6005 15.3747 14.8867 15.3241C15.2236 15.268 15.566 15.2006 15.9028 15.15C16.0263 15.1332 16.161 15.122 16.2789 15.15C16.5427 15.2062 16.7167 15.4533 16.7111 15.7059C16.7055 15.9586 16.5259 16.2001 16.2733 16.2618C16.0319 16.318 15.7905 16.3629 15.5435 16.3966C15.4144 16.4134 15.3414 16.4584 15.3021 16.5875C15.2685 16.711 15.2348 16.8402 15.1674 16.9413C14.9204 17.2782 15.0159 17.5533 15.2628 17.8453C15.5211 18.1485 15.7175 18.491 15.7344 18.9121C15.7456 19.3277 15.6333 19.6983 15.347 20.0015C15.072 20.2935 14.7913 20.5911 14.4882 20.855C13.9493 21.3266 13.2701 21.3772 12.6638 21.0009C12.4561 20.8718 12.2485 20.7314 12.0576 20.5798C11.9341 20.4787 11.8331 20.4844 11.6927 20.5517C11.5075 20.6472 11.311 20.7314 11.1145 20.7932C10.9518 20.8437 10.8956 20.9392 10.8732 21.0964C10.8395 21.3379 10.8002 21.5849 10.7384 21.8208C10.5644 22.5226 10.0031 22.9718 9.27896 22.9943C8.959 23.0055 8.63341 22.9999 8.31344 22.9943C7.44898 22.9887 6.85958 22.4946 6.7024 21.6411C6.66872 21.467 6.62382 21.2873 6.61259 21.1133C6.60137 20.928 6.52277 20.8381 6.34875 20.782C6.14106 20.7202 5.9502 20.6079 5.74812 20.5405C5.66392 20.5124 5.54604 20.5237 5.47307 20.563C5.23169 20.709 5.00715 20.8887 4.76578 21.0346C4.21005 21.3659 3.51961 21.3098 3.03124 20.8774C2.71689 20.6023 2.41937 20.3047 2.1387 19.9902C1.6784 19.4793 1.62227 18.7942 1.97592 18.2047C2.11625 17.9688 2.29588 17.7498 2.43621 17.514C2.47551 17.4466 2.48673 17.3343 2.46428 17.2557C2.38569 17.0255 2.29027 16.7953 2.178 16.5763C2.13871 16.4977 2.04328 16.419 1.96469 16.3966C1.73454 16.3348 1.49317 16.3124 1.26302 16.2618C0.634315 16.1327 0.230144 15.7509 0.0505152 15.1332C0.0392884 15.0995 0.0168402 15.0714 0 15.0377C0.00561341 14.5268 0.00561203 14.0046 0.00561203 13.4824Z" fill="black"/>
<path d="M8.73446 18.1698C6.42735 18.1474 4.64791 16.1765 4.85561 13.8743C5.03524 11.9146 6.76978 10.3368 8.71201 10.3536C9.0432 10.3593 9.31264 10.6063 9.32387 10.9208C9.3351 11.224 9.09934 11.4935 8.76815 11.5103C8.08893 11.544 7.47706 11.7349 6.95502 12.1842C6.07932 12.9422 5.7762 14.1326 6.18036 15.2219C6.5733 16.2776 7.58372 16.985 8.72324 16.985C10.1659 16.9907 11.3447 15.9013 11.457 14.4583C11.4682 14.3179 11.4738 14.1719 11.5187 14.0428C11.6198 13.7732 11.9004 13.6329 12.1699 13.6946C12.4393 13.7508 12.6246 13.9922 12.6302 14.2786C12.6695 16.1259 11.1763 17.861 9.34071 18.1081C9.15547 18.1361 8.94216 18.153 8.73446 18.1698Z" fill="black"/>
<path d="M15.9813 9.80339C14.4376 9.79777 13.2026 8.55684 13.2026 7.0127C13.2026 5.46855 14.46 4.21638 16.0037 4.22761C17.5362 4.23884 18.7824 5.49663 18.7711 7.02955C18.7655 8.56808 17.5137 9.809 15.9813 9.80339ZM15.9813 8.63545C16.8682 8.63545 17.5979 7.91673 17.6035 7.02955C17.6092 6.14236 16.8682 5.40117 15.9757 5.40117C15.1 5.40117 14.3702 6.13674 14.3702 7.02393C14.3702 7.91111 15.0944 8.63545 15.9813 8.63545Z" fill="black"/>
</g>
<defs>
<clipPath id="clip0_1118_379">
<rect width="23" height="23" fill="white"/>
</clipPath>
</defs>
</svg>
