<svg width="23" height="23" viewBox="0 0 23 23" fill="none" xmlns="http://www.w3.org/2000/svg">
<path d="M4.37523 22.6782C4.20365 22.6369 4.03206 22.6015 3.86047 22.5601C2.16825 22.1231 1.00263 20.6407 1.00263 18.8985C0.996713 13.8845 1.00263 8.8764 1.00263 3.86238C1.00263 3.36039 1.31622 3.01786 1.7659 3.01195C2.22742 3.01195 2.54693 3.35449 2.54693 3.8742C2.54693 6.11839 2.54693 8.36259 2.54693 10.6068C2.54693 13.3471 2.54693 16.0815 2.54693 18.8217C2.54693 19.9616 3.23328 20.8533 4.29832 21.1073C4.49949 21.1545 4.70658 21.1723 4.91367 21.1723C9.64123 21.1782 14.3629 21.1782 19.0904 21.1723C20.4927 21.1723 21.4631 20.2037 21.4631 18.8099C21.4631 13.8373 21.4631 8.85868 21.4631 3.88601C21.4631 2.47452 20.4927 1.51779 19.0727 1.51188C15.3687 1.51188 11.6648 1.51188 7.95493 1.51188C6.52897 1.51188 5.56452 2.47452 5.56452 3.90372C5.56452 8.84687 5.56452 13.7959 5.56452 18.7391C5.56452 19.2647 5.23318 19.6072 4.75391 19.5836C4.38115 19.5659 4.07348 19.2529 4.04981 18.8808C4.04981 18.8395 4.04981 18.7922 4.04981 18.7509C4.04981 13.7841 4.04981 8.81734 4.04981 3.84467C4.04981 2.0375 5.19176 0.555143 6.90765 0.12402C7.21532 0.0472449 7.53483 0.00590435 7.84843 0.00590435C11.6293 -1.44193e-06 15.4042 0 19.1851 0C21.3152 0 22.9956 1.67134 22.9956 3.79151C23.0015 8.81734 23.0015 13.8432 22.9956 18.8749C22.9956 20.7943 21.6347 22.3475 19.7235 22.6428C19.688 22.6487 19.6585 22.6664 19.623 22.6782C14.5522 22.6782 9.46373 22.6782 4.37523 22.6782Z" fill="black"/>
<path d="M13.1618 11.7347C13.1618 12.3489 13.1677 12.9572 13.1618 13.5714C13.1559 14.4455 12.5524 15.0951 11.6707 15.1188C10.6353 15.1424 9.59984 15.1424 8.56439 15.1188C7.6887 15.0951 7.08518 14.4455 7.07927 13.5655C7.07335 12.343 7.07335 11.1146 7.07927 9.89214C7.08518 8.97674 7.73604 8.33301 8.64723 8.33301C9.62943 8.33301 10.6116 8.33301 11.5997 8.33301C12.505 8.33301 13.15 8.98264 13.1559 9.88032C13.1677 10.4945 13.1618 11.1146 13.1618 11.7347ZM8.61173 9.83898C8.61173 11.1028 8.61173 12.3489 8.61173 13.5951C9.62943 13.5951 10.6294 13.5951 11.6352 13.5951C11.6352 12.3371 11.6352 11.0851 11.6352 9.83898C10.6235 9.83898 9.62351 9.83898 8.61173 9.83898Z" fill="black"/>
<path d="M13.5168 6.04801C11.6175 6.04801 9.71816 6.04801 7.81885 6.04801C7.35733 6.04801 7.00824 5.7291 7.00232 5.29798C7.00232 4.86685 7.3455 4.53613 7.80702 4.53613C11.6116 4.53613 15.422 4.53613 19.2265 4.53613C19.6881 4.53613 20.0371 4.86686 20.0312 5.30389C20.0253 5.74091 19.6821 6.05392 19.2147 6.05392C17.3154 6.04802 15.4161 6.04801 13.5168 6.04801Z" fill="black"/>
<path d="M13.5937 16.6426C15.4693 16.6426 17.3509 16.6426 19.2265 16.6426C19.694 16.6426 20.0372 16.9674 20.0312 17.4044C20.0253 17.8355 19.6762 18.1545 19.2147 18.1545C15.4753 18.1545 11.7299 18.1545 7.99045 18.1545C7.49935 18.1545 7.16209 17.8474 7.15617 17.4044C7.15617 16.9792 7.47568 16.6544 7.91353 16.6485C8.64722 16.6426 9.37499 16.6485 10.1087 16.6485C11.2743 16.6426 12.434 16.6426 13.5937 16.6426Z" fill="black"/>
<path d="M17.0077 10.5881C16.2681 10.5881 15.5285 10.5881 14.7889 10.5881C14.3215 10.5881 13.9783 10.2632 13.9783 9.83212C13.9783 9.40099 14.3215 9.07617 14.7889 9.07617C16.2681 9.07617 17.7473 9.07617 19.2265 9.07617C19.694 9.07617 20.0371 9.39509 20.0371 9.83212C20.0371 10.2632 19.694 10.5881 19.2265 10.5881C18.4869 10.5881 17.7473 10.5881 17.0077 10.5881Z" fill="black"/>
<path d="M16.9959 14.3634C16.2622 14.3634 15.5344 14.3634 14.8007 14.3634C14.3155 14.3634 13.9664 14.0445 13.9723 13.6075C13.9783 13.1704 14.3214 12.8574 14.8125 12.8574C16.2858 12.8574 17.7532 12.8574 19.2265 12.8574C19.6821 12.8574 20.0371 13.1941 20.0312 13.6252C20.0253 14.0504 19.6939 14.3693 19.2383 14.3693C18.4928 14.3634 17.7473 14.3634 16.9959 14.3634Z" fill="black"/>
</svg>
