<svg width="30" height="30" viewBox="0 0 30 30" fill="none" xmlns="http://www.w3.org/2000/svg">
<path d="M14.9531 3.00001C21.5929 2.99292 26.9561 8.32119 26.9633 14.9107C26.9704 21.5072 21.5858 26.8355 14.8747 26.793C8.29904 26.7576 3.02142 21.4718 3.00003 14.939C2.98576 8.34245 8.34184 3.00709 14.9531 3.00001ZM14.9317 25.1067C20.6159 25.1279 25.2231 20.579 25.2516 14.9248C25.2801 9.34149 20.6801 4.72177 15.0815 4.70052C9.36883 4.67926 4.72595 9.21396 4.71169 14.8256C4.69742 20.5011 9.26185 25.0925 14.9317 25.1067Z" fill="#727272" stroke="#F2F5F7" stroke-width="0.5"/>
<path d="M21.2855 9.56927C21.257 9.64013 21.2213 9.79601 21.15 9.93772C19.9732 12.2901 18.7964 14.6425 17.5983 16.9807C17.4913 17.1861 17.2916 17.3916 17.0848 17.4908C14.7241 18.6883 12.3492 19.8645 9.97426 21.0406C9.582 21.239 9.18974 21.1824 8.91873 20.906C8.64772 20.6368 8.5978 20.2612 8.79749 19.8786C9.98139 17.5263 11.1582 15.181 12.3563 12.8357C12.4633 12.6231 12.6773 12.4176 12.8912 12.3114C15.2519 11.1139 17.6268 9.93772 19.9946 8.76153C20.6222 8.44977 21.2855 8.83239 21.2855 9.56927ZM18.4898 11.4469C18.4113 11.4611 18.3828 11.4611 18.3614 11.4682C16.878 12.198 15.4016 12.9349 13.9253 13.6718C13.8398 13.7143 13.7613 13.8064 13.7185 13.8985C12.9982 15.3227 12.285 16.7398 11.5718 18.1639C11.5433 18.2206 11.529 18.2844 11.4934 18.3836C11.636 18.3127 11.7358 18.2702 11.8286 18.2206C12.9483 17.6609 14.0537 17.0657 15.202 16.5626C15.9009 16.2509 16.4144 15.8328 16.6497 15.103C16.6925 14.9684 16.7781 14.848 16.8423 14.7204C17.3843 13.6576 17.9263 12.5735 18.4898 11.4469Z" fill="#727272" stroke="#F2F5F7" stroke-width="0.5"/>
</svg>
