<svg width="25" height="24" viewBox="0 0 25 24" fill="none" xmlns="http://www.w3.org/2000/svg">
<path d="M1 9.2942C1 8.93701 1 8.57983 1 8.22264C1.01189 8.15715 1.03567 8.09167 1.04162 8.02619C1.1962 6.51409 1.74912 5.17464 2.76578 4.04355C4.09755 2.56717 5.76227 1.83494 7.75398 2.03139C9.69812 2.22189 11.1666 3.22797 12.2487 4.83531C12.3022 4.9127 12.3498 4.99009 12.3914 5.04962C12.7184 4.64481 13.0097 4.24 13.3486 3.87686C15.4354 1.6623 18.7292 1.37655 21.1609 3.19225C23.4142 4.87698 24.5497 8.18692 23.3309 11.2349C22.7364 12.7172 21.8446 14.0091 20.7863 15.1878C18.4795 17.7774 15.7446 19.8372 12.8076 21.6469C12.54 21.8136 12.2725 21.8077 12.0109 21.635C10.7683 20.7897 9.50193 19.986 8.30095 19.093C6.39843 17.6822 4.65048 16.0867 3.1998 14.1996C2.36744 13.1221 1.67778 11.9612 1.29133 10.6456C1.16053 10.1991 1.08918 9.74068 1 9.2942Z" fill="white"/>
</svg>
