<svg width="58" height="59" viewBox="0 0 58 59" fill="none" xmlns="http://www.w3.org/2000/svg">
<path d="M11.2552 17.3405C11.4672 17.3405 11.6639 17.3405 11.8759 17.3405C19.9141 17.3405 27.9524 17.3405 36.0058 17.3405C37.0806 17.3405 37.3379 17.5965 37.3379 18.6654C37.3379 20.8335 37.3379 22.9864 37.3379 25.1545C37.3379 26.0729 37.0503 26.374 36.1118 26.374C25.8785 26.374 15.6452 26.374 5.39683 26.374C5.16976 26.374 4.94269 26.374 4.67021 26.374C4.67021 32.0801 4.67021 37.7712 4.67021 43.5376C4.88214 43.5376 5.09407 43.5376 5.32114 43.5376C11.8456 43.5376 18.3701 43.5376 24.9097 43.5376C25.0611 43.5376 25.2124 43.5376 25.3638 43.5376C26.0299 43.5527 26.4386 43.8989 26.4235 44.456C26.4235 44.998 26.0147 45.3443 25.3335 45.3443C18.1884 45.3443 11.0282 45.3443 3.88303 45.3443C3.14127 45.3443 2.80824 45.0131 2.80824 44.2603C2.80824 37.4551 2.80824 30.6348 2.80824 23.8296C2.80824 23.1671 3.17155 22.7606 3.71652 22.7757C4.26148 22.7757 4.60966 23.1822 4.6248 23.8446C4.6248 24.0705 4.6248 24.2812 4.6248 24.5372C5.98721 24.5372 7.30421 24.5372 8.72718 24.5372C8.54553 24.3565 8.42442 24.206 8.28818 24.0705C6.66841 22.4595 5.03351 20.8636 3.44403 19.2225C3.12613 18.8913 2.86879 18.4396 2.74768 17.9879C2.1573 15.9253 1.62747 13.8476 1.08251 11.7849C0.855437 10.9418 1.08251 10.5805 1.94537 10.3396C9.04508 8.45759 16.1448 6.56056 23.2445 4.67859C26.4235 3.83546 29.5873 2.97728 32.7663 2.13416C33.9016 1.83304 34.1741 1.9836 34.492 3.15795C35.037 5.19049 35.5819 7.22302 36.142 9.25555C36.4145 10.2492 36.2177 10.5805 35.2186 10.8364C27.3923 12.9292 19.566 15.0069 11.7396 17.0996C11.5731 17.1448 11.4217 17.19 11.2552 17.2351C11.2704 17.2803 11.2552 17.3104 11.2552 17.3405ZM17.9765 13.5615C19.0513 13.2754 19.9596 13.0195 20.8981 12.8087C21.4128 12.6883 21.7458 12.4474 22.0032 11.9807C22.9569 10.2492 23.9711 8.54793 24.9551 6.84662C25.1065 6.59068 25.2427 6.33473 25.4546 5.97339C24.2285 6.30461 23.1083 6.57562 22.0032 6.89179C21.8821 6.9219 21.7458 7.0574 21.6853 7.17785C20.4742 9.25555 19.2632 11.3333 17.9765 13.5615ZM19.3238 7.61447C18.1884 7.91559 17.159 8.15648 16.1448 8.45759C15.8723 8.53287 15.5847 8.75871 15.4333 8.9996C14.3131 10.8665 13.2232 12.7636 12.1332 14.6455C12.0424 14.7961 11.9667 14.9617 11.8456 15.2026C13.0415 14.8864 14.1314 14.6004 15.2214 14.2992C15.3728 14.2541 15.5241 14.1336 15.5998 14.0132C16.8411 11.9054 18.0522 9.81262 19.3238 7.61447ZM5.66931 16.8437C6.95604 16.4974 8.07624 16.1963 9.19645 15.8801C9.31756 15.85 9.42352 15.6994 9.49921 15.579C10.6648 13.5766 11.8153 11.5892 12.9809 9.58678C13.0264 9.5115 13.0566 9.42117 13.1172 9.25555C11.9062 9.57172 10.7859 9.87284 9.66574 10.189C9.55977 10.2191 9.45381 10.3546 9.39326 10.46C8.18222 12.5227 6.98631 14.6004 5.66931 16.8437ZM24.1074 11.9355C25.3335 11.6043 26.4083 11.3333 27.468 11.0171C27.6648 10.9569 27.8767 10.7461 27.9827 10.5654C29.118 8.63826 30.2382 6.69607 31.3584 4.76892C31.419 4.64848 31.4795 4.52803 31.5552 4.34736C30.6318 4.58825 29.7992 4.85926 28.9515 5.02487C28.2249 5.16037 27.7859 5.52171 27.4226 6.16911C26.3781 8.06614 25.2578 9.93306 24.1074 11.9355ZM15.176 24.5673C13.314 22.7305 11.5883 20.9991 9.84739 19.2827C9.78684 19.2225 9.68087 19.1623 9.60518 19.1623C8.42442 19.1472 7.24366 19.1623 5.92666 19.1623C7.77349 20.9991 9.51436 22.7305 11.2552 24.4469C11.3309 24.5221 11.4823 24.5824 11.6034 24.5824C12.7387 24.5673 13.8589 24.5673 15.176 24.5673ZM12.3754 19.1472C12.436 19.2526 12.4511 19.3128 12.4814 19.3429C14.1617 21.0141 15.8572 22.7004 17.5375 24.3716C17.6283 24.4619 17.7494 24.5522 17.8705 24.5522C19.0361 24.5673 20.2018 24.5673 21.4128 24.5673C21.3522 24.4619 21.3371 24.4017 21.3068 24.3716C19.6265 22.7004 17.9311 21.0141 16.2508 19.3429C16.1599 19.2526 16.0388 19.1623 15.9177 19.1623C14.7672 19.1472 13.6016 19.1472 12.3754 19.1472ZM18.6426 19.1472C20.4894 20.984 22.2303 22.7154 23.9711 24.4318C24.0317 24.492 24.1376 24.5522 24.2133 24.5522C25.3941 24.5673 26.5749 24.5522 27.907 24.5522C26.0602 22.7154 24.3193 20.984 22.5784 19.2677C22.5027 19.1924 22.3514 19.1322 22.2303 19.1322C21.0646 19.1472 19.9444 19.1472 18.6426 19.1472ZM34.2649 24.5673C33.069 23.3929 32.0094 22.339 30.9497 21.3002C30.2231 20.5926 29.6024 19.5989 28.7396 19.2375C27.8616 18.8762 26.7262 19.1472 25.712 19.1472C25.5152 19.1472 25.3335 19.1472 25.0308 19.1472C26.8473 20.969 28.5579 22.6703 30.2837 24.3716C30.3745 24.4619 30.541 24.5673 30.6621 24.5673C31.7823 24.5673 32.9328 24.5673 34.2649 24.5673ZM34.2649 9.22544C33.9016 7.87042 33.5534 6.62079 33.1901 5.23565C32.191 6.95201 31.2525 8.56298 30.2534 10.2944C31.6763 9.91801 32.9479 9.58678 34.2649 9.22544ZM3.02016 11.9505C3.38348 13.2905 3.73165 14.5552 4.1101 15.9403C5.12434 14.2089 6.04776 12.5829 7.04687 10.8816C5.65418 11.2429 4.36744 11.5892 3.02016 11.9505ZM35.4911 23.137C35.4911 21.8121 35.4911 20.5022 35.4911 19.1924C34.1438 19.1924 32.8117 19.1924 31.5098 19.1924C32.842 20.5022 34.159 21.8121 35.4911 23.137Z" fill="#C1C1C1"/>
<path d="M36.4156 54.3774C36.4156 53.7451 36.4156 53.2031 36.4156 52.5707C36.234 52.5707 36.0523 52.5707 35.8706 52.5707C34.5688 52.5707 33.2669 52.5858 31.9499 52.5707C29.8306 52.5557 28.2562 51.0049 28.2411 48.8971C28.226 45.9763 28.2411 43.0705 28.2411 40.1497C28.2411 39.4421 28.5893 39.0205 29.1645 39.0355C29.7246 39.0355 30.0577 39.4571 30.0577 40.1647C30.0577 43.0103 30.0577 45.8408 30.0577 48.6863C30.0577 50.0564 30.7691 50.764 32.1618 50.764C38.6257 50.764 45.1048 50.764 51.5687 50.764C52.8857 50.764 53.4912 50.222 53.6729 48.9122C53.7486 48.3852 54.127 48.0389 54.6266 48.054C55.1413 48.0841 55.4894 48.4755 55.4894 49.0477C55.5046 50.8845 53.8848 52.5105 51.9623 52.5557C50.615 52.5858 49.2829 52.5557 47.9356 52.5707C47.7539 52.5707 47.5723 52.5707 47.3604 52.5707C47.3604 53.1729 47.3604 53.73 47.3604 54.3774C47.5571 54.3774 47.7539 54.3774 47.9507 54.3774C49.7824 54.3774 51.6141 54.3774 53.461 54.3774C54.1724 54.3774 54.5963 54.7086 54.5963 55.2808C54.5963 55.8378 54.1724 56.1841 53.461 56.1841C45.7406 56.1841 38.0202 56.1841 30.2999 56.1841C29.5884 56.1841 29.1645 55.8378 29.1645 55.2808C29.1645 54.7237 29.5732 54.3774 30.2999 54.3774C32.1164 54.3774 33.933 54.3774 35.7495 54.3774C35.9463 54.3774 36.1583 54.3774 36.4156 54.3774ZM45.4681 54.3623C45.4681 53.7451 45.4681 53.1729 45.4681 52.6309C43.0309 52.6309 40.6542 52.6309 38.2776 52.6309C38.2776 53.2332 38.2776 53.7902 38.2776 54.3623C40.6845 54.3623 43.0612 54.3623 45.4681 54.3623Z" fill="#C1C1C1"/>
<path d="M55.5034 40.7231C55.5034 42.1836 55.5034 43.659 55.5034 45.1194C55.5034 45.8271 55.1553 46.2486 54.5952 46.2486C54.0351 46.2486 53.6869 45.8271 53.6869 45.1194C53.6869 42.2739 53.6869 39.4434 53.6869 36.5979C53.6869 35.2127 52.9754 34.5202 51.5978 34.5051C50.8409 34.49 50.0689 34.5352 49.3423 34.4148C47.6771 34.1137 46.5115 32.7285 46.4358 31.0573C46.3752 29.7625 45.6789 29.1001 44.3922 29.1001C42.7118 29.1001 41.0315 29.1001 39.3361 29.1001C38.1099 29.1001 37.3984 29.7926 37.353 30.9971C37.2622 32.9995 35.7181 34.475 33.7199 34.5051C33.1295 34.5202 32.5543 34.5051 31.9639 34.5051C30.9345 34.5202 30.223 35.1826 30.1019 36.1914C30.0262 36.8689 29.6781 37.2453 29.1331 37.2151C28.573 37.185 28.24 36.7334 28.2854 36.0408C28.4065 34.2492 29.9354 32.7737 31.752 32.7135C32.3726 32.6984 32.9933 32.7135 33.6291 32.6984C34.7493 32.6834 35.4759 31.9757 35.5365 30.8917C35.6576 28.7387 37.1562 27.2934 39.3058 27.2783C41.0315 27.2783 42.7421 27.2783 44.4679 27.2783C46.6326 27.2783 48.1312 28.7237 48.2372 30.8917C48.2978 31.9607 49.0244 32.6834 50.0992 32.6984C50.7047 32.7135 51.3102 32.6984 51.9157 32.6984C53.8988 32.7436 55.4732 34.2793 55.5034 36.2516C55.5186 37.7421 55.5034 39.2326 55.5034 40.7231Z" fill="#C1C1C1"/>
<path d="M45.5133 11.0166C46.4064 11.0166 47.2844 11.0166 48.1775 11.0166C49.1767 11.0317 49.979 11.4382 50.5088 12.2813C50.6753 12.5523 50.8267 12.6125 51.1446 12.5222C51.8712 12.3114 52.613 12.1458 53.3396 11.9651C54.0814 11.7995 54.5809 12.1759 54.5809 12.9287C54.5961 14.6601 54.5961 16.3915 54.5809 18.1229C54.5809 18.8757 54.0814 19.2521 53.3396 19.0865C52.5827 18.9058 51.8409 18.6951 51.084 18.5445C50.9327 18.5144 50.645 18.6198 50.5542 18.7553C49.9487 19.6436 49.1161 20.0651 48.0564 20.0501C46.3307 20.0501 44.6201 20.0501 42.8944 20.0501C41.2292 20.035 40.0636 18.9058 40.0485 17.2497C40.0333 16.1055 40.0333 14.9612 40.0485 13.8019C40.0636 12.1759 41.2141 11.0317 42.8338 11.0166C43.7421 11.0166 44.6353 11.0166 45.5133 11.0166ZM45.5738 12.8233C44.711 12.8233 43.833 12.8233 42.9701 12.8233C42.2283 12.8233 41.8953 13.1545 41.8953 13.8923C41.8801 14.9763 41.8801 16.0754 41.8953 17.1594C41.8953 17.8971 42.2283 18.2283 42.9701 18.2283C44.6655 18.2283 46.3761 18.2283 48.0716 18.2283C48.8133 18.2283 49.1464 17.8971 49.1464 17.1594C49.1615 16.0754 49.1615 14.9763 49.1464 13.8923C49.1464 13.1545 48.8133 12.8233 48.0716 12.8233C47.239 12.8233 46.4064 12.8233 45.5738 12.8233ZM52.7492 17.069C52.7492 16.0151 52.7492 15.0214 52.7492 13.9977C52.1286 14.1482 51.5533 14.2988 50.9932 14.4343C50.9932 15.2021 50.9932 15.9097 50.9932 16.6324C51.5685 16.783 52.1286 16.9185 52.7492 17.069Z" fill="#C1C1C1"/>
<path d="M48.2359 42.619C48.2359 46.127 45.39 48.9575 41.8628 48.9575C38.3962 48.9575 35.5352 46.1119 35.5352 42.6792C35.5352 39.1712 38.366 36.3257 41.8931 36.3106C45.3597 36.2956 48.2208 39.1411 48.2359 42.619ZM41.8628 38.1173C39.3499 38.1324 37.3214 40.1498 37.3366 42.6642C37.3366 45.1484 39.3953 47.1658 41.9082 47.1508C44.4211 47.1357 46.4345 45.0881 46.4042 42.5889C46.3891 40.1197 44.3455 38.1022 41.8628 38.1173Z" fill="#C1C1C1"/>
<path d="M15.5386 34.5034C15.5386 33.0731 15.5386 31.6428 15.5386 30.2125C15.5386 29.2188 16.1441 28.8273 17.0221 29.264C19.9134 30.6943 22.8048 32.1396 25.681 33.5699C26.0897 33.7807 26.4379 34.0216 26.4228 34.5335C26.4076 35.0153 26.0746 35.2411 25.681 35.4368C22.8048 36.8521 19.9437 38.2974 17.0675 39.7127C16.1289 40.1794 15.5386 39.803 15.5234 38.7341C15.5386 37.3188 15.5386 35.9186 15.5386 34.5034ZM17.3854 31.4621C17.3854 33.5097 17.3854 35.4971 17.3854 37.5446C19.4139 36.5359 21.397 35.5422 23.5011 34.5034C21.397 33.4645 19.4139 32.4708 17.3854 31.4621Z" fill="#C1C1C1"/>
<path d="M41.9397 30.8905C42.4998 30.8905 43.075 30.8754 43.6351 30.8905C44.2104 30.9055 44.5888 31.2819 44.5888 31.7938C44.5888 32.3057 44.2104 32.6821 43.62 32.6972C42.4544 32.7122 41.2736 32.7122 40.108 32.6972C39.5327 32.6972 39.1543 32.3057 39.1543 31.7938C39.1543 31.2819 39.5327 30.9055 40.108 30.8905C40.7286 30.8754 41.3342 30.8905 41.9397 30.8905Z" fill="#C1C1C1"/>
<path d="M34.6138 48.0387C34.629 48.5205 34.2202 48.942 33.7207 48.9571C33.2363 48.9721 32.8124 48.5656 32.7973 48.0688C32.7821 47.572 33.1909 47.1654 33.6904 47.1504C34.1748 47.1504 34.5987 47.5418 34.6138 48.0387Z" fill="#C1C1C1"/>
<path d="M44.604 42.6178C44.604 44.1234 43.3778 45.3429 41.864 45.3429C40.3805 45.3429 39.1543 44.1234 39.1543 42.648C39.1543 41.1424 40.3805 39.9229 41.8943 39.9229C43.3778 39.9379 44.5888 41.1424 44.604 42.6178ZM41.8791 41.7295C41.3947 41.7295 40.986 42.1361 40.9709 42.6178C40.9557 43.1297 41.3947 43.5513 41.9094 43.5362C42.3938 43.5212 42.7874 43.0996 42.7874 42.6178C42.7723 42.1361 42.3635 41.7295 41.8791 41.7295Z" fill="#C1C1C1"/>
</svg>
