<svg width="20" height="20" viewBox="0 0 20 20" fill="none" xmlns="http://www.w3.org/2000/svg">
<path d="M17.2369 7.92836C17.1849 8.22733 17.1477 8.53003 17.0771 8.82152C16.8875 9.59884 16.512 10.2827 16.0399 10.918C15.3113 11.8971 14.4266 12.7268 13.5122 13.5265C12.4341 14.4683 11.3524 15.4025 10.2707 16.3405C9.85434 16.6993 9.40826 16.7142 9.00679 16.3667C7.59794 15.1409 6.18908 13.9152 4.79881 12.6707C4.08509 12.0317 3.442 11.3142 2.91786 10.5032C1.9811 9.04575 1.7246 7.48365 2.31937 5.84307C2.85838 4.35944 3.90294 3.3878 5.46792 3.0851C7.09238 2.77118 8.40088 3.35417 9.44172 4.61357C9.49376 4.67336 9.53837 4.74063 9.58669 4.80042C9.59413 4.8079 9.60156 4.81163 9.62758 4.83405C9.68334 4.76305 9.7391 4.68831 9.79858 4.6173C10.4008 3.87736 11.1368 3.33175 12.0773 3.10752C13.7166 2.71887 15.4563 3.40649 16.4005 4.80416C16.8689 5.49552 17.1254 6.25788 17.2109 7.08378C17.2146 7.1361 17.2295 7.18842 17.2369 7.24447C17.2369 7.4687 17.2369 7.7004 17.2369 7.92836ZM9.62015 15.7127C9.65732 15.6828 9.69078 15.6604 9.72052 15.6342C10.9249 14.5878 12.133 13.5527 13.3263 12.4951C14.159 11.7551 14.9508 10.9741 15.5715 10.0361C16.1589 9.14291 16.4488 8.16753 16.315 7.09125C16.17 5.92902 15.6756 4.96485 14.6459 4.35571C13.6869 3.79141 12.6795 3.7204 11.6609 4.20996C11.0587 4.50146 10.6164 4.97233 10.2447 5.52168C10.1926 5.60016 10.1443 5.68237 10.0885 5.75711C9.84319 6.09345 9.40826 6.09345 9.1592 5.76085C8.9436 5.46936 8.74287 5.16292 8.49752 4.90132C7.70202 4.05301 6.71694 3.72788 5.57944 3.97452C4.35645 4.23986 3.5498 5.02091 3.14461 6.19435C2.67252 7.55839 2.89555 8.84021 3.6799 10.0361C4.16315 10.7798 4.75792 11.43 5.41217 12.0205C6.49018 12.9958 7.5905 13.9488 8.68339 14.9092C8.99193 15.1746 9.30418 15.4399 9.62015 15.7127Z" fill="#585858"/>
</svg>
