<svg width="25" height="24" viewBox="0 0 25 24" fill="none" xmlns="http://www.w3.org/2000/svg">
<path d="M0.46875 7.30469C2.51853 7.30469 4.57426 7.31064 6.62404 7.30469C6.83793 7.30469 6.9211 7.37608 6.98052 7.5724C8.42428 12.1711 9.87397 16.7697 11.3237 21.3684C11.3474 21.4398 11.3712 21.5171 11.3653 21.6063C11.3058 21.5349 11.2464 21.4636 11.193 21.3862C7.66971 16.7638 4.15242 12.1473 0.629172 7.5248C0.581641 7.46531 0.522228 7.41177 0.474697 7.35823C0.468756 7.33443 0.46875 7.32253 0.46875 7.30469Z" fill="white"/>
<path d="M7.83594 7.3125C11.0383 7.3125 14.211 7.3125 17.4253 7.3125C15.833 12.3573 14.2467 17.3903 12.6604 22.4232C12.6425 22.4232 12.6247 22.4232 12.6009 22.4292C11.0205 17.3962 9.42823 12.3633 7.83594 7.3125Z" fill="white"/>
<path d="M13.8779 21.5807C14.1156 20.8192 14.3532 20.0577 14.5968 19.2962C15.8267 15.3877 17.0625 11.4791 18.2924 7.56458C18.3518 7.36826 18.429 7.29688 18.6489 7.29688C20.6036 7.30877 22.5583 7.30282 24.519 7.30282C24.5962 7.30282 24.6734 7.30282 24.8101 7.30282C21.1621 12.0919 17.5378 16.8452 13.9195 21.5926C13.9017 21.5926 13.8898 21.5866 13.8779 21.5807Z" fill="white"/>
<path d="M8.37793 6.3842C9.79792 4.95642 11.212 3.54053 12.6023 2.14844C14.0104 3.55838 15.4304 4.98021 16.8266 6.3842C14.0579 6.3842 11.2239 6.3842 8.37793 6.3842Z" fill="white"/>
<path d="M4.85449 1.90234C7.10034 1.90234 9.29271 1.90234 11.4494 1.90234C10.071 3.28254 8.68075 4.67463 7.28452 6.07267C6.49432 4.71627 5.68629 3.32418 4.85449 1.90234Z" fill="white"/>
<path d="M13.7715 1.89453C15.9757 1.89453 18.1681 1.89453 20.414 1.89453C19.5822 3.31637 18.7741 4.71441 17.9661 6.0946C16.5639 4.69061 15.1796 3.30447 13.7715 1.89453Z" fill="white"/>
<path d="M3.99801 2.22266C4.81198 3.6207 5.61406 4.99494 6.42803 6.39298C4.45549 6.39298 2.52455 6.39298 0.53418 6.39298C1.69869 4.98899 2.83943 3.6207 3.99801 2.22266Z" fill="white"/>
<path d="M24.7387 6.39298C22.7483 6.39298 20.8114 6.39298 18.8389 6.39298C19.6528 4.99494 20.449 3.62665 21.2689 2.22266C22.4215 3.61475 23.5623 4.98304 24.7387 6.39298Z" fill="white"/>
</svg>
