<svg id="Layer_1" data-name="Layer 1" xmlns="http://www.w3.org/2000/svg" viewBox="0 0 25 25"><defs><style>.cls-1{fill:#6d6d6d;}</style></defs><title>chat</title><path class="cls-1" d="M10.3,0l1.17.19a9.8,9.8,0,0,1,7.58,7.74,9.62,9.62,0,0,1-7.23,11,9.18,9.18,0,0,1-5.72-.36.32.32,0,0,0-.35,0,4.83,4.83,0,0,1-5.21.32A.74.74,0,0,1,.2,17.8a5.52,5.52,0,0,0,.52-4.67C.46,12.3.29,11.44.08,10.58A3.1,3.1,0,0,1,0,10.16V8.94A14.47,14.47,0,0,1,.25,7.45,9.5,9.5,0,0,1,7.55.24C8,.12,8.47.08,8.93,0ZM1.92,17.87a3.35,3.35,0,0,0,3.22-.72A.92.92,0,0,1,6.27,17a7.73,7.73,0,0,0,4.57.6,8.16,8.16,0,0,0,6.75-9.42A8.17,8.17,0,0,0,8.8,1.53,7.93,7.93,0,0,0,2.53,5.65a7.19,7.19,0,0,0-.95,4.88A19.93,19.93,0,0,0,2.22,13a6.76,6.76,0,0,1,.17,3.25C2.27,16.79,2.09,17.31,1.92,17.87Z" transform="translate(0 0)"/><path class="cls-1" d="M21.63,25c-.25-.05-.49-.09-.74-.16a4.33,4.33,0,0,1-1.6-.74.39.39,0,0,0-.44-.05,9.58,9.58,0,0,1-9.67-1.64.72.72,0,0,1-.28-.84.69.69,0,0,1,.63-.5.8.8,0,0,1,.62.22,8.18,8.18,0,0,0,8.57,1.2,1,1,0,0,1,1.15.18,3.41,3.41,0,0,0,3.23.7l0-.15A6.87,6.87,0,0,1,23,18a8,8,0,0,0-1.24-8,1.15,1.15,0,0,1-.25-.46.7.7,0,0,1,.41-.8.72.72,0,0,1,.9.22,9.15,9.15,0,0,1,1.5,2.53,9.66,9.66,0,0,1,0,7.17,5.07,5.07,0,0,0,.39,4.5,1.59,1.59,0,0,1,.18.4.72.72,0,0,1-.4.83,4.65,4.65,0,0,1-1.75.59.58.58,0,0,0-.18,0Z" transform="translate(0 0)"/><path class="cls-1" d="M5.28,10.8A1.17,1.17,0,1,1,6.44,9.62,1.16,1.16,0,0,1,5.28,10.8Z" transform="translate(0 0)"/><path class="cls-1" d="M9.6,10.8a1.17,1.17,0,1,1,0-2.34,1.19,1.19,0,0,1,1.17,1.16A1.17,1.17,0,0,1,9.6,10.8Z" transform="translate(0 0)"/><path class="cls-1" d="M15.1,9.63a1.18,1.18,0,0,1-2.35,0,1.18,1.18,0,0,1,1.17-1.16A1.17,1.17,0,0,1,15.1,9.63Z" transform="translate(0 0)"/></svg>