<svg width="47" height="35" viewBox="0 0 47 35" fill="none" xmlns="http://www.w3.org/2000/svg">
<path d="M46.9137 9.14844C46.9459 9.14844 46.9674 9.15919 46.9997 9.15919C46.9997 9.21294 46.9997 9.27745 46.9997 9.3312C46.3439 9.95476 45.8171 10.6858 45.2258 11.3631C44.1291 12.621 43.054 13.9111 41.9682 15.1798C40.7103 16.6634 39.4525 18.147 38.1838 19.6199C36.9367 21.0821 35.6896 22.5334 34.4425 23.9848C33.0234 25.6512 31.6042 27.3176 30.1851 28.9841C29.11 30.2419 28.0349 31.5105 26.949 32.7684C26.3362 33.478 25.7772 34.2413 25.0891 34.8864C25.0569 34.7358 25.1429 34.6068 25.1859 34.4778C26.1965 31.7256 27.2286 28.9841 28.2392 26.2318C30.0991 21.2218 31.9483 16.2011 33.7974 11.1804C34.034 10.5461 34.3565 9.92251 34.4425 9.23445C34.4747 9.23445 34.4962 9.23445 34.5285 9.23445C38.4956 9.23445 42.4627 9.23445 46.4299 9.23445C46.5911 9.23445 46.7739 9.3097 46.9137 9.14844Z" fill="#86D9FE"/>
<path d="M34.4433 9.23438C34.3573 9.92244 34.0347 10.5352 33.7982 11.1803C31.9598 16.201 30.0999 21.211 28.2399 26.2317C27.2186 28.984 26.1972 31.7255 25.1867 34.4778C25.1436 34.6068 25.0576 34.7358 25.0899 34.8863C25.0039 34.9615 24.9071 35.0045 24.8319 34.8755C24.8749 34.811 24.8426 34.8003 24.7889 34.8003L24.7996 34.811C24.7889 34.7035 24.8104 34.5745 24.7674 34.4778C23.875 32.048 22.9827 29.629 22.0796 27.1993C20.9508 24.1568 19.8326 21.1142 18.7038 18.0717C17.8652 15.7925 17.0051 13.524 16.1773 11.2341C15.9408 10.5783 15.629 9.94394 15.5107 9.24513C21.8216 9.24513 28.1324 9.24513 34.4433 9.23438Z" fill="#00C2FE"/>
<path d="M15.5102 9.24324C15.6177 9.94206 15.9295 10.5764 16.1768 11.2214C17.0046 13.5006 17.854 15.7799 18.7033 18.0591C19.8321 21.1016 20.9502 24.1441 22.0791 27.1867C22.9714 29.6164 23.8745 32.0354 24.7669 34.4651C24.7991 34.5619 24.7884 34.6909 24.7991 34.7984C23.767 33.7018 22.8317 32.5299 21.8533 31.3903C17.7572 26.6061 13.6718 21.8112 9.58643 17.0162C7.39322 14.4575 5.22152 11.888 3.03906 9.3185C3.17883 9.16798 3.36159 9.23249 3.52286 9.23249C7.48998 9.23249 11.4571 9.23249 15.4135 9.23249H15.4565L15.5102 9.24324Z" fill="#0096DB"/>
<path d="M34.4433 9.23501C28.1324 9.23501 21.8216 9.23501 15.5107 9.23501C15.5645 9.07375 15.7043 8.98774 15.8118 8.88023C16.4353 8.27817 17.0696 7.67612 17.7039 7.07406C19.5854 5.27864 21.4776 3.49397 23.3482 1.67705C23.875 1.17175 24.4341 0.709461 24.8856 0.128906C24.9501 0.128906 25.0039 0.128906 25.0684 0.128906C25.1114 0.182661 25.1329 0.257918 25.1867 0.300922C26.9713 2.02108 28.756 3.7305 30.5407 5.45066C31.5297 6.39675 32.5403 7.33208 33.5294 8.28892C33.8412 8.58995 34.196 8.86948 34.4433 9.23501Z" fill="#86D9FE"/>
<path d="M24.8855 0.127939C24.434 0.708493 23.8749 1.17079 23.3481 1.67608C21.4774 3.48225 19.5853 5.27767 17.7038 7.07309C17.0695 7.67515 16.4352 8.27721 15.8117 8.87926C15.7041 8.98677 15.5644 9.07278 15.5106 9.23405H15.4676H15.4246C14.3065 6.21301 13.1992 3.18123 12.0811 0.13869C12.1993 0.127939 12.3068 0.117188 12.4251 0.117188C16.575 0.127939 20.7249 0.127939 24.8855 0.127939Z" fill="#00C2FE"/>
<path d="M34.4325 9.24483C34.1852 8.86855 33.8304 8.59977 33.5187 8.28799C32.5296 7.33115 31.5297 6.39581 30.5299 5.44972C28.7452 3.74031 26.9605 2.02015 25.1759 0.299991C25.1221 0.256987 25.1006 0.181729 25.0576 0.127974C29.2183 0.127974 33.3789 0.127974 37.5395 0.127974C37.6578 0.127974 37.7976 0.0849703 37.8943 0.213982C37.7438 0.28924 37.7438 0.450505 37.7008 0.579517C37.2815 1.68687 36.873 2.79423 36.4644 3.91233C35.8086 5.697 35.1636 7.47091 34.5185 9.25558C34.497 9.24483 34.4648 9.24483 34.4325 9.24483Z" fill="#00C2FE"/>
<path d="M34.5293 9.24536C35.1744 7.46069 35.8302 5.68677 36.4752 3.9021C36.8838 2.79475 37.2923 1.67664 37.7116 0.56929C37.7546 0.440278 37.7546 0.279013 37.9051 0.203756C38.0556 0.193005 38.1309 0.322017 38.2169 0.408025C41.0659 3.25704 43.9042 6.09531 46.7532 8.94433C46.8177 9.00883 46.8607 9.07334 46.9145 9.13785C46.7747 9.29911 46.5919 9.22385 46.4307 9.22385C42.4635 9.24536 38.4964 9.24536 34.5293 9.24536Z" fill="#A4E8FE"/>
<path d="M12.0807 0.136719C13.1988 3.1685 14.3169 6.20029 15.435 9.23208C11.4679 9.23208 7.5008 9.23208 3.54443 9.23208C3.38317 9.23208 3.2004 9.16757 3.06063 9.31808C2.87787 9.08156 3.15739 9.02781 3.25415 8.9418C5.33985 6.8346 7.4363 4.73815 9.53274 2.65246C10.3606 1.81388 11.1669 0.932294 12.0807 0.136719Z" fill="#01AAEF"/>
<path d="M24.7881 34.8008C24.8418 34.8008 24.8741 34.8115 24.8311 34.876C24.8096 34.8438 24.7988 34.8223 24.7881 34.8008Z" fill="#0096DB"/>
</svg>
