<svg width="44" height="45" viewBox="0 0 44 45" fill="none" xmlns="http://www.w3.org/2000/svg">
<circle cx="22.4394" cy="22.3144" r="21.1152" fill="white"/>
<path d="M18.1693 31.7734C17.833 31.6897 17.5334 31.5483 17.3127 31.2708C16.9396 30.7995 16.929 30.1188 17.3074 29.6476C17.381 29.5585 17.4599 29.4695 17.5439 29.3857C19.8511 27.0871 22.1583 24.7884 24.4707 22.4845C24.5233 22.4321 24.5864 22.3902 24.681 22.2645C24.6179 22.2279 24.5391 22.207 24.4865 22.1546C22.153 19.835 19.8248 17.5101 17.4914 15.1905C17.0815 14.7821 16.9185 14.3056 17.1025 13.7453C17.3705 12.9127 18.4426 12.5829 19.1416 13.117C19.2205 13.1746 19.294 13.2426 19.3624 13.3107C22.0374 15.9759 24.7125 18.6411 27.3876 21.3063C27.8868 21.8038 27.9919 22.4216 27.6556 22.9871C27.5768 23.1233 27.4611 23.2437 27.3508 23.3537C24.7493 25.9508 22.1373 28.548 19.5358 31.1451C19.2467 31.4331 18.9472 31.6897 18.5372 31.7734C18.4164 31.7734 18.2902 31.7734 18.1693 31.7734Z" fill="#929292"/>
</svg>
