<svg width="51" height="47" viewBox="0 0 51 47" fill="none" xmlns="http://www.w3.org/2000/svg">
<circle cx="25" cy="24" r="20" fill="#DC3833"/>
<path d="M34.965 27.5103C34.8689 27.8982 34.6822 28.2268 34.3354 28.4423C33.9459 28.6793 33.535 28.7224 33.1295 28.5177C32.6813 28.2914 32.2545 28.0275 31.8223 27.7796C31.1287 27.381 30.4404 26.9715 29.7414 26.5783C29.6187 26.5082 29.5653 26.4382 29.5707 26.2927C29.576 24.7089 29.576 23.1304 29.5707 21.5465C29.5707 21.401 29.6187 21.3256 29.7414 21.2556C30.7819 20.6522 31.8383 20.0704 32.8574 19.4347C33.7538 18.8744 34.8049 19.3754 34.949 20.2912C34.9543 20.3074 34.9596 20.3236 34.9703 20.3451C34.965 22.7317 34.965 25.1237 34.965 27.5103Z" fill="white"/>
<path d="M21.733 22.5939C20.986 22.6047 20.4097 23.2027 20.4151 23.9677C20.4204 24.6842 21.034 25.2768 21.7543 25.266C22.496 25.2552 23.0722 24.6519 23.0669 23.8922C23.0562 23.1811 22.4426 22.5831 21.733 22.5939ZM21.7276 24.6465C21.3435 24.6411 21.0233 24.3178 21.0287 23.9246C21.0287 23.5259 21.3595 23.2027 21.7596 23.2081C22.1438 23.2134 22.4586 23.5367 22.4586 23.9299C22.4479 24.3286 22.1225 24.6519 21.7276 24.6465Z" fill="white"/>
<path d="M28.4777 20.2438C28.4724 18.9401 27.544 18.0135 26.2528 18.0081C23.2435 17.9973 20.2342 17.9973 17.2249 18.0081C15.9284 18.0135 15 18.9724 15 20.2815C15 22.7112 15 25.1409 15 27.5652C15 27.7538 15.016 27.9477 15.0587 28.1309C15.2988 29.1706 16.1578 29.8387 17.2676 29.844C18.7563 29.8494 20.2449 29.844 21.7335 29.844C23.2275 29.844 24.7215 29.8494 26.2208 29.844C27.528 29.8387 28.4777 28.9174 28.4831 27.6029C28.4884 25.1517 28.4884 22.7004 28.4777 20.2438ZM24.8922 23.9772C24.8282 24.0742 24.7695 24.1766 24.6948 24.2682C24.3 24.753 23.8358 25.1625 23.2755 25.448C22.8914 25.6419 22.4912 25.7658 22.0643 25.8089C21.232 25.8897 20.485 25.6635 19.7967 25.2002C19.3485 24.8985 18.9804 24.5214 18.6549 24.0904C18.5749 23.9826 18.5749 23.8695 18.6549 23.7671C19.0284 23.2715 19.4659 22.8459 19.9995 22.528C20.4423 22.2641 20.9172 22.0971 21.4294 22.0486C22.1764 21.9785 22.8647 22.1509 23.5049 22.5334C24.0332 22.8513 24.4707 23.2769 24.8389 23.7671C24.8655 23.7995 24.8762 23.8372 24.8975 23.8749C24.8922 23.9126 24.8922 23.9449 24.8922 23.9772Z" fill="white"/>
</svg>
