<svg width="30" height="30" viewBox="0 0 30 30" fill="none" xmlns="http://www.w3.org/2000/svg">
<path d="M14.823 25.5234C13.2702 25.5234 11.7174 25.5234 10.1581 25.5234C8.04475 25.5234 6.31797 23.8078 6.31152 21.7082C6.31152 20.1719 6.31152 18.6356 6.31152 17.0993C6.31152 16.7409 6.50482 16.472 6.81409 16.3568C7.11048 16.248 7.45842 16.3056 7.64527 16.568C7.76125 16.7345 7.84501 16.9585 7.85145 17.1569C7.87078 18.6612 7.8579 20.1655 7.8579 21.6698C7.8579 22.9821 8.88237 23.9935 10.2032 23.9935C13.2766 23.9935 16.3565 23.9935 19.4299 23.9935C20.7508 23.9935 21.7752 22.9821 21.7752 21.6762C21.7752 20.1591 21.7752 18.6356 21.7752 17.1185C21.7752 16.6896 22.0587 16.3632 22.4582 16.3184C22.8384 16.2736 23.1992 16.5168 23.2958 16.8945C23.3216 16.9841 23.3216 17.0865 23.3216 17.1761C23.3216 18.706 23.3281 20.2295 23.3216 21.7594C23.3152 23.7886 21.6013 25.5042 19.5523 25.5298C18.7663 25.5362 17.9737 25.5298 17.1877 25.5298C16.4016 25.5234 15.6155 25.5234 14.823 25.5234Z" fill="url(#paint0_linear_707_380)" stroke="#F2F5F7" stroke-width="0.2"/>
<path d="M14.7719 5.83876C14.7204 5.91557 14.6753 6.00519 14.6109 6.0756C11.5503 9.12259 8.4898 12.1632 5.42927 15.2102C5.19732 15.4406 4.94603 15.5878 4.61099 15.5174C4.0311 15.3958 3.80558 14.7045 4.19218 14.2564C4.23728 14.2052 4.29527 14.154 4.34681 14.1028C7.61352 10.8573 10.8867 7.6055 14.1534 4.36007C14.6366 3.87998 15.0168 3.87998 15.5 4.36007C18.7667 7.6119 22.0463 10.8637 25.3195 14.1156C25.4999 14.2948 25.6545 14.4868 25.6481 14.7557C25.6481 15.0822 25.4934 15.3254 25.197 15.4662C24.9135 15.6007 24.63 15.5622 24.3852 15.3638C24.3079 15.3062 24.2435 15.2294 24.179 15.1654C21.1314 12.1312 18.0837 9.10979 15.0425 6.0756C14.9781 6.01159 14.933 5.92197 14.875 5.83876C14.8428 5.84516 14.8041 5.83876 14.7719 5.83876Z" fill="url(#paint1_linear_707_380)" stroke="#F2F5F7" stroke-width="0.2"/>
<defs>
<linearGradient id="paint0_linear_707_380" x1="6.31152" y1="16.3047" x2="23.6647" y2="16.3047" gradientUnits="userSpaceOnUse">
<stop stop-color="#E82F25"/>
<stop offset="1" stop-color="#33A9F0"/>
</linearGradient>
<linearGradient id="paint1_linear_707_380" x1="4" y1="4" x2="26.0812" y2="4" gradientUnits="userSpaceOnUse">
<stop stop-color="#E82F25"/>
<stop offset="1" stop-color="#33A9F0"/>
</linearGradient>
</defs>
</svg>
