<svg width="30" height="30" viewBox="0 0 30 30" fill="none" xmlns="http://www.w3.org/2000/svg">
<g clip-path="url(#clip0_707_380)">
<path d="M32.0214 20.2555C31.8674 20.8776 31.5678 21.4047 31.0116 21.7503C30.3869 22.1305 29.728 22.1996 29.0776 21.8713C28.3588 21.5084 27.6742 21.085 26.981 20.6875C25.8685 20.0482 24.7646 19.3915 23.6436 18.7607C23.4467 18.6484 23.3612 18.5361 23.3697 18.3028C23.3783 15.7625 23.3783 13.2308 23.3697 10.6905C23.3697 10.4572 23.4467 10.3362 23.6436 10.2239C25.3123 9.25616 27.0067 8.32298 28.6412 7.3034C30.0788 6.40479 31.7647 7.20836 31.9957 8.67724C32.0043 8.70316 32.0128 8.72909 32.03 8.76365C32.0214 12.5914 32.0214 16.4278 32.0214 20.2555Z" fill="#DC3833"/>
<path d="M10.8003 12.3674C9.60224 12.3847 8.67802 13.3438 8.68658 14.5707C8.69514 15.7199 9.67926 16.6704 10.8345 16.6531C12.024 16.6358 12.9482 15.6681 12.9397 14.4498C12.9226 13.3092 11.9385 12.3501 10.8003 12.3674ZM10.7917 15.6595C10.1756 15.6508 9.66214 15.1324 9.6707 14.5016C9.6707 13.8622 10.2013 13.3438 10.8431 13.3524C11.4592 13.3611 11.9641 13.8795 11.9641 14.5103C11.947 15.1497 11.425 15.6681 10.7917 15.6595Z" fill="#DC3833"/>
<path d="M21.6164 8.59877C21.6078 6.50777 20.1188 5.0216 18.0479 5.01296C13.2214 4.99568 8.39496 4.99568 3.5685 5.01296C1.48901 5.0216 0 6.55961 0 8.65926C0 12.5561 0 16.453 0 20.3412C0 20.6436 0.0256758 20.9547 0.0941362 21.2485C0.479226 22.9161 1.85699 23.9875 3.63696 23.9962C6.02452 24.0048 8.41207 23.9962 10.7996 23.9962C13.1957 23.9962 15.5919 24.0048 17.9965 23.9962C20.0931 23.9875 21.6164 22.51 21.6249 20.4017C21.6335 16.4703 21.6335 12.5388 21.6164 8.59877ZM15.8657 14.5866C15.763 14.7422 15.6689 14.9063 15.5491 15.0532C14.9158 15.8309 14.1713 16.4876 13.2728 16.9455C12.6566 17.2566 12.0148 17.4553 11.3302 17.5244C9.99522 17.654 8.79716 17.2911 7.69324 16.548C6.97441 16.0642 6.38393 15.4593 5.86192 14.7681C5.73356 14.5953 5.73356 14.4138 5.86192 14.2497C6.46095 13.4547 7.16267 12.7721 8.01843 12.2623C8.7287 11.839 9.49032 11.5711 10.3118 11.4933C11.5099 11.381 12.6138 11.6575 13.6407 12.271C14.4879 12.7808 15.1896 13.4634 15.7801 14.2497C15.8229 14.3015 15.84 14.362 15.8743 14.4225C15.8657 14.483 15.8657 14.5348 15.8657 14.5866Z" fill="#DC3833"/>
</g>
<defs>
<clipPath id="clip0_707_380">
<rect width="30" height="30" fill="white"/>
</clipPath>
</defs>
</svg>
