<svg width="30" height="30" viewBox="0 0 30 30" fill="none" xmlns="http://www.w3.org/2000/svg">
<path d="M15.4381 1.64844C15.9874 1.84866 16.5779 1.97702 17.0759 2.26452C18.7598 3.23485 19.6069 4.73912 19.6223 6.67465C19.648 9.65238 19.6377 12.6353 19.6275 15.613C19.6172 18.0568 18.0873 19.982 15.7205 20.5776C13.2202 21.2039 10.4478 19.5713 9.81121 17.0762C9.68799 16.5833 9.61098 16.0648 9.61098 15.5616C9.59044 12.6147 9.58531 9.67292 9.60585 6.72599C9.62638 4.56456 10.6224 2.98328 12.5836 2.04376C12.9635 1.86407 13.3896 1.78192 13.7952 1.65357C14.3446 1.64844 14.8888 1.64844 15.4381 1.64844ZM11.1717 11.1361C11.1717 12.6044 11.1666 14.0728 11.1769 15.5411C11.182 15.8954 11.2128 16.2599 11.3001 16.6039C11.7108 18.2262 13.3434 19.3198 15.0171 19.1195C16.6959 18.9193 18.0359 17.5023 18.0462 15.844C18.0667 12.7123 18.0719 9.58051 18.0462 6.44362C18.0257 4.43621 16.0542 2.86007 14.0776 3.20918C12.3526 3.51209 11.1871 4.88801 11.1769 6.65411C11.1666 8.14811 11.1717 9.64212 11.1717 11.1361Z" fill="#969696"/>
<path d="M13.8258 26.2656C13.8258 25.5469 13.8258 24.864 13.8258 24.1812C13.4253 24.1042 13.03 24.0529 12.6449 23.9502C9.51319 23.1287 7.44418 21.1624 6.47385 18.082C6.24795 17.3581 6.20175 16.5777 6.1196 15.8179C6.06313 15.3045 6.3917 14.94 6.8435 14.9194C7.31069 14.8989 7.6136 15.2018 7.68034 15.7306C7.75736 16.3467 7.79329 16.9782 7.95245 17.5686C8.47612 19.4784 9.63127 20.9262 11.3871 21.8196C13.7847 23.0415 16.1772 22.9285 18.4361 21.4653C20.1663 20.3461 21.1674 18.7083 21.4755 16.665C21.5319 16.3056 21.5268 15.936 21.573 15.5714C21.6244 15.1915 21.9324 14.9246 22.3072 14.9143C22.7538 14.904 23.1184 15.2377 23.1132 15.6947C23.103 17.0911 22.7949 18.4208 22.1275 19.653C21.0083 21.7271 19.3192 23.1185 17.0705 23.8218C16.5365 23.9913 15.9769 24.0683 15.4071 24.1915C15.4071 24.8538 15.4071 25.5366 15.4071 26.2502C15.5046 26.2554 15.597 26.2605 15.6894 26.2605C16.5006 26.2605 17.3118 26.2605 18.123 26.2656C18.277 26.2656 18.4361 26.2759 18.5747 26.3221C18.9136 26.435 19.1138 26.7944 19.0676 27.1538C19.0214 27.4978 18.739 27.775 18.3848 27.8161C18.3026 27.8264 18.2154 27.8212 18.1281 27.8212C15.7818 27.8212 13.4305 27.8212 11.0842 27.8212C11.0431 27.8212 10.9969 27.8212 10.9559 27.8212C10.4835 27.8058 10.1498 27.4875 10.1447 27.046C10.1447 26.5993 10.4579 26.2708 10.9456 26.2656C11.7927 26.2502 12.6347 26.2605 13.4818 26.2605C13.5896 26.2656 13.6923 26.2656 13.8258 26.2656Z" fill="#969696"/>
</svg>
