<svg width="39" height="39" viewBox="0 0 39 39" fill="none" xmlns="http://www.w3.org/2000/svg">
<circle opacity="0.2" cx="19.5" cy="19.5" r="19.5" fill="#F2F5F7"/>
<path d="M11 10.9222C11.0209 10.87 11.0365 10.8178 11.0574 10.7655C11.308 10.0081 12.2373 9.75209 12.8429 10.2745C12.9108 10.3319 12.9734 10.3999 13.0361 10.4625C15.1714 12.5991 17.3067 14.7357 19.4419 16.8723C19.4889 16.9193 19.515 16.982 19.5568 17.0394C19.5829 17.0394 19.6038 17.0342 19.6299 17.0342C19.6664 16.9768 19.6978 16.9193 19.7447 16.8723C21.9061 14.7044 24.0675 12.5417 26.2341 10.379C26.6152 9.99761 27.106 9.89836 27.5497 10.1125C28.1919 10.4207 28.3851 11.2461 27.9413 11.8051C27.8839 11.873 27.8212 11.9409 27.7586 12.0036C25.6129 14.1506 23.4619 16.3029 21.3162 18.4499C21.2692 18.4969 21.2118 18.5335 21.1178 18.6066C21.2013 18.6693 21.264 18.7007 21.311 18.7477C23.4776 20.9104 25.639 23.0783 27.8003 25.241C28.0875 25.5283 28.2389 25.8626 28.1606 26.2701C28.0823 26.7141 27.8108 27.0067 27.3827 27.1529C27.3566 27.1634 27.3305 27.1738 27.3096 27.1843C27.1425 27.1843 26.9755 27.1843 26.8084 27.1843C26.4847 27.0746 26.255 26.8447 26.0201 26.6097C23.9266 24.5096 21.833 22.4149 19.7343 20.3201C19.6873 20.2731 19.6403 20.2313 19.5725 20.1686C19.5202 20.2313 19.4785 20.2835 19.4315 20.3305C17.3328 22.4305 15.2288 24.5358 13.1301 26.641C12.9056 26.8656 12.6811 27.0746 12.3783 27.1791C12.2112 27.1791 12.0441 27.1791 11.8771 27.1791C11.6474 27.0955 11.4177 27.0067 11.2767 26.7977C11.1671 26.6358 11.094 26.4477 11 26.2701C11 26.1447 11 26.0246 11 25.8992C11.0783 25.5649 11.2871 25.3194 11.5273 25.0843C13.6469 22.9738 15.7613 20.8529 17.8757 18.7372C17.9227 18.6902 17.9854 18.6641 18.0741 18.6014C17.9749 18.523 17.9175 18.4865 17.8705 18.4395C15.7561 16.329 13.6469 14.2185 11.5325 12.1081C11.2924 11.873 11.0783 11.6275 11 11.2931C11 11.173 11 11.0476 11 10.9222Z" fill="#FEFFFF"/>
</svg>
