<svg width="30" height="30" viewBox="0 0 30 30" fill="none" xmlns="http://www.w3.org/2000/svg">
<path d="M3.005 20.0851C3.04996 19.7826 3.08992 19.4752 3.13987 19.1728C3.30971 18.201 3.70934 17.3234 4.24384 16.4954C4.52857 16.0492 4.89323 15.6872 5.26289 15.3253C8.89948 11.7554 12.5361 8.18057 16.1777 4.6107C17.5264 3.29183 19.1399 2.77618 21.0082 3.08855C23.7406 3.5447 25.6838 6.2568 25.2242 8.97387C25.0344 10.1192 24.5049 11.091 23.6757 11.9041C19.9791 15.5285 16.2926 19.1629 12.591 22.7823C10.6828 24.6466 7.56073 23.9524 6.72152 21.4635C6.30191 20.2289 6.55168 19.0786 7.43086 18.1068C7.98035 17.4969 8.59477 16.9367 9.18422 16.3566C11.9017 13.6841 14.6241 11.0166 17.3466 8.34419C17.4015 8.28965 17.4615 8.23511 17.5164 8.18553C17.926 8.60201 18.3257 9.00362 18.7703 9.45481C18.7103 9.49448 18.6254 9.5391 18.5555 9.60356C15.3485 12.752 12.1415 15.9004 8.92946 19.0439C8.51984 19.4455 8.26508 19.9066 8.31503 20.4966C8.36998 21.1808 8.72964 21.6717 9.34906 21.9494C9.9535 22.2171 10.5479 22.1477 11.0924 21.7709C11.2023 21.6965 11.3022 21.6023 11.3971 21.5081C15.0637 17.9085 18.7303 14.3088 22.4019 10.7142C23.1611 9.97046 23.5608 9.08791 23.5258 8.01695C23.4758 6.35101 22.0921 4.89331 20.4137 4.73465C19.2698 4.63053 18.2907 4.96768 17.4765 5.77091C13.7749 9.40027 10.0684 13.0296 6.37684 16.6689C4.69841 18.32 4.29379 20.6057 5.34281 22.6881C6.13707 24.2698 7.46582 25.2118 9.22418 25.4845C11.0425 25.7671 12.601 25.2118 13.9048 23.9326C17.931 19.9859 21.9523 16.0343 25.9735 12.0826C26.0534 12.0033 26.1184 11.9141 26.1833 11.8446C26.6129 12.276 27.0075 12.6826 27.4222 13.0991C27.4022 13.1189 27.3522 13.1784 27.2973 13.2329C23.0662 17.3879 18.8402 21.5527 14.5842 25.6878C14.1945 26.0696 13.66 26.3125 13.1605 26.5704C12.3862 26.972 11.547 27.1951 10.6728 27.2595C10.6329 27.2645 10.5979 27.2843 10.5579 27.2942C10.2083 27.2942 9.85859 27.2942 9.50392 27.2942C9.22918 27.2496 8.95943 27.205 8.68469 27.1554C5.92227 26.6646 3.63441 24.4036 3.14487 21.6767C3.08992 21.3693 3.04995 21.0569 3 20.7445C3.005 20.5313 3.005 20.3082 3.005 20.0851Z" fill="white"/>
</svg>
