<svg width="23" height="23" viewBox="0 0 23 23" fill="none" xmlns="http://www.w3.org/2000/svg">
<path d="M16.0044 12.0488C16.014 12.0679 16.0187 12.0822 16.0283 12.1014C15.9757 12.1444 15.9231 12.1827 15.8752 12.2258C15.0908 13.0057 14.3111 13.7904 13.5314 14.5703C13.4788 14.6229 13.431 14.6707 13.3832 14.7282C12.9814 15.2114 13.2062 15.9387 13.8137 16.1062C14.1676 16.2018 14.4546 16.087 14.7081 15.8334C16.0187 14.5176 17.3341 13.2019 18.6495 11.8861C19.1135 11.422 19.1183 10.9483 18.6543 10.4842C17.3533 9.18274 16.0522 7.88131 14.7512 6.57988C14.7081 6.53682 14.6651 6.49376 14.622 6.45548C14.1389 6.01529 13.3688 6.24017 13.211 6.87174C13.1249 7.20667 13.2253 7.49375 13.474 7.73777C14.2824 8.54159 15.0908 9.3502 15.8944 10.1588C15.9374 10.2019 15.9805 10.2497 16.0474 10.3263C15.947 10.3263 15.8848 10.3263 15.8178 10.3263C14.2442 10.3263 12.6752 10.3263 11.1016 10.3263C10.4941 10.3263 9.88183 10.3215 9.27436 10.3263C8.7482 10.3311 8.34641 10.8047 8.42773 11.3119C8.49947 11.7521 8.85344 12.0488 9.32698 12.0488C11.489 12.0488 13.6558 12.0488 15.8178 12.0488C15.88 12.0488 15.9422 12.0488 16.0044 12.0488Z" fill="white"/>
<path d="M5.54349 20.3739C5.40477 20.3404 5.26606 20.3117 5.13213 20.2734C3.87892 19.9337 3.00359 18.8141 3.00359 17.5174C2.9988 13.2973 2.9988 9.07248 3.00359 4.8524C3.00837 3.28303 4.28071 2.01031 5.84483 2.00552C8.54737 1.99596 11.2499 2.00074 13.9524 2.00552C14.4642 2.00552 14.8421 2.36916 14.8469 2.85719C14.8517 3.3548 14.4738 3.72322 13.9524 3.72322C11.3025 3.72322 8.65738 3.72322 6.00746 3.72322C5.19431 3.72322 4.72555 4.18733 4.72555 5.00073C4.72555 9.12511 4.72555 13.2543 4.72555 17.3787C4.72555 18.1873 5.19431 18.6514 6.00746 18.6514C8.65738 18.6514 11.3025 18.6514 13.9524 18.6514C14.4068 18.6514 14.7704 18.9432 14.8373 19.3595C14.9091 19.8093 14.6699 20.1873 14.2203 20.3404C14.1964 20.3499 14.1772 20.3595 14.1581 20.3739C11.2834 20.3739 8.41343 20.3739 5.54349 20.3739Z" fill="black"/>
<path d="M16.0045 12.0488C15.9423 12.0488 15.8754 12.0488 15.8132 12.0488C13.6512 12.0488 11.4844 12.0488 9.32234 12.0488C8.8488 12.0488 8.49484 11.7521 8.42309 11.3119C8.34177 10.8047 8.74357 10.3358 9.26972 10.3263C9.87719 10.3215 10.4894 10.3263 11.0969 10.3263C12.6706 10.3263 14.2395 10.3263 15.8132 10.3263C15.8754 10.3263 15.9376 10.3263 16.0428 10.3263C15.9758 10.2497 15.9328 10.2019 15.8897 10.1588C15.0814 9.3502 14.2778 8.54159 13.4694 7.73777C13.2255 7.49375 13.125 7.20667 13.2063 6.87174C13.3642 6.24017 14.1343 6.01529 14.6174 6.45548C14.6604 6.49376 14.7035 6.53682 14.7465 6.57988C16.0476 7.88131 17.3486 9.18274 18.6497 10.4842C19.1136 10.9483 19.1136 11.422 18.6449 11.8861C17.3295 13.2019 16.0141 14.5129 14.7035 15.8334C14.45 16.087 14.163 16.2018 13.809 16.1062C13.2015 15.9387 12.9767 15.2114 13.3785 14.7282C13.4264 14.6755 13.4742 14.6229 13.5268 14.5703C14.3065 13.7856 15.0909 13.0057 15.8706 12.2258C15.9184 12.1779 15.971 12.1397 16.0237 12.1014C16.0189 12.087 16.0141 12.0679 16.0045 12.0488Z" fill="black"/>
</svg>
