<svg width="30" height="30" viewBox="0 0 30 30" fill="none" xmlns="http://www.w3.org/2000/svg">
<path d="M27.9998 5.45401C27.9998 9.87122 27.9998 14.2938 27.9998 18.711C27.984 18.7323 27.9681 18.7537 27.9629 18.7803C27.6406 20.3168 26.5891 21.1757 25.0305 21.1757C19.5091 21.1757 13.9931 21.1757 8.47173 21.1757C8.26038 21.1757 8.04904 21.1703 7.84298 21.133C6.4217 20.8716 5.49707 19.7139 5.49707 18.1935C5.49707 14.1284 5.49707 10.0633 5.49707 5.99816C5.49707 4.22167 6.70173 3 8.45588 3C10.5112 3 12.5665 3 14.6271 3C18.1248 3 21.6226 3 25.1203 3C26.4148 3 27.4768 3.76821 27.8625 4.96854C27.91 5.13392 27.9523 5.29396 27.9998 5.45401ZM7.74788 16.5504C7.85883 16.449 7.92752 16.385 7.99092 16.321C8.90498 15.3981 9.81904 14.4752 10.7331 13.5576C11.6683 12.6133 12.8201 12.608 13.7553 13.5522C14.1674 13.963 14.5637 14.3898 14.9917 14.8273C15.4619 14.2564 15.9057 13.723 16.3495 13.1841C17.2795 12.0585 18.2041 10.9329 19.134 9.81254C19.6518 9.18837 20.2964 8.92163 21.0995 9.08167C21.575 9.1777 21.9501 9.43377 22.2619 9.80721C23.3556 11.1036 24.4598 12.3946 25.5535 13.6909C25.6011 13.7496 25.6222 13.8243 25.6592 13.8937C25.6856 13.867 25.7173 13.8457 25.7438 13.819C25.7438 13.7336 25.7438 13.6429 25.7438 13.5576C25.7438 11.0556 25.7438 8.55353 25.7438 6.05151C25.7438 5.45934 25.58 5.28863 24.9935 5.28863C19.4933 5.28863 13.9931 5.28863 8.49286 5.28863C7.92223 5.28863 7.74788 5.46468 7.74788 6.03017C7.74788 9.4391 7.74788 12.8427 7.74788 16.2516C7.74788 16.3263 7.74788 16.4117 7.74788 16.5504Z" fill="#46BD63"/>
<path d="M24.3596 22.8769C24.0109 24.0079 23.678 25.0908 23.3399 26.1685C23.0334 27.1554 22.3624 27.7636 21.3638 27.9396C20.9887 28.0036 20.566 27.977 20.1962 27.8809C14.4476 26.3392 8.69908 24.7814 2.95583 23.229C1.48699 22.8289 0.683887 21.4045 1.11714 19.9481C1.97308 17.0513 2.8343 14.1598 3.69024 11.2684C3.7061 11.2097 3.72723 11.1563 3.79063 11.0977C3.79592 11.1883 3.8012 11.2737 3.8012 11.3644C3.8012 13.7491 3.79592 16.139 3.8012 18.5237C3.80648 20.6149 5.16436 22.3434 7.14042 22.7755C7.49971 22.8556 7.87484 22.8716 8.23941 22.8716C13.486 22.8769 18.7326 22.8769 23.9739 22.8769C24.0902 22.8769 24.2064 22.8769 24.3596 22.8769Z" fill="#46BD63"/>
<path d="M11.1238 10.9491C9.88749 10.9491 8.87832 9.94082 8.86776 8.69247C8.85719 7.44413 9.88749 6.40918 11.1291 6.40918C12.3602 6.41451 13.3747 7.4388 13.3694 8.6818C13.3694 9.93015 12.3655 10.9438 11.1238 10.9491Z" fill="#46BD63"/>
</svg>
