<svg width="29" height="19" viewBox="0 0 29 19" fill="none" xmlns="http://www.w3.org/2000/svg">
<g clip-path="url(#clip0_1327_379)">
<path d="M3.83008 17.2926C3.83008 13.5995 3.83008 9.90648 3.83008 6.21342C3.84248 6.17005 3.86109 6.12048 3.86729 6.0771C3.99132 5.18482 4.70453 4.42886 5.59138 4.31732C5.92628 4.27395 6.26738 4.31113 6.61468 4.31113C6.63328 4.22438 6.65189 4.16861 6.65809 4.10664C6.73251 3.4994 6.81314 2.89835 6.87515 2.2911C7.00539 1.04562 8.02869 0.240088 9.26905 0.394998C10.1869 0.51273 11.1048 0.611872 12.0226 0.711014C13.7963 0.909299 15.5701 1.10758 17.3376 1.31207C19.2725 1.52894 21.2137 1.75821 23.1486 1.96888C24.4076 2.10521 25.2883 3.10283 25.158 4.29254C24.9844 5.89121 24.7983 7.48988 24.6185 9.08856C24.4138 10.9165 24.203 12.7382 23.9983 14.5662C23.8929 15.539 23.4773 16.2764 22.4789 16.549C22.2618 16.611 22.2122 16.7039 22.2246 16.9022C22.2556 17.4227 22.0943 17.8875 21.7408 18.2778C21.2509 18.8293 20.6307 19.0524 19.9051 19.0524C17.6911 19.0462 15.4708 19.0524 13.2568 19.0524C10.8071 19.0524 8.35118 19.0524 5.90147 19.0524C5.18827 19.0524 4.5867 18.8045 4.18978 18.2035C4.02233 17.937 3.95411 17.5962 3.83008 17.2926ZM4.87198 13.8226C4.98981 13.7421 5.05803 13.6863 5.13245 13.6367C6.16195 12.8931 7.18525 12.1434 8.21474 11.3998C9.22563 10.6686 10.3482 10.7306 11.2846 11.5485C12.1591 12.3169 13.0335 13.0914 13.9142 13.8598C14.4661 14.3493 15.0119 14.3989 15.6507 14.0271C17.443 12.9861 19.2353 11.9389 21.0338 10.8979C21.1641 10.8235 21.2137 10.7368 21.2137 10.5881C21.2075 9.28064 21.2075 7.9794 21.2075 6.67196C21.2075 5.80446 20.73 5.33353 19.8741 5.33353C15.2538 5.33353 10.6334 5.33353 6.01311 5.33353C5.94489 5.33353 5.86426 5.31494 5.80845 5.33973C5.60999 5.41409 5.39293 5.46985 5.23788 5.59378C4.9526 5.82925 4.87818 6.17005 4.87818 6.52944C4.87818 8.88407 4.87818 11.2325 4.87818 13.5871C4.87198 13.6553 4.87198 13.7111 4.87198 13.8226ZM21.2013 12.0195C21.0897 12.0814 21.0276 12.1186 20.9594 12.1558C19.3718 13.0728 17.7903 13.9899 16.2026 14.907C15.8429 15.1177 15.4708 15.2726 15.0491 15.2974C14.3421 15.3407 13.7281 15.1053 13.201 14.6343C12.3141 13.8536 11.4335 13.0728 10.5404 12.2921C10.0009 11.8212 9.42409 11.7778 8.87213 12.1806C7.56976 13.1286 6.27358 14.0829 4.97741 15.0433C4.92779 15.0805 4.87198 15.161 4.87198 15.223C4.86578 15.8674 4.85957 16.5119 4.87198 17.1563C4.87818 17.5528 5.18827 17.906 5.57278 17.9866C5.70922 18.0176 5.85186 18.0176 5.9883 18.0176C10.621 18.0176 15.2538 18.0176 19.8865 18.0176C19.9609 18.0176 20.0416 18.0176 20.116 18.0114C20.8168 17.9556 21.1951 17.5405 21.1951 16.8465C21.1951 15.3283 21.1951 13.804 21.1951 12.2859C21.2013 12.2115 21.2013 12.1372 21.2013 12.0195ZM7.66898 4.29254C7.77441 4.29254 7.85504 4.29254 7.94186 4.29254C11.9358 4.29254 15.9298 4.29254 19.9237 4.29254C20.2958 4.29254 20.6555 4.3545 20.9904 4.528C21.8215 4.96794 22.237 5.66814 22.237 6.6038C22.237 9.49752 22.237 12.3912 22.237 15.285C22.237 15.3655 22.237 15.4461 22.237 15.5514C22.6153 15.4027 22.8448 15.1796 22.8944 14.8078C23.0804 13.2463 23.2603 11.6787 23.4401 10.1172C23.6696 8.1467 23.9053 6.17624 24.1285 4.20579C24.1967 3.61713 23.837 3.12142 23.2479 3.04086C22.4106 2.92313 21.5672 2.83638 20.7237 2.73724C18.8632 2.52036 17.0027 2.30349 15.1359 2.08662C13.1452 1.85735 11.1482 1.63428 9.15741 1.39882C8.49382 1.32446 7.99768 1.66526 7.89845 2.31588C7.80542 2.96651 7.74961 3.61713 7.66898 4.29254Z" fill="black"/>
<path d="M14.6397 11.3066C13.449 11.3066 12.4629 10.3213 12.4629 9.13783C12.4629 7.95432 13.4552 6.96289 14.6397 6.96289C15.8305 6.96289 16.8165 7.94812 16.8165 9.13783C16.8165 10.3337 15.8367 11.3066 14.6397 11.3066ZM13.5048 9.14402C13.5048 9.76986 14.0257 10.2842 14.6459 10.278C15.2661 10.2718 15.787 9.75127 15.7808 9.13783C15.7746 8.51199 15.2599 8.00389 14.6335 8.00389C14.0133 8.00389 13.4986 8.51819 13.5048 9.14402Z" fill="black"/>
</g>
<defs>
<clipPath id="clip0_1327_379">
<rect width="29" height="19" fill="white"/>
</clipPath>
</defs>
</svg>
