<svg width="25" height="24" viewBox="0 0 25 24" fill="none" xmlns="http://www.w3.org/2000/svg">
<path d="M23.9141 9.94474C23.5158 7.48373 22.3287 5.5284 20.5636 3.96077C18.6658 2.292 16.4712 1.38177 14.0424 1.09521C11.4573 0.791797 8.98154 1.20478 6.64638 2.46057C4.47522 3.62365 2.75704 5.30927 1.74956 7.71972C0.710843 10.2144 0.765513 12.7176 1.82766 15.1955C2.2494 16.1816 2.82733 17.0496 3.52241 17.825C3.64737 17.9683 3.70204 18.1116 3.70204 18.3139C3.69423 19.5612 3.69423 20.8002 3.69423 22.0475C3.69423 22.5026 3.87386 22.6291 4.26435 22.4689C5.45146 21.9801 6.63857 21.4828 7.82567 21.0024C7.9272 20.9603 8.05997 20.9519 8.1615 20.9856C10.2624 21.7357 12.4023 21.938 14.5891 21.5671C17.0101 21.1626 19.1657 20.1428 20.9854 18.356C22.399 16.9654 23.383 15.2882 23.8048 13.257C23.8907 12.844 23.9375 12.4142 24 12.0012C24 11.5798 24 11.1584 24 10.737C23.9922 10.4841 23.9531 10.2144 23.9141 9.94474ZM16.0573 15.7939H8.96592C8.53637 15.7939 8.19274 15.423 8.19274 14.9595C8.19274 14.4959 8.53637 14.1251 8.96592 14.1251H16.0573C16.4869 14.1251 16.8305 14.4959 16.8305 14.9595C16.8305 15.423 16.4869 15.7939 16.0573 15.7939ZM18.5877 10.1554C18.5877 10.619 18.2441 10.9898 17.8146 10.9898H7.20869C6.77914 10.9898 6.43551 10.619 6.43551 10.1554C6.43551 9.6919 6.77914 9.32106 7.20869 9.32106H17.8146C18.2441 9.32106 18.5877 9.6919 18.5877 10.1554Z" fill="white"/>
</svg>
