<svg width="23" height="23" viewBox="0 0 23 23" fill="none" xmlns="http://www.w3.org/2000/svg">
<path d="M11.1538 21.9996C10.7813 21.9464 10.4035 21.9145 10.0309 21.8453C6.80609 21.2278 4.37415 19.4924 2.78301 16.618C1.82513 14.8826 1.38876 12.9982 1.59098 11.0234C2.03267 6.7755 4.23047 3.77858 8.22162 2.21358C10.8877 1.16492 13.5591 1.35655 16.1614 2.54893C16.4328 2.67669 16.6084 2.85768 16.5924 3.17174C16.5818 3.45387 16.4115 3.63485 16.0656 3.74131C13.9742 4.40671 12.6172 5.79604 12.0585 7.91465C11.2017 11.1671 13.4154 14.5206 16.7308 15.053C18.0345 15.2606 19.2691 15.0583 20.4399 14.4408C20.5463 14.3876 20.6527 14.329 20.7698 14.3024C21.2222 14.2066 21.5787 14.659 21.419 15.1222C21.0678 16.1495 20.5623 17.097 19.8971 17.9541C18.1676 20.1791 15.9006 21.4886 13.1174 21.9038C12.8727 21.9411 12.6332 21.9624 12.3884 21.989C11.9786 21.9996 11.5636 21.9996 11.1538 21.9996ZM19.6949 16.059C16.1188 17.0491 12.9259 15.2499 11.5529 12.7001C10.6376 10.9967 10.4301 9.20817 10.9782 7.35572C11.521 5.50327 12.6704 4.11926 14.352 3.15577C10.3183 1.87822 5.30542 3.75728 3.42159 8.3884C1.54309 12.9929 3.75685 18.183 8.23759 20.078C12.8035 22.0103 17.6886 19.8864 19.6949 16.059Z" fill="black"/>
</svg>
