<svg width="23" height="23" viewBox="0 0 23 23" fill="none" xmlns="http://www.w3.org/2000/svg">
<path d="M1.01042 2.67188C1.13017 2.375 1.20827 2.04687 1.3853 1.78125C1.76019 1.21875 2.33294 1 2.9994 1C5.14459 1 7.28978 1 9.43497 1C13.0745 1 16.7088 1 20.3484 1C21.1606 1 21.7959 1.33334 22.1447 2.07813C22.2697 2.34896 22.3322 2.67709 22.3322 2.98438C22.3426 7.08333 22.3426 11.1771 22.3374 15.276C22.3374 16.4479 21.5355 17.25 20.3588 17.25C16.7921 17.25 13.2255 17.25 9.65366 17.25C9.49746 17.25 9.38291 17.2968 9.27356 17.4062C8.17494 18.5156 7.0711 19.6198 5.95685 20.7187C5.83189 20.8437 5.65486 20.9531 5.48304 20.9896C5.10294 21.0625 4.80095 20.7448 4.79574 20.3177C4.79053 19.3802 4.79574 18.4427 4.79574 17.5052C4.79574 17.4323 4.79574 17.3541 4.79574 17.2552C4.48333 17.2552 4.18655 17.2552 3.88976 17.2552C3.48884 17.25 3.08271 17.276 2.68179 17.2291C1.79664 17.1302 1.19786 16.5469 1.03125 15.6666C1.02604 15.6406 1.01041 15.6146 1 15.5885C1.01041 11.2812 1.01042 6.97916 1.01042 2.67188ZM6.05057 18.8125C6.0714 18.8229 6.08702 18.8333 6.10785 18.8437C6.15471 18.7864 6.20157 18.7187 6.25364 18.6666C7.03986 17.8802 7.82609 17.0989 8.6071 16.3073C8.81537 16.0937 9.04447 16 9.34646 16C13.012 16.0052 16.6776 16.0052 20.3432 16.0052C20.8482 16.0052 21.0877 15.7708 21.0877 15.276C21.0877 11.1771 21.0877 7.08333 21.0877 2.98438C21.0877 2.49479 20.8482 2.25521 20.3588 2.25521C14.5689 2.25521 8.77892 2.25521 2.98899 2.25521C2.49955 2.25521 2.26004 2.49479 2.26004 2.98438C2.26004 7.08333 2.26004 11.1771 2.26004 15.276C2.26004 15.7656 2.49955 16.0052 2.98899 16.0052C3.73877 16.0052 4.48854 16.0052 5.23832 16.0052C5.8423 16.0052 6.05057 16.2135 6.05057 16.8177C6.05057 17.4844 6.05057 18.1458 6.05057 18.8125Z" fill="black"/>
<path d="M11.2569 4.49121C11.9078 4.49642 12.4336 4.57975 12.9335 4.81934C14.0998 5.38184 14.5007 6.59017 13.8915 7.736C13.6156 8.25162 13.2199 8.65788 12.7669 9.01725C12.6523 9.111 12.5378 9.20474 12.4284 9.30891C12.1369 9.57974 11.9911 9.91829 11.9755 10.3141C11.9702 10.4287 11.9702 10.5485 11.9702 10.6631C11.965 10.986 11.8245 11.1631 11.5121 11.2204C11.3663 11.2464 11.2153 11.2568 11.0643 11.2412C10.6738 11.21 10.5176 11.0381 10.4863 10.6422C10.403 9.62142 10.7258 8.78809 11.5797 8.18392C11.7724 8.0485 11.965 7.90788 12.1108 7.7308C12.267 7.5433 12.4128 7.31934 12.4909 7.09017C12.6159 6.70476 12.4336 6.34017 12.0848 6.15267C11.4183 5.7933 10.5748 5.98601 10.1479 6.6058C9.8615 7.01725 9.59595 7.1058 9.21065 6.92351C8.85659 6.75684 8.7056 6.38704 8.83577 5.96517C9.02321 5.35059 9.4762 4.99122 10.0385 4.74643C10.4551 4.55372 10.9029 4.49121 11.2569 4.49121Z" fill="black"/>
<path d="M12.2097 13.1836C12.2045 13.7305 11.7515 14.1888 11.2048 14.194C10.6529 14.194 10.1999 13.7253 10.2051 13.1628C10.2103 12.6055 10.6633 12.1628 11.2152 12.168C11.7671 12.1732 12.2097 12.6316 12.2097 13.1836Z" fill="black"/>
</svg>
