<svg width="23" height="23" viewBox="0 0 23 23" fill="none" xmlns="http://www.w3.org/2000/svg">
<path d="M2.63513 1C4.89442 1 7.15371 1 9.413 1C9.44894 1.01025 9.49002 1.02562 9.52596 1.03587C10.1729 1.17938 10.671 1.53301 10.8815 2.15828C11.0304 2.59904 11.0664 3.07568 11.1383 3.54207C11.1999 3.93158 11.241 4.32622 11.2923 4.73111C11.3899 4.73111 11.472 4.73111 11.5491 4.73111C14.3886 4.73111 17.2281 4.73111 20.0676 4.73111C20.7248 4.73111 21.2897 4.94637 21.6594 5.49988C21.8339 5.75614 21.911 6.07902 22.0291 6.37628C22.0291 11.035 22.0291 15.6989 22.0291 20.3577C21.9675 20.5524 21.9315 20.7574 21.8442 20.9368C21.4848 21.6543 20.884 21.9926 20.0881 21.9977C17.8956 22.0028 15.7082 21.9977 13.5157 21.9977C12.4117 21.9977 11.3129 22.0028 10.2089 21.9977C9.34111 21.9926 8.63251 21.5211 8.39632 20.7267C8.27308 20.3116 8.24741 19.8657 8.19093 19.4351C8.13444 19.0508 8.09337 18.6664 8.04202 18.2666C7.94959 18.2666 7.87771 18.2666 7.80582 18.2666C6.19865 18.2666 4.58633 18.2769 2.97916 18.2564C2.67107 18.2512 2.34245 18.2 2.06517 18.0719C1.34118 17.7387 1.00742 17.134 1.00228 16.3447C0.997147 15.1557 1.00228 13.9666 1.00228 12.7776C1.00228 9.50262 1.00228 6.23277 1.00228 2.9578C1.00228 2.30178 1.21794 1.73802 1.77249 1.36901C2.01896 1.19475 2.34245 1.123 2.63513 1ZM10.3937 20.7626C10.5118 20.7626 10.5786 20.7626 10.6505 20.7626C13.7775 20.7626 16.9046 20.7626 20.0368 20.7626C20.5708 20.7626 20.7967 20.5371 20.7967 20.004C20.7967 15.5759 20.7967 11.1478 20.7967 6.72479C20.7967 6.18665 20.5759 5.96627 20.0368 5.96627C17.2486 5.96627 14.4656 5.96627 11.6774 5.96627C11.6055 5.96627 11.5285 5.96627 11.4515 5.96627C11.4566 6.02264 11.4566 6.05852 11.4618 6.08927C11.6415 7.51919 11.8212 8.9491 11.9958 10.379C12.2885 12.7417 12.5811 15.1095 12.879 17.4722C12.9098 17.7336 12.8533 17.9386 12.6838 18.1282C12.386 18.4665 12.0933 18.8099 11.7955 19.1481C11.3385 19.6709 10.8867 20.1988 10.3937 20.7626ZM11.5799 17.0315C11.5542 16.847 11.5336 16.6829 11.5131 16.5241C11.2204 14.1665 10.9277 11.8089 10.6351 9.45137C10.3629 7.26806 10.0908 5.08986 9.81864 2.90655C9.76216 2.44016 9.53623 2.23004 9.0587 2.23004C7.03047 2.23004 5.00738 2.23004 2.97916 2.23004C2.44515 2.23004 2.21922 2.45554 2.21922 2.98856C2.21922 7.41669 2.21922 11.8448 2.21922 16.2729C2.21922 16.806 2.44515 17.0315 2.97916 17.0315C5.76733 17.0315 8.55036 17.0315 11.3385 17.0315C11.4207 17.0315 11.4926 17.0315 11.5799 17.0315ZM9.48488 19.9323C9.98295 19.3583 10.4451 18.8253 10.9175 18.2769C10.3527 18.2769 9.82378 18.2769 9.28463 18.2769C9.35138 18.8201 9.413 19.348 9.48488 19.9323Z" fill="black"/>
<path d="M16.4476 15.0941C15.9701 15.4836 15.5028 15.8578 15.0356 16.237C14.8712 16.3703 14.6864 16.4523 14.4656 16.401C14.2191 16.3447 14.0548 16.1909 13.9932 15.9398C13.9316 15.6784 14.024 15.4683 14.2243 15.3043C14.6145 14.9814 15.0099 14.6636 15.4001 14.3459C15.4566 14.2997 15.5131 14.2485 15.5696 14.1972C15.3796 13.9205 15.1845 13.6591 15.0047 13.3874C14.6453 12.8493 14.3783 12.2702 14.178 11.6552C14.1421 11.5475 14.101 11.4911 13.9675 11.4911C13.6081 11.4809 13.3514 11.2144 13.3565 10.8761C13.3565 10.5327 13.6286 10.2714 13.9932 10.2662C14.5221 10.2611 15.0458 10.2662 15.5747 10.2662C15.6466 10.2662 15.7236 10.2662 15.816 10.2662C15.816 10.0612 15.8109 9.8716 15.816 9.68197C15.8212 9.31296 16.0779 9.04133 16.4219 9.0362C16.7762 9.03108 17.0381 9.30271 17.0484 9.68197C17.0535 9.86648 17.0484 10.051 17.0484 10.2662C17.1613 10.2662 17.2692 10.2662 17.377 10.2662C17.8648 10.2662 18.3475 10.2662 18.8353 10.2662C19.2255 10.2662 19.5028 10.5071 19.5131 10.8556C19.5285 11.2041 19.2666 11.4604 18.8815 11.4963C18.825 11.5014 18.7377 11.5527 18.7223 11.5988C18.4142 12.5469 17.9367 13.3977 17.2897 14.187C17.5464 14.4074 17.798 14.6226 18.0548 14.8327C18.2499 14.9916 18.4553 15.1454 18.6504 15.3043C18.938 15.54 18.9842 15.9039 18.7685 16.1755C18.5529 16.4472 18.1883 16.4933 17.8905 16.2627C17.4797 15.9449 17.0843 15.6066 16.6787 15.2786C16.6016 15.2223 16.5246 15.1556 16.4476 15.0941ZM15.4361 11.5014C15.6825 12.1625 16.006 12.7417 16.4425 13.2798C16.8738 12.7263 17.2075 12.1523 17.4386 11.5014C16.7608 11.5014 16.1138 11.5014 15.4361 11.5014Z" fill="black"/>
<path d="M7.43101 10.271C6.85592 10.271 6.30136 10.271 5.73141 10.271C5.61844 10.8399 5.50548 11.4036 5.38738 11.9725C5.36684 12.075 5.35144 12.1724 5.32063 12.2698C5.22307 12.5927 4.91498 12.7772 4.6069 12.7105C4.27314 12.6388 4.06261 12.3262 4.12423 11.9879C4.21152 11.5266 4.30908 11.0654 4.40151 10.6041C4.71473 9.04606 5.02795 7.48801 5.34117 5.92996C5.42332 5.52508 5.64412 5.3457 6.0549 5.3457C6.40406 5.3457 6.75322 5.3457 7.10238 5.3457C7.51316 5.35083 7.73396 5.52508 7.81611 5.93509C8.22176 7.93903 8.62227 9.94808 9.02278 11.952C9.09466 12.321 8.89441 12.6388 8.54525 12.7157C8.21149 12.7874 7.888 12.5619 7.81098 12.1929C7.68774 11.5574 7.55938 10.9219 7.43101 10.271ZM6.46567 6.58599C6.30136 7.41113 6.14219 8.21578 5.97787 9.02555C6.38865 9.02555 6.77376 9.02555 7.1794 9.02555C7.01509 8.20041 6.85078 7.39063 6.6916 6.58599C6.60431 6.58599 6.5427 6.58599 6.46567 6.58599Z" fill="black"/>
</svg>
