<svg width="30" height="30" viewBox="0 0 30 30" fill="none" xmlns="http://www.w3.org/2000/svg">
<circle cx="15.2734" cy="15.0312" r="14" stroke="#B2B2B2"/>
<path d="M22.4167 19.0213L22.4167 19.0213C22.46 19.2279 22.4083 19.4398 22.2753 19.6027L22.2752 19.6027C22.1985 19.6965 22.0263 19.8554 21.7413 19.8554H9.65174C9.36674 19.8554 9.19452 19.6965 9.11783 19.6027M22.4167 19.0213L9.11783 19.6027M22.4167 19.0213C22.3525 18.7154 22.5499 18.4156 22.8576 18.3519C23.1658 18.2881 23.4669 18.4848 23.5308 18.7905C23.6441 19.3322 23.5086 19.8883 23.1582 20.3164L23.1582 20.3164C22.81 20.7426 22.2937 20.9869 21.7413 20.9869H9.65174C9.09937 20.9869 8.58311 20.7426 8.23486 20.3164L8.1962 20.348L8.23486 20.3164C7.88478 19.888 7.74925 19.3322 7.86253 18.7905C8.23158 17.0264 9.20965 15.4205 10.6163 14.2692L10.5873 14.2338L10.6163 14.2692C11.3833 13.6412 12.2596 13.1653 13.1938 12.8592L13.2854 12.8292L13.2081 12.7716C12.1944 12.0159 11.5374 10.8116 11.5374 9.45775C11.5374 7.17623 13.4031 5.31953 15.6967 5.31953C17.9903 5.31953 19.856 7.17623 19.856 9.45775C19.856 10.811 19.1998 12.0147 18.1868 12.7701L18.1095 12.8277L18.2011 12.8577C19.8722 13.4052 21.3378 14.4944 22.3473 15.9922L22.3474 15.9922C22.5224 16.2515 22.4526 16.6032 22.1918 16.7773L22.1917 16.7773C21.9305 16.9517 21.577 16.882 21.4021 16.6225C20.1537 14.7702 18.0923 13.6463 15.8622 13.5929L15.8622 13.5928L15.8593 13.5929C15.8052 13.5948 15.7507 13.596 15.6964 13.596C15.6422 13.596 15.588 13.5951 15.5343 13.5929L15.5343 13.5928L15.5311 13.5929C12.3652 13.6692 9.62371 15.9279 8.97637 19.0213L8.97636 19.0213M22.4167 19.0213L8.97636 19.0213M9.11783 19.6027C8.98469 19.44 8.93338 19.2278 8.97636 19.0213M9.11783 19.6027L8.97636 19.0213M15.8462 12.4604L15.8462 12.4606L15.8496 12.4604C17.4444 12.3809 18.7179 11.0646 18.7179 9.45775C18.7179 7.79988 17.3623 6.45136 15.6967 6.45136C14.0311 6.45136 12.6754 7.79988 12.6754 9.45775C12.6754 11.0649 13.949 12.3812 15.5444 12.4607L15.5444 12.4608L15.5478 12.4607C15.5974 12.4598 15.6473 12.4592 15.6967 12.4592C15.7466 12.4592 15.7964 12.4595 15.8462 12.4604Z" fill="#B2B2B2" stroke="#F2F2F2" stroke-width="0.1"/>
</svg>
