<svg width="30" height="30" viewBox="0 0 30 30" fill="none" xmlns="http://www.w3.org/2000/svg">
<path d="M28.9998 6.45401C28.9998 10.8712 28.9998 15.2938 28.9998 19.711C28.984 19.7323 28.9681 19.7537 28.9629 19.7803C28.6406 21.3168 27.5891 22.1757 26.0305 22.1757C20.5091 22.1757 14.9931 22.1757 9.47173 22.1757C9.26038 22.1757 9.04904 22.1703 8.84298 22.133C7.4217 21.8716 6.49707 20.7139 6.49707 19.1935C6.49707 15.1284 6.49707 11.0633 6.49707 6.99816C6.49707 5.22167 7.70173 4 9.45588 4C11.5112 4 13.5665 4 15.6271 4C19.1248 4 22.6226 4 26.1203 4C27.4148 4 28.4768 4.76821 28.8625 5.96854C28.91 6.13392 28.9523 6.29396 28.9998 6.45401ZM8.74788 17.5504C8.85883 17.449 8.92752 17.385 8.99092 17.321C9.90498 16.3981 10.819 15.4752 11.7331 14.5576C12.6683 13.6133 13.8201 13.608 14.7553 14.5522C15.1674 14.963 15.5637 15.3898 15.9917 15.8273C16.4619 15.2564 16.9057 14.723 17.3495 14.1841C18.2795 13.0585 19.2041 11.9329 20.134 10.8125C20.6518 10.1884 21.2964 9.92163 22.0995 10.0817C22.575 10.1777 22.9501 10.4338 23.2619 10.8072C24.3556 12.1036 25.4598 13.3946 26.5535 14.6909C26.6011 14.7496 26.6222 14.8243 26.6592 14.8937C26.6856 14.867 26.7173 14.8457 26.7438 14.819C26.7438 14.7336 26.7438 14.6429 26.7438 14.5576C26.7438 12.0556 26.7438 9.55353 26.7438 7.05151C26.7438 6.45934 26.58 6.28863 25.9935 6.28863C20.4933 6.28863 14.9931 6.28863 9.49286 6.28863C8.92223 6.28863 8.74788 6.46468 8.74788 7.03017C8.74788 10.4391 8.74788 13.8427 8.74788 17.2516C8.74788 17.3263 8.74788 17.4117 8.74788 17.5504Z" fill="#46BD63"/>
<path d="M25.3596 23.8769C25.0109 25.0079 24.678 26.0908 24.3399 27.1685C24.0334 28.1554 23.3624 28.7636 22.3638 28.9396C21.9887 29.0036 21.566 28.977 21.1962 28.8809C15.4476 27.3392 9.69908 25.7814 3.95583 24.229C2.48699 23.8289 1.68389 22.4045 2.11714 20.9481C2.97308 18.0513 3.8343 15.1598 4.69024 12.2684C4.7061 12.2097 4.72723 12.1563 4.79063 12.0977C4.79592 12.1883 4.8012 12.2737 4.8012 12.3644C4.8012 14.7491 4.79592 17.139 4.8012 19.5237C4.80648 21.6149 6.16436 23.3434 8.14042 23.7755C8.49971 23.8556 8.87484 23.8716 9.23941 23.8716C14.486 23.8769 19.7326 23.8769 24.9739 23.8769C25.0902 23.8769 25.2064 23.8769 25.3596 23.8769Z" fill="#46BD63"/>
<path d="M12.1243 11.9501C10.888 11.9501 9.87881 10.9418 9.86824 9.69345C9.85768 8.44511 10.888 7.41016 12.1296 7.41016C13.3607 7.41549 14.3751 8.43977 14.3699 9.68278C14.3699 10.9311 13.366 11.9447 12.1243 11.9501Z" fill="#46BD63"/>
</svg>
