<svg width="20" height="20" viewBox="0 0 20 20" fill="none" xmlns="http://www.w3.org/2000/svg">
<g clip-path="url(#clip0_1327_379)">
<path d="M13.9927 0.884369C14.1718 0.946077 14.3632 0.989272 14.5362 1.06949C15.2155 1.39654 15.6417 1.93956 15.6664 2.69239C15.7034 4.124 15.6849 5.56178 15.6911 6.99339C15.6911 7.06744 15.6849 7.14766 15.6787 7.22171C15.5923 8.22754 14.7647 9.01122 13.758 9.02356C12.9921 9.02973 12.2325 9.02973 11.4666 9.02356C11.0899 9.01739 10.812 9.15932 10.6267 9.49254C10.5155 9.68383 10.392 9.86895 10.2561 10.0911C10.3796 10.0911 10.4599 10.0911 10.5464 10.0911C12.3189 10.0911 14.0976 10.0911 15.8702 10.0911C17.2413 10.0911 18.1677 11.0167 18.1677 12.3804C18.1677 15.6818 18.1677 18.9831 18.1677 22.2845C18.1677 23.6482 17.2351 24.5738 15.864 24.5738C11.6272 24.5738 7.39041 24.5738 3.14744 24.5738C1.77017 24.5738 0.843758 23.642 0.843758 22.2598C0.843758 20.8405 0.843758 19.4212 0.843758 18.002C0.843758 17.9588 0.843758 17.9094 0.843758 17.8662C0.85611 17.5762 1.05375 17.3664 1.31932 17.3726C1.57871 17.3787 1.764 17.5762 1.77017 17.86C1.77635 18.4401 1.77017 19.014 1.77017 19.594C1.77017 19.6804 1.77017 19.7606 1.77017 19.884C1.84428 19.8223 1.89987 19.7791 1.9431 19.736C2.31367 19.3657 2.68423 18.9893 3.0548 18.6252C3.90092 17.7922 5.14232 17.786 6.00697 18.6067C6.14902 18.7425 6.29107 18.8906 6.43312 19.0325C6.74192 19.341 6.80986 19.341 7.11249 19.0387C8.48976 17.6626 9.86085 16.2865 11.2381 14.9166C11.9113 14.244 12.8068 14.0527 13.6097 14.4353C13.8691 14.5587 14.11 14.7438 14.3138 14.9475C15.2279 15.8422 16.1296 16.7555 17.0375 17.6564C17.0931 17.712 17.1486 17.7551 17.2351 17.8415C17.2351 17.7243 17.2351 17.6502 17.2351 17.5762C17.2351 15.8422 17.2351 14.1082 17.2351 12.3681C17.2351 11.5104 16.7225 10.992 15.8702 10.992C11.6272 10.992 7.37806 10.992 3.13509 10.992C2.28279 10.992 1.77017 11.5104 1.77017 12.3619C1.77017 12.8001 1.77017 13.2382 1.77017 13.6825C1.77017 13.9972 1.58489 14.207 1.31314 14.2131C1.04139 14.2193 0.843758 14.0033 0.843758 13.6948C0.849934 13.0962 0.812878 12.4853 0.886991 11.893C1.02904 10.8254 1.93693 10.0726 3.0301 10.0664C4.90763 10.0602 6.77898 10.0664 8.65651 10.0664C8.74298 10.0664 8.82327 10.0664 8.96532 10.0664C8.75533 9.75788 8.6071 9.45551 8.37859 9.23337C8.23654 9.09761 7.98332 9.02356 7.77333 9.01739C7.0322 8.99271 6.29107 9.01122 5.54994 9.00505C4.36413 9.00505 3.51801 8.16583 3.51183 6.98105C3.50565 5.62966 3.51183 4.28444 3.51183 2.93305C3.51183 1.86552 4.08003 1.14971 5.12997 0.890539C5.14849 0.884368 5.16702 0.865857 5.18555 0.853516C8.12537 0.884369 11.059 0.884369 13.9927 0.884369ZM7.41512 20.0939C7.446 20.1185 7.52629 20.1556 7.58805 20.2173C7.89685 20.5196 8.19948 20.822 8.50828 21.1305C8.65034 21.2725 8.70592 21.4391 8.63181 21.6365C8.56387 21.8155 8.428 21.9389 8.24889 21.9204C8.08831 21.9019 7.90303 21.8217 7.79186 21.7106C6.97662 20.9146 6.17372 20.1 5.35848 19.2978C4.85822 18.8042 4.1912 18.8103 3.69093 19.3102C3.30802 19.6866 2.9251 20.0692 2.54218 20.4579C2.28279 20.7171 1.92458 20.9454 1.79488 21.2601C1.66518 21.5748 1.75782 21.9883 1.75782 22.3585C1.76399 23.1175 2.29514 23.6605 3.0548 23.6605C7.34718 23.6605 11.6396 23.6605 15.9319 23.6605C16.6916 23.6605 17.2228 23.1237 17.2289 22.3585C17.2351 21.365 17.2351 20.3715 17.2228 19.3719C17.2228 19.2731 17.1733 19.1436 17.1054 19.0757C15.9381 17.8971 14.7647 16.7246 13.585 15.5522C13.0848 15.0524 12.4239 15.0585 11.9175 15.5584C11.3555 16.1199 10.7873 16.6814 10.2314 17.243C9.305 18.1748 8.38477 19.1189 7.41512 20.0939ZM9.5891 9.36295C9.61998 9.32593 9.63234 9.31976 9.63851 9.30742C9.68792 9.2272 9.7435 9.15315 9.78674 9.07293C10.1697 8.40032 10.7502 8.09178 11.5284 8.11029C12.2386 8.12264 12.9489 8.11646 13.6591 8.11029C14.2953 8.11029 14.7461 7.70303 14.7523 7.06744C14.7647 5.66669 14.7647 4.25976 14.7523 2.859C14.7461 2.22959 14.2953 1.81615 13.6653 1.81615C10.954 1.81615 8.24889 1.81615 5.53759 1.81615C4.88292 1.81615 4.4506 2.25427 4.4506 2.90837C4.44442 4.27827 4.44442 5.65434 4.4506 7.02425C4.4506 7.67834 4.8891 8.11029 5.54376 8.11029C6.29724 8.11029 7.0569 8.11029 7.81039 8.11029C8.47123 8.11646 8.98385 8.39415 9.33588 8.95569C9.41 9.08527 9.49646 9.21485 9.5891 9.36295Z" fill="black"/>
<path d="M8.19779 14.5648C8.19779 15.5891 7.34549 16.4345 6.32643 16.4345C5.30738 16.4345 4.45508 15.5829 4.45508 14.5648C4.45508 13.5404 5.30738 12.695 6.32643 12.7012C7.35784 12.695 8.19779 13.5404 8.19779 14.5648ZM7.27137 14.5648C7.27137 14.0526 6.84523 13.6206 6.33261 13.6206C5.82 13.6206 5.38767 14.0464 5.38767 14.5586C5.38767 15.0708 5.81999 15.5027 6.32643 15.5089C6.83905 15.5089 7.27137 15.0769 7.27137 14.5648Z" fill="black"/>
<path d="M1.75857 15.7693C1.75857 16.0161 1.55477 16.2197 1.30155 16.2259C1.04215 16.2259 0.825984 16.0161 0.83216 15.7569C0.838336 15.5039 1.04832 15.3065 1.29537 15.3126C1.55476 15.3188 1.75857 15.5224 1.75857 15.7693Z" fill="black"/>
<path d="M8.12779 3.27864C8.99244 2.74179 9.99914 3.20459 10.2153 4.05615C10.3388 4.54364 10.24 4.9941 9.87562 5.35201C9.42476 5.7963 8.96773 6.23442 8.5107 6.66637C8.23895 6.91937 8.01662 6.91937 7.74487 6.66637C7.31254 6.25911 6.88021 5.85184 6.45406 5.4384C5.92292 4.92623 5.83646 4.18574 6.24408 3.61803C6.65788 3.03798 7.38665 2.88989 8.05367 3.24162C8.06602 3.25396 8.08455 3.26013 8.12779 3.27864ZM8.12161 5.7531C8.49835 5.3952 8.85039 5.06816 9.19625 4.72259C9.39388 4.52513 9.37536 4.22893 9.17772 4.06849C8.98626 3.90806 8.71451 3.94508 8.54158 4.14871C8.25748 4.49427 7.99191 4.49428 7.70781 4.15489C7.52253 3.93274 7.25078 3.90189 7.05932 4.07467C6.86786 4.24745 6.84933 4.51279 7.04079 4.71025C7.38665 5.06815 7.75104 5.40137 8.12161 5.7531Z" fill="black"/>
<path d="M12.0605 4.00127C11.9679 3.9951 11.9123 3.9951 11.8567 3.98893C11.622 3.95191 11.4491 3.75444 11.4552 3.52612C11.4614 3.29164 11.6467 3.088 11.8937 3.07566C12.1099 3.06332 12.3261 3.06332 12.5422 3.07566C12.8016 3.088 12.9807 3.26079 12.9807 3.51996C12.9869 4.48259 12.9869 5.44522 12.9807 6.40786C12.9807 6.65469 12.7893 6.82747 12.5546 6.83981C12.3137 6.85215 12.1223 6.70405 12.079 6.46339C12.0605 6.36466 12.0605 6.26593 12.0605 6.1672C12.0543 5.43905 12.0605 4.72942 12.0605 4.00127Z" fill="black"/>
</g>
<defs>
<clipPath id="clip0_1327_379">
<rect width="20" height="20" fill="white"/>
</clipPath>
</defs>
</svg>
