<svg width="20" height="20" viewBox="0 0 20 20" fill="none" xmlns="http://www.w3.org/2000/svg">
<path d="M0.800781 2.25097C0.800781 2.09277 0.800781 1.93457 0.800781 1.77637C6.60044 1.77637 12.4001 1.77637 18.2043 1.77637C18.2043 7.571 18.2043 13.3702 18.2043 19.1648C18.0505 19.1648 17.8921 19.1648 17.7338 19.1648C18.0731 19.0292 18.1817 18.7715 18.1817 18.4145C18.1726 16.1997 18.1772 13.9849 18.1772 11.7701C18.1772 11.2729 17.9645 11.0604 17.4669 11.0604C15.2411 11.0604 13.0108 11.0604 10.7851 11.0604C10.2829 11.0604 10.0703 11.2729 10.0703 11.7701C10.0703 13.9849 10.0748 16.1997 10.0658 18.4145C10.0658 18.7715 10.1743 19.0247 10.5091 19.1648C9.83052 19.1648 9.15193 19.1648 8.47335 19.1648C8.80812 19.0247 8.92122 18.7715 8.91669 18.4145C8.90764 16.1997 8.91216 13.9894 8.91216 11.7746C8.91216 11.2774 8.69954 11.065 8.20191 11.065C5.98519 11.065 3.77299 11.0695 1.55627 11.0604C1.19888 11.0604 0.945546 11.1689 0.805304 11.5034C0.805304 10.8254 0.805304 10.1474 0.805304 9.4694C0.945546 9.80387 1.19888 9.91687 1.55627 9.91235C3.77299 9.90331 5.98971 9.90783 8.20643 9.90783C8.70407 9.90783 8.91669 9.6954 8.91669 9.19368C8.91669 6.96984 8.91669 4.74148 8.91669 2.51765C8.91669 2.01593 8.70407 1.80801 8.20643 1.80801C5.98971 1.80801 3.77299 1.81253 1.55627 1.80349C1.18984 1.80349 0.936499 1.91197 0.800781 2.25097ZM14.1328 1.80801C12.9973 1.80801 11.8618 1.80801 10.7263 1.80801C10.2965 1.80801 10.0658 2.03853 10.0658 2.46341C10.0658 4.7234 10.0658 6.9834 10.0658 9.23888C10.0658 9.67732 10.2965 9.90331 10.7398 9.90331C12.9973 9.90331 15.2502 9.90331 17.5076 9.90331C17.951 9.90331 18.1772 9.67732 18.1772 9.23436C18.1772 6.97888 18.1772 4.72792 18.1772 2.47245C18.1772 2.02045 17.9555 1.79897 17.4986 1.79897C16.3721 1.80801 15.2502 1.80801 14.1328 1.80801Z" fill="white"/>
<path d="M0.800781 2.25021C0.936499 1.91121 1.19436 1.80273 1.55175 1.80273C3.76847 1.81177 5.98519 1.80725 8.20191 1.80725C8.69954 1.80725 8.91216 2.01969 8.91216 2.51689C8.91216 4.74073 8.91216 6.96909 8.91216 9.19292C8.91216 9.69464 8.69954 9.90708 8.20191 9.90708C5.98519 9.90708 3.76847 9.90256 1.55175 9.9116C1.19436 9.9116 0.941023 9.80312 0.800781 9.46864C0.800781 7.06401 0.800781 4.65485 0.800781 2.25021ZM7.74047 2.97793C5.80876 2.97793 3.88609 2.97793 1.96343 2.97793C1.96343 4.90797 1.96343 6.82445 1.96343 8.74544C3.89514 8.74544 5.81328 8.74544 7.74047 8.74544C7.74047 6.81993 7.74047 4.90797 7.74047 2.97793Z" fill="black"/>
<path d="M0.801398 11.5036C0.941639 11.1692 1.19498 11.0562 1.55237 11.0607C3.76909 11.0697 5.98128 11.0652 8.19801 11.0652C8.69564 11.0652 8.90826 11.2776 8.90826 11.7748C8.90826 13.9896 8.90373 16.1999 8.91278 18.4147C8.91278 18.7718 8.80421 19.0249 8.46944 19.165C6.05819 19.165 3.65146 19.165 1.24022 19.165C1.03212 19.0791 0.882829 18.9345 0.796875 18.7221C0.801399 16.3174 0.801398 13.9128 0.801398 11.5036ZM1.96857 12.2314C1.96857 14.1659 1.96857 16.0869 1.96857 18.0034C3.90028 18.0034 5.81842 18.0034 7.73656 18.0034C7.73656 16.0733 7.73656 14.1569 7.73656 12.2314C5.8139 12.2314 3.90028 12.2314 1.96857 12.2314Z" fill="black"/>
<path d="M10.506 19.1649C10.1712 19.0248 10.0581 18.7717 10.0626 18.4146C10.0717 16.1998 10.0672 13.985 10.0672 11.7702C10.0672 11.273 10.2798 11.0605 10.7819 11.0605C13.0077 11.0605 15.238 11.0605 17.4638 11.0605C17.9659 11.0605 18.174 11.273 18.174 11.7702C18.174 13.985 18.1695 16.1998 18.1785 18.4146C18.1785 18.7717 18.07 19.0248 17.7307 19.1649C15.3239 19.1649 12.9127 19.1649 10.506 19.1649ZM17.0068 18.0078C17.0068 16.0777 17.0068 14.1567 17.0068 12.2357C15.0751 12.2357 13.1525 12.2357 11.2343 12.2357C11.2343 14.1658 11.2343 16.0823 11.2343 18.0078C13.1615 18.0078 15.0751 18.0078 17.0068 18.0078Z" fill="black"/>
<path d="M0.800781 18.7266C0.886736 18.9345 1.0315 19.0836 1.24412 19.1695C1.09483 19.1695 0.950071 19.1695 0.800781 19.1695C0.800781 19.0204 0.800781 18.8712 0.800781 18.7266Z" fill="white"/>
<path d="M14.1327 1.80762C15.2501 1.80762 16.372 1.80762 17.4894 1.80762C17.9464 1.80762 18.168 2.0291 18.168 2.4811C18.168 4.73657 18.168 6.98753 18.168 9.24301C18.168 9.68597 17.9418 9.91197 17.4985 9.91197C15.2411 9.91197 12.9881 9.91197 10.7307 9.91197C10.2874 9.91197 10.0612 9.68597 10.0566 9.24753C10.0566 6.98753 10.0566 4.72753 10.0566 2.47206C10.0566 2.04266 10.2874 1.81666 10.7171 1.81666C11.8617 1.80762 12.9972 1.80762 14.1327 1.80762ZM11.2283 8.74129C13.1646 8.74129 15.0872 8.74129 17.0054 8.74129C17.0054 6.81125 17.0054 4.89477 17.0054 2.9783C15.0737 2.9783 13.1555 2.9783 11.2283 2.9783C11.2283 4.89929 11.2283 6.81125 11.2283 8.74129Z" fill="black"/>
</svg>
