<svg width="30" height="30" viewBox="0 0 30 30" fill="none" xmlns="http://www.w3.org/2000/svg">
<path d="M8.65297 23C8.34822 22.9179 8.04738 22.8319 7.7817 22.6405C7.16829 22.1912 6.87916 21.4098 7.04717 20.6674C7.3988 19.0929 8.14506 17.7332 9.28592 16.5924C10.1338 15.7445 11.1301 15.1233 12.2592 14.7209C12.3178 14.7013 12.3725 14.6779 12.4467 14.6505C11.341 13.7636 10.7511 12.6345 10.7511 11.2319C10.7472 10.0715 11.1769 9.06343 11.9974 8.24294C13.6501 6.58634 16.2913 6.59025 17.987 8.22731C19.5889 9.77451 19.8663 12.8533 17.565 14.6427C17.858 14.7638 18.1511 14.8811 18.4402 15.01C18.7332 15.1389 18.8817 15.4202 18.827 15.7015C18.7488 16.1001 18.3542 16.3071 17.9635 16.1626C17.5416 16.0063 17.1235 15.8227 16.6859 15.7133C15.0137 15.2913 13.4001 15.4788 11.8646 16.2603C10.5323 16.9401 9.53207 17.9559 8.84833 19.2804C8.57093 19.8157 8.37948 20.3783 8.25836 20.9683C8.18022 21.3355 8.41855 21.6755 8.78972 21.7341C8.86786 21.7458 8.946 21.7458 9.02415 21.7458C11.509 21.7458 13.9939 21.7458 16.4788 21.7497C16.5921 21.7497 16.7133 21.7575 16.8148 21.7966C17.061 21.8903 17.1938 22.0818 17.2134 22.3436C17.229 22.5936 17.0844 22.828 16.8578 22.9374C16.8109 22.9609 16.7641 22.9804 16.7172 23C14.0291 23 11.341 23 8.65297 23ZM17.9987 11.2436C17.9948 9.59088 16.639 8.23903 14.9902 8.24685C13.3376 8.25076 11.9896 9.61042 11.9974 11.2592C12.0052 12.9314 13.3571 14.2481 15.0606 14.2481C16.6547 14.2442 18.0026 12.8689 17.9987 11.2436Z" fill="#33A9F0"/>
<path d="M19.9059 23.0013C19.5308 22.8724 19.3902 22.6067 19.4019 22.2199C19.4175 21.7041 19.4058 21.1923 19.4058 20.657C19.3394 20.657 19.2847 20.657 19.23 20.657C18.7338 20.657 18.2415 20.657 17.7453 20.657C17.3468 20.657 17.0655 20.4031 17.0616 20.0397C17.0577 19.6725 17.339 19.4107 17.7453 19.4068C18.2923 19.4068 18.8393 19.4068 19.4058 19.4068C19.4058 19.3404 19.4058 19.2857 19.4058 19.231C19.4058 18.7348 19.4058 18.2425 19.4058 17.7463C19.4058 17.3399 19.6676 17.0586 20.0388 17.0625C20.4021 17.0664 20.6561 17.3438 20.6561 17.7463C20.6561 18.2933 20.6561 18.8403 20.6561 19.4068C20.7186 19.4068 20.7733 19.4068 20.828 19.4068C21.2929 19.4068 21.754 19.4185 22.2189 19.4029C22.6057 19.3912 22.8714 19.5318 23.0003 19.9069C23.0003 19.9889 23.0003 20.0749 23.0003 20.1569C22.8714 20.532 22.6096 20.6727 22.2189 20.661C21.7579 20.6453 21.2929 20.657 20.828 20.657C20.7733 20.657 20.7186 20.657 20.6522 20.657C20.6522 21.1923 20.6404 21.708 20.6561 22.2199C20.6678 22.6067 20.5271 22.8724 20.1521 23.0013C20.07 23.0013 19.988 23.0013 19.9059 23.0013Z" fill="#33A9F0"/>
</svg>
