<svg width="23" height="23" viewBox="0 0 23 23" fill="none" xmlns="http://www.w3.org/2000/svg">
<path d="M5.70939 22.2828C5.52063 22.2163 5.32631 22.172 5.14865 22.0833C4.4269 21.7287 4.01606 21.1357 4.01051 20.3377C3.99386 17.2012 3.99941 14.0647 4.01051 10.9282C4.01606 9.8698 4.89326 9.01641 5.95368 8.9887C6.18131 8.98316 6.40893 8.9887 6.66987 8.9887C6.66987 8.90558 6.66987 8.82799 6.66987 8.75595C6.66987 7.96906 6.66987 7.17662 6.66987 6.38972C6.67542 3.68546 8.54642 1.49655 11.2224 1.06432C14.0206 0.609911 16.8021 2.61594 17.2463 5.41996C17.3018 5.75799 17.324 6.1071 17.3295 6.45068C17.3406 7.28745 17.3351 8.12422 17.3351 8.9887C17.5405 8.9887 17.7348 8.9887 17.9236 8.9887C19.1339 8.99424 20 9.84763 20 11.0557C20 14.1035 20 17.1514 20 20.1992C20 21.2687 19.3893 22.0224 18.3455 22.2607C18.3289 22.2662 18.3122 22.2828 18.2956 22.2939C14.0928 22.2828 9.90108 22.2828 5.70939 22.2828ZM12.0053 20.9529C13.9595 20.9529 15.9193 20.9529 17.8736 20.9529C18.4066 20.9529 18.662 20.6979 18.662 20.1604C18.662 17.1403 18.662 14.1202 18.662 11.1C18.662 10.5569 18.4122 10.3076 17.8736 10.3076C13.9595 10.3076 10.0454 10.3076 6.13134 10.3076C5.5817 10.3076 5.33186 10.5569 5.33186 11.1056C5.33186 14.1202 5.33186 17.1292 5.33186 20.1438C5.33186 20.6979 5.5817 20.9473 6.12579 20.9473C8.09116 20.9529 10.0454 20.9529 12.0053 20.9529ZM15.986 8.97207C15.986 7.9746 15.986 6.99929 15.986 6.02398C15.986 5.90761 15.9638 5.79124 15.9471 5.67487C15.6029 3.63004 13.7375 2.17262 11.6999 2.33887C9.60683 2.5162 8.01343 4.22299 8.00233 6.31214C7.99678 7.14337 8.00233 7.9746 8.00233 8.80583C8.00233 8.86124 8.00788 8.91112 8.01343 8.97207C10.6728 8.97207 13.3211 8.97207 15.986 8.97207Z" fill="black"/>
<path d="M11.3335 17.0734C11.3335 16.7576 11.3279 16.4362 11.339 16.1203C11.3446 15.9928 11.3002 15.9319 11.1836 15.8709C10.5396 15.5384 10.162 14.8458 10.2342 14.1641C10.3119 13.405 10.8061 12.8065 11.5001 12.6014C12.3773 12.3521 13.2878 12.7843 13.6375 13.6266C13.9873 14.4634 13.6542 15.4221 12.8492 15.8543C12.7048 15.9319 12.6604 16.015 12.666 16.1702C12.6771 16.7797 12.6715 17.3893 12.6715 17.9989C12.6715 18.4367 12.3939 18.7414 12.0053 18.7414C11.6166 18.7414 11.3446 18.4311 11.339 17.9933C11.3335 17.683 11.3335 17.3782 11.3335 17.0734ZM12.4439 14.2916C12.4383 14.0589 12.2329 13.8594 11.9997 13.8594C11.7554 13.8594 11.55 14.0699 11.5556 14.3138C11.5611 14.5465 11.7665 14.746 11.9997 14.746C12.2385 14.746 12.4494 14.5299 12.4439 14.2916Z" fill="black"/>
</svg>
