<svg width="30" height="30" viewBox="0 0 30 30" fill="none" xmlns="http://www.w3.org/2000/svg">
<path d="M30 15C30 23.2843 23.2843 30 15 30C6.71573 30 0 23.2843 0 15C0 6.71573 6.71573 0 15 0C23.2843 0 30 6.71573 30 15Z" fill="#33A9F0"/>
<path d="M7 22.2392C7.15424 21.6879 7.31949 21.1366 7.47373 20.5963C7.79322 19.4717 8.10169 18.336 8.42118 17.2113C8.45423 17.079 8.54237 16.9467 8.64152 16.8475C11.6712 13.8043 14.7008 10.7611 17.7305 7.71788C18.1822 7.26581 18.6889 6.97914 19.3499 7.00119C19.7576 7.01221 20.1321 7.14453 20.4627 7.36505C21.366 7.94943 22.1152 8.67715 22.655 9.61436C23.1728 10.5075 23.0516 11.4116 22.3355 12.1504C21.355 13.1427 20.3525 14.113 19.361 15.0943C19.0855 15.3589 18.722 15.3369 18.4466 15.0612C17.455 14.0689 16.4635 13.0765 15.461 12.0732C15.4169 12.0291 15.3728 11.985 15.3508 11.9519C13.544 13.7491 11.7483 15.5243 9.95253 17.3106C10.8669 18.2257 11.7813 19.1299 12.6847 20.0119C13.3127 19.4055 13.9517 18.766 14.6017 18.1265C15.1966 17.5311 15.7915 16.9246 16.3864 16.3292C16.6618 16.0536 17.0474 16.0315 17.3008 16.2851C17.5542 16.5387 17.5432 16.9246 17.2678 17.2003C15.9017 18.5786 14.5466 19.9568 13.1695 21.324C13.0593 21.4233 12.9161 21.5115 12.7729 21.5556C11.1313 22.0297 9.4788 22.4928 7.82627 22.9669C7.80423 22.9779 7.7822 22.989 7.76017 23C7.67203 23 7.59491 23 7.50678 23C7.25339 22.9228 7.08814 22.7574 7.01102 22.5038C7 22.4046 7 22.3274 7 22.2392ZM17.8406 9.33871C18.7661 10.2649 19.6805 11.1801 20.6059 12.1063C20.8813 11.8196 21.1788 11.5219 21.4652 11.2242C21.7406 10.9375 21.7737 10.6177 21.5974 10.2649C21.5643 10.1877 21.5203 10.1216 21.4762 10.0444C21.0355 9.41589 20.5067 8.88664 19.8788 8.45663C19.7796 8.39047 19.6584 8.33534 19.5483 8.29124C19.2949 8.18098 19.0415 8.21405 18.8322 8.39047C18.4796 8.71023 18.1601 9.04101 17.8406 9.33871ZM16.2322 11.0036C17.1356 11.9078 18.0389 12.8119 18.9423 13.7161C19.1737 13.4735 19.4161 13.2199 19.6474 12.9773C18.755 12.0842 17.8516 11.1801 16.9593 10.287C16.7059 10.5295 16.4635 10.7831 16.2322 11.0036ZM9.3466 18.5344C9.3466 18.5344 9.33558 18.5565 9.32457 18.5675C9.18135 19.0968 9.02711 19.626 8.88389 20.1553C8.87287 20.2104 8.90592 20.2876 8.93897 20.3317C9.15931 20.5743 9.40168 20.7948 9.63304 21.0374C9.69914 21.1035 9.75423 21.1145 9.84236 21.0925C10.3051 20.9492 10.7788 20.8279 11.2525 20.6845C11.3186 20.6625 11.3847 20.6404 11.4618 20.6184C10.7347 19.9237 10.0407 19.2291 9.3466 18.5344Z" fill="white"/>
<path d="M18.545 22.9667C17.3001 22.9667 16.0441 22.9667 14.7992 22.9667C14.4467 22.9667 14.1933 22.7572 14.1492 22.4374C14.0941 22.0625 14.3586 21.7428 14.7331 21.7207C14.7662 21.7207 14.7992 21.7207 14.8213 21.7207C17.3001 21.7207 19.7789 21.7207 22.2687 21.7207C22.5882 21.7207 22.8306 21.864 22.9187 22.1287C23.0619 22.5366 22.7755 22.9556 22.3458 22.9667C21.7619 22.9777 21.167 22.9667 20.5831 22.9667C19.9001 22.9667 19.217 22.9667 18.545 22.9667Z" fill="white"/>
</svg>
