<svg width="23" height="23" viewBox="0 0 23 23" fill="none" xmlns="http://www.w3.org/2000/svg">
<g clip-path="url(#clip0_1118_379)">
<path d="M10.7817 0C11.2609 0 11.74 0 12.2192 0C12.279 0.0119823 12.333 0.0299616 12.3928 0.0359527C13.1116 0.161767 13.8602 0.203699 14.549 0.41938C19.089 1.81532 21.856 4.85882 22.8203 9.51993C22.9042 9.93332 22.9401 10.3647 23 10.7841C23 11.2633 23 11.7426 23 12.2219C22.9581 12.5455 22.9221 12.875 22.8742 13.1985C22.4909 15.7387 21.4008 17.9375 19.5501 19.7109C16.7411 22.4069 13.3811 23.4553 9.53593 22.8263C6.70895 22.3649 4.37909 20.981 2.58827 18.7583C0.282366 15.8885 -0.466302 12.6173 0.276378 9.01667C1.19275 4.55327 5.00797 0.910654 9.49999 0.179734C9.92523 0.113832 10.3505 0.0599114 10.7817 0ZM11.5004 1.61163C6.03814 1.61163 1.60601 6.05106 1.612 11.509C1.61799 16.9669 6.03215 21.3824 11.4885 21.3944C16.9448 21.4064 21.3829 16.9729 21.3889 11.509C21.3949 6.05106 16.9627 1.61163 11.5004 1.61163Z" fill="black"/>
<path d="M11.2249 5.7334C11.9736 5.73939 12.5785 5.83525 13.1535 6.11084C14.4951 6.75789 14.9563 8.14783 14.2555 9.46588C13.9381 10.059 13.4829 10.5263 12.9618 10.9397C12.8301 11.0476 12.6983 11.1554 12.5725 11.2752C12.2371 11.5867 12.0694 11.9762 12.0515 12.4315C12.0455 12.5633 12.0455 12.7011 12.0455 12.8329C12.0395 13.2044 11.8778 13.4081 11.5184 13.474C11.3507 13.5039 11.177 13.5159 11.0033 13.4979C10.5541 13.462 10.3744 13.2643 10.3385 12.8089C10.2427 11.6347 10.614 10.6761 11.5963 9.98113C11.8179 9.82536 12.0395 9.6636 12.2072 9.4599C12.3869 9.24422 12.5546 8.9866 12.6444 8.72299C12.7882 8.27964 12.5785 7.86026 12.1772 7.64458C11.4106 7.23119 10.4403 7.45286 9.9492 8.16581C9.61978 8.63911 9.31433 8.74096 8.87111 8.53127C8.46384 8.33956 8.29015 7.91418 8.43988 7.42889C8.6555 6.72194 9.17657 6.30856 9.82342 6.02697C10.3026 5.8053 10.8177 5.7334 11.2249 5.7334Z" fill="black"/>
<path d="M12.3208 15.7328C12.3149 16.3618 11.7938 16.8891 11.1649 16.8951C10.53 16.8951 10.009 16.3558 10.0149 15.7088C10.0209 15.0678 10.542 14.5585 11.1769 14.5645C11.8117 14.5705 12.3208 15.0977 12.3208 15.7328Z" fill="black"/>
</g>
<defs>
<clipPath id="clip0_1118_379">
<rect width="23" height="23" fill="white"/>
</clipPath>
</defs>
</svg>
