<svg width="30" height="30" viewBox="0 0 30 30" fill="none" xmlns="http://www.w3.org/2000/svg">
<path d="M19.0194 23.3076C18.4588 25.5854 16.5431 26.6171 14.8744 26.5233C13.2324 26.4362 11.6038 25.304 11.1499 23.3076C11.0698 23.3076 10.9831 23.3076 10.8896 23.3076C9.4946 23.3076 8.10626 23.3076 6.71124 23.3076C6.0104 23.3076 5.47641 23.0329 5.16938 22.3965C4.86901 21.7734 4.98249 21.1906 5.39632 20.6345C5.89025 19.9713 6.35081 19.2813 6.81136 18.5979C7.00493 18.3165 7.07167 17.9883 7.07167 17.6466C7.07167 15.7909 7.03163 13.9284 7.07835 12.0727C7.16512 8.64931 8.76038 6.14373 11.8575 4.71006C16.3896 2.61315 21.8028 5.3666 22.8774 10.2639C23.0109 10.8802 23.071 11.5234 23.0777 12.1531C23.1044 13.9619 23.091 15.7708 23.0843 17.5796C23.0843 18.0151 23.1978 18.3969 23.4448 18.752C23.9187 19.4219 24.3859 20.0919 24.8531 20.7685C25.2136 21.2978 25.2603 21.8605 24.9733 22.43C24.6863 22.9994 24.199 23.3009 23.5583 23.3076C22.1299 23.321 20.7081 23.3143 19.2798 23.3143C19.193 23.3076 19.0995 23.3076 19.0194 23.3076ZM23.5316 21.6863C23.051 20.9896 22.5904 20.313 22.1232 19.643C21.6893 19.0267 21.4824 18.35 21.4891 17.593C21.4958 15.7842 21.4958 13.9753 21.4891 12.1665C21.4891 11.7578 21.4557 11.3492 21.389 10.9405C20.835 7.41662 17.2707 4.97804 13.7998 5.74177C10.7361 6.41171 8.68028 8.97758 8.67361 12.1129C8.67361 13.8614 8.65359 15.61 8.68029 17.3652C8.69364 18.2897 8.44667 19.1071 7.89934 19.844C7.45881 20.4336 7.065 21.0432 6.63114 21.6729C12.2646 21.6863 17.8714 21.6863 23.5316 21.6863ZM17.304 23.321C15.8156 23.321 14.3338 23.321 12.8453 23.321C13.099 24.2321 14.0868 24.9222 15.1014 24.9155C16.0959 24.9088 17.0704 24.2053 17.304 23.321Z" fill="#6D6D6D" stroke="#F2F5F7" stroke-width="0.3"/>
</svg>
