<svg width="80" height="45" viewBox="0 0 80 45" fill="none" xmlns="http://www.w3.org/2000/svg">
<path d="M76.1116 3.24135C74.8439 3.24135 73.5939 3.24135 72.291 3.24135C72.291 16.3568 72.291 29.3496 72.291 42.4651C73.5939 42.4651 74.8615 42.4651 76.1116 42.4651C76.1116 43.218 76.1116 43.9535 76.1116 44.7064C73.0833 44.6889 70.0551 44.6889 67.0444 44.6714C66.7627 44.6714 66.481 44.6714 66.1641 44.6714C66.1641 43.9184 66.1641 43.2355 66.1641 42.4475C67.3965 42.4475 68.6466 42.4475 69.9318 42.4475C69.9318 29.3496 69.9318 16.3393 69.9318 3.27638C68.6466 3.27638 67.4141 3.27638 66.1465 3.27638C66.1465 2.50591 66.1465 1.823 66.1465 1C69.474 1 72.784 1 76.1116 1C76.1116 1.75296 76.1116 2.4884 76.1116 3.24135Z" fill="#C1C1C1" stroke="white" stroke-width="0.5"/>
<path d="M34.6513 41.344C32.8555 41.2914 31.4118 40.3634 30.5491 38.6298C29.8272 37.194 29.2286 35.7056 28.6124 34.2172C28.4187 33.7444 28.1722 33.5518 27.644 33.5518C23.6474 33.5693 19.6685 33.5693 15.6719 33.5518C15.2141 33.5518 14.9676 33.6743 14.7916 34.1296C14.2282 35.5304 13.6295 36.9313 13.0133 38.3146C11.7457 41.0638 8.78786 42.1319 6.28778 40.7486C4.38632 39.698 3.4708 37.3165 4.31589 35.3203C6.16454 31.0302 8.066 26.7752 9.96747 22.5201C12.0098 17.9323 14.0521 13.362 16.0944 8.77428C16.7987 7.18081 17.8022 5.86752 19.5276 5.27216C22.3094 4.32659 25.6545 4.95697 27.1335 8.19643C29.1758 12.6441 31.1477 17.1268 33.1372 21.6095C35.0562 25.8821 36.9577 30.1722 38.8592 34.4623C39.9155 36.8437 39.493 38.9625 37.6795 40.3984C36.9401 40.9762 35.8661 41.3264 34.6513 41.344ZM37.2218 36.4935C37.1162 36.2134 36.9753 35.7231 36.764 35.2678C34.845 30.9427 32.9083 26.6176 30.9892 22.2924C29.123 18.0899 27.2391 13.9049 25.3905 9.70234C24.651 8.02132 23.5242 7.04073 21.5523 7.14579C19.7389 7.23335 18.7705 8.26647 18.1015 9.78989C14.862 17.1093 11.6048 24.4112 8.3477 31.7131C7.71388 33.149 7.08006 34.5674 6.44624 36.0032C6.07651 36.8613 6.23496 37.6667 6.83357 38.3497C7.44979 39.0326 8.22446 39.2427 9.13998 39.0151C10.1435 38.7874 10.6541 38.052 11.0238 37.194C11.7281 35.548 12.4499 33.902 13.1366 32.2385C13.4007 31.6256 13.8232 31.3279 14.4922 31.3279C19.2811 31.3279 24.07 31.3279 28.8589 31.3279C29.5279 31.3279 29.9504 31.6256 30.1969 32.256C30.6723 33.3942 31.1477 34.5323 31.6582 35.6705C31.9928 36.441 32.3273 37.2115 32.7498 37.9469C33.3308 38.9275 34.5104 39.3302 35.5492 39.0151C36.5351 38.6824 37.2394 37.7368 37.2218 36.4935Z" fill="#C1C1C1" stroke="white" stroke-width="0.5"/>
<path d="M57.1868 23.7976C56.7642 22.3267 55.6726 21.5562 53.9824 21.4512C51.9401 21.3286 49.9682 21.5913 47.9963 22.1341C45.4082 22.8345 43.0842 21.2235 42.7673 18.5794C42.5737 16.9159 43.5772 15.0948 45.2322 14.482C49.6161 12.836 54.1409 12.4332 58.7185 13.5539C63.1905 14.6396 65.6553 17.6689 66.3948 22.1341C66.5708 23.1672 66.6413 24.2179 66.6413 25.2685C66.6765 28.9807 66.6589 32.693 66.6589 36.4052C66.6589 38.2613 65.9898 39.7848 64.2996 40.7303C62.1341 41.9386 59.7397 41.3957 57.8734 39.2594C56.5177 40.2751 55.0036 40.9755 53.3134 41.2907C50.9542 41.7284 48.6478 41.6234 46.3766 40.7829C42.3448 39.2594 40.1264 35.4071 40.813 31.1696C41.4997 26.967 44.123 24.4105 48.595 23.57C51.4472 23.0096 54.2994 23.1322 57.1868 23.7976ZM64.3877 30.0139C64.3525 30.0139 64.3172 30.0139 64.282 30.0139C64.282 27.7725 64.3877 25.5311 64.2644 23.2898C64.0179 19.0697 61.5883 16.3731 57.4509 15.5326C54.9332 15.0248 52.3979 15.1299 49.8978 15.5326C48.7006 15.7252 47.521 16.0929 46.359 16.4432C45.5139 16.7058 45.0209 17.4062 45.0209 18.2292C45.0209 19.0172 45.4082 19.6126 46.1301 19.8577C46.5526 20.0153 47.116 20.0328 47.5562 19.9102C49.6865 19.3324 51.8345 19.0872 54.0353 19.2098C57.5213 19.4024 59.7573 21.7664 59.6516 25.1634C59.6164 26.179 59.0002 26.6343 58.0142 26.3717C57.7502 26.3016 57.4685 26.2141 57.2044 26.1265C54.1057 25.2685 51.007 25.1634 47.9083 26.0214C45.0737 26.8094 43.3307 28.8056 43.049 31.5548C42.7497 34.5491 43.9998 37.0881 46.4118 38.3314C49.176 39.7497 54.405 39.8023 57.3276 36.6854C57.7149 36.2651 58.1199 35.8799 58.7889 36.0725C59.4403 36.2826 59.4932 36.843 59.6692 37.3858C59.8277 37.8586 60.1446 38.3839 60.5495 38.6291C62.451 39.7497 64.3701 38.6291 64.3877 36.4227C64.4053 34.3039 64.3877 32.1501 64.3877 30.0139Z" fill="#C1C1C1" stroke="white" stroke-width="0.5"/>
<path d="M21.6761 27.0736C20.2148 27.0736 18.7711 27.0911 17.3098 27.0736C16.1302 27.0561 15.6372 26.3557 16.095 25.27C17.5739 21.7504 19.0704 18.2308 20.5493 14.7112C20.7606 14.2034 21.0951 13.8356 21.7113 13.8531C22.2747 13.8706 22.5916 14.2033 22.8029 14.6936C24.2818 18.2133 25.7783 21.7329 27.2573 25.2525C27.715 26.3382 27.2221 27.0561 26.0424 27.0561C24.5811 27.0736 23.1374 27.0736 21.6761 27.0736ZM24.6163 24.7973C23.6304 22.4859 22.6797 20.2095 21.6761 17.828C20.6726 20.2095 19.7218 22.4683 18.7359 24.7973C20.7254 24.7973 22.6268 24.7973 24.6163 24.7973Z" fill="#C1C1C1" stroke="white" stroke-width="0.5"/>
<path d="M54.0021 27.5283C55.6394 27.5809 57.224 27.8785 58.7381 28.4739C59.4247 28.7365 59.7241 29.1743 59.7593 29.8922C59.8473 32.2036 59.2487 34.1999 57.1007 35.4431C55.076 36.6163 52.8929 36.8615 50.6569 36.1435C48.7906 35.5482 47.8047 34.0948 47.8047 32.2562C47.8047 30.3475 48.8787 28.8241 50.7097 28.1237C51.0794 27.9836 51.4668 27.8435 51.8541 27.791C52.5583 27.6684 53.2802 27.5984 54.0021 27.5283ZM53.8436 29.6646C52.9985 29.8922 52.0126 30.0498 51.097 30.4351C50.2343 30.8028 49.9526 31.6258 50.0759 32.5363C50.1815 33.3769 50.7449 33.8496 51.5196 34.0598C52.6992 34.375 53.8788 34.3049 55.0408 33.9197C56.4845 33.4294 57.3648 32.4838 57.4705 30.9254C57.5057 30.5401 57.4 30.3125 56.9775 30.2425C56.0092 30.0674 55.0232 29.8922 53.8436 29.6646Z" fill="#C1C1C1" stroke="white" stroke-width="0.5"/>
</svg>
