<svg width="30" height="30" viewBox="0 0 30 30" fill="none" xmlns="http://www.w3.org/2000/svg">
<path d="M5 9.68868C5.03125 9.56374 5.0625 9.43881 5.09375 9.31387C5.40625 8.23631 6.375 7.50752 7.50521 7.50231C9.84896 7.49711 12.1927 7.50231 14.5365 7.50231C15.0573 7.50231 15.4271 7.85109 15.4271 8.33001C15.4271 8.81413 15.0625 9.16811 14.5417 9.16811C13.0052 9.17332 11.4688 9.16811 9.9323 9.16811C9.14584 9.16811 8.35938 9.16811 7.56771 9.16811C7 9.16811 6.66667 9.49607 6.66667 10.0635C6.66667 14.1811 6.66667 18.2988 6.66667 22.4216C6.66667 22.9891 6.99479 23.3222 7.5625 23.3222C11.4115 23.3222 15.2552 23.3222 19.1042 23.3222C19.6615 23.3222 19.9948 22.9786 19.9948 22.4164C19.9948 20.3654 19.9948 18.3196 19.9948 16.2686C19.9948 15.6751 20.5052 15.2743 21.0573 15.4305C21.4271 15.5346 21.6615 15.8626 21.6615 16.2894C21.6667 17.2108 21.6615 18.1374 21.6615 19.0588C21.6615 20.1624 21.6615 21.2712 21.6615 22.3748C21.6615 23.9105 20.5834 24.988 19.0417 24.988C15.2396 24.988 11.4375 24.9724 7.63542 24.9984C6.22917 25.0088 5.17188 24.0094 5.02604 22.8589C5.02604 22.8433 5.01042 22.8277 5 22.8069C5 18.4341 5 14.0614 5 9.68868Z" fill="#39A5EA"/>
<path d="M22.6556 5.00521C22.8119 5.04685 22.9681 5.08329 23.1192 5.13014C24.1608 5.4633 24.916 6.41073 24.989 7.4935C25.0306 8.12858 24.8327 8.69079 24.3848 9.14368C21.916 11.6164 19.4473 14.089 16.9629 16.5513C16.8223 16.6918 16.5983 16.7907 16.3952 16.8168C15.5254 16.9417 14.6504 17.0354 13.7806 17.1343C13.2494 17.1968 12.7962 16.7595 12.8535 16.2285C12.9473 15.328 13.0515 14.4326 13.1765 13.5372C13.2025 13.3602 13.3067 13.1572 13.4317 13.0271C15.8952 10.5492 18.3692 8.08173 20.8431 5.61426C21.1817 5.2759 21.6035 5.09891 22.0619 5C22.265 5.00521 22.4629 5.00521 22.6556 5.00521ZM14.64 15.354C15.0462 15.3071 15.4265 15.2707 15.8015 15.2134C15.9108 15.1978 16.0358 15.1354 16.114 15.0521C18.4421 12.7356 20.7598 10.4086 23.0931 8.09214C23.3848 7.80583 23.3744 7.54555 23.2129 7.23321C23.0775 6.96773 22.864 6.80115 22.5879 6.71265C22.3535 6.63457 22.1504 6.67101 21.9681 6.85841C19.614 9.21656 17.2598 11.5695 14.9004 13.9277C14.8587 13.9693 14.8067 14.0161 14.8015 14.0682C14.7442 14.4847 14.6973 14.9115 14.64 15.354Z" fill="#39A5EA"/>
</svg>
