<svg width="20" height="20" viewBox="0 0 20 20" fill="none" xmlns="http://www.w3.org/2000/svg">
<path d="M2.5 8.59328C2.54552 8.29584 2.57803 7.99841 2.6398 7.70425C2.93241 6.33801 3.61516 5.19077 4.62628 4.2429C5.99503 2.95838 7.63038 2.25566 9.48356 2.05628C11.5188 1.84056 13.424 2.23931 15.1569 3.3506C16.6687 4.32135 17.7448 5.64509 18.2098 7.41335C18.6779 9.19141 18.3918 10.8682 17.41 12.4076C16.3468 14.0746 14.809 15.1041 12.9396 15.6532C11.7529 15.9997 10.5402 16.101 9.31125 15.9114C9.07716 15.8755 8.88859 15.918 8.68702 16.0422C7.67915 16.6697 6.66478 17.2842 5.6504 17.902C5.60164 17.9314 5.55937 17.9673 5.51711 18C5.50735 18 5.4976 18 5.48459 18C5.48459 16.8659 5.48459 15.7317 5.48784 14.5975C5.48784 14.4995 5.45858 14.4406 5.38055 14.3785C5.11396 14.1661 4.84086 13.9569 4.59377 13.7183C3.53063 12.6952 2.83162 11.4728 2.58778 10.002C2.55527 9.81243 2.52926 9.62286 2.5 9.43655C2.5 9.15546 2.5 8.87437 2.5 8.59328ZM6.44695 16.2187C6.50547 16.186 6.54773 16.1631 6.59325 16.137C7.18822 15.7774 7.78969 15.431 8.3749 15.0551C8.6415 14.8819 8.89509 14.7773 9.20721 14.8982C9.25923 14.9178 9.321 14.9113 9.37627 14.9211C10.4947 15.0878 11.6001 15.0028 12.6795 14.6825C14.2531 14.2184 15.5665 13.362 16.4964 11.9794C17.3579 10.6982 17.631 9.29274 17.2734 7.78269C16.9288 6.32494 16.077 5.20385 14.8708 4.36711C13.0534 3.10547 11.0279 2.73613 8.87234 3.1643C7.01265 3.53364 5.46184 4.44555 4.39544 6.05692C3.40058 7.56043 3.21201 9.18815 3.84924 10.8845C4.32392 12.1527 5.19849 13.1005 6.32665 13.8229C6.43069 13.8882 6.4697 13.9602 6.46645 14.0844C6.4502 14.7511 6.44695 15.4179 6.44044 16.0847C6.44044 16.1239 6.44369 16.1631 6.44695 16.2187Z" fill="#585858"/>
<path d="M10.4753 7.50018C11.6164 7.50018 12.7543 7.50018 13.8955 7.50018C14.2824 7.50018 14.5328 7.82376 14.4092 8.16369C14.3377 8.36307 14.1881 8.47093 13.9801 8.49708C13.928 8.50362 13.876 8.50035 13.824 8.50035C11.5807 8.50035 9.33733 8.50035 7.094 8.50035C7.02248 8.50035 6.9477 8.50361 6.87617 8.48727C6.62258 8.43498 6.45352 8.19964 6.48278 7.94797C6.50879 7.69629 6.71361 7.50345 6.98021 7.50018C7.42563 7.49364 7.87104 7.49691 8.31645 7.49691C9.03497 7.50018 9.75349 7.50018 10.4753 7.50018Z" fill="#585858"/>
<path d="M10.4558 11.5016C9.63653 11.5016 8.82048 11.5049 8.00118 11.5016C7.6273 11.5016 7.38346 11.1715 7.507 10.8381C7.57853 10.6387 7.72808 10.5309 7.93616 10.508C7.98818 10.5015 8.0402 10.5047 8.09222 10.5047C9.6723 10.5047 11.2524 10.5047 12.8325 10.5047C12.904 10.5047 12.9788 10.5015 13.0503 10.5178C13.2974 10.5701 13.4632 10.7956 13.4437 11.044C13.4242 11.2924 13.2291 11.4853 12.9755 11.5049C12.9235 11.5082 12.8715 11.5082 12.8194 11.5082C12.0294 11.5016 11.2426 11.5016 10.4558 11.5016Z" fill="#585858"/>
</svg>
