<svg width="19" height="26" viewBox="0 0 19 26" fill="none" xmlns="http://www.w3.org/2000/svg">
<g clip-path="url(#clip0_1327_379)">
<path d="M8.28018 22.6796C6.42417 22.6796 4.56388 22.6796 2.70786 22.6796C2.69929 22.6711 2.68643 22.654 2.67786 22.654C1.30193 22.3156 0.650393 21.4848 0.650393 20.0672C0.650393 16.8552 0.650393 13.6475 0.646106 10.4355C0.646106 10.2128 0.611815 9.9815 0.551806 9.76309C0.397495 9.19349 0.217467 8.62818 0.0631562 8.05858C-0.0268582 7.73738 -0.129732 7.4119 -0.151164 7.08213C-0.224033 5.94294 0.491796 4.97505 1.62769 4.64529C5.12539 3.63029 8.6231 2.61958 12.1208 1.60458C13.111 1.31764 14.1054 1.03499 15.0956 0.748047C15.2799 0.748047 15.4685 0.748047 15.6528 0.748047C15.6871 0.756612 15.7214 0.773742 15.7557 0.778025C16.6815 0.945049 17.3416 1.45469 17.6503 2.34549C17.9289 3.15491 18.1432 3.98147 18.3832 4.80374C18.5247 5.29197 18.4389 5.45043 17.9546 5.58747C13.4496 6.88941 8.94458 8.19563 4.43957 9.49756C4.37099 9.51469 4.31098 9.54467 4.2424 9.57037C4.24668 9.57893 4.25097 9.59178 4.25525 9.60034C4.33241 9.60034 4.41385 9.60034 4.49101 9.60034C9.18461 9.60034 13.8739 9.60034 18.5675 9.60034C18.9919 9.60034 19.1548 9.73739 19.1548 10.1228C19.1591 13.5061 19.1634 16.8852 19.1505 20.2685C19.1462 21.3606 18.4904 22.23 17.5002 22.5512C17.3588 22.5983 17.213 22.6325 17.0716 22.6711C15.2156 22.6711 13.3553 22.6711 11.4993 22.6711C11.4607 22.6411 11.4178 22.6154 11.3793 22.5854C11.2292 22.4784 11.1735 22.3328 11.2078 22.1572C11.2421 21.9816 11.3578 21.8702 11.5378 21.8317C11.6193 21.8145 11.7093 21.8145 11.795 21.8145C13.3939 21.8145 14.997 21.8145 16.5958 21.8145C17.676 21.8145 18.3018 21.1936 18.3061 20.1186C18.3061 18.3113 18.3061 16.5083 18.3061 14.701C18.3061 14.6239 18.2975 14.5468 18.2975 14.4698C12.6952 14.4698 7.11428 14.4698 1.52053 14.4698C1.52053 14.5511 1.52053 14.6111 1.52053 14.6753C1.52053 16.5083 1.52053 18.3456 1.52053 20.1786C1.52053 21.1679 2.16349 21.8103 3.15794 21.8103C3.95092 21.8103 4.7439 21.8103 5.53689 21.8103C6.39417 21.8103 7.25145 21.8103 8.10873 21.8103C8.40877 21.8103 8.59309 21.9473 8.61452 22.1914C8.62738 22.4527 8.47736 22.5854 8.28018 22.6796ZM12.6437 2.34977C12.738 2.42686 12.8066 2.47397 12.8623 2.52536C13.7325 3.36048 14.6112 4.18704 15.4642 5.03501C15.6914 5.26199 15.8843 5.3348 16.1972 5.21916C16.6129 5.0607 17.0502 4.9622 17.5002 4.83372C17.2645 4.05428 17.0673 3.29196 16.8058 2.54677C16.5701 1.87867 15.8157 1.49752 15.1213 1.64741C14.8384 1.70737 14.5555 1.7973 14.2769 1.87439C13.7496 2.02428 13.2267 2.18274 12.6437 2.34977ZM5.12539 8.41404C5.10825 8.38406 5.10396 8.35837 5.08682 8.34552C4.09237 7.39048 3.10221 6.43545 2.10348 5.48469C2.06919 5.45043 1.98775 5.4333 1.9406 5.44615C1.08332 5.63458 0.573238 6.40547 0.731834 7.27057C0.774698 7.49327 0.843281 7.71168 0.907577 7.9301C1.0576 8.4483 1.20762 8.96651 1.36622 9.49756C2.635 9.13782 3.87805 8.77807 5.12539 8.41404ZM18.2846 10.4654C17.6931 10.4654 17.123 10.4697 16.5529 10.4612C16.3986 10.4569 16.3129 10.504 16.2315 10.641C15.7042 11.5704 15.1641 12.4954 14.6283 13.4205C14.5983 13.4719 14.5726 13.5318 14.5426 13.5918C15.7985 13.5918 17.033 13.5918 18.2804 13.5918C18.2846 12.5511 18.2846 11.5276 18.2846 10.4654ZM1.51625 13.6089C2.10348 13.6089 2.67357 13.6047 3.24366 13.6132C3.39797 13.6175 3.4837 13.5704 3.56086 13.4333C4.0838 12.5126 4.6196 11.5918 5.15111 10.6753C5.1854 10.6153 5.21541 10.5554 5.25827 10.4783C3.9895 10.4783 2.7593 10.4783 1.51625 10.4783C1.51625 11.519 1.51625 12.5468 1.51625 13.6089ZM14.7869 5.61745C14.8041 5.59176 14.8212 5.56606 14.8384 5.54036C14.7698 5.50182 14.6926 5.47184 14.6369 5.42045C13.8354 4.65813 13.0424 3.89153 12.2408 3.12493C12.0651 2.95791 11.9065 2.70951 11.705 2.65812C11.4993 2.60673 11.2421 2.75234 11.0106 2.81658C10.5005 2.96219 9.99046 3.11637 9.48037 3.26198C9.46323 3.28767 9.45037 3.30909 9.43322 3.33478C9.49752 3.37333 9.57468 3.40759 9.6304 3.45898C10.5005 4.28982 11.3793 5.11638 12.2365 5.96863C12.468 6.19561 12.6566 6.26414 12.9738 6.15279C13.5696 5.94722 14.1826 5.79304 14.7869 5.61745ZM11.6021 6.53823C10.5648 5.54036 9.56182 4.57676 8.55451 3.61744C8.52022 3.58318 8.43449 3.57033 8.38734 3.58318C7.6758 3.78447 6.96854 3.99004 6.257 4.1956C6.23557 4.2213 6.21843 4.247 6.19699 4.27269C6.26558 4.31124 6.34702 4.33693 6.39845 4.38832C7.23859 5.19347 8.09587 5.98148 8.91028 6.81232C9.21033 7.12067 9.46752 7.19776 9.86615 7.05215C10.4191 6.85086 10.9978 6.71382 11.6021 6.53823ZM8.35305 7.48042C8.33162 7.44187 8.32733 7.42903 8.31876 7.42046C7.32432 6.46542 6.33416 5.51039 5.33543 4.55963C5.30114 4.52537 5.21969 4.50396 5.17254 4.5168C4.45243 4.71809 3.7366 4.92794 3.02077 5.13351C3.02934 5.16349 3.02934 5.18062 3.03792 5.18918C4.03665 6.1485 5.03109 7.11211 6.02982 8.06715C6.06411 8.10141 6.13698 8.12282 6.17985 8.10997C6.90425 7.9044 7.62008 7.69455 8.35305 7.48042ZM7.81297 13.6089C8.56309 13.6089 9.27463 13.6047 9.98617 13.6132C10.1276 13.6132 10.2005 13.5661 10.2691 13.4462C10.8006 12.5168 11.3364 11.5961 11.8722 10.671C11.9065 10.6111 11.9365 10.5511 11.9836 10.4697C11.2292 10.4697 10.5177 10.474 9.80614 10.4654C9.66469 10.4654 9.59182 10.5126 9.52324 10.6325C8.99173 11.5661 8.45164 12.4954 7.91155 13.4248C7.88583 13.4719 7.86012 13.5233 7.81297 13.6089ZM15.3227 10.4869C15.2842 10.4783 15.267 10.4654 15.2456 10.4654C14.5298 10.4654 13.8182 10.4612 13.1024 10.4697C13.0338 10.4697 12.9395 10.5468 12.9009 10.6111C12.348 11.5532 11.8036 12.4954 11.2592 13.4419C11.2335 13.489 11.2164 13.5361 11.1864 13.6046C11.9193 13.6046 12.6266 13.6004 13.3338 13.6089C13.4796 13.6089 13.561 13.5618 13.6339 13.4376C14.1611 12.5083 14.7012 11.5832 15.237 10.6582C15.267 10.6068 15.2927 10.5511 15.3227 10.4869ZM8.61452 10.4783C8.52879 10.474 8.46878 10.4654 8.40877 10.4654C7.76153 10.4654 7.11 10.4697 6.46275 10.4612C6.31273 10.4612 6.23557 10.5126 6.1627 10.6368C5.63119 11.5661 5.09539 12.4869 4.55959 13.4119C4.52958 13.4633 4.50387 13.5233 4.46529 13.5961C4.55102 13.6004 4.61103 13.6046 4.67104 13.6046C5.31828 13.6046 5.96981 13.6004 6.61706 13.6089C6.7628 13.6089 6.84424 13.5661 6.91711 13.4376C7.44434 12.5083 7.98442 11.5875 8.51593 10.6624C8.55023 10.6111 8.57594 10.5511 8.61452 10.4783Z" fill="black"/>
<path d="M9.78043 22.6794C9.74185 22.6537 9.69899 22.6237 9.66041 22.5937C9.49753 22.4738 9.4418 22.3111 9.49753 22.1227C9.55754 21.9342 9.69899 21.8271 9.89616 21.8271C10.089 21.8271 10.2348 21.9299 10.2948 22.1227C10.3591 22.3239 10.2905 22.4867 10.1191 22.6023C10.0805 22.6323 10.0333 22.6537 9.99046 22.6751C9.92188 22.6794 9.84901 22.6794 9.78043 22.6794Z" fill="black"/>
<path d="M8.23823 18.0933C8.23823 17.4081 8.23823 16.7229 8.23823 16.0377C8.23823 15.5666 8.55971 15.3781 8.96692 15.6094C10.1671 16.2989 11.3673 16.9884 12.5632 17.6822C12.9661 17.9135 12.9661 18.2904 12.5589 18.5259C11.363 19.2197 10.1628 19.9092 8.96264 20.5987C8.55543 20.83 8.23823 20.6415 8.23823 20.1704C8.23395 19.4767 8.23823 18.7871 8.23823 18.0933ZM9.10409 19.528C9.93136 19.0484 10.7372 18.5859 11.5731 18.1062C10.7329 17.6223 9.92708 17.1597 9.10409 16.6801C9.10409 17.6394 9.10409 18.5602 9.10409 19.528Z" fill="black"/>
</g>
<defs>
<clipPath id="clip0_1327_379">
<rect width="19" height="26" fill="white"/>
</clipPath>
</defs>
</svg>
