<svg width="44" height="45" viewBox="0 0 44 45" fill="none" xmlns="http://www.w3.org/2000/svg">
<circle cx="22.1152" cy="22.1152" r="21.1152" transform="rotate(180 22.1152 22.1152)" fill="white"/>
<path d="M26.3853 12.6563C26.7217 12.74 27.0213 12.8814 27.242 13.1589C27.6151 13.6302 27.6256 14.3109 27.2472 14.7821C27.1737 14.8712 27.0948 14.9602 27.0107 15.0439C24.7036 17.3426 22.3964 19.6413 20.0839 21.9452C20.0314 21.9976 19.9683 22.0395 19.8737 22.1651C19.9368 22.2018 20.0156 22.2227 20.0682 22.2751C22.4016 24.5947 24.7298 26.9196 27.0633 29.2392C27.4732 29.6476 27.6362 30.1241 27.4522 30.6844C27.1842 31.5169 26.1121 31.8468 25.4131 31.3127C25.3342 31.2551 25.2607 31.1871 25.1923 31.119C22.5173 28.4538 19.8422 25.7886 17.1671 23.1234C16.6679 22.6259 16.5627 22.0081 16.8991 21.4425C16.9779 21.3064 17.0935 21.186 17.2039 21.076C19.8054 18.4789 22.4174 15.8817 25.0189 13.2846C25.308 12.9966 25.6075 12.74 26.0175 12.6563C26.1383 12.6563 26.2645 12.6563 26.3853 12.6563Z" fill="#929292"/>
</svg>
