<svg width="39" height="39" viewBox="0 0 39 39" fill="none" xmlns="http://www.w3.org/2000/svg">
<g clip-path="url(#clip0_1232_379)">
<path d="M9.05037 6.54953L8.90776 6.82319C8.84994 6.9157 8.79598 7.01591 8.74587 7.11612C8.5493 7.0506 7.35447 6.69214 6.95362 7.32426C6.95362 7.32426 6.64527 7.79835 7.13477 8.70799C7.13477 8.70799 7.13863 8.87373 6.85341 9.03561C6.56819 9.1975 6.74549 10.0917 8.00199 10.111L7.99043 11.0322V11.0823C7.43541 10.959 6.1288 9.12426 6.1288 9.12426C5.46585 7.82148 5.79347 6.53796 5.88983 6.2219C5.90525 6.1718 5.91681 6.14482 5.91681 6.14482C7.28124 5.76709 8.91932 6.46088 8.91932 6.46088L9.05037 6.54953Z" fill="#FCB5D1"/>
<path d="M29.7172 3.99028C29.7172 3.99799 29.7172 4.0057 29.7172 4.01341C29.7172 4.01726 29.7172 4.02112 29.7172 4.02497C29.7056 4.12133 29.6246 4.83054 29.4204 5.60913C29.3741 5.78257 29.324 5.95988 29.2623 6.13332C29.2623 6.13718 29.2623 6.13718 29.2623 6.13718C29.1698 6.41469 29.0581 6.68065 28.9309 6.92347C28.9309 6.92347 28.4684 6.43782 28.1677 5.92904C28.0714 5.74018 28.0058 5.59756 28.0058 5.59756C29.0118 5.04253 28.981 4.52604 28.9579 4.12133C28.9347 3.71662 28.187 3.77058 28.187 3.77058C28.187 3.77058 28.2063 2.67208 27.578 2.16715C26.9498 1.66223 25.593 2.93418 25.593 2.93418L25.4581 2.84938C25.2539 2.70291 25.0611 2.57957 24.8877 2.49092C24.9031 2.44467 25.3772 1.05323 27.6782 0.902909C27.6821 0.902909 27.6821 0.902909 27.6859 0.902909C27.9789 0.883637 28.3026 0.883637 28.6611 0.914473C28.688 0.949162 29.0889 1.43867 29.3934 2.17101C29.3934 2.17486 29.3972 2.18257 29.3972 2.18642C29.5244 2.49092 29.6285 2.83396 29.6863 3.20398V3.20784V3.21169C29.721 3.46223 29.7364 3.72047 29.7172 3.99028Z" fill="#FCB5D1"/>
<path d="M38.4517 23.2332C36.2355 22.4816 35.5802 21.4717 35.5802 21.4717C35.5802 21.4717 36.4899 20.7201 36.4706 20.0841C36.4706 20.0841 35.1447 20.3192 34.6706 20.2113C34.4933 20.1689 34.027 19.9878 33.4758 19.7257C32.5662 19.294 31.4137 18.6503 30.8896 18.0683L31.2249 15.9098C31.2249 15.9098 32.2501 14.2756 32.1807 12.9535C32.1807 12.9535 32.173 12.7723 32.2617 12.622C32.2848 12.5796 32.3195 12.5372 32.3658 12.5064C32.3658 12.5064 31.4137 12.2019 31.6874 12.1171C31.9649 12.0323 32.2231 12.0516 32.2848 11.8511L31.7915 11.2576L31.5756 10.6062C31.5756 10.6062 31.3983 9.8854 31.2364 9.63872C31.0746 9.39589 29.9298 8.43229 29.475 7.97747C29.0202 7.52265 28.8737 7.19117 28.8737 7.19117L28.7388 6.97918C28.6001 6.83657 28.0027 5.60316 28.0027 5.60316C29.0125 5.04813 28.9778 4.53164 28.9547 4.12693C28.9316 3.72222 28.1838 3.77618 28.1838 3.77618C28.1838 3.77618 28.2031 2.67768 27.5748 2.17275C26.9466 1.66783 25.5899 2.93978 25.5899 2.93978L24.8845 2.49652C25.8751 0.550052 28.6579 0.91622 28.6579 0.91622C28.6579 0.91622 29.3709 1.61772 29.687 3.20573C29.9645 4.60873 29.0857 6.55905 28.9316 6.92908C29.1281 6.47811 29.6215 5.55306 29.7333 3.83785C29.8489 2.01858 28.9161 0.580888 28.9161 0.580888C28.9161 0.580888 25.8944 -0.768151 22.4679 1.35948L22.2443 1.41729C22.2443 1.41729 16.2277 0.133778 12.2655 2.95134L10.955 4.0113C10.955 4.0113 7.1277 3.47554 5.2969 5.80359C5.2969 5.80359 5.23138 7.26826 5.81723 8.49396C5.81723 8.49396 5.45878 6.37404 6.00224 6.15434C6.54955 5.93464 8.44973 6.11965 8.92766 6.5552L9.05871 6.55905L8.78505 7.13721C8.78505 7.13721 7.40521 6.64771 6.96582 7.33764C6.96582 7.33764 6.65747 7.81173 7.14697 8.71751C7.14697 8.71751 7.15082 8.88325 6.86561 9.04514C6.58039 9.20702 6.75768 10.1012 8.01419 10.1205L8.00263 11.088L7.99877 11.2768C7.99877 11.2768 7.87929 13.2272 7.33198 13.7051C7.33198 13.7051 7.51698 13.9479 7.80606 13.9942C7.80606 13.9942 7.35125 14.5299 7.07759 15.1466L6.9928 15.3818C6.9928 15.3818 2.3946 15.2199 0.744954 21.4833C0.744954 21.4833 0.305562 23.237 0.494424 24.3625C0.494424 24.3625 0.548384 26.837 1.4156 28.8259C1.4156 28.8259 1.64301 29.4811 1.03403 29.4233C1.03403 29.4233 2.84556 31.6897 4.24467 32.1638C5.64379 32.6379 5.93672 32.7265 5.93672 32.7265C5.93672 32.7265 7.42834 34.434 9.87968 34.5998C9.87968 34.5998 9.64457 34.6884 9.93364 34.8734C10.2227 35.0546 12.597 36.8199 15.1254 35.4208C15.1254 35.4208 16.1892 34.6422 15.4723 32.8306C15.4723 32.8306 15.4222 32.7882 15.6419 32.4105C15.7575 32.21 15.7344 31.9171 15.7883 32.1407L16.1314 32.6032L16.2971 33.4435L16.8907 35.1355C16.8907 35.1355 18.5866 36.4191 20.7758 35.0507L21.3347 33.1621L21.5583 33.2507C21.5583 33.2507 21.7471 35.0469 21.8473 35.1548C21.9475 35.2627 23.4392 35.9719 24.8922 35.3552C24.8922 35.3552 25.3393 35.2088 25.5513 34.6075C25.7633 34.0101 26.1603 32.9501 26.1603 32.9501C26.1603 32.9501 29.8951 33.5398 32.5816 32.5916C34.131 32.0443 36.5091 31.4662 39.6889 27.2841C39.6889 27.2841 41.5236 24.6285 41.6893 23.6841C41.6932 23.6649 40.6718 23.9809 38.4517 23.2332Z" fill="white"/>
<g opacity="0.6">
<path opacity="0.6" d="M30.5496 20.7552C30.8695 18.9822 30.2104 16.8623 30.8155 16.4422C32.0142 15.6058 31.5748 12.9655 31.5748 12.9655C31.7483 12.9501 32.0065 12.634 32.365 12.5068C32.2763 12.6572 32.2378 13.2315 32.2378 13.2315C32.3071 14.5535 31.332 15.9527 31.332 15.9527L30.9003 18.219C30.8117 18.724 30.962 20.1385 30.962 20.1385C30.962 20.1385 31.201 20.7437 31.3474 21.2525C31.4939 21.7612 31.147 22.1043 31.147 22.1043C31.147 22.1043 31.2588 22.7248 31.3744 23.542C31.49 24.3591 30.8618 25.5886 30.8618 25.5886C29.8635 26.4597 30.3492 27.3231 30.3492 27.3231C30.1025 27.5043 30.0485 28.0979 30.0485 28.0979C30.0601 28.7146 29.6168 29.339 29.1659 29.7398C28.7149 30.1407 28.9192 30.7574 28.4027 31.5977C28.0211 32.2182 27.8516 32.2182 27.8516 32.2182L26.992 32.2259C26.5565 33.0006 25.9668 33.0045 25.9668 33.0045C26.6721 32.7848 27.2272 31.721 27.3659 31.0311C27.4122 30.7844 27.6588 30.5801 27.9094 30.6032C28.8036 30.6765 28.6031 29.2156 29.5243 28.2597C30.1911 27.5698 29.717 26.5946 29.4241 26.1051C29.3355 25.9548 29.4126 25.7582 29.5821 25.712C29.7787 25.658 30.0716 25.5617 30.3915 25.2726C31.8369 23.9698 31.0622 21.2525 30.2374 20.9826C30.195 20.9672 30.1834 20.9171 30.2143 20.8863C30.2682 20.8246 30.3723 20.7552 30.5419 20.7745L30.5496 20.7552Z" fill="#DBD2D2"/>
<path opacity="0.6" d="M9.54014 20.8741C9.06991 20.6389 7.70549 21.2364 6.57617 22.2231C6.57617 22.2231 6.74962 21.6603 8.3029 20.6698C8.51489 20.5349 8.95814 20.4963 9.21252 20.3421C9.21252 20.3421 8.17957 19.5481 8.17186 17.0312C8.17186 17.0312 8.01383 16.4839 8.39541 16.6419C8.39541 16.6419 8.55344 19.8796 10.0451 20.8008C10.0489 20.8047 10.1607 21.1824 9.54014 20.8741Z" fill="#DBD2D2"/>
<path opacity="0.6" d="M39.4419 23.6484C39.4419 23.6484 40.7022 23.818 40.313 24.8857C39.9237 25.9534 38.2779 28.8249 36.9443 29.218C36.9443 29.218 36.5203 29.3876 36.2081 29.403C36.0886 29.4108 36.0192 29.5457 36.0886 29.6459C36.158 29.7461 36.2659 29.8579 36.4394 29.9272C36.4394 29.9272 34.9901 31.9739 31.7564 32.2206C28.9967 32.4287 28.2605 31.8352 28.2605 31.8352C28.2605 31.8352 27.744 32.3324 26.9192 32.2206C26.9192 32.2206 26.6725 32.8065 26.2139 32.9414C26.2139 32.9414 31.159 34.2673 36.104 30.9949L38.1006 29.2219L39.6192 27.5298C39.6192 27.5298 41.7429 24.3923 41.6735 23.6947C41.6658 23.6947 40.3631 23.8913 39.4419 23.6484Z" fill="#DBD2D2"/>
</g>
<path d="M7.43142 17.0481C7.70122 16.6626 8.12134 16.5778 8.12905 16.5778C8.20999 16.5624 8.26395 16.4853 8.24854 16.4083C8.23312 16.3273 8.15989 16.2733 8.07895 16.2888C8.05582 16.2926 7.53549 16.389 7.19245 16.8823C7.1462 16.9479 7.16162 17.0404 7.231 17.0866C7.25798 17.1059 7.28496 17.1136 7.31579 17.1136C7.35819 17.1136 7.40444 17.0905 7.43142 17.0481Z" fill="black"/>
<path d="M31.0782 12.7372C30.9972 12.7334 30.9279 12.795 30.924 12.876C30.9201 12.9569 30.9818 13.0263 31.0628 13.0301C31.0666 13.0301 31.082 13.0301 31.109 13.0301C31.2825 13.0301 31.903 13.0032 32.5004 12.637C32.5698 12.5946 32.5929 12.5021 32.5505 12.4327C32.5081 12.3633 32.4156 12.3402 32.3462 12.3826C31.7411 12.7603 31.0859 12.7334 31.0782 12.7372Z" fill="black"/>
<path d="M7.18489 21.7965C7.24656 21.7426 7.25041 21.6501 7.19645 21.5884C7.14249 21.5267 7.04999 21.5229 6.98832 21.5768C6.52965 21.9931 4.99564 23.5965 4.50999 26.8728C4.49458 27 4.17081 29.9601 4.95324 31.3516C4.98022 31.3978 5.03033 31.4287 5.08043 31.4287C5.10356 31.4287 5.13054 31.421 5.15366 31.4094C5.22304 31.3709 5.25002 31.2783 5.21148 31.209C4.4753 29.8985 4.80292 26.9383 4.80292 26.9113C5.26929 23.7392 6.74549 22.1974 7.18489 21.7965Z" fill="black"/>
<path d="M8.06439 20.952C8.10293 20.952 8.14148 20.9366 8.16846 20.9096C8.17231 20.9058 8.44982 20.636 9.06266 20.5704C9.1012 20.5666 9.13589 20.5473 9.15902 20.5165C9.29006 20.6899 9.43267 20.8634 9.5907 21.0407C9.62153 21.0715 9.66008 21.0908 9.69862 21.0908C9.73331 21.0908 9.768 21.0792 9.79883 21.0522C9.8605 20.9983 9.86435 20.9058 9.81039 20.8441C7.82928 18.6432 8.39972 16.8432 8.40742 16.824C8.4344 16.7469 8.39201 16.6621 8.31492 16.6351C8.23783 16.6081 8.15304 16.6505 8.12606 16.7276C8.10293 16.797 7.61344 18.3041 8.98557 20.2814C8.28409 20.3662 7.96418 20.6899 7.95261 20.7015C7.8948 20.7593 7.89865 20.8518 7.95647 20.9096C7.9873 20.9405 8.02585 20.952 8.06439 20.952Z" fill="black"/>
<path d="M7.69039 21.5754C7.72122 21.6139 7.76362 21.6332 7.80601 21.6332C7.83685 21.6332 7.86768 21.6216 7.89466 21.6024C7.96019 21.5523 7.97175 21.4598 7.92164 21.3942C7.63642 21.0281 7.11995 21.0088 7.10068 21.0088C7.01588 21.0088 6.95036 21.0705 6.95036 21.1514C6.9465 21.2323 7.01203 21.3017 7.09297 21.3017C7.09682 21.3056 7.49382 21.321 7.69039 21.5754Z" fill="black"/>
<path d="M0.767331 21.7855C0.778894 21.7894 0.790456 21.7894 0.802019 21.7894C0.867543 21.7894 0.929212 21.7431 0.944629 21.6738C1.04099 21.2536 1.17203 20.8451 1.32621 20.4558C2.62126 17.2297 4.23236 15.7573 6.7261 15.5299C6.80704 15.5222 6.86871 15.4489 6.861 15.368C6.85329 15.287 6.78392 15.2254 6.69912 15.2331C4.08204 15.472 2.39385 16.9984 1.05255 20.344C0.890669 20.7449 0.759622 21.1688 0.65941 21.6044C0.640138 21.6892 0.690244 21.7663 0.767331 21.7855Z" fill="black"/>
<path d="M0.594444 22.9303C0.513503 22.9226 0.444125 22.9843 0.436417 23.0652C0.182032 26.3184 1.47708 29.2554 1.4925 29.2824C1.51562 29.3363 1.56959 29.371 1.6274 29.371C1.64667 29.371 1.6698 29.3672 1.68907 29.3595C1.7623 29.3248 1.79699 29.24 1.7623 29.1629C1.75074 29.1359 0.482669 26.2644 0.733199 23.0884C0.737053 23.0074 0.675384 22.9342 0.594444 22.9303Z" fill="black"/>
<path d="M38.8832 28.167C38.7252 28.3559 38.5633 28.5409 38.4015 28.7182C38.3475 28.7799 38.3513 28.8724 38.4092 28.9264C38.4361 28.9533 38.4747 28.9649 38.5094 28.9649C38.5479 28.9649 38.5903 28.9495 38.6173 28.9187C38.783 28.7375 38.9449 28.5486 39.1068 28.3559C39.1608 28.2942 39.1492 28.2017 39.0875 28.1478C39.0297 28.0938 38.9372 28.1054 38.8832 28.167Z" fill="black"/>
<path d="M41.7472 23.6349C41.6739 23.5424 41.5621 23.4923 41.4427 23.5077C39.1069 23.8045 36.8522 22.3282 35.7999 21.4995C36.274 21.1835 36.54 20.64 36.6672 20.324C36.7057 20.2276 36.6864 20.1235 36.6209 20.0426C36.5554 19.9616 36.4513 19.9231 36.3511 19.9424C35.7653 20.0464 35.3837 20.1004 35.0946 20.1235C32.4467 19.3989 31.1285 18.0614 31.117 18.046C31.1054 18.0306 31.09 18.0229 31.0707 18.0152C31.194 16.8858 31.4831 15.98 31.4908 15.9646C31.5024 15.9338 31.4985 15.903 31.4908 15.876C31.8917 15.2246 32.3619 14.2032 32.3889 12.9659C32.3889 12.885 32.3272 12.8156 32.2463 12.8156C32.1653 12.8117 32.096 12.8773 32.096 12.9582C32.0497 14.9702 30.7238 16.4349 30.7123 16.4464C30.6583 16.5081 30.6621 16.6006 30.72 16.6546C30.7469 16.6815 30.7855 16.6931 30.8202 16.6931C30.8587 16.6931 30.9011 16.6777 30.9281 16.6469C30.9358 16.6392 30.9743 16.5968 31.036 16.5235C30.7816 17.5873 30.4193 19.7188 31.1671 21.2066C31.1825 21.2452 31.2788 21.5188 31.2133 21.7539C31.1555 21.5651 31.1093 21.4456 31.1015 21.4263C31.0707 21.3492 30.9859 21.3145 30.9088 21.3454C30.8317 21.3762 30.797 21.461 30.8279 21.5381C30.8394 21.5651 31.8184 24.082 30.5928 25.6777C30.5195 25.7548 30.0493 26.2713 30.1611 26.9612C30.1225 26.6914 30.0724 26.5141 30.0647 26.491C30.0416 26.4139 29.9607 26.3676 29.8836 26.3908C29.8065 26.4139 29.7602 26.4948 29.7834 26.5719C29.7872 26.5912 30.3268 28.5145 29.1744 29.5244L28.8622 29.8713C28.8468 29.8867 28.4845 30.2991 28.3958 31.2049C28.3958 31.2088 28.3187 31.6713 27.9564 31.9218C27.7521 32.0606 27.4939 32.1068 27.1817 32.0567C27.4669 31.494 27.5556 30.9467 27.5594 30.9043C27.571 30.8233 27.517 30.7501 27.4361 30.7347C27.3551 30.7231 27.2819 30.7771 27.2665 30.858C27.2626 30.8734 27.0005 32.5077 25.9213 32.9317C25.8674 32.9509 25.8365 33.0011 25.8288 33.0512C25.7864 33.0203 25.7325 33.0126 25.6824 33.0319C25.6053 33.0666 25.5937 33.0666 25.5783 33.0704C25.5552 33.0743 25.5205 33.0781 25.4473 33.0974C25.3702 33.1205 25.3239 33.2015 25.3432 33.2786C25.3625 33.3441 25.4203 33.3865 25.4858 33.3865C25.4974 33.3865 25.5128 33.3865 25.5243 33.3826C25.5783 33.3672 25.6014 33.3634 25.6168 33.3634C25.667 33.3557 25.6978 33.3479 25.798 33.3056C25.8481 33.2824 25.8789 33.2362 25.8867 33.1861C25.9136 33.2053 25.9406 33.2169 25.9753 33.2169C25.9792 33.2169 25.983 33.2169 25.9869 33.213C25.7518 33.93 25.3933 34.8666 25.162 35.0477C24.7342 35.3869 23.497 35.6336 22.2944 35.2173C22.1133 35.1557 21.9822 34.9938 21.9553 34.8049L21.7895 33.4713C22.1788 33.6178 22.6259 33.7103 23.2041 33.7103C23.709 33.7103 24.3179 33.6409 25.0811 33.479C25.162 33.4636 25.2121 33.3826 25.1967 33.3056C25.1813 33.2246 25.1004 33.1745 25.0233 33.1899C23.3197 33.5484 22.4563 33.4443 21.7356 33.1283C21.7047 33.0781 21.6508 33.0473 21.5891 33.055H21.5852C21.5814 33.0512 21.5775 33.0512 21.5737 33.0473C21.8126 31.9411 22.0092 30.7809 22.0516 30.5304C22.6028 29.8751 22.6028 29.243 22.6028 29.2122C22.6028 29.1312 22.5373 29.0657 22.4563 29.0657C22.4563 29.0657 22.4563 29.0657 22.4525 29.0657C22.3715 29.0657 22.306 29.1351 22.306 29.216C22.306 29.2237 22.306 29.7749 21.8126 30.3531C21.8011 30.3608 21.7934 30.3724 21.7857 30.3839C21.67 30.515 21.5274 30.6499 21.354 30.7771C20.4328 31.4593 20.7681 32.4614 21.0726 32.897C21.0996 32.9394 21.1458 32.9587 21.1921 32.9587C21.2229 32.9587 21.2499 32.9509 21.2769 32.9317C21.2846 32.9278 21.2885 32.9163 21.2962 32.9124C21.0957 33.8452 20.876 34.7086 20.7065 34.9668C20.5677 35.1749 20.0743 35.3599 19.4153 35.4409C18.4787 35.5604 17.5228 35.4486 17.2414 35.1904C17.1027 35.0632 16.8136 34.5929 16.3896 32.8507C16.6671 32.9625 17.0025 33.0203 17.4072 33.0203C17.411 33.0203 17.4187 33.0203 17.4226 33.0203C17.5035 33.0203 17.569 32.9548 17.569 32.8739C17.569 32.7929 17.5035 32.7274 17.4226 32.7274C17.4187 32.7274 17.411 32.7274 17.4072 32.7274C16.7866 32.7274 16.3434 32.5886 16.0928 32.315C16.0235 32.2417 15.9772 32.1647 15.9464 32.0953C16.4513 30.8619 16.2701 29.3471 15.4029 27.5895C15.3682 27.5163 15.2796 27.4854 15.2063 27.524C15.1331 27.5586 15.1023 27.6473 15.1408 27.7205C15.8809 29.2199 16.1005 30.5265 15.8038 31.6096C15.7845 31.5981 15.7652 31.5942 15.746 31.5903C15.665 31.5826 15.5918 31.6405 15.5841 31.7214C15.5841 31.733 15.5687 31.8871 15.6303 32.0876C14.9867 33.5137 13.5066 33.9955 13.4912 33.9993C13.4141 34.0225 13.3717 34.1073 13.3948 34.1844C13.4141 34.246 13.4719 34.2884 13.5374 34.2884C13.5528 34.2884 13.5683 34.2846 13.5798 34.2807C13.6338 34.2653 14.6321 33.9454 15.3875 33.0319L15.4607 33.2786C15.6534 33.9685 15.6265 34.5235 15.3798 34.9283C15.0946 35.3946 14.5974 35.4987 14.5858 35.4987C12.2732 36.0653 10.666 35.2713 9.94906 34.7895C10.3885 34.8319 10.8587 34.8319 11.3674 34.7856C11.564 34.8165 12.0458 34.9283 12.2038 35.1325L12.2462 35.1904H12.3195C12.3503 35.1904 12.5893 35.1826 12.7396 34.9861C12.8591 34.828 12.8745 34.6045 12.7858 34.3231C12.7627 34.246 12.6779 34.1998 12.6008 34.2268C12.5237 34.2499 12.4775 34.3347 12.5045 34.4118C12.5623 34.5968 12.5623 34.7355 12.5045 34.8126C12.4698 34.8589 12.4197 34.882 12.3773 34.8897C12.0805 34.6006 11.4638 34.5043 11.3906 34.4927L11.3713 34.4889H11.352C7.36282 34.882 5.68619 32.0297 5.67077 31.9989C5.63223 31.9295 5.53973 31.9026 5.47035 31.945C5.40097 31.9835 5.37399 32.076 5.41639 32.1454C5.42024 32.1531 5.49348 32.2726 5.63608 32.4614C4.53375 32.1608 3.15005 31.5672 2.17877 30.4109C0.71798 28.6687 0.413489 28.6764 0.309423 28.6764C0.251608 28.6764 0.197648 28.6996 0.166813 28.742C0.116707 28.8075 0.12827 28.9 0.193793 28.9501C0.232337 28.9809 0.282443 28.9886 0.32484 28.9771C0.401926 29.004 0.77194 29.1929 1.95521 30.6036C3.08453 31.9488 4.73418 32.5617 5.91745 32.8392C5.92901 32.843 5.94058 32.843 5.95214 32.843H5.95599C6.54956 33.4906 7.65575 34.3925 9.3555 34.7086C9.58676 34.9244 10.851 35.9998 12.9824 35.9998C13.4873 35.9998 14.0423 35.9381 14.6475 35.7916C14.6745 35.7878 15.2719 35.6683 15.6265 35.0901C15.9233 34.6122 15.9618 33.9801 15.7421 33.2015L15.6072 32.7428C15.6727 32.6426 15.7382 32.5385 15.7961 32.4268C15.8192 32.4576 15.8423 32.4884 15.8693 32.5193C15.9233 32.5771 15.9811 32.6272 16.0466 32.6773C16.0466 32.6888 16.0466 32.7043 16.0504 32.7158C16.4089 34.2383 16.7442 35.1518 17.0449 35.4216C17.3339 35.6837 17.9892 35.7955 18.6675 35.7955C18.9335 35.7955 19.2033 35.7801 19.4538 35.7454C19.9048 35.6876 20.6949 35.5334 20.9531 35.1402C21.1189 34.8897 21.3077 34.2036 21.485 33.4366L21.6623 34.8473C21.7047 35.1518 21.9129 35.4023 22.1981 35.4987C22.6722 35.6606 23.1617 35.7338 23.6203 35.7338C24.3565 35.7338 25.004 35.5527 25.3432 35.2829C25.7325 34.9784 26.2143 33.4829 26.3415 33.0743C27.2202 33.2246 28.0836 33.3017 28.9239 33.3017C32.4852 33.3017 35.6689 31.9527 38.2397 29.3278C38.2975 29.27 38.2975 29.1775 38.2359 29.1197C38.1781 29.0619 38.0856 29.0619 38.0277 29.1235C34.9289 32.2841 31.0938 33.5291 26.6267 32.8238C26.7847 32.6773 26.9158 32.5077 27.0237 32.3304C27.1586 32.3574 27.2858 32.3728 27.4091 32.3728C27.6789 32.3728 27.914 32.3034 28.1183 32.1647C28.5847 31.8447 28.6772 31.2743 28.681 31.2435C28.762 30.4379 29.0703 30.0756 29.0742 30.0717L29.3671 29.7441C30.2883 28.9308 30.2536 27.6512 30.1534 26.9651C30.1804 27.1308 30.242 27.3081 30.35 27.4893C30.3769 27.5355 30.427 27.5625 30.4771 27.5625C30.5041 27.5625 30.5272 27.5548 30.5504 27.5432C30.6197 27.5008 30.6429 27.4122 30.6005 27.3428C30.1303 26.5488 30.7701 25.9128 30.797 25.8858L30.8125 25.8704C31.7336 24.6794 31.5371 23.076 31.3135 22.1586C31.6951 21.7655 31.4446 21.1295 31.433 21.1025L31.4292 21.091C31.0322 20.3047 30.9743 19.2987 31.0399 18.389C31.3752 18.6935 32.3388 19.4721 33.9769 20.0811C33.9576 20.1004 33.946 20.1235 33.9383 20.1505C33.919 20.2314 33.9691 20.3085 34.0501 20.3278C34.4124 20.4126 34.6552 20.4589 35.0792 20.428C35.0792 20.428 35.0792 20.428 35.083 20.428C35.3875 20.4087 35.7845 20.3509 36.3897 20.2392C36.2702 20.5437 36.0081 21.0601 35.561 21.3145C35.3259 21.118 35.191 20.9908 35.1833 20.9831C35.1254 20.9252 35.0329 20.9291 34.9751 20.9869C34.9173 21.0447 34.9212 21.1372 34.979 21.195C35.1062 21.3184 38.1472 24.2362 41.4851 23.8083C41.5005 23.8083 41.512 23.8122 41.5159 23.8199C41.5236 23.8276 41.5236 23.8392 41.5197 23.8507C41.2808 24.4289 40.5909 25.9552 39.3536 27.5856C39.3035 27.6512 39.3189 27.7437 39.3806 27.7938C39.4076 27.813 39.4384 27.8246 39.4693 27.8246C39.5155 27.8246 39.5579 27.8053 39.5887 27.7668C40.8452 26.1094 41.5467 24.5561 41.7934 23.9664C41.8358 23.8469 41.8204 23.7274 41.7472 23.6349ZM21.3116 32.7351C21.2807 32.6927 20.6101 31.7021 21.5274 31.0237C21.5814 30.9814 21.6353 30.939 21.6854 30.9004C21.5929 31.4169 21.4658 32.1068 21.327 32.7698C21.3193 32.7582 21.3154 32.7467 21.3116 32.7351Z" fill="black"/>
<path d="M0.752243 22.7789C0.76766 22.8483 0.829329 22.8984 0.894852 22.8984C0.902561 22.8984 0.914124 22.8984 0.925687 22.8945C1.00663 22.8791 1.05673 22.802 1.04132 22.7211C0.894852 21.9849 0.382228 21.8345 0.135552 21.8577C0.0546116 21.8654 -0.00705738 21.9348 0.000651247 22.0196C0.00835988 22.1005 0.0777375 22.1622 0.162532 22.1545C0.17795 22.1468 0.621196 22.1159 0.752243 22.7789Z" fill="black"/>
<path d="M5.99876 9.1964C6.00647 9.21181 6.01418 9.22338 6.02574 9.23494C6.39576 9.86706 6.9238 10.5146 7.6831 11.112C7.71008 11.1352 7.74091 11.1429 7.7756 11.1429C7.80258 11.1429 7.82571 11.1352 7.84883 11.1236C7.79873 11.9215 7.64455 13.1857 7.28225 13.6058C7.20516 13.6983 7.21287 13.8371 7.30152 13.918C7.35933 13.972 7.47496 14.0568 7.62528 14.1069C7.36319 14.3613 7.06641 14.7583 6.90453 15.3596L6.90067 15.3711C6.90067 15.3711 6.86598 15.56 6.76577 15.6949C6.71952 15.7566 6.7041 15.8375 6.72337 15.9146C6.74264 15.9917 6.7966 16.0495 6.86984 16.0803C7.07797 16.1651 7.34006 16.2461 7.57132 16.2461C7.70622 16.2461 7.83341 16.2191 7.93748 16.1497C8.003 16.1035 8.02228 16.011 7.97602 15.9454C7.92977 15.8799 7.83727 15.8606 7.77175 15.9069C7.65226 15.9878 7.3709 15.9609 7.03557 15.8298C7.14349 15.6641 7.18589 15.4752 7.1936 15.4367C7.40559 14.6504 7.86425 14.2572 8.11478 14.0953C8.11863 14.0915 8.12634 14.0876 8.1302 14.0838C8.21499 14.0298 8.27666 14.0028 8.28437 13.999C8.3576 13.9681 8.39614 13.8795 8.36146 13.8063C8.33062 13.733 8.24197 13.6945 8.16874 13.7253C8.15718 13.7292 8.0878 13.76 7.97988 13.8255C7.79873 13.8833 7.64455 13.8101 7.55205 13.7407C8.11093 12.9776 8.16489 10.769 8.16489 10.6726C8.16489 10.5917 8.10322 10.5223 8.02228 10.5223C7.94134 10.5223 7.87196 10.584 7.87196 10.6649C7.87196 10.7266 7.8681 10.796 7.86425 10.8731C7.10495 10.2756 6.58847 9.62809 6.23773 8.99982C5.63646 7.76642 5.94866 6.54843 6.0373 6.25935C7.38631 5.81609 8.65438 6.34029 8.93189 6.46749C8.84325 6.63322 8.75845 6.80282 8.68136 6.97241C8.67751 6.96856 8.67366 6.96856 8.66595 6.9647C8.60813 6.94543 7.27839 6.51374 6.80431 7.31545C6.69254 7.50046 6.68483 7.77798 6.77733 8.13644C6.79275 8.20196 6.85442 8.24822 6.91994 8.24822C6.93151 8.24822 6.94307 8.24822 6.95463 8.24436C7.03172 8.22509 7.08182 8.14415 7.06255 8.0632C6.99317 7.7934 6.99317 7.5814 7.0587 7.46577C7.39402 6.89918 8.4424 7.20367 8.56188 7.23836C8.39615 7.63537 8.25739 8.03622 8.15332 8.44479C8.13405 8.52188 8.1803 8.60282 8.26124 8.62595C8.27281 8.6298 8.28437 8.6298 8.29979 8.6298C8.36531 8.6298 8.42698 8.58355 8.4424 8.51802C8.65438 7.68547 9.00513 6.87605 9.48306 6.10517C9.52546 6.03579 9.50619 5.94329 9.43681 5.90089C9.36743 5.85849 9.27493 5.87776 9.23253 5.94714C9.17857 6.03194 9.12846 6.11674 9.07836 6.20539C8.80085 6.07048 7.39788 5.46149 5.87542 6.0011L5.8099 6.02423L5.78677 6.08975C5.77521 6.12444 5.61718 6.54843 5.58635 7.16898C5.46687 6.47905 5.50926 5.97412 5.52468 5.83922C6.86984 4.09703 9.5139 4.01609 10.7242 4.08161C10.7203 4.08547 10.7164 4.08932 10.7126 4.09318C10.6548 4.15099 10.6548 4.2435 10.7126 4.30132C10.7396 4.33215 10.7781 4.34371 10.8167 4.34371C10.8552 4.34371 10.8899 4.3283 10.9207 4.30132C11.3293 3.8966 11.6184 3.68461 11.6222 3.68076L11.6415 3.66534C11.6607 3.64607 13.7883 1.55313 18.1553 1.25634C19.6816 1.15227 21.312 1.30645 22.6263 1.67647C22.7034 1.6996 22.7843 1.65335 22.8074 1.57626C22.8267 1.50688 22.792 1.43365 22.7303 1.40281C23.347 1.00581 25.8909 -0.439591 28.8394 0.720582C28.8857 0.79767 28.9898 0.994244 29.1092 1.28718C28.9319 1.00195 28.7893 0.83236 28.7739 0.809233L28.7354 0.762981L28.6737 0.759126C26.1106 0.550989 25.093 1.85377 24.8232 2.29318C24.7808 2.27005 24.7346 2.24307 24.6922 2.21994C24.619 2.1814 24.5303 2.20838 24.4918 2.28161C24.4532 2.35485 24.4802 2.4435 24.5534 2.48204C25.5093 2.99468 26.2339 3.55356 26.7119 4.14714C26.7427 4.18183 26.7851 4.2011 26.8275 4.2011C26.8583 4.2011 26.893 4.18954 26.92 4.17027C26.9817 4.12016 26.9932 4.02765 26.9431 3.96213C26.6579 3.60367 26.284 3.26063 25.8369 2.933C26.0643 2.72872 26.9624 1.97712 27.6138 2.35099C27.7949 2.45506 27.9298 2.76727 27.9992 3.23365C28.0108 3.30688 28.0724 3.36084 28.1457 3.36084C28.1534 3.36084 28.1611 3.36084 28.1688 3.36084C28.2497 3.34928 28.3037 3.27219 28.2921 3.1951C28.2073 2.62465 28.03 2.25463 27.7641 2.10046C26.866 1.58397 25.7367 2.62465 25.5941 2.76341C25.4361 2.65549 25.2665 2.54757 25.0892 2.4435C25.3243 2.05806 26.2455 0.882467 28.5889 1.05977C28.7701 1.29874 29.5602 2.39724 29.5872 3.69232C29.5872 3.7193 29.5872 3.74628 29.5872 3.77712C29.5872 3.85421 29.5833 3.93129 29.5795 4.00838C29.5795 4.01994 29.5795 4.03151 29.5795 4.04307C29.5448 4.84864 29.3521 5.75442 28.8895 6.71417L28.8279 6.8298C28.5272 6.36727 28.3191 5.94329 28.1996 5.66577C29.2056 5.0799 29.2017 4.42851 29.1054 4.08547C29.0668 3.94671 28.9782 3.83879 28.8548 3.77326C28.508 3.58825 27.9529 3.75399 27.8913 3.77712C27.8142 3.80024 27.7718 3.88504 27.7949 3.96213C27.818 4.03922 27.9028 4.08161 27.9799 4.05849C28.1148 4.01609 28.5118 3.92744 28.7122 4.03536C28.7701 4.0662 28.8009 4.1086 28.8202 4.17027C28.9705 4.70988 28.5349 5.1223 28.084 5.39211C28.0686 5.35357 28.0609 5.33429 28.0609 5.33044C28.0339 5.25335 27.9491 5.21095 27.872 5.23793C27.7949 5.26491 27.7525 5.34586 27.7795 5.42294C27.8065 5.50003 28.4347 7.31931 29.9456 8.545C30.0073 8.59511 30.069 8.64136 30.1268 8.69147C30.6317 9.09618 31.1058 9.47391 31.3332 10.0444C31.3486 10.0868 31.364 10.1292 31.3794 10.1677C30.8784 9.65892 30.1923 9.51246 30.1538 9.50475C30.0728 9.48933 29.9957 9.53944 29.9803 9.62038C29.9649 9.70132 30.015 9.77841 30.0959 9.79383C30.1075 9.79768 31.1751 10.0251 31.5066 10.8923C31.6801 11.351 31.9576 11.694 32.104 11.8559C32.1117 11.8675 32.1117 11.8752 32.1117 11.8829C32.1117 11.8906 32.1079 11.8983 32.0963 11.906C31.9807 11.9716 31.8342 11.9908 31.6685 11.9716C31.5876 11.96 31.5143 12.0178 31.5028 12.0988C31.4912 12.1797 31.549 12.2529 31.63 12.2645C31.6839 12.2722 31.734 12.2761 31.7841 12.2761C31.9499 12.2761 32.1079 12.2375 32.2389 12.1681C32.3276 12.118 32.3893 12.0332 32.4047 11.933C32.4201 11.8328 32.3931 11.7326 32.3237 11.6594C32.1927 11.5167 31.9499 11.2161 31.7918 10.8152C31.7957 10.5531 31.734 10.2602 31.6068 9.94029C31.3524 9.30046 30.8206 8.87648 30.3079 8.46792C30.2463 8.41781 30.1884 8.37156 30.1268 8.32145C29.6758 7.95528 29.302 7.52744 29.0052 7.11117L29.1401 6.84907C29.6411 5.81224 29.8338 4.83322 29.8647 3.97369C29.8724 3.8465 29.8724 3.7193 29.8685 3.59211C29.8685 3.5844 29.8685 3.57669 29.8685 3.57283C29.8685 3.56898 29.8685 3.56513 29.8685 3.56127C29.8184 1.76127 29.0707 0.558698 29.0591 0.539426L29.0321 0.500882L28.9898 0.48161C25.6288 -0.871283 22.7535 1.03279 22.4374 1.25249C22.4104 1.27176 22.395 1.29874 22.3835 1.32572C21.0961 1.00581 19.566 0.882467 18.1244 0.978827C13.7421 1.26791 11.6029 3.29146 11.4333 3.46106C11.3909 3.49189 11.2214 3.62294 10.9708 3.85421C10.9477 3.82722 10.913 3.80795 10.8706 3.80795C9.67578 3.72701 6.73493 3.75014 5.25873 5.70431L5.23561 5.73515L5.2279 5.76984C5.22404 5.79297 4.98893 7.38483 5.96022 9.13087C5.97564 9.15014 5.9872 9.17327 5.99876 9.1964Z" fill="black"/>
<path d="M17.7963 32.5431C17.7655 32.466 17.6807 32.4313 17.6036 32.4583C17.5265 32.4891 17.4919 32.5739 17.5188 32.651C17.5227 32.6587 17.8041 33.3448 18.7137 33.3448C18.8717 33.3448 19.049 33.3255 19.2456 33.2754C20.1475 33.0519 20.8066 33.2484 20.8181 33.2523C20.8952 33.2754 20.98 33.233 21.0031 33.1559C21.0263 33.0788 20.9839 32.994 20.9068 32.9709C20.8759 32.9632 20.1667 32.7474 19.1762 32.9902C18.1008 33.2561 17.8079 32.5701 17.7963 32.5431Z" fill="black"/>
<path d="M7.43538 8.93722C7.51632 8.9218 7.57028 8.84857 7.55486 8.76762C7.53945 8.68668 7.46622 8.63272 7.38527 8.64814C7.33517 8.65585 6.87265 8.7445 6.68379 9.02587C6.61056 9.13379 6.58743 9.26099 6.61441 9.39204C6.67993 9.7081 6.95359 10.2439 8.00967 10.2631H8.01353C8.09447 10.2631 8.15999 10.1976 8.15999 10.1167C8.15999 10.0357 8.09832 9.96634 8.01353 9.96634C7.56643 9.95863 7.01141 9.83915 6.90349 9.32651C6.89192 9.2764 6.89963 9.23015 6.93047 9.18775C7.02682 9.04129 7.33517 8.95649 7.43538 8.93722Z" fill="black"/>
<path d="M13.3352 15.2877C14.6961 14.9387 15.6558 14.0958 15.4787 13.405C15.3015 12.7142 14.0547 12.4371 12.6937 12.7861C11.3328 13.1351 10.3731 13.978 10.5502 14.6688C10.7274 15.3596 11.9742 15.6367 13.3352 15.2877Z" fill="#FCB5D1"/>
<path opacity="0.0196078" d="M13.8047 17.3899C16.4781 16.801 18.3187 14.8406 17.9158 13.0112C17.5129 11.1817 15.019 10.176 12.3455 10.7649C9.67212 11.3537 7.83152 13.3141 8.23446 15.1436C8.63739 16.973 11.1313 17.9787 13.8047 17.3899Z" fill="#FFFEFE"/>
<path opacity="0.0392157" d="M13.7953 17.3377C16.4269 16.7572 18.2379 14.8256 17.8404 13.0234C17.4429 11.2211 14.9873 10.2307 12.3557 10.8112C9.72414 11.3917 7.91309 13.3233 8.31062 15.1255C8.70816 16.9278 11.1637 17.9182 13.7953 17.3377Z" fill="#FFFCFD"/>
<path opacity="0.0588235" d="M13.7906 17.2846C16.3806 16.7124 18.1627 14.8112 17.771 13.0381C17.3794 11.265 14.9622 10.2914 12.3722 10.8635C9.78223 11.4356 8.00012 13.3368 8.39178 15.1099C8.78344 16.8831 11.2006 17.8567 13.7906 17.2846Z" fill="#FFFBFC"/>
<path opacity="0.0784314" d="M13.7784 17.2269C16.3266 16.6632 18.0796 14.7926 17.6938 13.0487C17.308 11.3049 14.9296 10.3482 12.3814 10.9119C9.83328 11.4756 8.0803 13.3463 8.46607 15.0901C8.85184 16.834 11.2303 17.7907 13.7784 17.2269Z" fill="#FFF9FB"/>
<path opacity="0.0980392" d="M13.7672 17.1714C16.2736 16.6161 17.9974 14.776 17.6176 13.0614C17.2377 11.3468 14.898 10.407 12.3917 10.9623C9.88531 11.5176 8.16145 13.3577 8.54131 15.0723C8.92117 16.7869 11.2609 17.7266 13.7672 17.1714Z" fill="#FFF8FA"/>
<path opacity="0.1176" d="M13.762 17.124C16.2268 16.5771 17.9214 14.7658 17.547 13.0782C17.1726 11.3907 14.871 10.4659 12.4062 11.0128C9.94146 11.5596 8.24686 13.371 8.62125 15.0585C8.99564 16.7461 11.2972 17.6708 13.762 17.124Z" fill="#FFF6FA"/>
<path opacity="0.1373" d="M13.7496 17.0657C16.1746 16.5269 17.8419 14.7458 17.4734 13.0875C17.105 11.4292 14.8404 10.5217 12.4153 11.0605C9.9903 11.5993 8.3231 13.3804 8.69154 15.0387C9.05999 16.697 11.3246 17.6045 13.7496 17.0657Z" fill="#FFF5F9"/>
<path opacity="0.1569" d="M13.7437 17.0069C16.127 16.4764 17.765 14.7257 17.4023 13.0966C17.0397 11.4676 14.8137 10.5771 12.4305 11.1077C10.0472 11.6382 8.40922 13.389 8.77187 15.018C9.13452 16.647 11.3605 17.5375 13.7437 17.0069Z" fill="#FFF3F8"/>
<path opacity="0.1765" d="M13.7323 16.9535C16.0738 16.4315 17.6828 14.7114 17.3261 13.1117C16.9694 11.5119 14.7822 10.6382 12.4407 11.1602C10.0993 11.6823 8.49031 13.4023 8.84697 15.0021C9.20363 16.6019 11.3909 17.4756 13.7323 16.9535Z" fill="#FEF2F7"/>
<path opacity="0.1961" d="M13.7277 16.8984C16.0276 16.3847 17.6077 14.695 17.2568 13.1243C16.906 11.5536 14.7572 10.6967 12.4573 11.2105C10.1574 11.7242 8.57737 13.4139 8.92819 14.9846C9.27901 16.5553 11.4278 17.4122 13.7277 16.8984Z" fill="#FEF0F6"/>
<path opacity="0.2157" d="M13.7175 16.8464C15.9756 16.3411 17.5261 14.6801 17.1807 13.1366C16.8353 11.5931 14.7247 10.7515 12.4666 11.2568C10.2085 11.7622 8.65795 13.4231 9.00337 14.9667C9.3488 16.5102 11.4594 17.3518 13.7175 16.8464Z" fill="#FEEFF5"/>
<path opacity="0.2353" d="M13.7059 16.7952C15.9222 16.2985 17.4438 14.6682 17.1044 13.1539C16.765 11.6396 14.6932 10.8148 12.4769 11.3115C10.2606 11.8082 8.73899 13.4385 9.07837 14.9528C9.41775 16.4671 11.4896 17.292 13.7059 16.7952Z" fill="#FEEEF4"/>
<path opacity="0.2549" d="M13.6987 16.7358C15.8733 16.2475 17.3658 14.6478 17.0323 13.1627C16.6989 11.6777 14.6657 10.8697 12.4911 11.358C10.3165 11.8463 8.82404 13.4461 9.15751 14.9311C9.49099 16.4162 11.5242 17.2242 13.6987 16.7358Z" fill="#FEECF3"/>
<path opacity="0.2745" d="M13.6881 16.6801C15.8209 16.2 17.2843 14.6306 16.9566 13.1748C16.6289 11.719 14.6343 10.928 12.5014 11.4081C10.3686 11.8882 8.90529 13.4575 9.23298 14.9133C9.56067 16.3692 11.5553 17.1602 13.6881 16.6801Z" fill="#FEEBF2"/>
<path opacity="0.2941" d="M13.6815 16.6304C15.7726 16.1588 17.2065 14.6183 16.8843 13.1896C16.5621 11.7609 14.6058 10.985 12.5147 11.4566C10.4237 11.9282 8.98971 13.4687 9.3119 14.8974C9.6341 16.3261 11.5904 17.1019 13.6815 16.6304Z" fill="#FEE9F1"/>
<path opacity="0.3137" d="M13.6725 16.5729C15.7239 16.1092 17.1304 14.5988 16.8141 13.1993C16.4977 11.7998 14.5783 11.0413 12.5269 11.505C10.4755 11.9688 9.06896 13.4792 9.38532 14.8787C9.70167 16.2781 11.6211 17.0367 13.6725 16.5729Z" fill="#FEE8F1"/>
<path opacity="0.3333" d="M13.665 16.5208C15.6747 16.0656 17.0523 14.5858 16.7419 13.2155C16.4316 11.8452 14.5508 11.1034 12.5412 11.5586C10.5315 12.0138 9.15393 13.4936 9.46428 14.8639C9.77463 16.2341 11.6554 16.9759 13.665 16.5208Z" fill="#FEE6F0"/>
<path opacity="0.3529" d="M13.6551 16.4654C15.623 16.0186 16.9715 14.5692 16.6671 13.2282C16.3626 11.8871 14.5205 11.1622 12.5525 11.609C10.5846 12.0558 9.23607 13.5051 9.54052 14.8462C9.84497 16.1872 11.6871 16.9121 13.6551 16.4654Z" fill="#FEE5EF"/>
<path opacity="0.3725" d="M13.6438 16.4127C15.57 15.9743 16.8891 14.5538 16.5901 13.2399C16.2911 11.926 14.4872 11.2162 12.561 11.6545C10.6348 12.0929 9.31563 13.5134 9.61463 14.8273C9.91363 16.1413 11.7175 16.851 13.6438 16.4127Z" fill="#FEE3EE"/>
<path opacity="0.3922" d="M13.6376 16.3567C15.522 15.9266 16.8118 14.5366 16.5187 13.252C16.2255 11.9674 14.4603 11.2746 12.5759 11.7047C10.6916 12.1348 9.40173 13.5248 9.69491 14.8094C9.98809 16.094 11.7533 16.7867 13.6376 16.3567Z" fill="#FEE2ED"/>
<path opacity="0.4118" d="M13.6274 16.3016C15.47 15.88 16.7309 14.5206 16.4437 13.2652C16.1566 12.0098 14.43 11.3338 12.5874 11.7553C10.7447 12.1768 9.48379 13.5363 9.77098 14.7917C10.0582 16.0471 11.7847 16.7231 13.6274 16.3016Z" fill="#FEE1EC"/>
<path opacity="0.4314" d="M13.6204 16.2463C15.4213 15.8331 16.6533 14.5041 16.372 13.2779C16.0907 12.0516 14.4027 11.3925 12.6017 11.8056C10.8008 12.2188 9.56886 13.5478 9.85016 14.774C10.1315 16.0003 11.8195 16.6594 13.6204 16.2463Z" fill="#FEDFEB"/>
<path opacity="0.451" d="M13.6091 16.1926C15.3682 15.7878 16.571 14.4894 16.2956 13.2925C16.0202 12.0955 14.371 11.4533 12.6119 11.858C10.8528 12.2627 9.64999 13.5611 9.92537 14.7581C10.2007 15.955 11.85 16.5973 13.6091 16.1926Z" fill="#FEDEEA"/>
<path opacity="0.4706" d="M13.6041 16.1378C15.3215 15.7414 16.4949 14.4717 16.2248 13.3019C15.9548 12.132 14.3437 11.505 12.6263 11.9014C10.9089 12.2978 9.73549 13.5675 10.0055 14.7374C10.2755 15.9072 11.8866 16.5342 13.6041 16.1378Z" fill="#FEDCE9"/>
<path opacity="0.4902" d="M13.5914 16.0816C15.2691 15.6932 16.4151 14.4538 16.1511 13.3132C15.8871 12.1726 14.313 11.5628 12.6353 11.9511C10.9577 12.3395 9.81168 13.5789 10.0757 14.7195C10.3397 15.8601 11.9137 16.4699 13.5914 16.0816Z" fill="#FEDBE8"/>
<path opacity="0.5098" d="M13.5815 16.0294C15.2175 15.6495 16.3346 14.4405 16.0765 13.329C15.8184 12.2176 14.2829 11.6246 12.6469 12.0045C11.0108 12.3844 9.89379 13.5934 10.1519 14.7048C10.41 15.8163 11.9455 16.4093 13.5815 16.0294Z" fill="#FDD9E8"/>
<path opacity="0.5294" d="M13.5754 15.9707C15.1697 15.5991 16.2576 14.4206 16.0053 13.3384C15.7531 12.2562 14.2562 11.6802 12.662 12.0518C11.0678 12.4234 9.97987 13.6019 10.2321 14.6841C10.4843 15.7663 11.9812 16.3423 13.5754 15.9707Z" fill="#FDD8E7"/>
<path opacity="0.549" d="M13.5638 15.921C15.1162 15.558 16.1747 14.4084 15.928 13.3534C15.6813 12.2984 14.2228 11.7374 12.6703 12.1005C11.1179 12.4635 10.0594 13.6131 10.3061 14.6681C10.5528 15.7231 12.0113 16.2841 13.5638 15.921Z" fill="#FDD6E6"/>
<path opacity="0.5686" d="M13.5588 15.8654C15.0695 15.5106 16.0989 14.3915 15.858 13.3657C15.6171 12.3399 14.1972 11.7959 12.6865 12.1506C11.1758 12.5054 10.1464 13.6245 10.3873 14.6503C10.6282 15.6761 12.0481 16.2201 13.5588 15.8654Z" fill="#FDD5E5"/>
<path opacity="0.5882" d="M13.5465 15.8102C15.0154 15.4639 16.0158 14.3754 15.7809 13.3788C15.546 12.3822 14.1648 11.855 12.6959 12.2012C11.2269 12.5475 10.2265 13.636 10.4614 14.6326C10.6963 15.6292 12.0775 16.1564 13.5465 15.8102Z" fill="#FDD3E4"/>
<path opacity="0.6078" d="M13.5402 15.7519C14.9674 15.4141 15.9388 14.3561 15.7099 13.3887C15.4809 12.4214 14.1383 11.911 12.7111 12.2487C11.2839 12.5865 10.3125 13.6446 10.5415 14.6119C10.7704 15.5793 12.113 16.0897 13.5402 15.7519Z" fill="#FDD2E3"/>
<path opacity="0.6275" d="M13.5302 15.6995C14.9157 15.3701 15.8581 14.3425 15.635 13.4043C15.412 12.4661 14.108 11.9726 12.7225 12.302C11.337 12.6314 10.3947 13.659 10.6177 14.5972C10.8408 15.5353 12.1447 16.0289 13.5302 15.6995Z" fill="#FDD1E2"/>
<path opacity="0.6471" d="M13.5197 15.6465C14.8633 15.3256 15.7762 14.327 15.5586 13.416C15.341 12.505 14.0754 12.0267 12.7317 12.3476C11.3881 12.6685 10.4752 13.6672 10.6928 14.5782C10.9104 15.4892 12.176 15.9675 13.5197 15.6465Z" fill="#FDCFE1"/>
<path opacity="0.6667" d="M13.5134 15.5904C14.8175 15.2774 15.703 14.3088 15.4914 13.427C15.2797 12.5452 14.051 12.0841 12.7469 12.3971C11.4429 12.7101 10.5573 13.6787 10.769 14.5605C10.9806 15.4423 12.2093 15.9034 13.5134 15.5904Z" fill="#FDCEE0"/>
<path opacity="0.6863" d="M13.5033 15.5368C14.7655 15.2322 15.622 14.2941 15.4163 13.4415C15.2105 12.5889 14.0205 12.1448 12.7582 12.4494C11.4959 12.754 10.6394 13.6921 10.8452 14.5447C11.0509 15.3972 12.241 15.8414 13.5033 15.5368Z" fill="#FDCCDF"/>
<path opacity="0.7059" d="M13.4959 15.4795C14.7164 15.1834 15.5438 14.2758 15.3441 13.4525C15.1443 12.6292 13.9929 12.2018 12.7724 12.4979C11.5519 12.7941 10.7244 13.7016 10.9242 14.525C11.124 15.3483 12.2754 15.7757 13.4959 15.4795Z" fill="#FDCBDF"/>
<path opacity="0.7255" d="M13.4855 15.4268C14.6642 15.1392 15.4623 14.2605 15.268 13.4643C15.0737 12.6681 13.9606 12.2559 12.7818 12.5435C11.603 12.8312 10.805 13.7099 10.9993 14.5061C11.1936 15.3023 12.3067 15.7145 13.4855 15.4268Z" fill="#FDC9DE"/>
<path opacity="0.7451" d="M13.478 15.3733C14.6149 15.094 15.3839 14.2459 15.1956 13.479C15.0072 12.7121 13.9329 12.3167 12.7959 12.596C11.659 12.8752 10.89 13.7233 11.0783 14.4902C11.2667 15.2571 12.3411 15.6525 13.478 15.3733Z" fill="#FDC8DD"/>
<path opacity="0.7647" d="M13.4678 15.3191C14.5631 15.0483 15.3031 14.2307 15.1207 13.493C14.9383 12.7552 13.9026 12.3766 12.8074 12.6474C11.7121 12.9182 10.9721 13.7358 11.1545 14.4735C11.3368 15.2113 12.3726 15.5899 13.4678 15.3191Z" fill="#FDC6DC"/>
<path opacity="0.7843" d="M13.4565 15.2608C14.51 14.9986 15.221 14.2115 15.0446 13.503C14.8682 12.7945 13.8712 12.4327 12.8177 12.695C11.7642 12.9573 11.0532 13.7443 11.2296 14.4528C11.406 15.1614 12.403 15.5231 13.4565 15.2608Z" fill="#FDC5DB"/>
<path opacity="0.8039" d="M13.4519 15.2108C14.4636 14.9569 15.1451 14.1987 14.9741 13.5174C14.8031 12.8361 13.8444 12.4895 12.8327 12.7434C11.8211 12.9973 11.1396 13.7555 11.3106 14.4368C11.4815 15.1181 12.4403 15.4646 13.4519 15.2108Z" fill="#FDC4DA"/>
<path opacity="0.8235" d="M13.4415 15.1546C14.4136 14.9087 15.0678 14.1806 14.9028 13.5285C14.7378 12.8763 13.816 12.547 12.844 12.793C11.872 13.0389 11.2177 13.767 11.3828 14.4191C11.5478 15.0713 12.4695 15.4006 13.4415 15.1546Z" fill="#FDC2D9"/>
<path opacity="0.8431" d="M13.4318 15.0992C14.362 14.8618 14.9872 14.1644 14.8282 13.5415C14.6692 12.9186 13.7863 12.6061 12.8561 12.8435C11.9259 13.081 11.3008 13.7784 11.4597 14.4013C11.6187 15.0241 12.5016 15.3366 13.4318 15.0992Z" fill="#FCC1D8"/>
<path opacity="0.8627" d="M13.4236 15.0459C14.3121 14.8169 14.9083 14.1499 14.7552 13.5562C14.6022 12.9625 13.7579 12.6669 12.8695 12.8959C11.981 13.1249 11.3848 13.7918 11.5378 14.3855C11.6908 14.9792 12.5351 15.2749 13.4236 15.0459Z" fill="#FCBFD7"/>
<path opacity="0.8824" d="M13.4158 14.9911C14.2624 14.7706 14.8292 14.1327 14.6816 13.5662C14.5341 12.9997 13.7282 12.7192 12.8816 12.9397C12.035 13.1601 11.4682 13.7981 11.6157 14.3646C11.7633 14.9311 12.5692 15.2116 13.4158 14.9911Z" fill="#FCBED6"/>
<path opacity="0.902" d="M13.4043 14.9338C14.2092 14.7218 14.7469 14.1144 14.6054 13.5772C14.4639 13.0399 13.6967 12.7762 12.8919 12.9882C12.087 13.2002 11.5493 13.8076 11.6908 14.3449C11.8323 14.8821 12.5995 15.1458 13.4043 14.9338Z" fill="#FCBCD6"/>
<path opacity="0.9216" d="M13.3936 14.8825C14.1566 14.679 14.6654 14.1023 14.53 13.5943C14.3945 13.0862 13.6661 12.8393 12.9031 13.0428C12.1401 13.2462 11.6313 13.823 11.7667 14.331C11.9022 14.839 12.6305 15.0859 13.3936 14.8825Z" fill="#FCBBD5"/>
<path opacity="0.9412" d="M13.387 14.8254C14.1083 14.6304 14.5881 14.0842 14.4587 13.6054C14.3293 13.1266 13.6397 12.8964 12.9184 13.0914C12.197 13.2863 11.7172 13.8325 11.8466 14.3113C11.976 14.7902 12.6657 15.0203 13.387 14.8254Z" fill="#FCB9D4"/>
<path opacity="0.9608" d="M13.3781 14.7745C14.0597 14.5875 14.5117 14.0698 14.3878 13.6181C14.2639 13.1665 13.611 12.9519 12.9294 13.1389C12.2478 13.3259 11.7958 13.8437 11.9197 14.2953C12.0436 14.747 12.6966 14.9615 13.3781 14.7745Z" fill="#FCB8D3"/>
<path opacity="0.9804" d="M13.3701 14.7191C14.0098 14.5407 14.4329 14.0536 14.3151 13.6312C14.1973 13.2088 13.5832 13.0111 12.9434 13.1896C12.3037 13.368 11.8807 13.8551 11.9985 14.2775C12.1163 14.6999 12.7304 14.8976 13.3701 14.7191Z" fill="#FCB6D2"/>
<path d="M13.3591 14.661C13.957 14.4911 14.3512 14.0347 14.2395 13.6416C14.1278 13.2484 13.5525 13.0674 12.9546 13.2373C12.3568 13.4072 11.9626 13.8636 12.0743 14.2568C12.186 14.6499 12.7613 14.8309 13.3591 14.661Z" fill="#FCB5D1"/>
<path d="M26.1546 11.7768C27.5018 11.3781 28.4298 10.5005 28.2275 9.8167C28.0251 9.13288 26.7689 8.90178 25.4217 9.3005C24.0745 9.69923 23.1465 10.5768 23.3489 11.2606C23.5512 11.9444 24.8074 12.1755 26.1546 11.7768Z" fill="#FCB5D1"/>
<path opacity="0.0196078" d="M26.6986 13.8567C29.3485 13.1701 31.1158 11.1436 30.646 9.33022C30.1761 7.51689 27.6471 6.60348 24.9973 7.29005C22.3474 7.97662 20.5801 10.0032 21.0499 11.8165C21.5197 13.6299 24.0487 14.5433 26.6986 13.8567Z" fill="#FFFEFE"/>
<path opacity="0.0392157" d="M26.6907 13.8108C29.2993 13.1341 31.0384 11.1372 30.575 9.35066C30.1116 7.56412 27.6211 6.66442 25.0125 7.34112C22.4038 8.01783 20.6647 10.0147 21.1282 11.8012C21.5916 13.5878 24.082 14.4875 26.6907 13.8108Z" fill="#FFFCFD"/>
<path opacity="0.0588235" d="M26.6796 13.7543C29.2468 13.0878 30.958 11.1227 30.5017 9.36517C30.0454 7.60765 27.5944 6.72325 25.0272 7.38979C22.46 8.05634 20.7488 10.0214 21.2051 11.7789C21.6614 13.5365 24.1124 14.4209 26.6796 13.7543Z" fill="#FFFBFC"/>
<path opacity="0.0784314" d="M26.6663 13.6974C29.192 13.0408 30.8752 11.1073 30.4259 9.37879C29.9766 7.65031 27.5648 6.78139 25.0391 7.43802C22.5133 8.09465 20.8301 10.0282 21.2794 11.7567C21.7288 13.4852 24.1406 14.3541 26.6663 13.6974Z" fill="#FFF9FB"/>
<path opacity="0.0980392" d="M26.6539 13.6484C29.1381 13.0018 30.7934 11.0998 30.351 9.40034C29.9087 7.70087 27.5361 6.84742 25.0519 7.49411C22.5676 8.14079 20.9123 10.0427 21.3547 11.7422C21.7971 13.4417 24.1696 14.2951 26.6539 13.6484Z" fill="#FFF8FA"/>
<path opacity="0.1176" d="M26.6483 13.5925C29.0914 12.9555 30.7184 11.0832 30.2823 9.41047C29.8462 7.73778 27.5121 6.89816 25.0691 7.53513C22.626 8.17211 20.999 10.0445 21.4351 11.7172C21.8712 13.3898 24.2053 14.2295 26.6483 13.5925Z" fill="#FFF6FA"/>
<path opacity="0.1373" d="M26.6356 13.5368C29.0393 12.9093 30.64 11.0681 30.2109 9.42442C29.7818 7.78074 27.4854 6.95697 25.0817 7.58449C22.6781 8.212 21.0773 10.0532 21.5064 11.6969C21.9355 13.3405 24.2319 14.1643 26.6356 13.5368Z" fill="#FFF5F9"/>
<path opacity="0.1569" d="M26.625 13.4831C28.9872 12.8656 30.56 11.0561 30.138 9.44141C29.7159 7.82673 27.4588 7.01835 25.0966 7.63584C22.7343 8.25333 21.1615 10.0629 21.5835 11.6775C22.0056 13.2922 24.2627 14.1006 26.625 13.4831Z" fill="#FFF3F8"/>
<path opacity="0.1765" d="M26.6139 13.4261C28.9347 12.8184 30.4795 11.0404 30.0644 9.45469C29.6492 7.86901 27.4312 7.07618 25.1104 7.68387C22.7896 8.29155 21.2448 10.0696 21.66 11.6553C22.0751 13.241 24.2931 14.0338 26.6139 13.4261Z" fill="#FEF2F7"/>
<path opacity="0.1961" d="M26.6002 13.3726C28.8796 12.775 30.3966 11.0286 29.9885 9.47189C29.5804 7.9152 27.4017 7.13771 25.1223 7.73532C22.8429 8.33293 21.326 10.0793 21.7341 11.636C22.1422 13.1927 24.3208 13.9702 26.6002 13.3726Z" fill="#FEF0F6"/>
<path opacity="0.2157" d="M26.5929 13.3183C28.8309 12.7306 30.3195 11.014 29.9178 9.48427C29.516 7.95451 27.3761 7.19085 25.1382 7.77858C22.9002 8.36632 21.4116 10.0829 21.8133 11.6127C22.2151 13.1424 24.355 13.9061 26.5929 13.3183Z" fill="#FEEFF5"/>
<path opacity="0.2353" d="M26.5797 13.2665C28.7763 12.6887 30.2369 11.0036 29.8422 9.50283C29.4474 8.00204 27.3467 7.25384 25.1501 7.83167C22.9535 8.40951 21.4929 10.0946 21.8877 11.5953C22.2824 13.0961 24.3832 13.8443 26.5797 13.2665Z" fill="#FEEEF4"/>
<path opacity="0.2549" d="M26.5713 13.2108C28.7265 12.6429 30.1592 10.9894 29.7714 9.51761C29.3836 8.0458 27.3221 7.31303 25.1669 7.88092C23.0118 8.44881 21.579 10.1023 21.9668 11.5741C22.3546 13.0459 24.4161 13.7787 26.5713 13.2108Z" fill="#FEECF3"/>
<path opacity="0.2745" d="M26.5589 13.1562C28.6727 12.5983 30.0776 10.9763 29.6968 9.5335C29.316 8.09066 27.2937 7.37329 25.1799 7.93121C23.0661 8.48912 21.6612 10.1111 22.0421 11.5539C22.4229 12.9967 24.4451 13.7141 26.5589 13.1562Z" fill="#FEEBF2"/>
<path opacity="0.2941" d="M26.5475 13.1072C28.6199 12.5593 29.9964 10.9672 29.6221 9.5513C29.2478 8.13536 27.2643 7.43169 25.1919 7.9796C23.1195 8.52751 21.7429 10.1195 22.1172 11.5355C22.4916 12.9514 24.4751 13.6551 26.5475 13.1072Z" fill="#FEE9F1"/>
<path opacity="0.3137" d="M26.5402 13.0504C28.5733 12.5117 29.9236 10.9507 29.5561 9.56375C29.1887 8.17677 27.2427 7.48904 25.2096 8.02766C23.1765 8.56629 21.8262 10.1273 22.1936 11.5143C22.5611 12.9013 24.5071 13.589 26.5402 13.0504Z" fill="#FEE8F1"/>
<path opacity="0.3333" d="M26.5248 12.9902C28.5163 12.4615 29.8385 10.9321 29.478 9.57418C29.1175 8.21629 27.2108 7.54413 25.2193 8.07289C23.2277 8.60164 21.9055 10.1311 22.266 11.489C22.6265 12.8468 24.5332 13.519 26.5248 12.9902Z" fill="#FEE6F0"/>
<path opacity="0.3529" d="M26.516 12.9409C28.4662 12.4222 29.7606 10.9245 29.4072 9.59552C29.0538 8.26657 27.1864 7.60968 25.2362 8.12831C23.286 8.64695 21.9916 10.1447 22.345 11.4737C22.6984 12.8026 24.5658 13.4595 26.516 12.9409Z" fill="#FEE5EF"/>
<path opacity="0.3725" d="M26.5047 12.8854C28.4136 12.3767 29.6801 10.9104 29.3337 9.61043C28.9873 8.31041 27.1591 7.66891 25.2502 8.17759C23.3414 8.68627 22.0748 10.1525 22.4212 11.4525C22.7676 12.7525 24.5959 13.394 26.5047 12.8854Z" fill="#FEE3EE"/>
<path opacity="0.3922" d="M26.4925 12.8307C28.3598 12.3318 29.5979 10.8954 29.2578 9.62242C28.9177 8.34941 27.1283 7.72185 25.261 8.22073C23.3936 8.7196 22.1556 10.156 22.4957 11.429C22.8357 12.702 24.6252 13.3296 26.4925 12.8307Z" fill="#FEE2ED"/>
<path opacity="0.4118" d="M26.484 12.7793C28.31 12.2905 29.5203 10.8857 29.1872 9.64158C28.8542 8.39749 27.1039 7.78523 25.2779 8.27407C23.4519 8.7629 22.2417 10.1677 22.5747 11.4118C22.9077 12.6559 24.658 13.2681 26.484 12.7793Z" fill="#FEE1EC"/>
<path opacity="0.4314" d="M26.4706 12.7224C28.2551 12.2434 29.4374 10.8702 29.1113 9.65513C28.7852 8.44008 27.0742 7.84334 25.2897 8.32227C23.5052 8.8012 22.3229 10.1744 22.649 11.3895C22.9751 12.6045 24.6861 13.2013 26.4706 12.7224Z" fill="#FEDFEB"/>
<path opacity="0.451" d="M26.4623 12.6689C28.2055 12.1999 29.36 10.8582 29.0409 9.67203C28.7218 8.48589 27.0499 7.90451 25.3067 8.37349C23.5635 8.84247 22.4091 10.1842 22.7282 11.3704C23.0473 12.5565 24.7191 13.1379 26.4623 12.6689Z" fill="#FEDEEA"/>
<path opacity="0.4706" d="M26.4507 12.6196C28.1524 12.1607 29.2785 10.8489 28.9659 9.68971C28.6533 8.53053 27.0203 7.9629 25.3186 8.42188C23.6168 8.88086 22.4907 10.1926 22.8034 11.3518C23.116 12.511 24.749 13.0786 26.4507 12.6196Z" fill="#FEDCE9"/>
<path opacity="0.4902" d="M26.4412 12.5618C28.1035 12.1121 29.2033 10.8314 28.8976 9.70123C28.5919 8.57106 26.9965 8.01939 25.3342 8.46904C23.6718 8.91869 22.572 10.1994 22.8777 11.3296C23.1834 12.4597 24.7788 13.0114 26.4412 12.5618Z" fill="#FEDBE8"/>
<path opacity="0.5098" d="M26.4287 12.506C28.0497 12.0663 29.1215 10.8172 28.8228 9.71598C28.5241 8.6148 26.9679 8.07858 25.347 8.51829C23.7261 8.958 22.6543 10.2071 22.953 11.3083C23.2517 12.4095 24.8078 12.9457 26.4287 12.506Z" fill="#FDD9E8"/>
<path opacity="0.5294" d="M26.4162 12.4543C27.9957 12.0246 29.0397 10.8071 28.748 9.73487C28.4563 8.66268 26.9394 8.14184 25.3599 8.57155C23.7804 9.00126 22.7365 10.2188 23.0281 11.291C23.3198 12.3632 24.8367 12.884 26.4162 12.4543Z" fill="#FDD8E7"/>
<path opacity="0.549" d="M26.4089 12.4001C27.947 11.9803 28.9626 10.7926 28.6773 9.74737C28.392 8.7021 26.9139 8.19506 25.3758 8.61487C23.8377 9.03468 22.8221 10.2224 23.1074 11.2676C23.3927 12.3129 24.8708 12.8199 26.4089 12.4001Z" fill="#FDD6E6"/>
<path opacity="0.5686" d="M26.3965 12.3436C27.8932 11.9337 28.881 10.7776 28.6027 9.7613C28.3244 8.74499 26.8855 8.25335 25.3888 8.66319C23.892 9.07303 22.9043 10.2292 23.1826 11.2455C23.4609 12.2618 24.8998 12.7534 26.3965 12.3436Z" fill="#FDD5E5"/>
<path opacity="0.5882" d="M26.3892 12.2898C27.8446 11.8899 28.8044 10.7652 28.5331 9.77789C28.2617 8.79053 26.862 8.31434 25.4066 8.71429C23.9513 9.11425 22.9914 10.2389 23.2628 11.2263C23.5341 12.2136 24.9339 12.6898 26.3892 12.2898Z" fill="#FDD3E4"/>
<path opacity="0.6078" d="M26.3747 12.233C27.7885 11.843 28.7204 10.75 28.4561 9.79166C28.1917 8.83334 26.8313 8.37261 25.4174 8.76261C24.0036 9.1526 23.0717 10.2456 23.336 11.204C23.6004 12.1623 24.9608 12.623 26.3747 12.233Z" fill="#FDD2E3"/>
<path opacity="0.6275" d="M26.36 12.1793C27.7324 11.7994 28.6363 10.738 28.3791 9.80868C28.1218 8.87937 26.8007 8.43403 25.4283 8.81399C24.0559 9.19394 23.1519 10.2553 23.4092 11.1846C23.6665 12.1139 24.9876 12.5593 26.36 12.1793Z" fill="#FDD1E2"/>
<path opacity="0.6471" d="M26.3556 12.1304C27.6867 11.7604 28.5624 10.7289 28.3116 9.82645C28.0607 8.924 26.7783 8.49235 25.4473 8.86232C24.1162 9.2323 23.2404 10.2638 23.4913 11.1663C23.7421 12.0687 25.0245 12.5004 26.3556 12.1304Z" fill="#FDCFE1"/>
<path opacity="0.6667" d="M26.342 12.0756C27.6337 11.7149 28.4832 10.7145 28.2394 9.84105C27.9955 8.96759 26.7507 8.55185 25.459 8.91247C24.1673 9.27309 23.3178 10.2735 23.5616 11.147C23.8055 12.0204 25.0503 12.4362 26.342 12.0756Z" fill="#FDCEE0"/>
<path opacity="0.6863" d="M26.3315 12.0136C27.5816 11.6629 28.4031 10.6941 28.1662 9.84965C27.9293 9.00524 26.7238 8.60504 25.4736 8.95577C24.2234 9.3065 23.402 10.2753 23.6389 11.1198C23.8758 11.9642 25.0813 12.3644 26.3315 12.0136Z" fill="#FDCCDF"/>
<path opacity="0.7059" d="M26.3209 11.964C27.5298 11.6233 28.3234 10.686 28.0935 9.87053C27.8637 9.05507 26.6974 8.67023 25.4886 9.01097C24.2798 9.35171 23.4861 10.289 23.716 11.1045C23.9458 11.9199 25.1121 12.3048 26.3209 11.964Z" fill="#FDCBDF"/>
<path opacity="0.7255" d="M26.3075 11.9108C27.4748 11.58 28.2401 10.6727 28.0167 9.88419C27.7933 9.09569 26.6658 8.72463 25.4985 9.05539C24.3311 9.38616 23.5659 10.2935 23.7893 11.082C24.0127 11.8705 25.1401 12.2416 26.3075 11.9108Z" fill="#FDC9DE"/>
<path opacity="0.7451" d="M26.2979 11.8541C27.4238 11.5333 28.1611 10.6576 27.9448 9.89807C27.7284 9.13856 26.6402 8.78291 25.5143 9.10371C24.3883 9.42451 23.651 10.3003 23.8674 11.0598C24.0838 11.8193 25.1719 12.1749 26.2979 11.8541Z" fill="#FDC8DD"/>
<path opacity="0.7647" d="M26.2883 11.8025C27.3728 11.4916 28.0823 10.6474 27.873 9.9169C27.6636 9.18635 26.6147 8.8461 25.5301 9.15693C24.4456 9.46775 23.7361 10.3119 23.9455 11.0425C24.1549 11.773 25.2038 12.1133 26.2883 11.8025Z" fill="#FDC6DC"/>
<path opacity="0.7843" d="M26.2797 11.746C27.3229 11.4452 28.0045 10.6326 27.8022 9.93095C27.5999 9.22935 26.5902 8.90446 25.547 9.20529C24.5039 9.50613 23.8222 10.3188 24.0245 11.0204C24.2269 11.722 25.2365 12.0469 26.2797 11.746Z" fill="#FDC5DB"/>
<path opacity="0.8039" d="M26.2672 11.6949C27.2689 11.4041 27.9222 10.6214 27.7264 9.94679C27.5306 9.27213 26.5597 8.96095 25.558 9.25176C24.5562 9.54257 23.9029 10.3252 24.0988 10.9999C24.2946 11.6746 25.2654 11.9857 26.2672 11.6949Z" fill="#FDC4DA"/>
<path opacity="0.8235" d="M26.2543 11.639C27.2166 11.3576 27.8436 10.606 27.6548 9.9604C27.466 9.31476 26.5328 9.01952 25.5705 9.30096C24.6082 9.5824 23.9812 10.3339 24.17 10.9796C24.3588 11.6252 25.292 11.9204 26.2543 11.639Z" fill="#FDC2D9"/>
<path opacity="0.8431" d="M26.2444 11.5834C27.1653 11.312 27.7645 10.5921 27.5828 9.97548C27.401 9.35883 26.5072 9.07896 25.5863 9.35037C24.6655 9.62178 24.0663 10.3417 24.248 10.9583C24.4297 11.575 25.3236 11.8548 26.2444 11.5834Z" fill="#FCC1D8"/>
<path opacity="0.8627" d="M26.2327 11.529C27.1122 11.2676 27.6836 10.5792 27.5089 9.99155C27.3343 9.40386 26.4797 9.13935 25.6002 9.40074C24.7208 9.66213 24.1494 10.3504 24.3241 10.9381C24.4987 11.5258 25.3533 11.7903 26.2327 11.529Z" fill="#FCBFD7"/>
<path opacity="0.8824" d="M26.222 11.4757C27.06 11.2244 27.603 10.5661 27.4348 10.0054C27.2666 9.44467 26.4509 9.1939 25.613 9.44526C24.775 9.69662 24.232 10.3549 24.4002 10.9156C24.5684 11.4763 25.3841 11.7271 26.222 11.4757Z" fill="#FCBED6"/>
<path opacity="0.902" d="M26.2103 11.424C27.0068 11.1826 27.5219 10.5559 27.3608 10.0242C27.1997 9.49248 26.4233 9.25712 25.6268 9.4985C24.8303 9.73987 24.3152 10.3666 24.4763 10.8983C24.6374 11.43 25.4137 11.6654 26.2103 11.424Z" fill="#FCBCD6"/>
<path opacity="0.9216" d="M27.2874 10.0424C27.4416 10.5434 26.9521 11.1409 26.1966 11.3721C25.4412 11.6034 24.705 11.3837 24.5508 10.8788C24.3967 10.3777 24.8862 9.78026 25.6416 9.54899C26.3971 9.31773 27.1371 9.53743 27.2874 10.0424Z" fill="#FCBBD5"/>
<path opacity="0.9412" d="M27.214 10.0528C27.3605 10.5269 26.9018 11.0896 26.1849 11.3132C25.4719 11.5329 24.7704 11.3286 24.6239 10.8545C24.4775 10.3804 24.9361 9.81769 25.653 9.59413C26.3699 9.37443 27.0676 9.57872 27.214 10.0528Z" fill="#FCB9D4"/>
<path opacity="0.9608" d="M27.1454 10.0679C27.2842 10.515 26.8525 11.0469 26.178 11.2589C25.5035 11.4709 24.8444 11.282 24.7056 10.8349C24.5669 10.3878 24.9986 9.85589 25.6731 9.6439C26.3437 9.43191 27.0028 9.62463 27.1454 10.0679Z" fill="#FCB8D3"/>
<path opacity="0.9804" d="M27.0709 10.0839C27.202 10.5002 26.7973 11.0013 26.1652 11.2056C25.5331 11.406 24.9125 11.2325 24.7815 10.8163C24.6504 10.4 25.0551 9.89892 25.6872 9.69463C26.3155 9.4942 26.936 9.66765 27.0709 10.0839Z" fill="#FCB6D2"/>
<path d="M25.699 9.7444C26.2888 9.55168 26.8708 9.71356 26.998 10.1029C27.1251 10.4922 26.7474 10.9624 26.1577 11.1551C25.568 11.3478 24.986 11.1859 24.8588 10.7966C24.7316 10.4074 25.1055 9.93327 25.699 9.7444Z" fill="#FCB5D1"/>
<path d="M29.9612 8.19016C30.019 8.20172 30.073 8.16703 30.0884 8.11307C30.1 8.05525 30.0653 8.00129 30.0113 7.98587C27.4983 7.40386 25.3399 8.91478 25.3206 8.9302C25.2744 8.96489 25.2628 9.03042 25.2975 9.07667C25.3168 9.10365 25.3515 9.11907 25.3823 9.11907C25.4016 9.11907 25.4247 9.11136 25.444 9.0998C25.4594 9.08823 27.5407 7.62742 29.9612 8.19016Z" fill="black"/>
<path d="M30.2958 11.2147C28.28 9.60745 25.6783 10.043 25.6552 10.0468C25.5974 10.0584 25.5588 10.1124 25.5704 10.1702C25.582 10.228 25.6359 10.2665 25.6937 10.255C25.7207 10.2511 28.226 9.831 30.1686 11.3805C30.1879 11.3959 30.211 11.4036 30.2341 11.4036C30.265 11.4036 30.2958 11.3882 30.3151 11.3651C30.3498 11.3188 30.3421 11.2533 30.2958 11.2147Z" fill="black"/>
<path d="M29.424 9.4977C27.5388 8.60085 25.5671 9.42275 25.5496 9.43004C25.5061 9.44979 25.4857 9.49944 25.5054 9.54291C25.5252 9.58637 25.5748 9.60685 25.6183 9.5871C25.6388 9.5791 27.5373 8.78707 29.3542 9.65179C29.3722 9.66041 29.3919 9.66223 29.4101 9.65798C29.4344 9.65231 29.4559 9.63448 29.4669 9.6127C29.4857 9.56985 29.4676 9.51959 29.424 9.4977Z" fill="black"/>
<path d="M13.0847 13.355C13.1392 13.3693 13.1936 13.337 13.2081 13.2867C13.2227 13.2328 13.19 13.179 13.1392 13.1646C13.1137 13.1574 10.7172 12.5252 8.68375 13.8435C8.63654 13.8722 8.62565 13.9332 8.6547 13.9799C8.67285 14.0087 8.70553 14.023 8.73821 14.023C8.75637 14.023 8.77452 14.0195 8.79268 14.0087C10.7462 12.7407 13.0593 13.3478 13.0847 13.355Z" fill="black"/>
<path d="M13.0209 13.8684C13.0678 13.8719 13.105 13.8322 13.1063 13.7829C13.1069 13.7304 13.0695 13.6862 13.0255 13.682C13.0036 13.6799 10.9418 13.5233 9.57525 15.1108C9.54314 15.1459 9.54697 15.2045 9.58002 15.2426C9.60058 15.266 9.62988 15.2735 9.65622 15.2676C9.67085 15.2644 9.68474 15.2578 9.69714 15.2445C11.0097 13.718 12.999 13.8663 13.0209 13.8684Z" fill="black"/>
<path d="M13.2341 14.2599C13.2071 14.2637 10.617 14.7494 9.27955 16.9541C9.24871 17.0042 9.26413 17.0697 9.31424 17.1006C9.32965 17.1121 9.34892 17.116 9.3682 17.116C9.40288 17.116 9.43757 17.0967 9.45685 17.0659C10.7442 14.9421 13.2456 14.4719 13.2688 14.468C13.3266 14.4564 13.3651 14.4025 13.3536 14.3447C13.3458 14.2868 13.2919 14.2483 13.2341 14.2599Z" fill="black"/>
<path d="M16.5713 10.3887C16.9452 11.9074 16.1319 12.6243 14.9833 12.9095C13.8309 13.1947 12.7787 12.9403 12.4009 11.4217C12.0271 9.90308 12.6553 8.44226 13.8039 8.15704C14.9602 7.87181 16.1974 8.8701 16.5713 10.3887Z" fill="black"/>
<path d="M14.8014 11.3691C15.3238 11.193 15.5803 10.5548 15.3743 9.94359C15.1683 9.33238 14.5778 8.97966 14.0553 9.15576C13.5329 9.33185 13.2764 9.97009 13.4824 10.5813C13.6884 11.1925 14.2789 11.5452 14.8014 11.3691Z" fill="white"/>
<path d="M14.2604 11.9167C14.3259 12.1056 14.2373 12.306 14.0677 12.3638C13.8981 12.4216 13.7092 12.3137 13.6437 12.1248C13.5782 11.936 13.6668 11.7355 13.8364 11.6777C14.006 11.6199 14.1949 11.7278 14.2604 11.9167Z" fill="white"/>
<path d="M24.6104 8.31849C24.9842 9.83712 24.171 10.554 23.0224 10.8393C21.87 11.1245 20.8177 10.8701 20.44 9.35147C20.0661 7.83283 20.6944 6.37202 21.843 6.08679C22.9993 5.79771 24.2365 6.79986 24.6104 8.31849Z" fill="black"/>
<path d="M22.9303 9.33788C23.4527 9.16178 23.7092 8.52354 23.5032 7.91234C23.2972 7.30113 22.7067 6.94841 22.1842 7.12451C21.6618 7.3006 21.4053 7.93884 21.6113 8.55004C21.8173 9.16125 22.4078 9.51397 22.9303 9.33788Z" fill="white"/>
<path d="M22.59 10.5432C22.7594 10.4861 22.845 10.2861 22.7811 10.0965C22.7172 9.90685 22.528 9.79944 22.3586 9.85655C22.1891 9.91366 22.1036 10.1137 22.1675 10.3033C22.2314 10.4929 22.4206 10.6003 22.59 10.5432Z" fill="white"/>
<path d="M21.0304 11.7144C20.9572 11.6836 20.8685 11.7182 20.8377 11.7915C20.5101 12.5662 19.6853 12.3851 19.3461 12.2733C19.2921 12.254 19.2382 12.2694 19.1996 12.3041C19.1611 12.308 19.1264 12.3234 19.1033 12.3542C18.344 13.2484 17.7003 12.7551 17.6733 12.7358C17.6116 12.6857 17.5191 12.6934 17.4652 12.7589C17.4151 12.8206 17.4228 12.9131 17.4883 12.9671C17.4922 12.9709 17.7658 13.1868 18.1705 13.1868C18.4904 13.1868 18.8913 13.0519 19.3075 12.5739C19.4502 12.6163 19.6853 12.6741 19.9435 12.6741C20.3675 12.6741 20.857 12.52 21.1152 11.911C21.1422 11.83 21.1075 11.7452 21.0304 11.7144Z" fill="black"/>
<path d="M19.6857 11.4684C19.7705 11.7767 19.5469 12.1082 19.1885 12.2045C18.83 12.3009 18.4716 12.1313 18.3868 11.823C18.302 11.5146 19.6009 11.16 19.6857 11.4684Z" fill="black"/>
</g>
<defs>
<clipPath id="clip0_1232_379">
<rect width="39" height="39" fill="white"/>
</clipPath>
</defs>
</svg>
