<svg width="74" height="74" viewBox="0 0 74 74" fill="none" xmlns="http://www.w3.org/2000/svg">
<path d="M69.9307 46.2773C71.7727 46.5 73.0277 47.3907 73.473 49.2127C73.5539 49.5366 73.5539 49.8605 73.5539 50.1844C73.5539 56.5005 73.5539 62.8368 73.5539 69.1529C73.5539 71.481 72.0358 73.0195 69.708 73.0195C46.916 73.0195 24.124 73.0195 1.31179 73.0195C1.12962 73.0195 0.967686 73.0195 0.664062 73.0195C0.664062 72.7159 0.664062 72.4527 0.664062 72.1895C0.664062 67.7561 0.664062 63.3429 0.664062 58.9095C0.664062 48.5649 7.20209 40.3863 17.2824 38.0988C19.0029 37.7141 20.7235 37.2688 22.525 36.8436C22.525 36.1149 22.5452 35.3861 22.5047 34.6775C22.5047 34.4954 22.3225 34.2727 22.1606 34.1512C18.254 31.2968 16.3918 27.4302 16.4525 22.6122C16.4727 21.6202 16.4525 20.6485 16.4525 19.5756C16.0072 19.5756 15.6023 19.5958 15.2177 19.5756C14.5498 19.5351 14.0437 19.1505 14.064 18.5027C14.1045 15.5268 13.7199 12.5307 14.6307 9.61557C16.331 4.08898 21.4521 0.222392 27.221 0.181904C29.5285 0.16166 31.8361 0.100928 34.1234 0.343855C39.8517 0.930929 44.8514 5.93118 45.4384 11.6602C45.6611 13.887 45.5801 16.1544 45.6003 18.4014C45.6003 19.1909 45.0741 19.5958 44.1632 19.6161C43.8596 19.6161 43.5762 19.6161 43.1916 19.6161C43.1916 20.7092 43.1916 21.7417 43.1916 22.7539C43.2118 27.5112 41.3496 31.3171 37.5239 34.1714C37.3215 34.3132 37.1596 34.6371 37.1394 34.9002C37.0786 35.5278 37.1191 36.1554 37.1191 36.8436C40.7424 37.8963 44.568 38.281 47.9686 40.1434C48.0496 38.7668 48.0293 37.451 48.1913 36.1554C48.8795 30.8919 53.5957 26.8634 59.0205 26.8836C64.3845 26.9039 69.0603 30.9324 69.7485 36.1756C69.87 37.1473 69.8902 38.1393 69.8902 39.1312C69.9509 41.4997 69.9307 43.8683 69.9307 46.2773ZM59.0812 48.7471C55.5389 48.7471 51.9967 48.7471 48.4544 48.7471C47.2601 48.7471 46.8553 49.152 46.8553 50.3463C46.8553 56.5612 46.8553 62.7964 46.8553 69.0112C46.8553 70.2056 47.2601 70.6105 48.4544 70.6105C55.4782 70.6105 62.5223 70.6105 69.5461 70.6105C70.7403 70.6105 71.1452 70.2056 71.1452 69.0112C71.1452 62.7964 71.1452 56.5612 71.1452 50.3463C71.1452 49.152 70.7403 48.7471 69.5461 48.7471C66.0646 48.7471 62.583 48.7471 59.0812 48.7471ZM12.8495 70.6105C12.8495 67.0881 12.8495 63.6871 12.8495 60.2659C12.8495 59.3549 12.8495 58.4439 12.8495 57.5329C12.8495 56.5815 13.315 56.0349 14.0842 56.0349C14.8332 56.0551 15.2785 56.6017 15.2785 57.5734C15.2785 57.7556 15.2785 57.9176 15.2785 58.0998C15.2785 61.9866 15.2785 65.8937 15.2785 69.7805C15.2785 70.0437 15.2785 70.3068 15.2785 70.5498C17.2824 70.5498 19.1649 70.5498 21.108 70.5498C19.2863 60.7112 17.4848 50.9334 15.6631 41.1151C15.3594 41.2163 15.1368 41.2771 14.9344 41.358C8.09272 43.8885 3.25498 50.7107 3.17402 57.9985C3.13353 62.0473 3.15378 66.0961 3.15378 70.1449C3.15378 70.2866 3.17402 70.4283 3.19426 70.6308C3.47764 70.6308 3.74078 70.6308 3.98368 70.6308C6.89847 70.6105 9.83349 70.6105 12.8495 70.6105ZM16.3715 17.1666C19.4887 17.1666 22.4035 17.1868 25.298 17.1666C27.889 17.1261 30.0346 16.0936 31.7146 14.1097C32.3219 13.4012 32.8886 12.6522 33.4756 11.9234C34.346 10.8302 35.0545 10.8302 35.9046 11.8829C36.8357 13.0368 37.8073 14.1705 38.698 15.3851C39.8315 16.9439 41.3294 17.3892 43.1916 17.1261C43.1916 15.7292 43.2321 14.3324 43.1916 12.9558C42.9892 7.85435 38.9813 3.3602 33.921 2.77313C31.7146 2.50995 29.4881 2.59093 27.2615 2.61117C22.2416 2.65166 17.8087 6.19435 16.8168 11.1136C16.4322 13.0368 16.5132 15.0612 16.3715 17.1666ZM18.922 19.5958C18.922 20.9117 18.922 22.1263 18.922 23.341C18.9624 28.6246 22.9095 33.2605 28.0104 34.0297C33.5161 34.8395 38.5765 31.7624 40.2566 26.6002C41.0055 24.2722 40.7019 21.9036 40.7828 19.4744C37.6859 19.0088 36.5524 16.2353 34.7104 14.3324C34.6092 14.4134 34.5687 14.4539 34.5484 14.4944C34.427 14.6361 34.3258 14.7575 34.2043 14.8992C31.7349 18.2192 28.4355 19.7578 24.3062 19.6161C22.5452 19.5553 20.7842 19.5958 18.922 19.5958ZM63.8582 46.2976C63.8582 43.4837 63.8582 40.7507 63.8582 38.038C63.8582 35.1634 61.7733 32.9771 59.0407 32.9771C56.2676 32.9568 54.1625 35.1432 54.1625 38.0583C54.1625 40.5888 54.1625 43.1193 54.1625 45.6498C54.1625 45.8724 54.1828 46.0951 54.203 46.3178C57.4214 46.2976 60.5993 46.2976 63.8582 46.2976ZM44.0822 40.9936C42.2402 50.9941 40.4185 60.772 38.5968 70.5903C40.6412 70.5903 42.5843 70.5903 44.568 70.5903C44.5073 70.2056 44.4263 69.8412 44.4263 69.4971C44.4263 62.9381 44.4061 56.3993 44.4263 49.8402C44.4263 48.2005 45.5801 46.8441 47.1792 46.4393C47.4626 46.3583 47.7459 46.3178 48.0496 46.2571C48.0496 45.2854 48.0698 44.3541 48.0293 43.4229C48.0293 43.2205 47.8674 42.9168 47.7055 42.8358C46.5719 42.2083 45.3979 41.6415 44.0822 40.9936ZM18.2742 40.3661C18.173 40.4066 18.092 40.4471 17.9908 40.4876C19.8531 50.5285 21.7153 60.5493 23.5775 70.57C25.5207 70.57 27.3829 70.57 29.3059 70.57C27.6258 68.8898 25.9863 67.2298 24.3467 65.6103C23.9216 65.1851 23.7394 64.7195 23.8002 64.1122C24.3467 59.3954 24.873 54.6785 25.3993 49.9617C25.5207 48.7876 25.6422 47.6337 25.7838 46.2976C25.3993 46.6012 25.1361 46.7834 24.8932 46.9859C23.8407 47.8159 23.2536 47.7349 22.525 46.6417C21.27 44.759 19.9948 42.8561 18.7398 40.9734C18.6183 40.7507 18.4362 40.5685 18.2742 40.3661ZM30.3787 70.6105C32.2409 70.6105 34.0222 70.6307 35.8034 70.5903C35.9451 70.5903 36.1678 70.2461 36.2082 70.0234C38.03 60.3266 39.8315 50.6095 41.6127 40.9127C41.633 40.771 41.5925 40.609 41.5925 40.4471C41.2686 40.5685 41.0865 40.7507 40.9448 40.9734C39.6291 42.9168 38.3539 44.8805 37.0382 46.8441C36.4714 47.6944 35.8034 47.7754 34.9938 47.168C34.6699 46.9251 34.3663 46.6619 33.9007 46.2976C33.9817 47.0263 34.0424 47.5324 34.1031 48.0385C34.6901 53.3424 35.2771 58.6261 35.8844 63.93C35.9654 64.679 35.8237 65.2459 35.2771 65.7722C33.6578 67.3107 32.0587 68.9303 30.3787 70.6105ZM28.0711 48.16C27.9699 49.0102 27.8687 49.6985 27.808 50.3666C27.3222 54.7595 26.8364 59.1524 26.3708 63.5656C26.3506 63.7883 26.3506 64.1122 26.4923 64.2539C27.5853 65.4078 28.7189 66.5212 29.8929 67.6751C30.9859 66.582 32.0385 65.5495 33.0303 64.4968C33.253 64.2539 33.4149 63.8288 33.3744 63.5251C32.9696 59.5573 32.5243 55.5895 32.079 51.6217C31.9575 50.5083 31.8158 49.3949 31.6741 48.1398C30.4192 48.8685 29.2654 48.828 28.0711 48.16ZM51.7133 46.3178C51.7133 46.0141 51.7133 45.7712 51.7133 45.508C51.7133 43.0383 51.693 40.5483 51.7335 38.0785C51.7335 37.4105 51.7943 36.7019 51.9562 36.0541C52.8266 32.5317 56.2272 30.1632 59.7492 30.568C63.4736 30.9932 66.2467 34.0095 66.2872 37.7344C66.3277 40.3054 66.2872 42.8966 66.2872 45.4676C66.2872 45.7307 66.2872 46.0141 66.2872 46.2571C66.7528 46.2571 67.1171 46.2571 67.5017 46.2571C67.5017 43.4027 67.5219 40.5888 67.5017 37.7749C67.441 33.0378 63.676 29.2927 58.98 29.3129C54.3042 29.3129 50.5595 33.0783 50.4988 37.8154C50.4785 40.4471 50.4988 43.0788 50.4988 45.7105C50.4988 45.9129 50.5393 46.0951 50.5595 46.2976C50.9441 46.3178 51.268 46.3178 51.7133 46.3178ZM25.0754 35.71C24.8325 36.6615 25.0349 37.289 25.966 37.7344C27.14 38.3012 28.2331 39.0502 29.3464 39.7588C29.7309 40.0017 30.0143 39.9815 30.3787 39.7588C31.492 39.0705 32.6255 38.4024 33.759 37.7141C34.8723 37.0461 34.8723 37.0461 34.6294 35.7302C31.4515 36.9044 28.2533 36.9044 25.0754 35.71ZM20.9056 39.7993C21.9987 41.439 23.031 42.9776 24.0633 44.5363C25.3183 43.5241 26.4923 42.5929 27.727 41.601C26.3506 40.771 25.1159 40.0219 23.8407 39.2932C23.6787 39.1919 23.4561 39.1717 23.2739 39.2122C22.525 39.3741 21.776 39.5766 20.9056 39.7993ZM31.9778 41.601C33.2732 42.6334 34.4472 43.5646 35.6415 44.5363C36.7143 42.9371 37.7264 41.3985 38.7992 39.7993C37.9693 39.5968 37.2406 39.3741 36.4714 39.2122C36.2892 39.1717 36.0463 39.1717 35.8844 39.2527C34.6294 40.0017 33.3744 40.771 31.9778 41.601ZM31.3705 45.3461C31.3705 44.4149 30.4596 43.0788 29.8524 43.1193C29.2047 43.1598 28.3343 44.4756 28.3545 45.3866C28.3545 45.7307 29.2249 46.2166 29.8524 46.2166C30.5204 46.2166 31.3705 45.751 31.3705 45.3461Z" fill="#DC3545"/>
</svg>
