<svg width="85" height="74" viewBox="0 0 85 74" fill="none" xmlns="http://www.w3.org/2000/svg">
<path d="M0.5 73.0195C0.5 72.1362 0.5 71.2983 0.5 70.3923C2.22107 70.3923 3.91949 70.3923 5.68585 70.3923C5.68585 46.9967 5.68585 23.6464 5.68585 0.160156C16.2161 4.44067 26.6104 8.67589 37.1179 12.9338C37.1179 8.65324 37.1179 4.48596 37.1179 0.182799C38.0238 0.545171 38.8164 0.862246 39.6316 1.20197C49.8448 5.39189 60.0806 9.58182 70.3164 13.7264C70.9505 13.9756 71.1316 14.3153 71.1316 14.9721C71.109 33.0907 71.109 51.2093 71.109 69.3279C71.109 69.645 71.109 69.9394 71.109 70.3244C73.0339 70.3244 74.9361 70.3244 76.8836 70.3244C76.8836 68.3993 76.8836 66.4742 76.8836 64.5038C76.6572 64.4359 76.4081 64.3453 76.1816 64.2547C72.196 62.8278 70.7014 58.0944 73.0791 54.6065C73.2603 54.3348 73.3962 53.8818 73.3283 53.5647C72.9206 51.3678 73.7132 49.3295 75.4796 48.1291C77.2007 46.974 79.4199 46.9741 81.1636 48.1518C82.93 49.3295 83.6999 51.3678 83.2697 53.5874C83.2244 53.8818 83.2923 54.2668 83.4508 54.4933C85.9645 58.2755 84.4925 62.7372 80.2352 64.3226C80.0087 64.4132 79.6917 64.7076 79.6917 64.9115C79.6464 66.678 79.669 68.4673 79.669 70.3471C80.9145 70.3471 82.0921 70.3471 83.2923 70.3471C83.2923 71.2756 83.2923 72.1136 83.2923 73.0195C55.7326 73.0195 28.1503 73.0195 0.5 73.0195ZM68.3915 65.07C68.4142 64.7529 68.4368 64.5038 68.4368 64.2547C68.4368 48.3783 68.4368 32.5018 68.4595 16.6254C68.4595 16.0366 68.2556 15.7874 67.7348 15.5836C60.0579 12.4808 52.4037 9.33268 44.7495 6.20722C43.1643 5.55043 41.5791 4.91628 39.926 4.25948C39.926 24.575 39.926 44.7998 39.926 65.0474C49.4145 65.07 58.8577 65.07 68.3915 65.07ZM8.51655 59.6571C12.8871 59.6571 17.1898 59.6571 21.5604 59.6571C21.5831 59.3626 21.6057 59.1362 21.6057 58.887C21.6057 42.6935 21.6057 26.5001 21.6283 10.3066C21.6283 9.74036 21.4698 9.46858 20.9263 9.24209C17.8012 8.01909 14.6762 6.75079 11.5737 5.48249C10.5773 5.07482 9.60353 4.6898 8.53919 4.25948C8.51654 22.7857 8.51655 41.1988 8.51655 59.6571ZM24.3005 59.6344C28.6032 59.6344 32.8606 59.6344 37.1179 59.6344C37.1179 57.1431 37.1179 54.7197 37.1179 52.2058C35.6686 52.2058 34.2872 52.2058 32.8832 52.2058C32.8832 51.2546 32.8832 50.3939 32.8832 49.488C34.3325 49.488 35.7139 49.488 37.1179 49.488C37.1179 46.8608 37.1179 44.3016 37.1179 41.6291C35.6686 41.6291 34.2872 41.6291 32.8606 41.6291C32.8606 40.7005 32.8606 39.8625 32.8606 38.9113C34.3099 38.9113 35.7139 38.9113 37.1179 38.9113C37.1179 36.6238 37.1179 34.4269 37.1179 32.1395C35.6686 32.1395 34.2872 32.1395 32.8606 32.1395C32.8606 31.2109 32.8606 30.3729 32.8606 29.4443C34.3099 29.4443 35.7139 29.4443 37.1179 29.4443C37.1179 27.1569 37.1179 24.96 37.1179 22.6725C35.6686 22.6725 34.2872 22.6725 32.8606 22.6725C32.8606 21.7213 32.8606 20.9059 32.8606 19.9547C34.3099 19.9547 35.7139 19.9547 37.1632 19.9547C37.1632 18.7996 37.1406 17.7578 37.1859 16.716C37.2085 16.1272 37.05 15.8327 36.4612 15.6062C32.6341 14.0888 28.807 12.5034 25.0025 10.9634C24.7761 10.8728 24.5496 10.8275 24.3232 10.7595C24.3232 12.3449 24.3232 13.817 24.3232 15.3798C25.6819 15.3798 26.9727 15.3798 28.2635 15.3798C28.2635 16.3083 28.2635 17.169 28.2635 18.0976C26.9048 18.0976 25.614 18.0976 24.3232 18.0976C24.3232 20.4983 24.3232 22.831 24.3232 25.2317C25.6819 25.2317 26.9501 25.2317 28.2635 25.2317C28.2635 26.1603 28.2635 27.021 28.2635 27.9495C26.9048 27.9495 25.614 27.9495 24.3232 27.9495C24.3232 30.3502 24.3232 32.683 24.3232 35.1064C25.6593 35.1064 26.9501 35.1064 28.2862 35.1064C28.2862 36.035 28.2862 36.8503 28.2862 37.8015C26.9274 37.8015 25.614 37.8015 24.3232 37.8015C24.3232 40.2475 24.3232 42.6029 24.3232 45.049C25.6819 45.049 26.9727 45.049 28.2862 45.049C28.2862 46.0002 28.2862 46.8382 28.2862 47.7441C26.9501 47.7441 25.6593 47.7441 24.3232 47.7441C24.3232 50.1675 24.3232 52.5002 24.3232 54.9463C25.6819 54.9463 26.9727 54.9463 28.2862 54.9463C28.2862 55.8975 28.2862 56.7354 28.2862 57.6414C26.9501 57.6414 25.6593 57.6414 24.3232 57.6414C24.3005 58.3435 24.3005 58.955 24.3005 59.6344ZM39.7901 70.3244C49.3692 70.3244 58.8577 70.3244 68.3462 70.3244C68.3462 69.4864 68.3462 68.6937 68.3462 67.901C58.8124 67.901 49.3239 67.901 39.7901 67.901C39.7901 68.2408 39.7901 68.5352 39.7901 68.807C39.7901 69.2826 39.7901 69.7582 39.7901 70.3244ZM79.6917 54.8103C79.9408 54.4027 80.1672 54.0403 80.371 53.6779C80.9372 52.6361 80.7107 51.3905 79.8275 50.6884C78.9444 49.9636 77.6309 49.9863 76.793 50.711C75.9325 51.4584 75.7513 52.6814 76.3175 53.7232C76.5213 54.0856 76.7251 54.4253 76.9289 54.7651C74.4152 57.1658 74.0076 59.1362 75.6608 60.8801C77.0421 62.3296 79.3067 62.3975 80.7787 61.0386C81.526 60.3365 81.9109 59.4759 81.9336 58.4794C82.0242 56.8034 80.9825 55.7389 79.6917 54.8103ZM37.0726 70.3471C37.0726 67.6519 37.0726 65.0473 37.0726 62.4881C35.5554 62.4881 34.0834 62.4881 32.6568 62.4881C32.6568 65.1606 32.6568 67.7425 32.6568 70.3471C34.1514 70.3471 35.6007 70.3471 37.0726 70.3471ZM8.53919 62.4655C8.53919 65.1379 8.53919 67.7425 8.53919 70.3244C10.0338 70.3244 11.4605 70.3244 12.8871 70.3244C12.8871 67.6745 12.8871 65.0927 12.8871 62.4655C11.4152 62.4655 10.0112 62.4655 8.53919 62.4655ZM27.0406 62.4202C27.0406 65.1153 27.0406 67.7198 27.0406 70.3017C28.0371 70.3017 28.9882 70.3017 29.9393 70.3017C29.9393 67.6292 29.9393 65.0247 29.9393 62.4202C28.9655 62.4202 28.0597 62.4202 27.0406 62.4202ZM18.5938 70.3244C18.5938 67.6519 18.5938 65.0474 18.5938 62.4655C17.5974 62.4655 16.6463 62.4655 15.6952 62.4655C15.6952 65.1153 15.6952 67.6972 15.6952 70.3244C16.669 70.3244 17.5974 70.3244 18.5938 70.3244ZM21.3792 62.4428C21.3792 65.1153 21.3792 67.6972 21.3792 70.3244C22.3304 70.3244 23.2362 70.3244 24.2099 70.3244C24.2099 67.6745 24.2099 65.07 24.2099 62.4428C23.2588 62.4428 22.3757 62.4428 21.3792 62.4428Z" fill="#DC3545"/>
<path d="M63.361 29.5117C63.361 30.395 63.361 31.233 63.361 32.1163C61.7532 32.1163 60.1907 32.1163 58.6055 32.1163C58.6055 31.233 58.6055 30.4176 58.6055 29.5117C60.168 29.5117 61.7306 29.5117 63.361 29.5117Z" fill="#DC3545"/>
<path d="M58.5859 50.8007C58.5859 49.9174 58.5859 49.102 58.5859 48.2188C60.1485 48.2188 61.711 48.2188 63.3415 48.2188C63.3415 49.0341 63.3415 49.8947 63.3415 50.8007C61.779 50.8007 60.2164 50.8007 58.5859 50.8007Z" fill="#DC3545"/>
<path d="M58.5859 25.8655C58.5859 24.9822 58.5859 24.1669 58.5859 23.2383C60.0805 23.2383 61.5752 23.2383 63.0471 23.2609C63.1604 23.2609 63.3868 23.5554 63.3868 23.7139C63.4321 24.416 63.4094 25.1181 63.4094 25.8881C61.779 25.8655 60.2164 25.8655 58.5859 25.8655Z" fill="#DC3545"/>
<path d="M58.5859 38.3663C58.5859 37.4603 58.5859 36.645 58.5859 35.7617C60.1711 35.7617 61.7337 35.7617 63.3415 35.7617C63.3415 36.5997 63.3415 37.4603 63.3415 38.3663C61.7563 38.3663 60.2164 38.3663 58.5859 38.3663Z" fill="#DC3545"/>
<path d="M58.6055 41.9453C60.2133 41.9453 61.7532 41.9453 63.361 41.9453C63.361 42.8286 63.361 43.6439 63.361 44.5499C61.7759 44.5499 60.2133 44.5499 58.6055 44.5499C58.6055 43.6892 58.6055 42.8512 58.6055 41.9453Z" fill="#DC3545"/>
<path d="M58.6055 54.4023C60.236 54.4023 61.7759 54.4023 63.361 54.4023C63.361 55.2856 63.361 56.1236 63.361 57.0069C61.7532 57.0069 60.1907 57.0069 58.6055 57.0069C58.6055 56.1463 58.6055 55.3083 58.6055 54.4023Z" fill="#DC3545"/>
<path d="M49.5267 23.2617C49.5267 24.145 49.5267 24.983 49.5267 25.8663C47.9641 25.8663 46.4242 25.8663 44.8164 25.8663C44.8164 25.0056 44.8164 24.1676 44.8164 23.2617C46.4016 23.2617 47.9415 23.2617 49.5267 23.2617Z" fill="#DC3545"/>
<path d="M49.5267 32.1397C47.9415 32.1397 46.4016 32.1397 44.8164 32.1397C44.8164 31.2564 44.8164 30.4184 44.8164 29.5352C46.3563 29.5352 47.9189 29.5352 49.5267 29.5352C49.5267 30.3731 49.5267 31.2111 49.5267 32.1397Z" fill="#DC3545"/>
<path d="M44.8438 35.7422C46.4289 35.7422 47.9462 35.7422 49.5314 35.7422C49.5314 36.6255 49.5314 37.4408 49.5314 38.3467C47.9915 38.3467 46.4516 38.3467 44.8438 38.3467C44.8438 37.4861 44.8438 36.6028 44.8438 35.7422Z" fill="#DC3545"/>
<path d="M49.5314 44.5733C47.9462 44.5733 46.4289 44.5733 44.8438 44.5733C44.8438 43.69 44.8438 42.852 44.8438 41.9688C46.4063 41.9688 47.9462 41.9688 49.5314 41.9688C49.5314 42.7841 49.5314 43.6221 49.5314 44.5733Z" fill="#DC3545"/>
<path d="M49.554 48.1719C49.554 49.0778 49.554 49.9158 49.554 50.7991C47.9689 50.7991 46.4289 50.7991 44.8438 50.7991C44.8438 49.9384 44.8438 49.0778 44.8438 48.1719C46.3837 48.1719 47.9236 48.1719 49.554 48.1719Z" fill="#DC3545"/>
<path d="M44.8164 57.0264C44.8164 56.1431 44.8164 55.3052 44.8164 54.4219C46.379 54.4219 47.9189 54.4219 49.5267 54.4219C49.5267 55.2825 49.5267 56.1431 49.5267 57.0264C47.9415 57.0264 46.4016 57.0264 44.8164 57.0264Z" fill="#DC3545"/>
<path d="M16.0603 23.3047C16.0603 24.188 16.0603 25.0033 16.0603 25.8866C14.4751 25.8866 12.9352 25.8866 11.3047 25.8866C11.3047 25.0486 11.3047 24.2106 11.3047 23.3047C12.8899 23.3047 14.4298 23.3047 16.0603 23.3047Z" fill="#DC3545"/>
<path d="M11.3242 29.4922C12.9321 29.4922 14.4493 29.4922 16.0345 29.4922C16.0345 30.3755 16.0345 31.2134 16.0345 32.142C14.4946 32.142 12.9547 32.142 11.3242 32.142C11.3242 31.2587 11.3242 30.4208 11.3242 29.4922Z" fill="#DC3545"/>
<path d="M16.0573 35.7617C16.0573 36.645 16.0573 37.483 16.0573 38.4116C14.5854 38.4116 13.1587 38.4342 11.732 38.3889C11.5735 38.3889 11.3017 38.0492 11.3017 37.868C11.2565 37.1886 11.2791 36.5091 11.2791 35.7617C12.8643 35.7617 14.4268 35.7617 16.0573 35.7617Z" fill="#DC3545"/>
<path d="M16.0603 41.9922C16.0603 42.8302 16.0603 43.6682 16.0603 44.5514C14.4751 44.5514 12.9125 44.5514 11.3047 44.5514C11.3047 43.6908 11.3047 42.8981 11.3047 41.9922C12.8672 41.9922 14.4071 41.9922 16.0603 41.9922Z" fill="#DC3545"/>
<path d="M11.3047 50.8038C11.3047 49.8525 11.3047 49.0372 11.3047 48.1992C12.8899 48.1992 14.4298 48.1992 16.0376 48.1992C16.0376 49.0599 16.0376 49.9205 16.0376 50.8038C14.4524 50.8038 12.8899 50.8038 11.3047 50.8038Z" fill="#DC3545"/>
<path d="M11.3047 57.0264C11.3047 56.1658 11.3047 55.3278 11.3047 54.4219C12.8899 54.4219 14.4298 54.4219 16.0376 54.4219C16.0376 55.2825 16.0376 56.1205 16.0376 57.0264C14.4977 57.0264 12.9352 57.0264 11.3047 57.0264Z" fill="#DC3545"/>
</svg>
