<svg width="184" height="45" viewBox="0 0 184 45" fill="none" xmlns="http://www.w3.org/2000/svg">
<g clip-path="url(#clip0_710_399)">
<path d="M63.256 33V16.2H71.128C73.144 16.2 74.68 16.6 75.736 17.4C76.792 18.184 77.32 19.24 77.32 20.568C77.32 21.464 77.112 22.232 76.696 22.872C76.28 23.496 75.72 23.984 75.016 24.336C74.328 24.672 73.576 24.84 72.76 24.84L73.192 23.976C74.136 23.976 74.984 24.152 75.736 24.504C76.488 24.84 77.08 25.336 77.512 25.992C77.96 26.648 78.184 27.464 78.184 28.44C78.184 29.88 77.632 31 76.528 31.8C75.424 32.6 73.784 33 71.608 33H63.256ZM66.376 30.552H71.416C72.584 30.552 73.48 30.36 74.104 29.976C74.728 29.592 75.04 28.976 75.04 28.128C75.04 27.296 74.728 26.688 74.104 26.304C73.48 25.904 72.584 25.704 71.416 25.704H66.136V23.28H70.792C71.88 23.28 72.712 23.088 73.288 22.704C73.88 22.32 74.176 21.744 74.176 20.976C74.176 20.192 73.88 19.608 73.288 19.224C72.712 18.84 71.88 18.648 70.792 18.648H66.376V30.552ZM89.1218 33V30.408L88.9538 29.856V25.32C88.9538 24.44 88.6898 23.76 88.1618 23.28C87.6338 22.784 86.8338 22.536 85.7618 22.536C85.0418 22.536 84.3298 22.648 83.6258 22.872C82.9378 23.096 82.3538 23.408 81.8738 23.808L80.6978 21.624C81.3858 21.096 82.2018 20.704 83.1458 20.448C84.1058 20.176 85.0978 20.04 86.1218 20.04C87.9778 20.04 89.4098 20.488 90.4178 21.384C91.4418 22.264 91.9538 23.632 91.9538 25.488V33H89.1218ZM85.0898 33.168C84.1298 33.168 83.2898 33.008 82.5698 32.688C81.8498 32.352 81.2898 31.896 80.8898 31.32C80.5058 30.728 80.3138 30.064 80.3138 29.328C80.3138 28.608 80.4818 27.96 80.8178 27.384C81.1698 26.808 81.7378 26.352 82.5218 26.016C83.3058 25.68 84.3458 25.512 85.6418 25.512H89.3618V27.504H85.8578C84.8338 27.504 84.1458 27.672 83.7938 28.008C83.4418 28.328 83.2658 28.728 83.2658 29.208C83.2658 29.752 83.4818 30.184 83.9138 30.504C84.3458 30.824 84.9458 30.984 85.7138 30.984C86.4498 30.984 87.1058 30.816 87.6818 30.48C88.2738 30.144 88.6978 29.648 88.9538 28.992L89.4578 30.792C89.1698 31.544 88.6498 32.128 87.8978 32.544C87.1618 32.96 86.2258 33.168 85.0898 33.168ZM103.076 20.04C104.1 20.04 105.012 20.24 105.812 20.64C106.628 21.04 107.268 21.656 107.732 22.488C108.196 23.304 108.428 24.36 108.428 25.656V33H105.428V26.04C105.428 24.904 105.156 24.056 104.612 23.496C104.084 22.936 103.34 22.656 102.38 22.656C101.676 22.656 101.052 22.8 100.508 23.088C99.9639 23.376 99.5399 23.808 99.2359 24.384C98.9479 24.944 98.8039 25.656 98.8039 26.52V33H95.8039V20.184H98.6599V23.64L98.1559 22.584C98.6039 21.768 99.2519 21.144 100.1 20.712C100.964 20.264 101.956 20.04 103.076 20.04ZM118.017 33.168C116.705 33.168 115.537 32.888 114.513 32.328C113.489 31.752 112.681 30.968 112.089 29.976C111.497 28.984 111.201 27.856 111.201 26.592C111.201 25.312 111.497 24.184 112.089 23.208C112.681 22.216 113.489 21.44 114.513 20.88C115.537 20.32 116.705 20.04 118.017 20.04C119.345 20.04 120.521 20.32 121.545 20.88C122.585 21.44 123.393 22.208 123.969 23.184C124.561 24.16 124.857 25.296 124.857 26.592C124.857 27.856 124.561 28.984 123.969 29.976C123.393 30.968 122.585 31.752 121.545 32.328C120.521 32.888 119.345 33.168 118.017 33.168ZM118.017 30.6C118.753 30.6 119.409 30.44 119.985 30.12C120.561 29.8 121.009 29.336 121.329 28.728C121.665 28.12 121.833 27.408 121.833 26.592C121.833 25.76 121.665 25.048 121.329 24.456C121.009 23.848 120.561 23.384 119.985 23.064C119.409 22.744 118.761 22.584 118.041 22.584C117.305 22.584 116.649 22.744 116.073 23.064C115.513 23.384 115.065 23.848 114.729 24.456C114.393 25.048 114.225 25.76 114.225 26.592C114.225 27.408 114.393 28.12 114.729 28.728C115.065 29.336 115.513 29.8 116.073 30.12C116.649 30.44 117.297 30.6 118.017 30.6Z" fill="black"/>
<path d="M134.647 33V16.2H137.767V30.36H146.551V33H134.647ZM148.726 33V20.184H151.726V33H148.726ZM150.238 18.072C149.678 18.072 149.214 17.896 148.846 17.544C148.494 17.192 148.318 16.768 148.318 16.272C148.318 15.76 148.494 15.336 148.846 15C149.214 14.648 149.678 14.472 150.238 14.472C150.798 14.472 151.254 14.64 151.606 14.976C151.974 15.296 152.158 15.704 152.158 16.2C152.158 16.728 151.982 17.176 151.63 17.544C151.278 17.896 150.814 18.072 150.238 18.072ZM159.071 33L153.575 20.184H156.695L161.423 31.488H159.887L164.783 20.184H167.663L162.167 33H159.071ZM175.211 33.168C173.787 33.168 172.539 32.888 171.467 32.328C170.411 31.752 169.587 30.968 168.995 29.976C168.419 28.984 168.131 27.856 168.131 26.592C168.131 25.312 168.411 24.184 168.971 23.208C169.547 22.216 170.331 21.44 171.323 20.88C172.331 20.32 173.475 20.04 174.755 20.04C176.003 20.04 177.115 20.312 178.091 20.856C179.067 21.4 179.835 22.168 180.395 23.16C180.955 24.152 181.235 25.32 181.235 26.664C181.235 26.792 181.227 26.936 181.211 27.096C181.211 27.256 181.203 27.408 181.187 27.552H170.507V25.56H179.603L178.427 26.184C178.443 25.448 178.291 24.8 177.971 24.24C177.651 23.68 177.211 23.24 176.651 22.92C176.107 22.6 175.475 22.44 174.755 22.44C174.019 22.44 173.371 22.6 172.811 22.92C172.267 23.24 171.835 23.688 171.515 24.264C171.211 24.824 171.059 25.488 171.059 26.256V26.736C171.059 27.504 171.235 28.184 171.587 28.776C171.939 29.368 172.435 29.824 173.075 30.144C173.715 30.464 174.451 30.624 175.283 30.624C176.003 30.624 176.651 30.512 177.227 30.288C177.803 30.064 178.315 29.712 178.763 29.232L180.371 31.08C179.795 31.752 179.067 32.272 178.187 32.64C177.323 32.992 176.331 33.168 175.211 33.168Z" fill="#ED2D21"/>
<path d="M17.0849 9.02001L16.926 9.35503C16.8615 9.46827 16.8014 9.59096 16.7456 9.71364C16.5265 9.63342 15.1951 9.19459 14.7485 9.96845C14.7485 9.96845 14.4049 10.5488 14.9503 11.6624C14.9503 11.6624 14.9546 11.8653 14.6368 12.0635C14.319 12.2617 14.5166 13.3564 15.9167 13.38L15.9038 14.5077V14.5691C15.2853 14.4181 13.8294 12.172 13.8294 12.172C13.0907 10.5771 13.4557 9.00585 13.5631 8.61892C13.5803 8.55758 13.5932 8.52455 13.5932 8.52455C15.1135 8.06213 16.9388 8.91148 16.9388 8.91148L17.0849 9.02001Z" fill="#FCB5D1"/>
<path d="M40.1138 5.88959C40.1138 5.89902 40.1138 5.90846 40.1138 5.9179C40.1138 5.92262 40.1138 5.92734 40.1138 5.93205C40.1009 6.05002 40.0107 6.91824 39.7831 7.8714C39.7316 8.08374 39.6757 8.30079 39.607 8.51313C39.607 8.51785 39.607 8.51785 39.607 8.51785C39.5039 8.85759 39.3794 9.18317 39.2377 9.48044C39.2377 9.48044 38.7223 8.8859 38.3873 8.26304C38.2799 8.03183 38.2069 7.85724 38.2069 7.85724C39.3279 7.17777 39.2935 6.54547 39.2677 6.05002C39.242 5.55457 38.4088 5.62063 38.4088 5.62063C38.4088 5.62063 38.4302 4.27582 37.7302 3.65769C37.0301 3.03955 35.5184 4.59669 35.5184 4.59669L35.3681 4.49288C35.1404 4.31357 34.9257 4.16258 34.7324 4.05405C34.7496 3.99743 35.2779 2.29401 37.8419 2.10998C37.8462 2.10998 37.8462 2.10998 37.8504 2.10998C38.1769 2.08639 38.5376 2.08639 38.937 2.12414C38.9671 2.16661 39.4138 2.76587 39.753 3.66241C39.753 3.66712 39.7573 3.67656 39.7573 3.68128C39.8991 4.05405 40.015 4.47401 40.0795 4.92699V4.93171V4.93643C40.1181 5.24314 40.1353 5.55928 40.1138 5.88959Z" fill="#FCB5D1"/>
<path d="M49.8458 29.4428C47.3763 28.5227 46.6462 27.2864 46.6462 27.2864C46.6462 27.2864 47.6598 26.3663 47.6383 25.5877C47.6383 25.5877 46.1609 25.8755 45.6326 25.7434C45.4351 25.6915 44.9154 25.4697 44.3012 25.1489C43.2877 24.6204 42.0035 23.8324 41.4194 23.1199L41.7931 20.4775C41.7931 20.4775 42.9355 18.4768 42.8582 16.8583C42.8582 16.8583 42.8496 16.6365 42.9484 16.4525C42.9741 16.4006 43.0128 16.3487 43.0643 16.3109C43.0643 16.3109 42.0035 15.9382 42.3084 15.8344C42.6177 15.7305 42.9054 15.7541 42.9741 15.5088L42.4244 14.7821L42.1839 13.9847C42.1839 13.9847 41.9863 13.1023 41.806 12.8003C41.6256 12.503 40.35 11.3234 39.8432 10.7666C39.3364 10.2098 39.1732 9.80398 39.1732 9.80398L39.0229 9.54446C38.8683 9.36987 38.2026 7.85991 38.2026 7.85991C39.3278 7.18044 39.2892 6.54814 39.2634 6.05269C39.2377 5.55724 38.4045 5.6233 38.4045 5.6233C38.4045 5.6233 38.4259 4.27849 37.7259 3.66036C37.0258 3.04222 35.5141 4.59936 35.5141 4.59936L34.7281 4.05672C35.8319 1.67382 38.9327 2.12209 38.9327 2.12209C38.9327 2.12209 39.7273 2.98088 40.0794 4.92494C40.3887 6.64251 39.4095 9.03013 39.2377 9.48311C39.4567 8.93104 40.0064 7.79857 40.131 5.69879C40.2598 3.47161 39.2205 1.71157 39.2205 1.71157C39.2205 1.71157 35.8534 0.0600616 32.0353 2.66473L31.7862 2.73551C31.7862 2.73551 25.082 1.16422 20.6669 4.61351L19.2067 5.91113C19.2067 5.91113 14.942 5.25525 12.9019 8.10528C12.9019 8.10528 12.8289 9.89835 13.4817 11.3989C13.4817 11.3989 13.0823 8.80363 13.6879 8.53467C14.2977 8.26571 16.4151 8.49221 16.9476 9.02541L17.0936 9.03013L16.7887 9.73792C16.7887 9.73792 15.2512 9.13866 14.7616 9.98329C14.7616 9.98329 14.418 10.5637 14.9634 11.6725C14.9634 11.6725 14.9677 11.8754 14.6499 12.0736C14.3321 12.2718 14.5297 13.3665 15.9298 13.3901L15.9169 14.5745L15.9126 14.8057C15.9126 14.8057 15.7794 17.1933 15.1696 17.7784C15.1696 17.7784 15.3757 18.0757 15.6978 18.1323C15.6978 18.1323 15.1911 18.7882 14.8861 19.5432L14.7916 19.831C14.7916 19.831 9.66793 19.6328 7.82976 27.3006C7.82976 27.3006 7.34015 29.4475 7.55059 30.8254C7.55059 30.8254 7.61072 33.8547 8.57705 36.2895C8.57705 36.2895 8.83045 37.0917 8.15187 37.0209C8.15187 37.0209 10.1704 39.7954 11.7294 40.3758C13.2885 40.9562 13.6149 41.0647 13.6149 41.0647C13.6149 41.0647 15.2769 43.1551 18.0084 43.358C18.0084 43.358 17.7465 43.4665 18.0686 43.693C18.3907 43.9148 21.0363 46.0759 23.8537 44.363C23.8537 44.363 25.039 43.4099 24.2402 41.1921C24.2402 41.1921 24.1844 41.1402 24.4292 40.6778C24.558 40.4324 24.5323 40.0738 24.5924 40.3475L24.9746 40.9137L25.1593 41.9424L25.8207 44.0139C25.8207 44.0139 27.7104 45.5852 30.1499 43.9101L30.7726 41.5979L31.0217 41.7065C31.0217 41.7065 31.2321 43.9053 31.3438 44.0375C31.4555 44.1696 33.1176 45.0378 34.7367 44.2828C34.7367 44.2828 35.2349 44.1035 35.4711 43.3674C35.7073 42.636 36.1497 41.3384 36.1497 41.3384C36.1497 41.3384 40.3114 42.0604 43.3048 40.8996C45.0314 40.2295 47.6812 39.5217 51.2245 34.4021C51.2245 34.4021 53.2688 31.1509 53.4535 29.9949C53.4578 29.9713 52.3196 30.3582 49.8458 29.4428Z" fill="white"/>
<g opacity="0.6">
<path opacity="0.6" d="M41.0411 26.4103C41.3976 24.2398 40.6631 21.6445 41.3374 21.1302C42.6731 20.1063 42.1835 16.874 42.1835 16.874C42.3768 16.8551 42.6645 16.4682 43.0639 16.3125C42.9652 16.4965 42.9222 17.1996 42.9222 17.1996C42.9995 18.8181 41.9129 20.5309 41.9129 20.5309L41.4319 23.3055C41.3331 23.9236 41.5006 25.6553 41.5006 25.6553C41.5006 25.6553 41.7669 26.3962 41.9301 27.019C42.0933 27.6419 41.7068 28.0618 41.7068 28.0618C41.7068 28.0618 41.8313 28.8215 41.9602 29.8219C42.089 30.8222 41.389 32.3274 41.389 32.3274C40.2766 33.3938 40.8178 34.4508 40.8178 34.4508C40.5429 34.6726 40.4828 35.3993 40.4828 35.3993C40.4956 36.1542 40.0017 36.9186 39.4993 37.4094C38.9968 37.9001 39.2244 38.6551 38.6489 39.6837C38.2237 40.4434 38.0347 40.4434 38.0347 40.4434L37.077 40.4529C36.5917 41.4013 35.9346 41.406 35.9346 41.406C36.7205 41.1371 37.339 39.8347 37.4936 38.9901C37.5451 38.6881 37.82 38.438 38.0991 38.4663C39.0955 38.556 38.8722 36.7677 39.8987 35.5974C40.6417 34.7528 40.1134 33.559 39.787 32.9597C39.6882 32.7757 39.7741 32.5351 39.9631 32.4784C40.1821 32.4124 40.5085 32.2944 40.865 31.9405C42.4756 30.3456 41.6123 27.019 40.6932 26.6887C40.646 26.6698 40.6331 26.6085 40.6674 26.5707C40.7276 26.4952 40.8435 26.4103 41.0325 26.4339L41.0411 26.4103Z" fill="#DBD2D2"/>
<path opacity="0.6" d="M17.6308 26.5559C17.1069 26.2681 15.5865 26.9995 14.3281 28.2075C14.3281 28.2075 14.5214 27.5185 16.2522 26.3059C16.4884 26.1407 16.9823 26.0935 17.2658 25.9048C17.2658 25.9048 16.1148 24.9327 16.1062 21.8515C16.1062 21.8515 15.9301 21.1815 16.3553 21.3749C16.3553 21.3749 16.5314 25.3385 18.1934 26.4663C18.1977 26.471 18.3223 26.9334 17.6308 26.5559Z" fill="#DBD2D2"/>
<path opacity="0.6" d="M50.9497 29.9531C50.9497 29.9531 52.3541 30.1607 51.9204 31.4678C51.4866 32.7749 49.6527 36.2902 48.1667 36.7715C48.1667 36.7715 47.6943 36.9791 47.3464 36.998C47.2133 37.0074 47.1359 37.1726 47.2132 37.2953C47.2906 37.418 47.4108 37.5548 47.6041 37.6397C47.6041 37.6397 45.9892 40.1453 42.3859 40.4473C39.3108 40.7021 38.4905 39.9754 38.4905 39.9754C38.4905 39.9754 37.915 40.5841 36.9959 40.4473C36.9959 40.4473 36.721 41.1645 36.21 41.3297C36.21 41.3297 41.7202 42.9529 47.2304 38.9468L49.4551 36.7762L51.1473 34.7048C51.1473 34.7048 53.5137 30.8638 53.4364 30.0097C53.4278 30.0097 51.9762 30.2504 50.9497 29.9531Z" fill="#DBD2D2"/>
</g>
<path d="M15.2801 21.8703C15.5807 21.3984 16.0489 21.2946 16.0575 21.2946C16.1477 21.2757 16.2078 21.1814 16.1906 21.087C16.1734 20.9879 16.0918 20.9218 16.0016 20.9407C15.9759 20.9454 15.3961 21.0634 15.0138 21.6674C14.9623 21.7476 14.9795 21.8608 15.0568 21.9175C15.0868 21.9411 15.1169 21.9505 15.1513 21.9505C15.1985 21.9505 15.25 21.9222 15.2801 21.8703Z" fill="black"/>
<path d="M41.63 16.593C41.5398 16.5883 41.4625 16.6638 41.4582 16.7628C41.4539 16.8619 41.5226 16.9469 41.6128 16.9516C41.6171 16.9516 41.6343 16.9516 41.6643 16.9516C41.8576 16.9516 42.5491 16.9186 43.2148 16.4703C43.2921 16.4184 43.3178 16.3051 43.2706 16.2202C43.2234 16.1353 43.1203 16.107 43.043 16.1589C42.3687 16.6213 41.6386 16.5883 41.63 16.593Z" fill="black"/>
<path d="M15.0065 27.6824C15.0752 27.6163 15.0795 27.5031 15.0194 27.4276C14.9592 27.3521 14.8562 27.3474 14.7875 27.4134C14.2764 27.923 12.567 29.886 12.0259 33.8968C12.0087 34.0525 11.648 37.6764 12.5198 39.3798C12.5499 39.4364 12.6057 39.4742 12.6615 39.4742C12.6873 39.4742 12.7174 39.4647 12.7431 39.4506C12.8204 39.4034 12.8505 39.2902 12.8075 39.2052C11.9872 37.6009 12.3523 33.977 12.3523 33.944C12.872 30.0606 14.5169 28.1731 15.0065 27.6824Z" fill="black"/>
<path d="M15.9862 26.6503C16.0291 26.6503 16.0721 26.6314 16.1022 26.5984C16.1065 26.5937 16.4157 26.2634 17.0986 26.1831C17.1415 26.1784 17.1802 26.1548 17.2059 26.1171C17.3519 26.3294 17.5109 26.5417 17.6869 26.7588C17.7213 26.7966 17.7643 26.8201 17.8072 26.8201C17.8459 26.8201 17.8845 26.806 17.9189 26.773C17.9876 26.7069 17.9919 26.5937 17.9317 26.5182C15.7242 23.8238 16.3598 21.6202 16.3684 21.5967C16.3985 21.5023 16.3513 21.3985 16.2654 21.3654C16.1795 21.3324 16.085 21.3843 16.0549 21.4787C16.0291 21.5636 15.4837 23.4086 17.0127 25.8292C16.231 25.9331 15.8745 26.3294 15.8617 26.3436C15.7972 26.4143 15.8015 26.5276 15.8659 26.5984C15.9003 26.6361 15.9433 26.6503 15.9862 26.6503Z" fill="black"/>
<path d="M15.5689 27.4124C15.6033 27.4596 15.6505 27.4832 15.6978 27.4832C15.7321 27.4832 15.7665 27.469 15.7965 27.4454C15.8696 27.3841 15.8824 27.2708 15.8266 27.1906C15.5088 26.7423 14.9333 26.7188 14.9118 26.7188C14.8173 26.7188 14.7443 26.7942 14.7443 26.8933C14.74 26.9924 14.813 27.0774 14.9032 27.0774C14.9075 27.0821 15.3499 27.101 15.5689 27.4124Z" fill="black"/>
<path d="M7.85533 27.667C7.86822 27.6717 7.8811 27.6717 7.89399 27.6717C7.967 27.6717 8.03571 27.6151 8.05289 27.5301C8.16026 27.0158 8.30629 26.5156 8.47808 26.039C9.92113 22.0896 11.7164 20.2871 14.4951 20.0087C14.5853 19.9992 14.654 19.9096 14.6454 19.8105C14.6368 19.7114 14.5595 19.6359 14.465 19.6453C11.5489 19.9379 9.66774 21.8064 8.17315 25.9022C7.99277 26.3929 7.84674 26.912 7.73508 27.4452C7.7136 27.549 7.76944 27.6434 7.85533 27.667Z" fill="black"/>
<path d="M7.66218 29.0711C7.57199 29.0617 7.49469 29.1372 7.4861 29.2363C7.20264 33.2188 8.64569 36.8143 8.66287 36.8474C8.68864 36.9134 8.74877 36.9559 8.81319 36.9559C8.83467 36.9559 8.86043 36.9512 8.88191 36.9417C8.96351 36.8993 9.00216 36.7955 8.96351 36.7011C8.95063 36.6681 7.53764 33.1527 7.8168 29.2646C7.82109 29.1655 7.75238 29.0758 7.66218 29.0711Z" fill="black"/>
<path d="M50.3274 35.4799C50.1513 35.7111 49.971 35.9376 49.7906 36.1546C49.7305 36.2301 49.7348 36.3434 49.7992 36.4094C49.8292 36.4425 49.8722 36.4566 49.9108 36.4566C49.9538 36.4566 50.001 36.4378 50.0311 36.4C50.2158 36.1782 50.3961 35.947 50.5765 35.7111C50.6367 35.6356 50.6238 35.5223 50.5551 35.4563C50.4906 35.3902 50.3876 35.4044 50.3274 35.4799Z" fill="black"/>
<path d="M53.5183 29.9328C53.4367 29.8196 53.3122 29.7582 53.179 29.7771C50.5764 30.1404 48.0639 28.3332 46.8914 27.3187C47.4197 26.9318 47.716 26.2665 47.8578 25.8795C47.9007 25.7616 47.8793 25.6342 47.8062 25.5351C47.7332 25.436 47.6173 25.3888 47.5056 25.4124C46.8528 25.5398 46.4276 25.6059 46.1055 25.6342C43.155 24.7471 41.6861 23.1097 41.6733 23.0908C41.6604 23.072 41.6432 23.0625 41.6217 23.0531C41.7592 21.6705 42.0813 20.5617 42.0899 20.5428C42.1027 20.505 42.0984 20.4673 42.0899 20.4343C42.5365 19.6368 43.0605 18.3864 43.0905 16.8717C43.0905 16.7726 43.0218 16.6877 42.9316 16.6877C42.8414 16.683 42.7641 16.7632 42.7641 16.8623C42.7126 19.3254 41.2352 21.1185 41.2223 21.1326C41.1622 21.2081 41.1665 21.3214 41.2309 21.3874C41.261 21.4205 41.3039 21.4346 41.3426 21.4346C41.3855 21.4346 41.4328 21.4157 41.4628 21.378C41.4714 21.3686 41.5144 21.3166 41.5831 21.227C41.2996 22.5293 40.8959 25.1387 41.7291 26.9601C41.7463 27.0073 41.8536 27.3423 41.7806 27.6301C41.7162 27.3989 41.6647 27.2527 41.6561 27.2291C41.6217 27.1347 41.5272 27.0922 41.4413 27.13C41.3554 27.1677 41.3168 27.2715 41.3512 27.3659C41.364 27.3989 42.4549 30.4802 41.0892 32.4337C41.0076 32.5281 40.4836 33.1603 40.6082 34.005C40.5652 33.6747 40.5094 33.4576 40.5008 33.4293C40.475 33.3349 40.3848 33.2783 40.2989 33.3066C40.213 33.3349 40.1615 33.434 40.1873 33.5284C40.1916 33.552 40.7928 35.9066 39.5087 37.1428L39.1608 37.5675C39.1436 37.5864 38.7399 38.0913 38.6411 39.2002C38.6411 39.2049 38.5552 39.7711 38.1515 40.0778C37.9239 40.2477 37.6361 40.3043 37.2883 40.243C37.6061 39.5541 37.7049 38.884 37.7092 38.8321C37.722 38.733 37.6619 38.6434 37.5717 38.6245C37.4815 38.6103 37.3999 38.6764 37.3828 38.7755C37.3785 38.7944 37.0864 40.795 35.8839 41.3141C35.8237 41.3377 35.7894 41.399 35.7808 41.4604C35.7335 41.4226 35.6734 41.4132 35.6176 41.4368C35.5317 41.4792 35.5188 41.4792 35.5016 41.484C35.4759 41.4887 35.4372 41.4934 35.3556 41.517C35.2697 41.5453 35.2182 41.6444 35.2396 41.7388C35.2611 41.819 35.3255 41.8709 35.3986 41.8709C35.4114 41.8709 35.4286 41.8709 35.4415 41.8662C35.5016 41.8473 35.5274 41.8426 35.5446 41.8426C35.6004 41.8331 35.6348 41.8237 35.7464 41.7718C35.8023 41.7435 35.8366 41.6869 35.8452 41.6255C35.8753 41.6491 35.9053 41.6633 35.944 41.6633C35.9483 41.6633 35.9526 41.6633 35.9569 41.6586C35.6949 42.5362 35.2955 43.6828 35.0378 43.9046C34.5611 44.3198 33.1824 44.6218 31.8425 44.1122C31.6406 44.0367 31.4946 43.8385 31.4645 43.6073L31.2798 41.9747C31.7136 42.154 32.2118 42.2673 32.856 42.2673C33.4187 42.2673 34.0972 42.1823 34.9476 41.9841C35.0378 41.9653 35.0936 41.8662 35.0764 41.7718C35.0593 41.6727 34.9691 41.6114 34.8832 41.6302C32.9849 42.0691 32.0228 41.9417 31.2197 41.5547C31.1854 41.4934 31.1252 41.4557 31.0565 41.4651H31.0522C31.0479 41.4604 31.0436 41.4604 31.0393 41.4556C31.3056 40.1014 31.5246 38.6811 31.5719 38.3744C32.186 37.5722 32.186 36.7984 32.186 36.7606C32.186 36.6615 32.113 36.5813 32.0228 36.5813C32.0228 36.5813 32.0228 36.5813 32.0185 36.5813C31.9284 36.5813 31.8553 36.6663 31.8553 36.7654C31.8553 36.7748 31.8553 37.4496 31.3056 38.1573C31.2927 38.1668 31.2841 38.1809 31.2755 38.1951C31.1467 38.3555 30.9878 38.5207 30.7945 38.6764C29.7681 39.5116 30.1417 40.7384 30.481 41.2716C30.5111 41.3235 30.5626 41.3471 30.6141 41.3471C30.6485 41.3471 30.6786 41.3377 30.7086 41.3141C30.7172 41.3094 30.7215 41.2952 30.7301 41.2905C30.5068 42.4324 30.262 43.4894 30.073 43.8055C29.9184 44.0603 29.3686 44.2868 28.6342 44.3859C27.5906 44.5322 26.5255 44.3953 26.212 44.0792C26.0574 43.9235 25.7352 43.3478 25.2628 41.215C25.572 41.3518 25.9457 41.4226 26.3966 41.4226C26.4009 41.4226 26.4095 41.4226 26.4138 41.4226C26.504 41.4226 26.577 41.3424 26.577 41.2433C26.577 41.1442 26.504 41.064 26.4138 41.064C26.4095 41.064 26.4009 41.064 26.3966 41.064C25.7052 41.064 25.2113 40.8941 24.9321 40.5591C24.8548 40.4695 24.8033 40.3751 24.7689 40.2902C25.3315 38.7802 25.1297 36.9258 24.1633 34.7741C24.1247 34.6845 24.0259 34.6467 23.9443 34.6939C23.8627 34.7364 23.8284 34.8449 23.8713 34.9345C24.6959 36.7701 24.9407 38.3697 24.61 39.6956C24.5885 39.6815 24.5671 39.6767 24.5456 39.672C24.4554 39.6626 24.3738 39.7334 24.3652 39.8325C24.3652 39.8466 24.348 40.0354 24.4167 40.2807C23.6995 42.0266 22.0503 42.6164 22.0331 42.6211C21.9472 42.6495 21.9 42.7533 21.9258 42.8476C21.9472 42.9231 22.0117 42.975 22.0847 42.975C22.1018 42.975 22.119 42.9703 22.1319 42.9656C22.192 42.9467 23.3044 42.5551 24.1462 41.4368L24.2278 41.7388C24.4425 42.5834 24.4124 43.2629 24.1376 43.7583C23.8198 44.3293 23.2657 44.4567 23.2528 44.4567C20.676 45.1503 18.885 44.1783 18.0862 43.5885C18.5758 43.6404 19.0998 43.6404 19.6667 43.5837C19.8857 43.6215 20.4226 43.7583 20.5987 44.0084L20.6459 44.0792H20.7275C20.7619 44.0792 21.0281 44.0698 21.1956 43.8291C21.3288 43.6356 21.346 43.362 21.2472 43.0175C21.2214 42.9231 21.1269 42.8665 21.041 42.8995C20.9551 42.9279 20.9036 43.0317 20.9337 43.126C20.9981 43.3525 20.9981 43.5224 20.9337 43.6168C20.895 43.6734 20.8392 43.7017 20.7919 43.7111C20.4612 43.3573 19.7741 43.2393 19.6925 43.2251L19.671 43.2204H19.6495C15.2044 43.7017 13.3361 40.2099 13.319 40.1722C13.276 40.0873 13.1729 40.0542 13.0956 40.1061C13.0183 40.1533 12.9883 40.2666 13.0355 40.3515C13.0398 40.3609 13.1214 40.5072 13.2803 40.7384C12.052 40.3704 10.5102 39.6437 9.42788 38.2281C7.80015 36.0953 7.46086 36.1048 7.3449 36.1048C7.28047 36.1048 7.22035 36.1331 7.18599 36.185C7.13016 36.2652 7.14304 36.3784 7.21605 36.4398C7.259 36.4775 7.31483 36.487 7.36208 36.4728C7.44797 36.5058 7.86027 36.737 9.17878 38.4641C10.4372 40.1108 12.2753 40.8611 13.5938 41.2008C13.6067 41.2056 13.6196 41.2056 13.6325 41.2056H13.6368C14.2982 41.9983 15.5308 43.1024 17.4248 43.4894C17.6825 43.7536 19.0912 45.0701 21.4662 45.0701C22.0288 45.0701 22.6473 44.9946 23.3216 44.8153C23.3516 44.8106 24.0173 44.6643 24.4124 43.9565C24.7431 43.3714 24.7861 42.5976 24.5413 41.6444L24.391 41.0829C24.464 40.9602 24.537 40.8328 24.6014 40.696C24.6272 40.7337 24.653 40.7715 24.683 40.8092C24.7431 40.88 24.8076 40.9413 24.8806 41.0027C24.8806 41.0168 24.8806 41.0357 24.8849 41.0499C25.2843 42.9137 25.6579 44.032 25.9929 44.3623C26.315 44.6832 27.0452 44.82 27.801 44.82C28.0974 44.82 28.398 44.8011 28.6772 44.7587C29.1797 44.6879 30.0601 44.4992 30.3479 44.0179C30.5325 43.7111 30.743 42.8712 30.9405 41.9322L31.1381 43.6592C31.1854 44.032 31.4173 44.3387 31.7351 44.4567C32.2633 44.6549 32.8088 44.7445 33.3199 44.7445C34.1402 44.7445 34.8617 44.5227 35.2396 44.1924C35.6734 43.8197 36.2103 41.9889 36.352 41.4887C37.3312 41.6727 38.2933 41.7671 39.2295 41.7671C43.1979 41.7671 46.7454 40.1156 49.6101 36.9022C49.6745 36.8314 49.6745 36.7182 49.6058 36.6474C49.5413 36.5766 49.4383 36.5766 49.3738 36.6521C45.9208 40.5214 41.6475 42.0455 36.6698 41.182C36.8459 41.0027 36.9919 40.795 37.1122 40.578C37.2625 40.611 37.4042 40.6299 37.5417 40.6299C37.8423 40.6299 38.1043 40.545 38.3319 40.3751C38.8516 39.9834 38.9546 39.2851 38.9589 39.2473C39.0491 38.2612 39.3927 37.8176 39.397 37.8129L39.7234 37.4118C40.7499 36.4162 40.7112 34.8496 40.5996 34.0097C40.6296 34.2126 40.6983 34.4297 40.8186 34.6514C40.8487 34.708 40.9045 34.7411 40.9603 34.7411C40.9904 34.7411 41.0162 34.7316 41.0419 34.7175C41.1192 34.6656 41.145 34.5571 41.0978 34.4721C40.5738 33.5001 41.2867 32.7215 41.3168 32.6885L41.334 32.6696C42.3604 31.2116 42.1414 29.2486 41.8923 28.1256C42.3175 27.6443 42.0383 26.8657 42.0254 26.8327L42.0211 26.8185C41.5788 25.8559 41.5144 24.6244 41.5874 23.5108C41.961 23.8836 43.0347 24.8367 44.86 25.5823C44.8385 25.6059 44.8256 25.6342 44.8171 25.6672C44.7956 25.7663 44.8514 25.8607 44.9416 25.8843C45.3453 25.9881 45.6159 26.0447 46.0883 26.0069C46.0883 26.0069 46.0883 26.0069 46.0926 26.0069C46.4319 25.9833 46.8743 25.9126 47.5486 25.7757C47.4154 26.1485 47.1234 26.7808 46.6252 27.0922C46.3632 26.8516 46.2129 26.6959 46.2043 26.6864C46.1399 26.6156 46.0368 26.6204 45.9724 26.6911C45.9079 26.7619 45.9122 26.8752 45.9767 26.9459C46.1184 27.0969 49.507 30.6689 53.2263 30.1452C53.2435 30.1452 53.2563 30.1499 53.2606 30.1593C53.2692 30.1688 53.2692 30.1829 53.2649 30.1971C52.9987 30.9049 52.2299 32.7734 50.8513 34.7694C50.7954 34.8496 50.8126 34.9629 50.8813 35.0242C50.9114 35.0478 50.9457 35.0619 50.9801 35.0619C51.0316 35.0619 51.0789 35.0383 51.1132 34.9912C52.5133 32.9622 53.295 31.0606 53.5699 30.3386C53.6171 30.1923 53.5999 30.0461 53.5183 29.9328ZM30.7473 41.0734C30.7129 41.0215 29.9656 39.8089 30.9878 38.9784C31.0479 38.9265 31.108 38.8746 31.1639 38.8274C31.0608 39.4597 30.9191 40.3043 30.7645 41.1159C30.7559 41.1018 30.7516 41.0876 30.7473 41.0734Z" fill="black"/>
<path d="M7.83821 28.8883C7.85539 28.9732 7.92411 29.0345 7.99712 29.0345C8.00571 29.0345 8.01859 29.0345 8.03148 29.0298C8.12167 29.0109 8.1775 28.9166 8.16032 28.8175C7.99712 27.9162 7.42591 27.7322 7.15104 27.7605C7.06085 27.7699 6.99214 27.8549 7.00073 27.9587C7.00932 28.0578 7.08662 28.1333 7.18111 28.1238C7.19829 28.1144 7.69219 28.0767 7.83821 28.8883Z" fill="black"/>
<path d="M13.6838 12.2584C13.6924 12.2772 13.701 12.2914 13.7138 12.3055C14.1261 13.0794 14.7145 13.8721 15.5606 14.6035C15.5907 14.6318 15.625 14.6413 15.6637 14.6413C15.6937 14.6413 15.7195 14.6318 15.7453 14.6177C15.6894 15.5944 15.5177 17.1421 15.1139 17.6564C15.028 17.7697 15.0366 17.9396 15.1354 18.0386C15.1998 18.1047 15.3287 18.2085 15.4962 18.2699C15.2041 18.5813 14.8734 19.0673 14.6931 19.8034L14.6888 19.8176C14.6888 19.8176 14.6501 20.0488 14.5384 20.2139C14.4869 20.2894 14.4697 20.3885 14.4912 20.4829C14.5127 20.5773 14.5728 20.648 14.6544 20.6858C14.8863 20.7896 15.1784 20.8887 15.4361 20.8887C15.5864 20.8887 15.7281 20.8557 15.8441 20.7707C15.9171 20.7141 15.9385 20.6008 15.887 20.5206C15.8355 20.4404 15.7324 20.4168 15.6594 20.4734C15.5262 20.5725 15.2127 20.5395 14.8391 20.3791C14.9593 20.1762 15.0066 19.945 15.0152 19.8978C15.2514 18.9352 15.7625 18.4539 16.0416 18.2557C16.0459 18.251 16.0545 18.2463 16.0588 18.2415C16.1533 18.1755 16.222 18.1425 16.2306 18.1377C16.3122 18.1 16.3551 17.9915 16.3165 17.9018C16.2821 17.8122 16.1834 17.765 16.1017 17.8027C16.0889 17.8074 16.0116 17.8452 15.8913 17.9254C15.6894 17.9962 15.5177 17.9065 15.4146 17.8216C16.0373 16.8873 16.0975 14.1835 16.0975 14.0656C16.0975 13.9665 16.0287 13.8816 15.9385 13.8816C15.8484 13.8816 15.771 13.9571 15.771 14.0561C15.771 14.1316 15.7668 14.2166 15.7625 14.3109C14.9164 13.5796 14.3409 12.7868 13.9501 12.0177C13.2801 10.5078 13.6279 9.01668 13.7267 8.66278C15.2299 8.12014 16.6429 8.76187 16.9521 8.91759C16.8533 9.12049 16.7589 9.32811 16.673 9.53572C16.6687 9.53101 16.6644 9.531 16.6558 9.52629C16.5914 9.50269 15.1096 8.97421 14.5814 9.95568C14.4568 10.1822 14.4483 10.5219 14.5513 10.9607C14.5685 11.041 14.6372 11.0976 14.7102 11.0976C14.7231 11.0976 14.736 11.0976 14.7489 11.0929C14.8348 11.0693 14.8906 10.9702 14.8691 10.8711C14.7918 10.5408 14.7918 10.2813 14.8648 10.1397C15.2385 9.44607 16.4067 9.81884 16.5398 9.86131C16.3551 10.3473 16.2005 10.8381 16.0846 11.3382C16.0631 11.4326 16.1146 11.5317 16.2048 11.56C16.2177 11.5647 16.2306 11.5647 16.2478 11.5647C16.3208 11.5647 16.3895 11.5081 16.4067 11.4279C16.6429 10.4087 17.0337 9.41776 17.5663 8.47404C17.6135 8.3891 17.592 8.27586 17.5147 8.22395C17.4374 8.17205 17.3344 8.19564 17.2871 8.28057C17.227 8.38438 17.1712 8.48819 17.1153 8.59672C16.8061 8.43157 15.2428 7.68603 13.5463 8.34663L13.4733 8.37495L13.4476 8.45516C13.4347 8.49763 13.2586 9.01668 13.2242 9.77637C13.0911 8.93174 13.1383 8.3136 13.1555 8.14845C14.6544 6.01564 17.6006 5.91655 18.9492 5.99677C18.9449 6.00149 18.9406 6.00621 18.9363 6.01093C18.8719 6.0817 18.8719 6.19495 18.9363 6.26573C18.9664 6.30348 19.0093 6.31764 19.0523 6.31764C19.0952 6.31764 19.1339 6.29876 19.1682 6.26573C19.6235 5.77028 19.9456 5.51075 19.9499 5.50603L19.9714 5.48716C19.9928 5.46357 22.3636 2.90137 27.2296 2.53803C28.9303 2.41063 30.747 2.59938 32.2116 3.05236C32.2975 3.08067 32.3876 3.02405 32.4134 2.92968C32.4349 2.84474 32.3962 2.75509 32.3275 2.71734C33.0147 2.23132 35.8493 0.461847 39.1348 1.88215C39.1863 1.97652 39.3023 2.21717 39.4354 2.57578C39.2379 2.22661 39.079 2.01899 39.0618 1.99067L39.0188 1.93405L38.9501 1.92933C36.0941 1.67453 34.9602 3.26942 34.6596 3.80734C34.6124 3.77903 34.5608 3.746 34.5136 3.71768C34.432 3.6705 34.3332 3.70353 34.2902 3.79318C34.2473 3.88284 34.2774 3.99136 34.359 4.03855C35.4241 4.66612 36.2315 5.35032 36.7641 6.07699C36.7984 6.11945 36.8457 6.14305 36.8929 6.14305C36.9273 6.14305 36.9659 6.12889 36.996 6.1053C37.0647 6.04396 37.0776 5.93071 37.0217 5.85049C36.7039 5.41166 36.2873 4.99171 35.7891 4.59063C36.0425 4.34054 37.0432 3.42041 37.769 3.87812C37.9709 4.00552 38.1212 4.38773 38.1985 4.95868C38.2114 5.04833 38.2801 5.11439 38.3617 5.11439C38.3703 5.11439 38.3789 5.11439 38.3875 5.11439C38.4777 5.10024 38.5378 5.00586 38.5249 4.91149C38.4304 4.21314 38.2329 3.76015 37.9365 3.57141C36.9358 2.93911 35.6775 4.21314 35.5186 4.38301C35.3425 4.25089 35.1535 4.11877 34.9559 3.99136C35.2179 3.5195 36.2444 2.08033 38.8556 2.29738C39.0575 2.58994 39.9379 3.93474 39.968 5.52019C39.968 5.55322 39.968 5.58625 39.968 5.624C39.968 5.71837 39.9637 5.81274 39.9594 5.90712C39.9594 5.92127 39.9594 5.93543 39.9594 5.94958C39.9207 6.93577 39.706 8.04464 39.1906 9.21958L39.1219 9.36113C38.7869 8.7949 38.555 8.27586 38.4218 7.93612C39.5428 7.21889 39.5385 6.42144 39.4311 6.00149C39.3882 5.83162 39.2894 5.6995 39.152 5.61928C38.7654 5.39279 38.147 5.59569 38.0783 5.624C37.9924 5.65231 37.9451 5.75612 37.9709 5.85049C37.9967 5.94487 38.0911 5.99677 38.177 5.96846C38.3274 5.91655 38.7697 5.80803 38.9931 5.94015C39.0575 5.9779 39.0918 6.0298 39.1133 6.1053C39.2808 6.7659 38.7955 7.27079 38.293 7.6011C38.2758 7.55391 38.2672 7.53032 38.2672 7.5256C38.2372 7.43123 38.1427 7.37932 38.0568 7.41235C37.9709 7.44538 37.9237 7.54447 37.9537 7.63884C37.9838 7.73322 38.6838 9.9604 40.3674 11.4609C40.4361 11.5223 40.5048 11.5789 40.5692 11.6402C41.1319 12.1357 41.6601 12.5981 41.9135 13.2964C41.9307 13.3484 41.9479 13.4003 41.9651 13.4474C41.4067 12.8246 40.6423 12.6453 40.5993 12.6358C40.5091 12.617 40.4232 12.6783 40.406 12.7774C40.3889 12.8765 40.4447 12.9709 40.5349 12.9897C40.5478 12.9945 41.7374 13.2729 42.1068 14.3345C42.3001 14.8961 42.6093 15.316 42.7725 15.5142C42.7811 15.5283 42.7811 15.5378 42.7811 15.5472C42.7811 15.5567 42.7768 15.5661 42.7639 15.5755C42.6351 15.6558 42.4718 15.6793 42.2872 15.6558C42.197 15.6416 42.1154 15.7124 42.1025 15.8115C42.0896 15.9106 42.154 16.0002 42.2442 16.0144C42.3043 16.0238 42.3602 16.0285 42.416 16.0285C42.6007 16.0285 42.7768 15.9813 42.9228 15.8964C43.0216 15.8351 43.0903 15.7312 43.1075 15.6086C43.1247 15.4859 43.0946 15.3632 43.0173 15.2735C42.8713 15.099 42.6007 14.7309 42.4246 14.2402C42.4289 13.9193 42.3602 13.5607 42.2185 13.169C41.935 12.3858 41.3423 11.8667 40.7711 11.3665C40.7024 11.3052 40.638 11.2486 40.5692 11.1872C40.0668 10.739 39.6502 10.2152 39.3195 9.70559L39.4698 9.38473C40.0281 8.11542 40.2428 6.9169 40.2772 5.86465C40.2858 5.70894 40.2858 5.55322 40.2815 5.39751C40.2815 5.38807 40.2815 5.37863 40.2815 5.37391C40.2815 5.3692 40.2815 5.36448 40.2815 5.35976C40.2257 3.15617 39.3925 1.68397 39.3796 1.66037L39.3495 1.61319L39.3023 1.58959C35.5572 -0.0666365 32.3533 2.26435 32.0011 2.53331C31.971 2.55691 31.9539 2.58994 31.941 2.62297C30.5065 2.23132 28.8015 2.08033 27.1952 2.19829C22.312 2.55219 19.9284 5.02946 19.7394 5.23707C19.6922 5.27482 19.5032 5.43526 19.2241 5.71837C19.1983 5.68534 19.1597 5.66175 19.1124 5.66175C17.781 5.56266 14.5041 5.59097 12.8592 7.9833L12.8334 8.02105L12.8248 8.06352C12.8205 8.09183 12.5585 10.0406 13.6408 12.1781C13.658 12.2017 13.6709 12.23 13.6838 12.2584Z" fill="black"/>
<path d="M26.8301 40.8376C26.7957 40.7432 26.7012 40.7007 26.6153 40.7338C26.5294 40.7715 26.4908 40.8753 26.5208 40.9697C26.5251 40.9791 26.8387 41.819 27.8522 41.819C28.0283 41.819 28.2259 41.7954 28.4449 41.7341C29.4499 41.4604 30.1843 41.7011 30.1972 41.7058C30.2831 41.7341 30.3776 41.6822 30.4033 41.5878C30.4291 41.4935 30.3819 41.3896 30.296 41.3613C30.2616 41.3519 29.4714 41.0876 28.3676 41.3849C27.1694 41.7105 26.843 40.8706 26.8301 40.8376Z" fill="black"/>
<path d="M15.2853 11.9431C15.3755 11.9242 15.4357 11.8345 15.4185 11.7354C15.4013 11.6363 15.3197 11.5703 15.2295 11.5892C15.1737 11.5986 14.6583 11.7071 14.4478 12.0516C14.3662 12.1837 14.3405 12.3394 14.3705 12.4998C14.4436 12.8868 14.7485 13.5427 15.9253 13.5663H15.9296C16.0197 13.5663 16.0928 13.486 16.0928 13.3869C16.0928 13.2879 16.024 13.2029 15.9296 13.2029C15.4314 13.1935 14.8129 13.0472 14.6926 12.4196C14.6798 12.3583 14.6884 12.3017 14.7227 12.2498C14.8301 12.0705 15.1737 11.9666 15.2853 11.9431Z" fill="black"/>
<path d="M21.8581 19.7225C23.3746 19.2953 24.4439 18.2634 24.2465 17.4177C24.0492 16.572 22.6598 16.2328 21.1433 16.66C19.6268 17.0872 18.5575 18.1192 18.7548 18.9648C18.9522 19.8105 20.3416 20.1498 21.8581 19.7225Z" fill="#FCB5D1"/>
<path opacity="0.0196078" d="M22.3821 22.2973C25.361 21.5765 27.412 19.1765 26.963 16.9369C26.514 14.6973 23.7351 13.4661 20.7562 14.1869C17.7772 14.9078 15.7263 17.3078 16.1753 19.5474C16.6242 21.787 19.4031 23.0182 22.3821 22.2973Z" fill="#FFFEFE"/>
<path opacity="0.0392157" d="M22.3706 22.2304C25.3029 21.5197 27.321 19.1551 26.878 16.9487C26.435 14.7424 23.6988 13.5299 20.7665 14.2406C17.8342 14.9512 15.8161 17.3159 16.2591 19.5222C16.7021 21.7286 19.4383 22.941 22.3706 22.2304Z" fill="#FFFCFD"/>
<path opacity="0.0588235" d="M22.3656 22.1668C25.2516 21.4664 27.2373 19.1389 26.8009 16.9682C26.3645 14.7975 23.6711 13.6056 20.7851 14.306C17.8991 15.0064 15.9134 17.3339 16.3498 19.5046C16.7862 21.6753 19.4796 22.8672 22.3656 22.1668Z" fill="#FFFBFC"/>
<path opacity="0.0784314" d="M22.3521 22.0947C25.1915 21.4046 27.1448 19.1145 26.7149 16.9796C26.2851 14.8448 23.6348 13.6736 20.7955 14.3637C17.9561 15.0538 16.0028 17.3439 16.4326 19.4788C16.8625 21.6136 19.5127 22.7848 22.3521 22.0947Z" fill="#FFF9FB"/>
<path opacity="0.0980392" d="M22.3396 22.0304C25.1324 21.3506 27.0532 19.098 26.63 16.999C26.2067 14.9 23.5996 13.7495 20.8068 14.4293C18.014 15.1091 16.0931 17.3617 16.5164 19.4607C16.9397 21.5598 19.5468 22.7102 22.3396 22.0304Z" fill="#FFF8FA"/>
<path opacity="0.1176" d="M22.3342 21.9724C25.0807 21.3029 26.969 19.0855 26.5518 17.0195C26.1346 14.9536 23.57 13.8215 20.8235 14.491C18.077 15.1604 16.1888 17.3779 16.606 19.4438C17.0231 21.5098 19.5878 22.6418 22.3342 21.9724Z" fill="#FFF6FA"/>
<path opacity="0.1373" d="M22.3209 21.8956C25.0231 21.2359 26.8808 19.0554 26.4703 17.0253C26.0597 14.9952 23.5363 13.8843 20.8342 14.5439C18.132 15.2035 16.2742 17.384 16.6848 19.4141C17.0953 21.4442 19.6187 22.5552 22.3209 21.8956Z" fill="#FFF5F9"/>
<path opacity="0.1569" d="M22.3138 21.8271C24.9694 21.1776 26.7946 19.0343 26.3905 17.0401C25.9864 15.0458 23.506 13.9556 20.8504 14.6052C18.1948 15.2547 16.3696 17.3979 16.7737 19.3922C17.1778 21.3865 19.6581 22.4766 22.3138 21.8271Z" fill="#FFF3F8"/>
<path opacity="0.1765" d="M22.302 21.7632C24.911 21.1241 26.7039 19.0184 26.3064 17.0599C25.909 15.1014 23.4718 14.0319 20.8627 14.671C18.2537 15.31 16.4608 17.4158 16.8583 19.3743C17.2557 21.3327 19.6929 22.4023 22.302 21.7632Z" fill="#FEF2F7"/>
<path opacity="0.1961" d="M22.2951 21.6957C24.8579 21.0668 26.6185 18.9982 26.2276 17.0753C25.8366 15.1524 23.4422 14.1035 20.8795 14.7324C18.3168 15.3613 16.5562 17.4299 16.9471 19.3527C17.338 21.2756 19.7324 22.3246 22.2951 21.6957Z" fill="#FEF0F6"/>
<path opacity="0.2157" d="M22.2847 21.6289C24.8009 21.0102 26.5287 18.9769 26.1438 17.0873C25.7589 15.1977 23.4071 14.1674 20.8909 14.786C18.3747 15.4047 16.647 17.4381 17.0319 19.3277C17.4168 21.2173 19.7686 22.2476 22.2847 21.6289Z" fill="#FEEFF5"/>
<path opacity="0.2353" d="M22.2718 21.5692C24.7414 20.961 26.4369 18.9653 26.0587 17.1114C25.6805 15.2576 23.372 14.2478 20.9023 14.8559C18.4327 15.4641 16.7372 17.4598 17.1154 19.3136C17.4936 21.1675 19.8022 22.1773 22.2718 21.5692Z" fill="#FEEEF4"/>
<path opacity="0.2549" d="M22.2633 21.4934C24.6864 20.8956 26.3494 18.9372 25.9779 17.1191C25.6063 15.3011 23.3408 14.3119 20.9177 14.9098C18.4946 15.5076 16.8315 17.466 17.2031 19.284C17.5747 21.102 19.8402 22.0912 22.2633 21.4934Z" fill="#FEECF3"/>
<path opacity="0.2745" d="M22.2524 21.425C24.6289 20.8373 26.2595 18.9161 25.8944 17.1338C25.5292 15.3516 23.3067 14.3832 20.9301 14.971C18.5535 15.5587 16.923 17.4799 17.2881 19.2622C17.6532 21.0444 19.8758 22.0128 22.2524 21.425Z" fill="#FEEBF2"/>
<path opacity="0.2941" d="M22.2446 21.3665C24.5747 20.7892 26.1725 18.9033 25.8135 17.1543C25.4544 15.4053 23.2745 14.4554 20.9445 15.0328C18.6145 15.6101 17.0166 17.496 17.3756 19.245C17.7347 20.994 19.9146 21.9438 22.2446 21.3665Z" fill="#FEE9F1"/>
<path opacity="0.3137" d="M22.2348 21.2934C24.5206 20.7257 26.0879 18.8766 25.7354 17.1634C25.3829 15.4501 23.2441 14.5215 20.9582 15.0892C18.6724 15.657 17.1051 17.506 17.4576 19.2193C17.8101 20.9325 19.9489 21.8612 22.2348 21.2934Z" fill="#FEE8F1"/>
<path opacity="0.3333" d="M22.2259 21.2298C24.4653 20.6725 26.0003 18.8609 25.6545 17.1834C25.3087 15.506 23.213 14.5978 20.9736 15.1551C18.7343 15.7123 17.1993 17.5239 17.5451 19.2014C17.8909 20.8789 19.9866 21.787 22.2259 21.2298Z" fill="#FEE6F0"/>
<path opacity="0.3529" d="M22.2146 21.1658C24.4075 20.6188 25.9101 18.8445 25.5709 17.2028C25.2316 15.5611 23.179 14.6736 20.9861 15.2206C18.7933 15.7675 17.2906 17.5418 17.6299 19.1836C17.9691 20.8253 20.0218 21.7128 22.2146 21.1658Z" fill="#FEE5EF"/>
<path opacity="0.3725" d="M22.2022 21.0994C24.3486 20.5628 25.8185 18.8238 25.4853 17.2153C25.1521 15.6067 23.1421 14.7378 20.9957 15.2744C18.8493 15.8111 17.3795 17.5501 17.7126 19.1586C18.0458 20.7671 20.0559 21.6361 22.2022 21.0994Z" fill="#FEE3EE"/>
<path opacity="0.3922" d="M22.1958 21.0269C24.2954 20.5004 25.7327 18.7987 25.406 17.2261C25.0794 15.6534 23.1124 14.8054 21.0127 15.3319C18.9131 15.8583 17.4758 17.56 17.8024 19.1327C18.1291 20.7053 20.0961 21.5534 22.1958 21.0269Z" fill="#FEE2ED"/>
<path opacity="0.4118" d="M22.1832 20.9633C24.2364 20.4472 25.6414 18.783 25.3214 17.2461C25.0014 15.7091 23.0775 14.8816 21.0243 15.3976C18.9711 15.9137 17.5661 17.5779 17.8861 19.1148C18.2061 20.6518 20.13 21.4793 22.1832 20.9633Z" fill="#FEE1EC"/>
<path opacity="0.4314" d="M22.1759 20.8955C24.1827 20.3897 25.5554 18.7627 25.2419 17.2615C24.9285 15.7603 23.0476 14.9534 21.0408 15.4592C19.034 15.965 17.6613 17.592 17.9748 19.0931C18.2882 20.5943 20.1691 21.4013 22.1759 20.8955Z" fill="#FEDFEB"/>
<path opacity="0.451" d="M22.1632 20.8312C24.1234 20.3357 25.4636 18.7462 25.1568 17.2809C24.8499 15.8155 23.0122 15.0293 21.0521 15.5248C19.0919 16.0202 17.7517 17.6098 18.0585 19.0751C18.3654 20.5404 20.2031 21.3266 22.1632 20.8312Z" fill="#FEDEEA"/>
<path opacity="0.4706" d="M22.1581 20.7647C24.0718 20.2794 25.3793 18.725 25.0784 17.2928C24.7775 15.8607 22.9823 15.0931 21.0686 15.5783C19.1549 16.0636 17.8474 17.618 18.1483 19.0502C18.4492 20.4824 20.2444 21.25 22.1581 20.7647Z" fill="#FEDCE9"/>
<path opacity="0.4902" d="M22.1445 20.6918C24.0139 20.2164 25.2909 18.6991 24.9967 17.3027C24.7025 15.9064 22.9486 15.1599 21.0792 15.6353C19.2098 16.1107 17.9328 17.628 18.227 19.0244C18.5212 20.4207 20.2751 21.1672 22.1445 20.6918Z" fill="#FEDBE8"/>
<path opacity="0.5098" d="M22.1333 20.6282C23.9563 20.1631 25.201 18.683 24.9134 17.3224C24.6258 15.9617 22.9149 15.2357 21.0919 15.7008C19.2689 16.1659 18.0241 17.646 18.3117 19.0066C18.5993 20.3673 20.3103 21.0933 22.1333 20.6282Z" fill="#FDD9E8"/>
<path opacity="0.5294" d="M22.1259 20.5599C23.9023 20.105 25.1146 18.6622 24.8335 17.3374C24.5525 16.0125 22.8845 15.3073 21.1081 15.7622C19.3317 16.2172 18.1194 17.6599 18.4005 18.9848C18.6816 20.3096 20.3495 21.0148 22.1259 20.5599Z" fill="#FDD8E7"/>
<path opacity="0.549" d="M22.1131 20.4975C23.843 20.053 25.0224 18.6457 24.7475 17.3541C24.4726 16.0625 22.8474 15.3758 21.1176 15.8203C19.3877 16.2647 18.2082 17.672 18.4831 18.9636C18.758 20.2552 20.3832 20.9419 22.1131 20.4975Z" fill="#FDD6E6"/>
<path opacity="0.5686" d="M22.1078 20.4253C23.7911 19.991 24.9382 18.621 24.6698 17.3652C24.4014 16.1094 22.8192 15.4434 21.1358 15.8777C19.4525 16.312 18.3055 17.6821 18.5739 18.9379C18.8423 20.1937 20.4245 20.8596 22.1078 20.4253Z" fill="#FDD5E5"/>
<path opacity="0.5882" d="M22.0941 20.3616C23.7309 19.9377 24.8457 18.6051 24.5839 17.3851C24.3222 16.1651 22.7831 15.5196 21.1463 15.9435C19.5095 16.3673 18.3948 17.7 18.6565 18.92C18.9182 20.14 20.4573 20.7854 22.0941 20.3616Z" fill="#FDD3E4"/>
<path opacity="0.6078" d="M22.0865 20.2899C23.6769 19.8764 24.7593 18.5811 24.5041 17.3968C24.249 16.2126 22.753 15.5878 21.1627 16.0013C19.5724 16.4148 18.49 17.71 18.7451 18.8943C19.0002 20.0786 20.4962 20.7034 22.0865 20.2899Z" fill="#FDD2E3"/>
<path opacity="0.6275" d="M22.0762 20.2259C23.6201 19.8227 24.6701 18.5647 24.4216 17.4162C24.1731 16.2676 22.7201 15.6635 21.1762 16.0667C19.6324 16.47 18.5823 17.7279 18.8309 18.8765C19.0794 20.025 20.5324 20.6292 22.0762 20.2259Z" fill="#FDD1E2"/>
<path opacity="0.6471" d="M22.0635 20.1631C23.5607 19.7703 24.5779 18.5477 24.3355 17.4325C24.0931 16.3172 22.6828 15.7317 21.1856 16.1245C19.6883 16.5174 18.6711 17.74 18.9136 18.8552C19.156 19.9705 20.5663 20.556 22.0635 20.1631Z" fill="#FDCFE1"/>
<path opacity="0.6667" d="M22.0574 20.0905C23.5105 19.7073 24.4972 18.5215 24.2614 17.442C24.0255 16.3625 22.6564 15.798 21.2033 16.1812C19.7502 16.5644 18.7635 17.7501 18.9993 18.8296C19.2351 19.9092 20.6043 20.4737 22.0574 20.0905Z" fill="#FDCEE0"/>
<path opacity="0.6863" d="M22.0459 20.0263C23.4524 19.6533 24.4068 18.5049 24.1775 17.4612C23.9483 16.4175 22.6222 15.8737 21.2157 16.2466C19.8092 16.6196 18.8548 17.768 19.0841 18.8117C19.3133 19.8554 20.6394 20.3992 22.0459 20.0263Z" fill="#FDCCDF"/>
<path opacity="0.7059" d="M22.0372 19.9585C23.3971 19.5959 24.3192 18.4849 24.0966 17.477C23.874 16.469 22.591 15.9458 21.231 16.3084C19.871 16.6709 18.949 17.7819 19.1716 18.7899C19.3942 19.7978 20.6772 20.321 22.0372 19.9585Z" fill="#FDCBDF"/>
<path opacity="0.7255" d="M22.0256 19.8921C23.3391 19.5399 24.2284 18.4642 24.0119 17.4895C23.7953 16.5148 22.555 16.0101 21.2416 16.3623C19.9281 16.7145 19.0388 17.7902 19.2553 18.7649C19.4718 19.7396 20.7122 20.2443 22.0256 19.8921Z" fill="#FDC9DE"/>
<path opacity="0.7451" d="M22.0178 19.824C23.2847 19.4822 24.1415 18.4439 23.9316 17.5051C23.7218 16.5662 22.5246 16.0822 21.2577 16.424C19.9909 16.7658 19.134 17.8041 19.3439 18.743C19.5538 19.6819 20.7509 20.1659 22.0178 19.824Z" fill="#FDC8DD"/>
<path opacity="0.7647" d="M22.0063 19.7603C23.2267 19.4289 24.0513 18.428 23.8481 17.5248C23.6449 16.6216 22.4908 16.1582 21.2703 16.4896C20.0499 16.8211 19.2253 17.822 19.4285 18.7252C19.6318 19.6284 20.7859 20.0918 22.0063 19.7603Z" fill="#FDC6DC"/>
<path opacity="0.7843" d="M21.9936 19.6886C23.1675 19.3675 23.9597 18.4041 23.7632 17.5367C23.5666 16.6693 22.4557 16.2264 21.2818 16.5475C20.1079 16.8686 19.3156 17.8321 19.5122 18.6995C19.7087 19.5669 20.8197 20.0097 21.9936 19.6886Z" fill="#FDC5DB"/>
<path opacity="0.8039" d="M21.9879 19.6296C23.1152 19.3188 23.8745 18.3907 23.684 17.5566C23.4935 16.7225 22.4252 16.2983 21.2979 16.6091C20.1707 16.9199 19.4113 17.848 19.6018 18.6821C19.7923 19.5162 20.8606 19.9405 21.9879 19.6296Z" fill="#FDC4DA"/>
<path opacity="0.8235" d="M21.9766 19.5609C23.0597 19.2598 23.7887 18.3685 23.6048 17.5701C23.421 16.7717 22.3939 16.3686 21.3108 16.6697C20.2276 16.9708 19.4987 17.8621 19.6825 18.6604C19.8664 19.4588 20.8935 19.862 21.9766 19.5609Z" fill="#FDC2D9"/>
<path opacity="0.8431" d="M21.9665 19.489C23.003 19.1984 23.6996 18.3446 23.5224 17.5821C23.3453 16.8195 22.3614 16.437 21.325 16.7276C20.2885 17.0183 19.5918 17.8721 19.769 18.6346C19.9461 19.3971 20.93 19.7797 21.9665 19.489Z" fill="#FCC1D8"/>
<path opacity="0.8627" d="M21.9569 19.4252C22.9469 19.1448 23.6112 18.3284 23.4407 17.6016C23.2702 16.8747 22.3294 16.5128 21.3394 16.7932C20.3494 17.0735 19.6851 17.89 19.8556 18.6168C20.0261 19.3436 20.9669 19.7055 21.9569 19.4252Z" fill="#FCBFD7"/>
<path opacity="0.8824" d="M21.9479 19.3586C22.8913 19.0887 23.5228 18.3077 23.3585 17.6142C23.1941 16.9207 22.2961 16.5773 21.3527 16.8472C20.4093 17.1171 19.7778 17.8981 19.9422 18.5916C20.1065 19.2851 21.0046 19.6285 21.9479 19.3586Z" fill="#FCBED6"/>
<path opacity="0.902" d="M21.9361 19.2869C22.8329 19.0274 23.4321 18.2838 23.2744 17.6261C23.1167 16.9684 22.2619 16.6456 21.3651 16.9051C20.4682 17.1646 19.869 17.9082 20.0267 18.5659C20.1844 19.2236 21.0392 19.5464 21.9361 19.2869Z" fill="#FCBCD6"/>
<path opacity="0.9216" d="M21.9239 19.2231C22.7742 18.9741 23.3411 18.268 23.1902 17.6461C23.0393 17.0241 22.2277 16.7219 21.3774 16.9709C20.5272 17.22 19.9602 17.926 20.1112 18.548C20.2621 19.1699 21.0737 19.4722 21.9239 19.2231Z" fill="#FCBBD5"/>
<path opacity="0.9412" d="M21.9169 19.1555C22.7207 18.9169 23.2554 18.2482 23.1112 17.662C22.967 17.0758 22.1985 16.7941 21.3948 17.0327C20.591 17.2714 20.0563 17.94 20.2005 18.5262C20.3447 19.1124 21.1132 19.3942 21.9169 19.1555Z" fill="#FCB9D4"/>
<path opacity="0.9608" d="M21.9064 19.0917C22.6658 18.8627 23.1696 18.2289 23.0315 17.676C22.8934 17.1231 22.1658 16.8605 21.4064 17.0894C20.6469 17.3183 20.1432 17.9521 20.2813 18.505C20.4193 19.058 21.1469 19.3206 21.9064 19.0917Z" fill="#FCB8D3"/>
<path opacity="0.9804" d="M21.898 19.0238C22.6108 18.8053 23.0822 18.2091 22.9509 17.692C22.8196 17.1749 22.1353 16.9328 21.4225 17.1513C20.7097 17.3698 20.2383 17.9661 20.3696 18.4831C20.5009 19.0002 21.1851 19.2423 21.898 19.0238Z" fill="#FCB6D2"/>
<path d="M21.8846 18.9562C22.5508 18.7482 22.99 18.1895 22.8655 17.7082C22.741 17.2269 22.1001 17.0053 21.4338 17.2133C20.7676 17.4213 20.3284 17.98 20.4529 18.4613C20.5774 18.9426 21.2183 19.1642 21.8846 18.9562Z" fill="#FCB5D1"/>
<path d="M36.1441 15.4172C37.6452 14.9291 38.6793 13.8548 38.4538 13.0176C38.2283 12.1805 36.8286 11.8976 35.3274 12.3857C33.8263 12.8738 32.7922 13.9482 33.0177 14.7853C33.2432 15.6224 34.6429 15.9054 36.1441 15.4172Z" fill="#FCB5D1"/>
<path opacity="0.0196078" d="M36.7509 17.9663C39.7036 17.1258 41.6729 14.6448 41.1494 12.4249C40.6259 10.205 37.8079 9.08682 34.8552 9.92733C31.9024 10.7678 29.9332 13.2488 30.4567 15.4687C30.9802 17.6886 33.7982 18.8068 36.7509 17.9663Z" fill="#FFFEFE"/>
<path opacity="0.0392157" d="M36.7416 17.9085C39.6484 17.0801 41.5862 14.6355 41.0699 12.4484C40.5535 10.2613 37.7784 9.15984 34.8716 9.98827C31.9648 10.8167 30.027 13.2613 30.5434 15.4484C31.0598 17.6355 33.8348 18.7369 36.7416 17.9085Z" fill="#FFFCFD"/>
<path opacity="0.0588235" d="M36.7288 17.8414C39.5894 17.0254 41.4962 14.6197 40.9877 12.4681C40.4793 10.3166 37.7481 9.23386 34.8876 10.0499C32.027 10.8658 30.1202 13.2715 30.6286 15.4231C31.1371 17.5747 33.8682 18.6574 36.7288 17.8414Z" fill="#FFFBFC"/>
<path opacity="0.0784314" d="M36.7138 17.7738C39.5282 16.9699 41.4038 14.6029 40.9031 12.4868C40.4024 10.3708 37.715 9.30704 34.9006 10.1109C32.0862 10.9148 30.2106 13.2818 30.7113 15.3978C31.212 17.5139 33.8994 18.5776 36.7138 17.7738Z" fill="#FFF9FB"/>
<path opacity="0.0980392" d="M36.7006 17.714C39.4688 16.9223 41.3133 14.594 40.8203 12.5134C40.3274 10.4329 37.6837 9.38813 34.9156 10.1798C32.1474 10.9715 30.3029 13.2999 30.7959 15.3804C31.2888 17.4609 33.9324 18.5057 36.7006 17.714Z" fill="#FFF8FA"/>
<path opacity="0.1176" d="M36.6947 17.6442C39.417 16.8644 41.2299 14.5722 40.744 12.5245C40.258 10.4768 37.6572 9.4489 34.935 10.2287C32.2127 11.0085 30.3998 13.3006 30.8857 15.3484C31.3717 17.3961 33.9724 18.424 36.6947 17.6442Z" fill="#FFF6FA"/>
<path opacity="0.1373" d="M36.6797 17.5756C39.3581 16.8074 41.1418 14.5534 40.6636 12.5412C40.1855 10.529 37.6267 9.52051 34.9483 10.2887C32.2699 11.0569 30.4862 13.3109 30.9644 15.3231C31.4425 17.3354 34.0013 18.3438 36.6797 17.5756Z" fill="#FFF5F9"/>
<path opacity="0.1569" d="M36.6684 17.5122C39.3006 16.7563 41.0531 14.541 40.5828 12.5643C40.1125 10.5876 37.5975 9.59796 34.9653 10.3539C32.333 11.1098 30.5805 13.3251 31.0508 15.3018C31.5211 17.2785 34.0361 18.2682 36.6684 17.5122Z" fill="#FFF3F8"/>
<path opacity="0.1765" d="M36.6556 17.4366C39.2417 16.6927 40.963 14.516 40.5004 12.5748C40.0378 10.6335 37.5664 9.66295 34.9803 10.4069C32.3943 11.1508 30.6729 13.3276 31.1355 15.2688C31.5981 17.21 34.0696 18.1806 36.6556 17.4366Z" fill="#FEF2F7"/>
<path opacity="0.1961" d="M36.6402 17.3734C39.1801 16.6418 40.8705 14.5039 40.4157 12.5981C39.9609 10.6924 37.5333 9.7406 34.9934 10.4722C32.4535 11.2038 30.7632 13.3418 31.2179 15.2475C31.6727 17.1532 34.1003 18.105 36.6402 17.3734Z" fill="#FEF0F6"/>
<path opacity="0.2157" d="M36.6325 17.3072C39.1262 16.5877 40.7849 14.4862 40.3373 12.6135C39.8896 10.7407 37.5052 9.80581 35.0114 10.5253C32.5177 11.2448 30.859 13.3463 31.3066 15.2191C31.7543 17.0918 34.1387 18.0267 36.6325 17.3072Z" fill="#FEEFF5"/>
<path opacity="0.2353" d="M36.6185 17.2436C39.0662 16.5362 40.6937 14.4734 40.2538 12.6361C39.8139 10.7988 37.4731 9.88286 35.0255 10.5903C32.5779 11.2976 30.9504 13.3605 31.3903 15.1978C31.8302 17.0351 34.1709 17.951 36.6185 17.2436Z" fill="#FEEEF4"/>
<path opacity="0.2549" d="M36.6094 17.1763C39.0109 16.4811 40.6074 14.4568 40.1753 12.655C39.7431 10.8532 37.446 9.95613 35.0446 10.6513C32.6431 11.3466 31.0466 13.3708 31.4787 15.1726C31.9109 16.9744 34.2079 17.8715 36.6094 17.1763Z" fill="#FEECF3"/>
<path opacity="0.2745" d="M36.5944 17.109C38.9497 16.426 40.5152 14.4404 40.0908 12.6741C39.6665 10.9077 37.4131 10.0295 35.0577 10.7125C32.7024 11.3955 31.137 13.3811 31.5613 15.1475C31.9856 16.9138 34.239 17.792 36.5944 17.109Z" fill="#FEEBF2"/>
<path opacity="0.2941" d="M36.5824 17.051C38.8917 16.3802 40.4256 14.4313 40.0084 12.6979C39.5913 10.9645 37.3812 10.103 35.0719 10.7738C32.7626 11.4445 31.2288 13.3935 31.6459 15.1269C32.063 16.8603 34.2732 17.7218 36.5824 17.051Z" fill="#FEE9F1"/>
<path opacity="0.3137" d="M36.5739 16.9784C38.8393 16.319 40.3439 14.408 39.9345 12.71C39.5251 11.012 37.3567 10.1701 35.0912 10.8295C32.8258 11.4889 31.3212 13.3999 31.7306 15.0979C32.14 16.7958 34.3084 17.6378 36.5739 16.9784Z" fill="#FEE8F1"/>
<path opacity="0.3333" d="M36.5568 16.9064C38.7759 16.2591 40.2492 14.3868 39.8475 12.7244C39.4458 11.0621 37.3212 10.2392 35.1021 10.8865C32.8829 11.5338 31.4096 13.4062 31.8113 15.0685C32.213 16.7309 34.3376 17.5538 36.5568 16.9064Z" fill="#FEE6F0"/>
<path opacity="0.3529" d="M36.5473 16.8435C38.7203 16.2086 40.1627 14.375 39.7689 12.7481C39.3751 11.1212 37.2943 10.317 35.1212 10.9519C32.9481 11.5869 31.5058 13.4204 31.8996 15.0474C32.2934 16.6743 34.3742 17.4785 36.5473 16.8435Z" fill="#FEE5EF"/>
<path opacity="0.3725" d="M36.5343 16.7764C38.6613 16.1537 40.0726 14.3587 39.6866 12.7672C39.3006 11.1757 37.2634 10.3903 35.1364 11.0131C33.0094 11.6358 31.5981 13.4308 31.9841 15.0223C32.3701 16.6138 34.4073 17.3991 36.5343 16.7764Z" fill="#FEE3EE"/>
<path opacity="0.3922" d="M36.5207 16.7096C38.6014 16.0989 39.9809 14.3405 39.602 12.782C39.223 11.2236 37.2291 10.4553 35.1483 11.066C33.0676 11.6768 31.6881 13.4352 32.067 14.9937C32.446 16.5521 34.4399 17.3204 36.5207 16.7096Z" fill="#FEE2ED"/>
<path opacity="0.4118" d="M36.5114 16.6467C38.5461 16.0482 39.8947 14.3284 39.5236 12.8054C39.1525 11.2824 37.2022 10.5328 35.1675 11.1313C33.1328 11.7297 31.7842 13.4495 32.1553 14.9725C32.5264 16.4956 34.4767 17.2451 36.5114 16.6467Z" fill="#FEE1EC"/>
<path opacity="0.4314" d="M36.4963 16.5789C38.4847 15.9926 39.8021 14.3115 39.4388 12.824C39.0754 11.3365 37.1689 10.606 35.1805 11.1923C33.192 11.7786 31.8746 13.4597 32.238 14.9472C32.6013 16.4347 34.5079 17.1652 36.4963 16.5789Z" fill="#FEDFEB"/>
<path opacity="0.451" d="M36.4873 16.5119C38.4297 15.9378 39.7161 14.2952 39.3606 12.8431C39.005 11.391 37.1421 10.6793 35.1997 11.2534C33.2573 11.8275 31.9709 13.4701 32.3264 14.9222C32.682 16.3743 34.5449 17.086 36.4873 16.5119Z" fill="#FEDEEA"/>
<path opacity="0.4706" d="M36.4742 16.4536C38.3704 15.8917 39.6252 14.2858 39.2769 12.8667C38.9285 11.4477 37.1089 10.7528 35.2127 11.3146C33.3165 11.8765 32.0617 13.4824 32.4101 14.9015C32.7584 16.3206 34.578 17.0155 36.4742 16.4536Z" fill="#FEDCE9"/>
<path opacity="0.4902" d="M36.4644 16.3847C38.3167 15.8343 39.5422 14.2664 39.2016 12.8829C38.8609 11.4993 37.0832 10.8239 35.2309 11.3744C33.3786 11.9249 32.1531 13.4927 32.4937 14.8763C32.8343 16.2598 34.6121 16.9352 36.4644 16.3847Z" fill="#FEDBE8"/>
<path opacity="0.5098" d="M36.4493 16.3134C38.2555 15.7751 39.4498 14.2459 39.117 12.8978C38.7841 11.5497 37.0501 10.8933 35.244 11.4316C33.4378 11.9699 32.2435 13.4991 32.5763 14.8472C32.9091 16.1952 34.6431 16.8517 36.4493 16.3134Z" fill="#FDD9E8"/>
<path opacity="0.5294" d="M36.436 16.2461C38.196 15.7201 39.3593 14.2295 39.0343 12.917C38.7093 11.6044 37.0191 10.9667 35.259 11.4928C33.499 12.0189 32.3357 13.5094 32.6608 14.822C32.9858 16.1346 34.676 16.7722 36.436 16.2461Z" fill="#FDD8E7"/>
<path opacity="0.549" d="M36.4273 16.1839C38.1412 15.6699 39.2728 14.216 38.9549 12.9363C38.6371 11.6567 36.99 11.036 35.2761 11.5499C33.5622 12.0638 32.4306 13.5178 32.7484 14.7975C33.0663 16.0771 34.7134 16.6978 36.4273 16.1839Z" fill="#FDD6E6"/>
<path opacity="0.5686" d="M36.4132 16.1127C38.081 15.611 39.1816 14.1957 38.8715 12.9515C38.5614 11.7073 36.958 11.1054 35.2903 11.6072C33.6225 12.1089 32.5219 13.5242 32.832 14.7684C33.142 16.0126 34.7454 16.6145 36.4132 16.1127Z" fill="#FDD5E5"/>
<path opacity="0.5882" d="M36.4062 16.0493C38.0279 15.5597 39.0974 14.1828 38.7951 12.9741C38.4927 11.7654 36.933 11.1824 35.3113 11.672C33.6896 12.1617 32.6201 13.5385 32.9224 14.7472C33.2248 15.956 34.7845 16.5389 36.4062 16.0493Z" fill="#FDD3E4"/>
<path opacity="0.6078" d="M36.3899 15.9778C37.9654 15.5004 39.0037 14.1623 38.7092 12.9891C38.4147 11.8159 36.8987 11.2518 35.3233 11.7293C33.7479 12.2067 32.7095 13.5448 33.004 14.718C33.2986 15.8912 34.8145 16.4552 36.3899 15.9778Z" fill="#FDD2E3"/>
<path opacity="0.6275" d="M36.3735 15.9144C37.9027 15.4492 38.91 14.1499 38.6233 13.0122C38.3367 11.8745 36.8646 11.3294 35.3353 11.7945C33.8061 12.2596 32.7988 13.559 33.0855 14.6967C33.3722 15.8343 34.8442 16.3795 36.3735 15.9144Z" fill="#FDD1E2"/>
<path opacity="0.6471" d="M36.3676 15.8526C37.8509 15.3997 38.8267 14.1369 38.5472 13.0321C38.2677 11.9273 36.8387 11.3988 35.3555 11.8518C33.8723 12.3047 32.8965 13.5675 33.176 14.6723C33.4555 15.7771 34.8844 16.3055 36.3676 15.8526Z" fill="#FDCFE1"/>
<path opacity="0.6667" d="M36.3538 15.7878C37.7931 15.3463 38.7397 14.1216 38.468 13.0523C38.1962 11.983 36.8092 11.474 35.3698 11.9155C33.9305 12.357 32.9839 13.5817 33.2556 14.651C33.5274 15.7203 34.9144 16.2293 36.3538 15.7878Z" fill="#FDCEE0"/>
<path opacity="0.6863" d="M36.3415 15.7121C37.7346 15.2828 38.6499 14.0967 38.386 13.063C38.122 12.0292 36.7787 11.5393 35.3857 11.9687C33.9926 12.398 33.0773 13.5841 33.3412 14.6178C33.6052 15.6516 34.9484 16.1415 36.3415 15.7121Z" fill="#FDCCDF"/>
<path opacity="0.7059" d="M36.3293 15.6489C37.6763 15.2318 38.5606 14.0844 38.3045 13.0861C38.0483 12.0878 36.7488 11.6166 35.4018 12.0338C34.0548 12.4509 33.1705 13.5983 33.4266 14.5966C33.6827 15.5949 34.9823 16.0661 36.3293 15.6489Z" fill="#FDCBDF"/>
<path opacity="0.7255" d="M36.3144 15.5867C37.6151 15.1817 38.4678 14.0709 38.2189 13.1057C37.9699 12.1404 36.7136 11.6861 35.4129 12.091C34.1121 12.496 33.2594 13.6067 33.5084 14.572C33.7573 15.5373 35.0136 15.9916 36.3144 15.5867Z" fill="#FDC9DE"/>
<path opacity="0.7451" d="M36.304 15.5115C37.5586 15.1188 38.3802 14.0466 38.1391 13.1168C37.898 12.187 36.6855 11.7516 35.4309 12.1444C34.1762 12.5371 33.3546 13.6092 33.5958 14.539C33.8369 15.4688 35.0494 15.9042 36.304 15.5115Z" fill="#FDC8DD"/>
<path opacity="0.7647" d="M36.2927 15.4521C37.5012 15.0715 38.2918 14.0381 38.0585 13.1437C37.8252 12.2494 36.6564 11.8328 35.4479 12.2134C34.2394 12.5939 33.4489 13.6274 33.6822 14.5217C33.9155 15.416 35.0843 15.8326 36.2927 15.4521Z" fill="#FDC6DC"/>
<path opacity="0.7843" d="M36.2844 15.3811C37.4468 15.0128 38.2063 14.0179 37.9809 13.159C37.7555 12.3001 36.6304 11.9024 35.468 12.2707C34.3056 12.6389 33.546 13.6338 33.7715 14.4927C33.9969 15.3516 35.122 15.7493 36.2844 15.3811Z" fill="#FDC5DB"/>
<path opacity="0.8039" d="M36.2694 15.319C37.3856 14.963 38.1136 14.0048 37.8954 13.1789C37.6772 12.353 36.5954 11.972 35.4791 12.328C34.3629 12.6841 33.6349 13.6422 33.8531 14.4681C34.0714 15.2941 35.1532 15.675 36.2694 15.319Z" fill="#FDC4DA"/>
<path opacity="0.8235" d="M36.2552 15.2541C37.3275 14.9095 38.0262 13.9895 37.8158 13.1991C37.6054 12.4087 36.5656 12.0472 35.4933 12.3918C34.421 12.7363 33.7223 13.6564 33.9327 14.4468C34.1431 15.2372 35.1829 15.5986 36.2552 15.2541Z" fill="#FDC2D9"/>
<path opacity="0.8431" d="M36.2436 15.1829C37.2697 14.8507 37.9374 13.9693 37.7349 13.2144C37.5324 12.4595 36.5364 12.1169 35.5103 12.4492C34.4842 12.7814 33.8165 13.6628 34.019 14.4177C34.2215 15.1726 35.2175 15.5152 36.2436 15.1829Z" fill="#FCC1D8"/>
<path opacity="0.8627" d="M36.2312 15.1197C37.2112 14.7997 37.8478 13.9571 37.6532 13.2376C37.4586 12.5182 36.5064 12.1943 35.5264 12.5143C34.5464 12.8343 33.9097 13.677 34.1043 14.3964C34.299 15.1159 35.2512 15.4397 36.2312 15.1197Z" fill="#FCBFD7"/>
<path opacity="0.8824" d="M36.2189 15.0535C37.1527 14.7458 37.7577 13.9399 37.5703 13.2535C37.3829 12.5671 36.474 12.2601 35.5403 12.5678C34.6066 12.8755 34.0015 13.6814 34.1889 14.3679C34.3763 15.0543 35.2852 15.3613 36.2189 15.0535Z" fill="#FCBED6"/>
<path opacity="0.902" d="M36.2064 14.9901C37.094 14.6946 37.6679 13.9274 37.4884 13.2765C37.3089 12.6256 36.4438 12.3374 35.5563 12.6329C34.6687 12.9284 34.0948 13.6956 34.2743 14.3466C34.4538 14.9975 35.3189 15.2856 36.2064 14.9901Z" fill="#FCBCD6"/>
<path opacity="0.9216" d="M37.4071 13.2986C37.5789 13.912 37.0335 14.6434 36.1917 14.9265C35.3499 15.2096 34.5296 14.9407 34.3578 14.3225C34.186 13.7091 34.7314 12.9777 35.5732 12.6946C36.415 12.4115 37.2396 12.6805 37.4071 13.2986Z" fill="#FCBBD5"/>
<path opacity="0.9412" d="M37.3256 13.3102C37.4888 13.8906 36.9778 14.5795 36.1789 14.8532C35.3844 15.1221 34.6027 14.8721 34.4395 14.2917C34.2763 13.7113 34.7874 13.0224 35.5862 12.7487C36.3851 12.4797 37.1624 12.7298 37.3256 13.3102Z" fill="#FCB9D4"/>
<path opacity="0.9608" d="M37.2485 13.3278C37.4031 13.8752 36.9221 14.5263 36.1705 14.7858C35.4189 15.0454 34.6845 14.8142 34.5299 14.2668C34.3753 13.7194 34.8563 13.0683 35.6079 12.8088C36.3552 12.5492 37.0896 12.7852 37.2485 13.3278Z" fill="#FCB8D3"/>
<path opacity="0.9804" d="M37.1655 13.3481C37.3115 13.8577 36.8605 14.4711 36.1562 14.7212C35.4519 14.9666 34.7604 14.7542 34.6144 14.2446C34.4683 13.735 34.9193 13.1216 35.6236 12.8715C36.3237 12.6261 37.0152 12.8385 37.1655 13.3481Z" fill="#FCB6D2"/>
<path d="M35.6368 12.9316C36.2939 12.6956 36.9424 12.8938 37.0841 13.3704C37.2259 13.847 36.805 14.4227 36.1479 14.6586C35.4908 14.8945 34.8422 14.6963 34.7005 14.2198C34.5588 13.7432 34.9754 13.1628 35.6368 12.9316Z" fill="#FCB5D1"/>
<path d="M40.3842 11.0266C40.4486 11.0408 40.5088 10.9983 40.526 10.9322C40.5388 10.8614 40.5002 10.7954 40.4401 10.7765C37.6398 10.064 35.2348 11.9137 35.2133 11.9326C35.1617 11.975 35.1489 12.0553 35.1875 12.1119C35.209 12.1449 35.2476 12.1638 35.282 12.1638C35.3035 12.1638 35.3292 12.1543 35.3507 12.1402C35.3679 12.126 37.6871 10.3377 40.3842 11.0266Z" fill="black"/>
<path d="M40.757 14.7295C38.5108 12.7619 35.6118 13.2951 35.586 13.2998C35.5216 13.3139 35.4787 13.38 35.4915 13.4508C35.5044 13.5216 35.5646 13.5687 35.629 13.5546C35.659 13.5499 38.4507 13.0355 40.6152 14.9324C40.6367 14.9513 40.6625 14.9607 40.6883 14.9607C40.7226 14.9607 40.757 14.9419 40.7784 14.9135C40.8171 14.8569 40.8085 14.7767 40.757 14.7295Z" fill="black"/>
<path d="M39.786 12.6296C37.6853 11.5317 35.4883 12.5379 35.4688 12.5468C35.4203 12.571 35.3975 12.6318 35.4195 12.685C35.4415 12.7382 35.4969 12.7633 35.5453 12.7391C35.5682 12.7293 37.6837 11.7597 39.7082 12.8183C39.7283 12.8288 39.7502 12.8311 39.7705 12.8259C39.7976 12.8189 39.8215 12.7971 39.8337 12.7704C39.8547 12.718 39.8345 12.6564 39.786 12.6296Z" fill="black"/>
<path d="M21.5791 17.348C21.6398 17.3656 21.7005 17.3261 21.7167 17.2645C21.7329 17.1985 21.6965 17.1326 21.6398 17.115C21.6115 17.1062 18.9411 16.3323 16.6752 17.9461C16.6226 17.9812 16.6105 18.056 16.6429 18.1132C16.6631 18.1483 16.6995 18.1659 16.7359 18.1659C16.7561 18.1659 16.7764 18.1615 16.7966 18.1483C18.9734 16.5961 21.5508 17.3393 21.5791 17.348Z" fill="black"/>
<path d="M21.5089 17.9778C21.5611 17.9822 21.6026 17.9335 21.6041 17.8732C21.6047 17.8089 21.563 17.7548 21.5141 17.7497C21.4896 17.7471 19.1922 17.5553 17.6694 19.4988C17.6337 19.5418 17.6379 19.6136 17.6748 19.6602C17.6977 19.6889 17.7303 19.698 17.7597 19.6908C17.776 19.6868 17.7915 19.6788 17.8053 19.6625C19.2678 17.7937 21.4845 17.9753 21.5089 17.9778Z" fill="black"/>
<path d="M21.7454 18.4556C21.7154 18.4604 18.8293 19.0549 17.339 21.7539C17.3046 21.8153 17.3218 21.8955 17.3776 21.9332C17.3948 21.9474 17.4163 21.9521 17.4378 21.9521C17.4764 21.9521 17.5151 21.9285 17.5365 21.8908C18.971 19.2908 21.7583 18.7152 21.7841 18.7104C21.8485 18.6963 21.8915 18.6302 21.8786 18.5594C21.87 18.4887 21.8099 18.4415 21.7454 18.4556Z" fill="black"/>
<path d="M25.4646 13.7174C25.8811 15.5765 24.9749 16.4542 23.6951 16.8034C22.4109 17.1525 21.2385 16.8411 20.8176 14.982C20.401 13.1229 21.101 11.3345 22.3809 10.9853C23.6693 10.6362 25.048 11.8583 25.4646 13.7174Z" fill="black"/>
<path d="M23.4928 14.917C24.0749 14.7014 24.3608 13.92 24.1312 13.1718C23.9016 12.4235 23.2436 11.9917 22.6615 12.2073C22.0793 12.4229 21.7935 13.2042 22.0231 13.9525C22.2526 14.7007 22.9106 15.1325 23.4928 14.917Z" fill="white"/>
<path d="M22.889 15.589C22.962 15.8202 22.8633 16.0656 22.6743 16.1364C22.4853 16.2071 22.2749 16.075 22.2019 15.8438C22.1288 15.6126 22.2276 15.3672 22.4166 15.2965C22.6056 15.2257 22.816 15.3578 22.889 15.589Z" fill="white"/>
<path d="M34.4226 11.1835C34.8392 13.0427 33.933 13.9203 32.6531 14.2695C31.369 14.6187 30.1965 14.3072 29.7756 12.4481C29.359 10.589 30.059 8.80063 31.3389 8.45145C32.6273 8.09755 34.006 9.32439 34.4226 11.1835Z" fill="black"/>
<path d="M32.5504 12.4326C33.1325 12.217 33.4184 11.4357 33.1888 10.6874C32.9593 9.93917 32.3012 9.50736 31.7191 9.72294C31.137 9.93852 30.8511 10.7199 31.0807 11.4681C31.3102 12.2163 31.9682 12.6482 32.5504 12.4326Z" fill="white"/>
<path d="M32.171 13.9093C32.3598 13.8394 32.4552 13.5946 32.384 13.3624C32.3127 13.1303 32.102 12.9988 31.9131 13.0687C31.7243 13.1386 31.629 13.3835 31.7002 13.6156C31.7714 13.8477 31.9822 13.9792 32.171 13.9093Z" fill="white"/>
<path d="M30.4338 15.3419C30.3522 15.3042 30.2534 15.3466 30.219 15.4363C29.854 16.3847 28.9349 16.163 28.557 16.0261C28.4968 16.0025 28.4367 16.0214 28.3938 16.0639C28.3508 16.0686 28.3122 16.0875 28.2864 16.1252C27.4403 17.2199 26.7231 16.6159 26.693 16.5923C26.6243 16.531 26.5212 16.5404 26.4611 16.6207C26.4053 16.6962 26.4139 16.8094 26.4869 16.8755C26.4912 16.8802 26.7961 17.1444 27.247 17.1444C27.6035 17.1444 28.0502 16.9793 28.514 16.3942C28.6729 16.4461 28.9349 16.5168 29.2227 16.5168C29.6951 16.5168 30.2405 16.3281 30.5283 15.5826C30.5583 15.4835 30.5197 15.3797 30.4338 15.3419Z" fill="black"/>
<path d="M28.9352 15.0438C29.0297 15.4213 28.7806 15.8271 28.3811 15.9451C27.9817 16.063 27.5823 15.8554 27.4878 15.4779C27.3933 15.1004 28.8407 14.6663 28.9352 15.0438Z" fill="black"/>
</g>
<defs>
<clipPath id="clip0_710_399">
<rect width="184" height="45" fill="white"/>
</clipPath>
</defs>
</svg>
