<svg width="84" height="85" viewBox="0 0 84 85" fill="none" xmlns="http://www.w3.org/2000/svg">
<path d="M34.6795 0.47319C36.224 1.32169 37.7468 2.19196 39.2913 3.0187C39.6828 3.2145 40.1397 3.34504 40.5965 3.36679C42.4891 3.45382 44.4252 3.27977 46.2742 3.58435C50.6468 4.34583 53.7358 8.24022 53.7575 12.6785C53.7575 14.8977 53.7575 17.1385 53.7575 19.3577C53.7575 19.6188 53.7575 19.8798 53.7575 20.2714C54.5189 20.2714 55.2151 20.2714 55.9112 20.2714C59.5005 20.2932 61.7412 22.5559 61.7629 26.1457C61.7629 27.2117 61.7629 28.256 61.7629 29.3221C61.7412 32.7378 59.4353 35.0222 55.9982 35.044C55.3021 35.044 54.5842 35.044 53.7575 35.044C53.7575 35.6532 53.7358 36.2406 53.7575 36.828C53.8228 38.6338 53.6705 40.4178 53.0179 42.1148C51.2559 46.7054 47.971 49.5337 43.1199 50.5345C42.9894 50.5563 42.8589 50.578 42.6849 50.6215C42.6849 51.8399 42.6849 53.0147 42.6849 54.3201C42.9677 54.3201 43.2722 54.3201 43.555 54.3201C47.9928 54.3201 52.4088 54.3201 56.8466 54.3201C63.1987 54.3201 68.2891 59.1718 68.7677 65.4811C69.181 71.029 69.7248 76.5768 70.2469 82.1247C70.3122 82.8862 70.1817 83.4953 69.5725 83.974C69.2462 83.974 68.9199 83.974 68.5936 83.974C68.3326 83.4301 67.8975 82.9297 67.8322 82.364C67.2884 76.7074 66.7881 71.0507 66.3095 65.4158C65.9832 61.5867 63.351 58.2797 59.6963 57.1484C59.196 56.9961 58.6739 56.9309 58.0866 56.8221C57.8038 58.9977 57.4992 61.0428 57.2599 63.0879C56.8248 66.7212 56.3027 70.3545 56.0417 74.0096C55.8459 76.7291 55.9764 79.4922 55.9982 82.2335C55.9982 83.0167 55.7807 83.6041 55.0845 83.974C54.867 83.974 54.6495 83.974 54.4319 83.974C53.7793 83.6041 53.5618 83.0602 53.54 82.2988C53.279 75.3367 53.9533 68.4617 55.0193 61.6085C55.2586 60.0203 55.4326 58.432 55.6501 56.8003C53.3225 56.8003 51.0818 56.8003 48.7542 56.8003C48.7542 57.1267 48.7542 57.4095 48.7542 57.7141C48.7542 60.0855 48.7542 62.4352 48.7542 64.8067C48.7324 68.9186 47.5142 72.6172 45.0343 75.8806C43.1852 78.3391 41.3144 80.7758 39.4436 83.1908C39.226 83.4953 38.8997 83.7129 38.6387 83.974C38.3776 83.974 38.0948 83.974 37.8338 83.974C36.8549 83.1472 36.7896 82.6686 37.5727 81.6461C37.8773 81.2544 38.1818 80.8846 38.4646 80.4712C40.379 77.8822 42.4021 75.3367 44.2076 72.6607C45.6434 70.5068 46.209 68.0048 46.3178 65.5029C43.9901 64.8502 41.7495 64.2192 39.4871 63.5883C38.8562 64.6109 37.9208 65.0677 36.6808 65.0677C36.6808 65.4158 36.6808 65.6987 36.6808 66.0033C36.6808 68.5488 36.6808 71.116 36.6808 73.6615C36.6808 74.5752 36.137 75.1627 35.3974 75.1192C34.6795 75.0974 34.2444 74.5317 34.2444 73.6397C34.2444 71.0942 34.2444 68.527 34.2444 65.9815C34.2444 65.6987 34.2444 65.3941 34.2444 65.0677C32.9609 65.0677 32.0255 64.5891 31.3947 63.5883C29.1105 64.241 26.8916 64.8502 24.651 65.4811C24.651 65.4593 24.6292 65.5246 24.6292 65.5681C24.6292 65.6769 24.6292 65.7857 24.6292 65.8945C24.8033 68.7881 25.6952 71.4423 27.392 73.792C29.2845 76.4028 31.2859 78.9483 33.2437 81.5155C34.0704 82.6033 34.0486 82.9949 33.135 83.9522C32.8086 83.9522 32.4823 83.9522 32.156 83.9522C31.895 83.6694 31.6339 83.4301 31.3947 83.1255C29.5456 80.7105 27.6748 78.3173 25.8474 75.8806C23.585 72.8783 22.2798 69.4843 22.1711 65.6987C22.084 63.0444 22.1275 60.3684 22.1275 57.7141C22.1275 57.4095 22.1275 57.0832 22.1275 56.7786C19.7564 56.7786 17.5157 56.7786 15.2316 56.7786C15.2533 56.9961 15.2751 57.1484 15.2968 57.3225C15.4491 58.5191 15.6014 59.6939 15.7102 60.8905C15.7754 61.5432 15.3839 61.9783 14.7313 62.0871C14.0569 62.1959 13.5566 61.8913 13.3608 61.2169C13.2738 60.9558 13.252 60.6947 13.2302 60.4119C13.078 59.237 12.9039 58.0622 12.7517 56.8438C12.4906 56.8656 12.2948 56.8438 12.1208 56.8874C8.33564 57.4748 4.94204 61.1298 4.59398 64.9589C4.07189 70.7679 3.52805 76.5768 3.00596 82.4075C2.9407 83.1037 2.70141 83.6041 2.13581 83.9522C1.85301 83.9522 1.59196 83.9522 1.30917 83.9522C0.70006 83.5389 0.460773 82.9949 0.526035 82.2335C1.06988 76.5551 1.59196 70.8767 2.0923 65.1765C2.6579 58.9107 7.70478 54.2766 13.9916 54.2766C18.3859 54.2766 22.8019 54.2766 27.1962 54.2766C27.479 54.2766 27.7835 54.2766 28.1533 54.2766C28.1533 53.1018 28.1751 52.0357 28.1316 50.9479C28.1316 50.7956 27.827 50.578 27.6095 50.5127C26.5218 50.1211 25.3253 49.9036 24.3029 49.3814C19.6259 46.9665 17.1894 43.0939 17.0589 37.8071C17.0372 36.8933 17.0589 35.9795 17.0589 35.0222C16.1235 35.0222 15.2968 35.044 14.492 35.0222C11.5987 34.9787 9.31456 32.8684 9.09702 29.9748C9.01 28.6694 9.03176 27.364 9.05351 26.0586C9.07526 22.5341 11.3594 20.2715 14.9053 20.2497C15.6014 20.2497 16.2975 20.2497 17.0807 20.2497C17.0807 19.8146 17.0807 19.4882 17.0807 19.1619C17.0807 14.3972 17.0807 9.65437 17.0807 4.88973C17.0807 2.95342 17.9073 1.56102 19.6911 0.756032C19.9304 0.647251 20.1697 0.538469 20.4307 0.429688C25.1078 0.4732 29.8936 0.47319 34.6795 0.47319ZM42.6196 5.93405C42.8589 6.26039 43.0547 6.52145 43.2505 6.78252C44.4904 8.52303 45.4258 10.4159 46.035 12.4609C46.296 13.3312 46.0132 13.9621 45.3171 14.2015C44.621 14.419 44.0771 14.1144 43.7291 13.3094C43.4245 12.5915 43.1417 11.8518 42.8372 11.112C41.6842 8.19669 39.8351 5.91229 36.9636 4.51989C36.311 4.19354 35.7237 3.73666 35.0493 3.43207C34.5272 3.19275 33.9399 2.97517 33.3743 2.95342C29.4586 2.9099 25.5429 2.93166 21.6272 2.93166C19.9957 2.93166 19.4301 3.51908 19.4083 5.1508C19.4083 8.61005 19.4301 12.0476 19.3866 15.5068C19.3866 16.1378 19.6041 16.3336 20.1697 16.4641C23.324 17.1385 26.4783 17.813 29.6326 18.5745C32.7651 19.3359 35.8759 19.7711 39.052 19.0313C41.4231 18.4657 43.8161 17.9653 46.209 17.4214C47.9058 17.0515 49.5808 16.6599 51.2994 16.2683C51.2994 15.1805 51.2994 14.1362 51.2994 13.1136C51.3211 8.28373 47.536 5.10731 42.6196 5.93405ZM51.3211 34.4783C50.4292 34.6741 49.6026 35.0005 48.7542 35.044C46.7093 35.131 44.6862 35.0875 42.6414 35.0657C41.5754 35.0657 40.6183 34.6741 39.7916 34.0215C39.6393 33.9127 39.4653 33.8039 39.2695 33.6734C39.0737 36.5887 37.8338 38.0899 35.6149 38.2422C34.6795 38.3075 33.8311 38.0681 33.0914 37.5025C31.8297 36.5669 31.4382 35.2398 31.5469 33.5646C30.481 34.4783 29.4368 35.1093 28.1968 35.0657C25.3036 34.9352 22.3451 35.6097 19.4736 34.4348C19.4736 35.8708 19.4083 37.2631 19.4953 38.6338C19.7999 43.9641 24.2812 48.2501 29.6326 48.3154C33.4613 48.3589 37.2899 48.3589 41.1403 48.3154C45.5781 48.2718 49.5156 45.2912 50.8643 41.0487C51.5387 38.8731 51.2559 36.6322 51.3211 34.4783ZM19.4953 24.7097C30.1112 24.7097 40.6835 24.7097 51.2994 24.7097C51.2994 22.7299 51.2994 20.8154 51.2994 18.8355C51.0166 18.879 50.7773 18.9008 50.5597 18.9443C47.536 19.6188 44.5122 20.2715 41.5102 20.9894C38.5081 21.7074 35.4844 22.2078 32.3953 21.6204C29.8284 21.1417 27.3049 20.5108 24.7597 19.9451C23.0194 19.5535 21.2791 19.1837 19.4518 18.7703C19.4518 20.5978 19.4518 22.2948 19.4518 24.0135C19.4301 24.2529 19.4736 24.4487 19.4953 24.7097ZM39.5741 27.2552C39.9004 28.5171 40.1614 29.7137 40.5095 30.8885C40.814 31.9546 41.6407 32.6073 42.7066 32.6291C44.708 32.6508 46.7311 32.6726 48.7324 32.6291C50.0159 32.6073 51.1471 31.563 51.2776 30.2794C51.3646 29.3003 51.2994 28.2778 51.2994 27.2552C47.3837 27.2552 43.5333 27.2552 39.5741 27.2552ZM19.4736 27.2552C19.4736 28.256 19.4083 29.2133 19.4953 30.1488C19.6041 31.5195 20.6918 32.5855 22.084 32.6073C24.0854 32.6508 26.1085 32.6291 28.1098 32.6073C28.98 32.5855 29.7631 32.1504 30.0677 31.3454C30.5463 30.04 30.8508 28.6694 31.2424 27.2335C27.2397 27.2552 23.411 27.2552 19.4736 27.2552ZM16.9284 32.6291C16.9284 29.2786 16.9284 26.0586 16.9284 22.7517C16.1452 22.7517 15.4491 22.7517 14.753 22.7517C14.5137 22.7517 14.2744 22.7734 14.0134 22.7952C12.6864 22.991 11.5987 23.97 11.5117 25.2972C11.4029 26.8854 11.4029 28.4954 11.5117 30.0836C11.5987 31.4542 12.8169 32.5203 14.1874 32.5855C15.0793 32.6508 15.9712 32.6291 16.9284 32.6291ZM53.8011 32.6291C54.7582 32.6291 55.6284 32.6726 56.4985 32.6291C58.043 32.5638 59.2613 31.3237 59.3048 29.779C59.3483 28.3866 59.3483 27.0159 59.3048 25.6235C59.2613 24.3399 58.3476 23.1215 57.1076 22.904C56.0199 22.7299 54.9105 22.7734 53.8011 22.7299C53.8011 26.0804 53.8011 29.3003 53.8011 32.6291ZM39.6829 61.1516C41.6842 61.739 43.729 62.3264 45.7522 62.8921C45.8609 62.9138 46.2307 62.5875 46.2525 62.4135C46.296 60.7382 46.296 59.0412 46.2525 57.366C46.2525 57.1702 45.9697 56.8438 45.8174 56.8438C43.7943 56.8003 41.7495 56.8221 39.6829 56.8221C39.6829 58.2797 39.6829 59.6939 39.6829 61.1516ZM31.0683 56.8003C29.0017 56.8003 27.0221 56.7786 25.0425 56.8221C24.8468 56.8221 24.5205 57.1049 24.5205 57.2572C24.477 58.9977 24.477 60.7165 24.5205 62.457C24.5205 62.6093 24.9338 62.9139 25.0861 62.8703C27.0874 62.3264 29.0888 61.739 31.0683 61.1733C31.0683 59.6939 31.0683 58.3015 31.0683 56.8003ZM40.1832 50.7956C36.9419 50.7956 33.7876 50.7956 30.5898 50.7956C30.5898 51.9922 30.5898 53.1453 30.5898 54.5594C31.1119 54.2766 31.4599 54.059 31.8297 53.885C32.3953 53.6239 32.9609 53.2105 33.57 53.1453C34.7447 53.0365 35.963 53.0147 37.1377 53.1453C37.7685 53.2105 38.3341 53.6457 38.9432 53.9285C39.313 54.1025 39.6828 54.2766 40.1832 54.5159C40.1832 53.1453 40.1832 52.0139 40.1832 50.7956ZM37.1377 62.6093C37.1377 60.2596 37.1377 57.9534 37.1377 55.6255C35.9412 55.6255 34.7882 55.6255 33.6135 55.6255C33.6135 57.9752 33.6135 60.2813 33.6135 62.6093C34.7882 62.6093 35.9194 62.6093 37.1377 62.6093ZM34.0051 27.2552C34.0051 29.6484 34.0051 31.9546 34.0051 34.2608C34.0051 35.1963 34.5272 35.762 35.3321 35.7837C36.1805 35.8055 36.7678 35.2181 36.7678 34.2608C36.7896 32.7161 36.7678 31.1714 36.7678 29.6049C36.7678 28.8217 36.7678 28.0385 36.7678 27.2335C35.8324 27.2552 34.9623 27.2552 34.0051 27.2552Z" fill="#DC3545"/>
<path d="M74.1639 84.0169C73.5113 83.6035 73.3155 82.9944 73.3155 82.2329C73.3373 74.3788 73.3155 66.5248 73.3373 58.649C73.3373 58.0616 73.1633 57.6482 72.7499 57.2349C70.7051 55.2115 68.682 53.1664 66.5936 51.0778C64.6358 52.0786 63.0913 51.4042 61.7425 49.8812C61.1334 49.185 60.4155 48.5758 59.8064 47.9014C57.3483 45.2036 57.457 41.2005 60.0457 38.6115C62.6127 36.0442 66.6371 35.9137 69.3346 38.3504C70.27 39.1989 71.1402 40.0909 71.9886 40.9829C73.3373 42.3971 73.3373 44.3116 71.9886 45.7475C71.4012 46.3567 70.8139 46.9441 70.2047 47.5315C69.5956 48.119 68.9865 48.6846 68.3339 49.3156C68.5732 49.5766 68.7472 49.7942 68.943 49.9682C71.9668 52.9924 74.9688 56.0165 77.9926 59.0189C78.8628 59.8891 79.0803 59.8891 79.9287 59.0406C81.4732 57.4959 81.4732 57.496 79.9504 55.973C78.0361 54.0802 76.1435 52.1656 74.2292 50.2728C73.7071 49.7507 73.4896 49.2068 73.9246 48.5323C74.338 47.9232 75.1864 47.8144 75.7737 48.38C78.1449 50.708 80.4943 53.0359 82.8002 55.4291C83.9531 56.6257 83.8661 58.4097 82.7567 59.6498C82.2999 60.1502 81.8213 60.6289 81.3209 61.1075C79.8852 62.4564 78.0144 62.4346 76.5786 61.0422C76.3611 60.8247 76.1218 60.6071 75.752 60.259C75.752 60.7159 75.752 60.9987 75.752 61.3033C75.752 68.2653 75.752 75.2274 75.7737 82.1894C75.7737 83.0161 75.5562 83.6253 74.7948 83.9734C74.599 84.0169 74.3815 84.0169 74.1639 84.0169ZM60.4808 43.92C60.6983 44.3986 61.0029 45.3777 61.5685 46.1609C62.2864 47.1182 63.2435 47.9232 64.1137 48.7934C64.5488 49.2285 65.0491 49.272 65.4842 48.8369C67.094 47.2487 68.682 45.6605 70.27 44.0505C70.6833 43.6372 70.6833 43.1585 70.27 42.7452C69.3346 41.8096 68.4427 40.8088 67.4203 39.9821C66.0498 38.8725 64.4617 38.7855 62.8955 39.5687C61.3292 40.3302 60.5678 41.6791 60.4808 43.92Z" fill="#DC3545"/>
<path d="M15.7509 84.0193C15.0113 83.693 14.772 83.1273 14.772 82.3441C14.7502 78.9066 14.7285 75.4473 14.5979 72.0098C14.5327 70.4651 14.2499 68.9422 14.0541 67.3975C13.9236 66.3532 14.2716 65.7005 15.0765 65.5917C15.8162 65.5047 16.273 66.0051 16.4688 67.0276C17.4259 72.2274 17.2519 77.4707 17.1866 82.6922C17.1866 83.1273 16.6863 83.5624 16.4035 83.9976C16.186 84.0193 15.9684 84.0193 15.7509 84.0193Z" fill="#DC3545"/>
<path d="M35.3119 45.3751C33.006 45.3098 31.1134 44.3525 29.7212 42.4597C29.1991 41.7417 29.2644 41.0238 29.8517 40.5887C30.4391 40.1318 31.1134 40.2841 31.679 40.9803C33.7674 43.5475 36.9652 43.5693 39.0536 41.0238C39.6627 40.2623 40.3371 40.1318 40.9462 40.6104C41.5335 41.0673 41.5553 41.807 40.9679 42.5685C39.5539 44.396 37.6831 45.3315 35.3119 45.3751Z" fill="#DC3545"/>
</svg>
