<svg width="130" height="130" viewBox="0 0 130 130" fill="none" xmlns="http://www.w3.org/2000/svg">
<path d="M105.383 55.561L105.383 55.5616C107.726 65.6266 106.422 75.2627 101.611 84.4233C101.197 85.19 101.166 85.8983 101.415 86.6743C103.092 92.0966 104.769 97.5174 106.421 102.938C106.918 104.571 106.04 106.019 104.468 106.254L104.461 106.255C104.005 106.328 103.383 106.201 102.801 105.969L102.799 105.967C98.0424 104.094 93.2862 102.195 88.5299 100.272L88.5271 100.27C88.1492 100.12 87.7741 100.04 87.3795 100.077C86.9883 100.114 86.6377 100.261 86.2989 100.467C69.209 110.605 47.6389 107.404 34.3254 92.6906L33.8435 93.1267L34.3254 92.6906C27.1916 84.8076 23.7251 75.4645 23.65 66.5854C23.8002 47.5223 34.4399 32.3056 50.6242 26.2581C73.8991 17.5725 99.7876 31.4038 105.383 55.561ZM99.2643 99.5035L100.514 100.002L100.128 98.7134C99.8829 97.895 99.6417 97.0849 99.4025 96.2816C98.446 93.0692 97.5219 89.9658 96.518 86.8799C96.0767 85.4913 96.2221 84.3546 96.9647 83.0521L96.967 83.048C102.009 74.0525 103.184 64.501 100.305 54.6078C94.3643 34.1271 72.7432 23.0914 52.4892 30.0579L52.4891 30.0579C33.1874 36.6992 22.8889 58.4467 30.0039 77.534L30.0041 77.5345C38.4139 100.042 65.0279 108.794 85.1602 95.6706L85.163 95.6687C85.8081 95.2434 86.3935 95.0073 86.9536 94.9441C87.5049 94.8819 88.0793 94.9816 88.7183 95.3059L88.7222 95.3078C88.9875 95.4402 89.3076 95.5586 89.5808 95.6596C89.6979 95.7029 89.8064 95.743 89.8984 95.7797C91.5733 96.4511 93.2525 97.1166 94.9636 97.7948C96.3705 98.3524 97.799 98.9186 99.2643 99.5035Z" fill="white" stroke="#ED2D22" stroke-width="1.3"/>
<path d="M49.3958 64.9909L49.3958 64.986C49.3958 62.0553 46.9675 59.6657 43.9905 59.688L49.3958 64.9909ZM49.3958 64.9909C49.4181 67.9498 47.0095 70.359 44.0356 70.359M49.3958 64.9909L44.0356 70.359M44.0356 70.359C41.0877 70.359 38.6754 67.9497 38.6754 65.011M44.0356 70.359L38.6754 65.011M38.6754 65.011C38.6754 62.0983 41.0628 59.7103 43.9904 59.688L38.6754 65.011Z" fill="white" stroke="#ED2D22" stroke-width="1.3"/>
<path d="M65.0718 70.384C68.0179 70.384 70.432 67.9764 70.432 65.011C70.432 62.0518 68.0252 59.6657 65.0266 59.688L65.0718 70.384ZM65.0718 70.384C62.1256 70.384 59.7115 67.9764 59.7115 65.011M65.0718 70.384L59.7115 65.011M59.7115 65.011C59.7115 62.0983 62.0989 59.7104 65.0265 59.688L59.7115 65.011Z" fill="white" stroke="#ED2D22" stroke-width="1.3"/>
<path d="M80.7722 64.946L80.7723 64.9412C80.7945 62.0305 83.2022 59.6645 86.1301 59.6632C89.104 59.6868 91.49 62.0956 91.4677 65.0562C91.4454 67.9936 89.0115 70.3815 86.0623 70.3592C83.1165 70.3369 80.7276 67.908 80.7722 64.946Z" fill="white" stroke="#ED2D22" stroke-width="1.3"/>
</svg>
