<svg width="130" height="130" viewBox="0 0 130 130" fill="none" xmlns="http://www.w3.org/2000/svg">
<path d="M106.546 70.7861L106.545 70.7889C105.349 79.1224 102.004 86.4491 96.3968 92.7167L96.3965 92.717C89.9603 99.9213 81.9886 104.408 72.4442 106.122L72.4427 106.123C71.4216 106.309 70.4031 106.437 69.3717 106.567C68.8488 106.632 68.3226 106.699 67.7911 106.773H67.7847H67.7744H67.7641H67.7538H67.7435H67.7332H67.7229H67.7126H67.7022H67.6919H67.6816H67.6713H67.661H67.6507H67.6404H67.6301H67.6198H67.6095H67.5991H67.5888H67.5785H67.5682H67.5579H67.5476H67.5373H67.527H67.5167H67.5064H67.4961H67.4857H67.4754H67.4651H67.4548H67.4445H67.4342H67.4239H67.4136H67.4033H67.393H67.3826H67.3723H67.362H67.3517H67.3414H67.3311H67.3208H67.3105H67.3002H67.2899H67.2796H67.2692H67.2589H67.2486H67.2383H67.228H67.2177H67.2074H67.1971H67.1868H67.1765H67.1662H67.1558H67.1455H67.1352H67.1249H67.1146H67.1043H67.094H67.0837H67.0734H67.0631H67.0527H67.0424H67.0321H67.0218H67.0115H67.0012H66.9909H66.9806H66.9703H66.96H66.9497H66.9393H66.929H66.9187H66.9084H66.8981H66.8878H66.8775H66.8672H66.8569H66.8466H66.8363H66.8259H66.8156H66.8053H66.795H66.7847H66.7744H66.7641H66.7538H66.7435H66.7332H66.7228H66.7125H66.7022H66.6919H66.6816H66.6713H66.661H66.6507H66.6404H66.6301H66.6198H66.6094H66.5991H66.5888H66.5785H66.5682H66.5579H66.5476H66.5373H66.527H66.5167H66.5063H66.496H66.4857H66.4754H66.4651H66.4548H66.4445H66.4342H66.4239H66.4136H66.4033H66.3929H66.3826H66.3723H66.362H66.3517H66.3414H66.3311H66.3208H66.3105H66.3002H66.2898H66.2795H66.2692H66.2589H66.2486H66.2383H66.228H66.2177H66.2074H66.1971H66.1868H66.1764H66.1661H66.1558H66.1455H66.1352H66.1249H66.1146H66.1043H66.094H66.0837H66.0733H66.063H66.0527H66.0424H66.0321H66.0218H66.0115H66.0012H65.9909H65.9806H65.9703H65.9599H65.9496H65.9393H65.929H65.9187H65.9084H65.8981H65.8878H65.8775H65.8672H65.8568H65.8465H65.8362H65.8259H65.8156H65.8053H65.795H65.7847H65.7744H65.7641H65.7538H65.7434H65.7331H65.7228H65.7125H65.7022H65.6919H65.6816H65.6713H65.661H65.6507H65.6404H65.63H65.6197H65.6094H65.5991H65.5888H65.5785H65.5682H65.5579H65.5476H65.5373H65.5269H65.5166H65.5063H65.496H65.4857H65.4754H65.4651H65.4548H65.4445H65.4342H65.4239H65.4135H65.4032H65.3929H65.3826H65.3723H65.362H65.3517H65.3414H65.3311H65.3208H65.3104H65.3001H65.2898H65.2795H65.2692H65.2589H65.2486H65.2383H65.228H65.2177H65.2074H65.197H65.1867H65.1764H65.1661H65.1558H65.1455H65.1352H65.1249H65.1146H65.1043H65.094H65.0836H65.0733H65.063H65.0527H65.0424H65.0321H65.0218H65.0115H65.0012H64.9909H64.9805H64.9702H64.9599H64.9496H64.9393H64.929H64.9187H64.9084H64.8981H64.8878H64.8775H64.8671H64.8568H64.8465H64.8362H64.8259H64.8156H64.8053H64.795H64.7847H64.7744H64.764H64.7537H64.7434H64.7331H64.7228H64.7125H64.7022H64.6919H64.6816H64.6713H64.661H64.6506H64.6403H64.63H64.6197H64.6094H64.5991H64.5888H64.5785H64.5682H64.5579H64.5476H64.5372H64.5269H64.5166H64.5063H64.496H64.4857H64.4754H64.4651H64.4548H64.4445H64.4341H64.4238H64.4135H64.4032H64.3929H64.3826H64.3723H64.362H64.3517H64.3414H64.3311H64.3207H64.3104H64.3001H64.2898H64.2795H64.2692H64.2589H64.2486H64.2383H64.228H64.2176H64.2073H64.197H64.1867H64.1764H64.1661H64.1558H64.1455H64.1352H64.1249H64.1146H64.1042H64.0939H64.0836H64.0733H64.063H64.0527H64.0424H64.0321H64.0218H64.0115H64.0011H63.9908H63.9805H63.9702H63.9599H63.9496H63.9393H63.929H63.9187H63.9084H63.8981H63.8877H63.8774H63.8671H63.8568H63.8465H63.8362H63.8259H63.8156H63.8053H63.795H63.7846H63.7743H63.764H63.7537H63.7434H63.7331H63.7228H63.7125H63.7022H63.6919H63.6816H63.6712H63.6609H63.6506H63.6403H63.63H63.6197H63.6094H63.5991H63.5888H63.5785H63.5681H63.5578H63.5475H63.5372H63.5269H63.5166H63.5063H63.496H63.4857H63.4754H63.4651H63.4547H63.4444H63.4341H63.4238H63.4135H63.4032H63.3929H63.3826H63.3723H63.362H63.3517H63.3413H63.331H63.3207H63.3104H63.3001H63.2898H63.2795H63.2692H63.2589H63.2486H63.2382H63.2279H63.2176H63.2073H63.197H63.1867H63.1764H63.1661H63.1558H63.1455H63.1352H63.1248H63.1145H63.1042H63.0939H63.0836H63.0733H63.063H63.0527H63.0424H63.0321H63.0218H63.0114H63.0011H62.9908H62.9805H62.9702H62.9599H62.9496H62.9393H62.929H62.9187H62.9083H62.898H62.8877H62.8774H62.8671H62.8568H62.8465H62.8362H62.8259H62.8156H62.8053H62.7949H62.7846H62.7743H62.764H62.7537H62.7434H62.7331H62.7228H62.7125H62.7022H62.6918H62.6815H62.6712H62.6609H62.6506H62.6403H62.63H62.6197H62.6094H62.5991H62.5888H62.5784H62.5774C62.3134 106.741 62.0542 106.71 61.7944 106.678C61.5251 106.645 61.2551 106.612 60.9795 106.579L60.9754 106.578C52.2046 105.601 44.4092 102.39 37.8525 96.5186C26.8216 86.6393 22.0683 74.2457 23.8733 59.5738C25.2418 48.5175 30.5585 39.4808 39.3032 32.534C48.1068 25.5488 58.183 22.6651 69.3629 23.707C77.6418 24.4877 85.0259 27.565 91.4381 32.8144C99.4412 39.3688 104.436 47.7578 106.262 57.9544L106.262 57.9544L106.264 57.9645C106.475 59.0148 106.611 60.0651 106.749 61.1309C106.809 61.5949 106.869 62.0618 106.936 62.533V62.5386V62.5489V62.5592V62.5694V62.5797V62.59V62.6003V62.6106V62.6209V62.6312V62.6415V62.6517V62.662V62.6723V62.6826V62.6929V62.7032V62.7135V62.7238V62.7341V62.7443V62.7546V62.7649V62.7752V62.7855V62.7958V62.8061V62.8164V62.8266V62.8369V62.8472V62.8575V62.8678V62.8781V62.8884V62.8987V62.909V62.9192V62.9295V62.9398V62.9501V62.9604V62.9707V62.981V62.9913V63.0016V63.0118V63.0221V63.0324V63.0427V63.053V63.0633V63.0736V63.0839V63.0942V63.1044V63.1147V63.125V63.1353V63.1456V63.1559V63.1662V63.1765V63.1867V63.197V63.2073V63.2176V63.2279V63.2382V63.2485V63.2588V63.2691V63.2793V63.2896V63.2999V63.3102V63.3205V63.3308V63.3411V63.3514V63.3617V63.3719V63.3822V63.3925V63.4028V63.4131V63.4234V63.4337V63.444V63.4542V63.4645V63.4748V63.4851V63.4954V63.5057V63.516V63.5263V63.5366V63.5468V63.5571V63.5674V63.5777V63.588V63.5983V63.6086V63.6189V63.6292V63.6394V63.6497V63.66V63.6703V63.6806V63.6909V63.7012V63.7115V63.7217V63.732V63.7423V63.7526V63.7629V63.7732V63.7835V63.7938V63.8041V63.8143V63.8246V63.8349V63.8452V63.8555V63.8658V63.8761V63.8864V63.8967V63.9069V63.9172V63.9275V63.9378V63.9481V63.9584V63.9687V63.979V63.9892V63.9995V64.0098V64.0201V64.0304V64.0407V64.051V64.0613V64.0716V64.0818V64.0921V64.1024V64.1127V64.123V64.1333V64.1436V64.1539V64.1642V64.1744V64.1847V64.195V64.2053V64.2156V64.2259V64.2362V64.2465V64.2567V64.267V64.2773V64.2876V64.2979V64.3082V64.3185V64.3288V64.3391V64.3493V64.3596V64.3699V64.3802V64.3905V64.4008V64.4111V64.4214V64.4317V64.4419V64.4522V64.4625V64.4728V64.4831V64.4934V64.5037V64.514V64.5243V64.5345V64.5448V64.5551V64.5654V64.5757V64.586V64.5963V64.6066V64.6168V64.6271V64.6374V64.6477V64.658V64.6683V64.6786V64.6889V64.6992V64.7094V64.7197V64.73V64.7403V64.7506V64.7609V64.7712V64.7815V64.7917V64.802V64.8123V64.8226V64.8329V64.8432V64.8535V64.8638V64.8741V64.8843V64.8946V64.9049V64.9152V64.9255V64.9358V64.9461V64.9564V64.9667V64.9769V64.9872V64.9975V65.0078V65.0181V65.0284V65.0387V65.049V65.0592V65.0695V65.0798V65.0901V65.1004V65.1107V65.121V65.1313V65.1416V65.1518V65.1621V65.1724V65.1827V65.193V65.2033V65.2136V65.2239V65.2342V65.2444V65.2547V65.265V65.2753V65.2856V65.2959V65.3062V65.3165V65.3268V65.337V65.3473V65.3576V65.3679V65.3782V65.3885V65.3988V65.4091V65.4193V65.4296V65.4399V65.4502V65.4605V65.4708V65.4811V65.4914V65.5017V65.5119V65.5222V65.5325V65.5428V65.5531V65.5634V65.5737V65.584V65.5942V65.6045V65.6148V65.6251V65.6354V65.6457V65.656V65.6663V65.6766V65.6868V65.6971V65.7074V65.7177V65.728V65.7383V65.7486V65.7589V65.7692V65.7794V65.7897V65.8V65.8103V65.8206V65.8309V65.8412V65.8515V65.8618V65.872V65.8823V65.8926V65.9029V65.9132V65.9235V65.9338V65.9441V65.9543V65.9646V65.9749V65.9852V65.9955V66.0058V66.0161V66.0264V66.0367V66.0469V66.0572V66.0675V66.0778V66.0881V66.0984V66.1087V66.119V66.1293V66.1395V66.1498V66.1601V66.1704V66.1807V66.191V66.2013V66.2116V66.2218V66.2321V66.2424V66.2527V66.263V66.2733V66.2836V66.2939V66.3042V66.3144V66.3247V66.335V66.3453V66.3556V66.3659V66.3762V66.3865V66.3968V66.407V66.4173V66.4276V66.4379V66.4482V66.4585V66.4688V66.4791V66.4893V66.4996V66.5099V66.5202V66.5305V66.5408V66.5511V66.5614V66.5717V66.5819V66.5922V66.6025V66.6128V66.6231V66.6334V66.6437V66.654V66.6643V66.6745V66.6848V66.6951V66.7054V66.7157V66.726V66.7363V66.7466V66.7569V66.7671V66.7774V66.7877V66.798V66.8083V66.8186V66.8289V66.8392V66.8494V66.8597V66.87V66.8803V66.8906V66.9009V66.9112V66.9215V66.9318V66.942V66.9523V66.9626V66.9729V66.9832V66.9935V67.0038V67.0141V67.0243V67.0346V67.0449V67.0552V67.0655V67.0758V67.0861V67.0964V67.1067V67.1169V67.1272V67.1375V67.1478V67.1581V67.1684V67.1787V67.189V67.1993V67.2095V67.2198V67.2301V67.2404V67.2507V67.261V67.2713V67.2816V67.2919V67.3021V67.3124V67.3227V67.333V67.3433V67.3536V67.3639V67.3742V67.3844V67.3947V67.405V67.4153V67.4256V67.4359V67.4462V67.4565V67.4668V67.477V67.4873V67.4976V67.5079V67.5182V67.5285V67.5388V67.5491V67.5593V67.5696V67.5799V67.5902V67.6005V67.6108V67.6211V67.6314V67.6417V67.6519V67.6622V67.6725V67.6828V67.6931V67.7034V67.7137V67.724V67.7333C106.893 68.0739 106.852 68.411 106.812 68.7462C106.729 69.4296 106.648 70.105 106.546 70.7861ZM27.7596 65.0418C27.6928 85.6004 44.4346 102.394 65.0961 102.483C85.7176 102.594 102.591 85.8208 102.658 65.1768C102.725 44.618 85.9826 27.8244 65.3208 27.7354C44.7 27.6464 27.8265 44.4195 27.7596 65.0418Z" fill="white" stroke="#ED2D22"/>
<path d="M67.3481 69.1681V67.9627C67.3481 66.9077 67.3481 66.0805 67.3263 65.2543L67.326 65.2411H67.3261C67.3261 62.9832 67.3237 60.7222 67.3213 58.4593C67.3164 53.9278 67.3115 49.3884 67.3261 44.85C67.326 44.3092 67.2226 43.8674 67.0225 43.5138C66.8255 43.1654 66.5173 42.871 66.0517 42.6473C64.6194 41.9874 63.0477 43 63.0477 44.7629V44.8062V44.8496V44.8929V44.9362V44.9796V45.0229V45.0663V45.1096V45.153V45.1963V45.2397V45.283V45.3263V45.3697V45.413V45.4564V45.4997V45.5431V45.5864V45.6298V45.6731V45.7165V45.7598V45.8032V45.8465V45.8899V45.9332V45.9766V46.02V46.0633V46.1067V46.15V46.1934V46.2367V46.2801V46.3234V46.3668V46.4102V46.4535V46.4969V46.5402V46.5836V46.627V46.6703V46.7137V46.757V46.8004V46.8438V46.8871V46.9305V46.9738V47.0172V47.0606V47.1039V47.1473V47.1907V47.234V47.2774V47.3208V47.3641V47.4075V47.4509V47.4942V47.5376V47.581V47.6243V47.6677V47.7111V47.7544V47.7978V47.8412V47.8846V47.9279V47.9713V48.0147V48.058V48.1014V48.1448V48.1882V48.2315V48.2749V48.3183V48.3617V48.405V48.4484V48.4918V48.5352V48.5785V48.6219V48.6653V48.7087V48.7521V48.7954V48.8388V48.8822V48.9256V48.9689V49.0123V49.0557V49.0991V49.1425V49.1859V49.2292V49.2726V49.316V49.3594V49.4028V49.4461V49.4895V49.5329V49.5763V49.6197V49.6631V49.7064V49.7498V49.7932V49.8366V49.88V49.9234V49.9668V50.0101V50.0535V50.0969V50.1403V50.1837V50.2271V50.2705V50.3139V50.3572V50.4006V50.444V50.4874V50.5308V50.5742V50.6176V50.661V50.7044V50.7478V50.7911V50.8345V50.8779V50.9213V50.9647V51.0081V51.0515V51.0949V51.1383V51.1817V51.2251V51.2685V51.3119V51.3553V51.3986V51.442V51.4854V51.5288V51.5722V51.6156V51.659V51.7024V51.7458V51.7892V51.8326V51.876V51.9194V51.9628V52.0062V52.0496V52.093V52.1364V52.1798V52.2232V52.2666V52.31V52.3534V52.3968V52.4402V52.4836V52.527V52.5704V52.6138V52.6572V52.7006V52.744V52.7873V52.8307V52.8741V52.9175V52.9609V53.0043V53.0478V53.0912V53.1346V53.178V53.2214V53.2648V53.3082V53.3516V53.395V53.4384V53.4818V53.5252V53.5686V53.612V53.6554V53.6988V53.7422V53.7856V53.829V53.8724V53.9158V53.9592V54.0026V54.046V54.0894V54.1328V54.1762V54.2196V54.263V54.3064V54.3498V54.3932V54.4366V54.48V54.5234V54.5668V54.6102V54.6536V54.697V54.7404V54.7838V54.8273V54.8707V54.9141V54.9575V55.0009V55.0443V55.0877V55.1311V55.1745V55.2179V55.2613V55.3047V55.3481V55.3915V55.4349V55.4783V55.5217V55.5651V55.6085V55.6519V55.6953V55.7387V55.7821V55.8255V55.869V55.9124V55.9558V55.9992V56.0426V56.086V56.1294V56.1728V56.2162V56.2596V56.303V56.3464V56.3898V56.4332V56.4766V56.52V56.5634V56.6068V56.6502V56.6936V56.737V56.7804V56.8238V56.8673V56.9107V56.9541V56.9975V57.0409V57.0843V57.1277V57.1711V57.2145V57.2579V57.3013V57.3447V57.3881V57.4315V57.4749V57.5183V57.5617V57.6051V57.6485V57.6919V57.7353V57.7787V57.8221V57.8655V57.9089V57.9523V57.9957V58.0391V58.0825V58.1259V58.1693V58.2127V58.2561V58.2995V58.343V58.3864V58.4298V58.4732V58.5166V58.56V58.6034V58.6468V58.6902V58.7336V58.777V58.8204V58.8638V58.9072V58.9506V58.994V59.0374V59.0808V59.1242V59.1676V59.211V59.2544V59.2978V59.3411V59.3845V59.4279V59.4713V59.5147V59.5581V59.6015V59.6449V59.6883V59.7317V59.7751V59.8185V59.8619V59.9053V59.9487V59.9921V60.0355V60.0789V60.1223V60.1657V60.2091V60.2525V60.2959V60.3393V60.3827V60.4261V60.4694V60.5128V60.5562V60.5996V60.643V60.6864V60.7298V60.7732V60.8166V60.86V60.9034V60.9468V60.9902V61.0335V61.0769V61.1203V61.1637V61.2071V61.2505V61.2939V61.3373V61.3807V61.424V61.4674V61.5108V61.5542V61.5976V61.641V61.6844V61.7278V61.7711V61.8145V61.8579V61.9013V61.9447V61.9881V62.0315V62.0748V62.1182V62.1616V62.205V62.2484V62.2918V62.3351V62.3785V62.4219V62.4653V62.5087V62.5521V62.5954V62.6388V62.6822V62.7256V62.769V62.8123V62.8557V62.8991V62.9425V62.9859V63.0292V63.0726V63.116V63.1594V63.2027V63.2461V63.2895V63.3329V63.3762V63.4196V63.463V63.5064V63.5497V63.5931V63.6365V63.6799V63.7232V63.7666V63.81V63.8533V63.8967V63.9401V63.9835V64.0268V64.0702V64.1136V64.1569V64.2003V64.2437V64.287V64.3304V64.3738V64.4171V64.4605V64.5039V64.5472V64.5906V64.634V64.6773V64.7207V64.7641V64.8074V64.8508V64.8942V64.9375V64.9809V65.0242V65.0676V65.111V65.1543V65.1977V65.241V65.2844V65.3278V65.3711V65.4145V65.4578V65.5012V65.5445V65.5879V65.6312V65.6746V65.718V65.7613V65.8047V65.848V65.8914V65.9347V65.9781V66.0214V66.0648V66.1081V66.1515V66.1948V66.2382V66.2815V66.3249V66.3682V66.4116V66.4549V66.4983V66.5416V66.5849V66.6283V66.6716V66.715V66.7583V66.8017V66.845V66.8883V66.9317V66.975V66.9766V66.9781V66.9797V66.9812V66.9827V66.9843V66.9858V66.9874V66.9889V66.9905V66.992V66.9936V66.9951V66.9967V66.9982V66.9998V67.0013V67.0029V67.0044V67.006V67.0076V67.0091V67.0107V67.0122V67.0138V67.0153V67.0169V67.0185V67.02V67.0216V67.0231V67.0247V67.0263V67.0278V67.0294V67.031V67.0325V67.0341V67.0357V67.0372V67.0388V67.0404V67.0419V67.0435V67.0451V67.0466V67.0482V67.0498V67.0514V67.0529V67.0545V67.0561V67.0577V67.0592V67.0608V67.0624V67.064V67.0656V67.0672V67.0687V67.0703V67.0719V67.0735V67.0751V67.0767V67.0783V67.0798V67.0814V67.083V67.0846V67.0862V67.0878V67.0894V67.091V67.0926V67.0942V67.0958V67.0974V67.099V67.1006V67.1022V67.1038V67.1054V67.107V67.1086V67.1102V67.1118V67.1134V67.1151V67.1167V67.1183V67.1199V67.1215V67.1231V67.1247V67.1264V67.128V67.1296V67.1312V67.1328V67.1345V67.1361V67.1377V67.1393V67.141V67.1426V67.1442V67.1459V67.1475V67.1491V67.1508V67.1524V67.154V67.1557V67.1573V67.159V67.1606V67.1622V67.1639V67.1655V67.1672V67.1688V67.1705V67.1721V67.1738V67.1754V67.1771V67.1787V67.1804V67.1821V67.1837V67.1854V67.187V67.1887V67.1904V67.192V67.1937V67.1954V67.197V67.1987V67.2004V67.202V67.2037V67.2054V67.2071V67.2088V67.2104V67.2121V67.2138V67.2155V67.2172V67.2189V67.2205V67.2222V67.2239V67.2256V67.2273V67.229V67.2307V67.2324V67.2341V67.2358V67.2375V67.2392V67.2409V67.2426V67.2443V67.246V67.2477V67.2495V67.2512V67.2529V67.2546V67.2563V67.258V67.2598V67.2615V67.2632V67.2649V67.2667V67.2684V67.2701V67.2719V67.2736V67.2753V67.2771V67.2788V67.2806V67.2823V67.284V67.2858V67.2875V67.2893V67.291V67.2928V67.2945V67.2963V67.2981V67.2998V67.3016V67.3033V67.3051V67.3069V67.3086V67.3104V67.3122V67.3139V67.3157V67.3175V67.3193V67.3211V67.3228V67.3246V67.3264V67.3282V67.33V67.3318V67.3336V67.3354V67.3372V67.3389V67.3407V67.3425V67.3444V67.3462V67.348V67.3498V67.3516V67.3534V67.3552V67.357V67.3588V67.3607V67.3625V67.3643V67.3661V67.368V67.3698V67.3716V67.3734V67.3753V67.3771V67.379V67.3808V67.3826V67.3845V67.3863V67.3882V67.39V67.3919V67.3937V67.3956V67.3974V67.3993V67.4012V67.403V67.4049V67.4068V67.4086V67.4105V67.4124V67.4143V67.4161V67.418V67.4199V67.4218V67.4237V67.4256V67.4274V67.4293V67.4312V67.4331V67.435V67.4369V67.4388V67.4407V67.4426V67.4445V67.4465V67.4484V67.4503V67.4522V67.4541V67.456V67.458V67.4599V67.4618V67.4638V67.4657V67.4676V67.4696V67.4715V67.4734V67.4754V67.4773V67.4793V67.4812V67.4832V67.4851V67.4871V67.4891V67.491V67.493V67.495V67.4969V67.4989V67.5009V67.5028V67.5048V67.5068V67.5088V67.5108V67.5128V67.5148V67.5167V67.5187V67.5207V67.5227V67.5247V67.5267V67.5288V67.5308V67.5328V67.5348V67.5368V67.5388V67.5408V67.5429V67.5449V67.5469V67.549V67.551V67.553V67.5551V67.5571V67.5591V67.5612V67.5632V67.5653V67.5673V67.5694V67.5715V67.5735V67.5756V67.5776V67.5797V67.5818V67.5839V67.5859V67.588V67.5901V67.5922V67.5943V67.5963V67.5984V67.6005V67.6026V67.6047V67.6068V67.6089V67.611V67.6132V67.6153V67.6174V67.6195V67.6216V67.6237V67.6259V67.628V67.6301V67.6323V67.6344V67.6365V67.6387V67.6408V67.643V67.6451V67.6473V67.6494V67.6516V67.6537V67.6559V67.6581V67.6602V67.6624V67.6646V67.6668V67.6689V67.6711V67.6733V67.6755V67.6777V67.6799V67.6821V67.6843V67.6865V67.6887V67.6909V67.6931V67.6953V67.6975V67.6998V67.702V67.7042V67.7064V67.7087V67.7109V67.7131V67.7154V67.7176V67.7199V67.7221V67.7244V67.7266V67.7289V67.7311V67.7334V67.7357V67.7379V67.7402V67.7425V67.7448V67.747V67.7493V67.7516V67.7539V67.7562V67.7585V67.7608V67.7631V67.7654V67.7677V67.77V67.7723V67.7746V67.777V67.7793V67.7816V67.7839V67.7863V67.7886V67.791V67.7933V67.7956V67.798V67.8003V67.8027V67.805V67.8074V67.8098V67.8121V67.8145V67.8169V67.8193V67.8216V67.824V67.8264V67.8288V67.8312V67.8336V67.836V67.8384V67.8408V67.8432V67.8456V67.848V67.8504V67.8529V67.8553V67.8577V67.8602V67.8626V67.865V67.8675V67.8699V67.8724V67.8748V67.8773V67.8797V67.8822V67.8846V67.8871V67.8896V67.8921V67.8945V67.897V67.8995V67.902V67.9045V67.907V67.9095V67.912V67.9145V67.917V67.9195V67.922V67.9245V67.9271V67.9296V67.9321V67.9346V67.9372V67.9397V67.9423V67.9448V67.9473V67.9499V67.9525V67.955V67.9576V67.9601V67.9627V69.1681L62.1945 68.3166C62.0565 68.1789 61.9505 68.0785 61.8621 67.9955C61.8463 67.9807 61.8306 67.9661 61.8152 67.9517C61.7469 67.8878 61.6824 67.8275 61.6227 67.7679L61.6205 67.7657C59.8604 65.9873 58.1042 64.2128 56.3267 62.4827L56.3249 62.4809C55.0936 61.2704 53.2255 61.7406 52.7537 63.24L67.3481 69.1681ZM67.3481 69.1681L68.2013 68.3166C68.9034 67.616 69.5858 66.9375 70.2544 66.2727C71.5519 64.9827 72.7971 63.7446 74.0317 62.4981L74.0342 62.4956C74.3972 62.1238 74.7776 61.9057 75.1644 61.8157C75.5499 61.7259 75.9761 61.7552 76.4458 61.9333M67.3481 69.1681L76.4458 61.9333M76.4458 61.9333C77.8651 62.4759 78.2541 64.2721 77.1033 65.4387L77.1014 65.4406C76.1715 66.3938 75.2346 67.3251 74.2927 68.2615C73.5833 68.9667 72.871 69.6749 72.1564 70.3974C72.156 70.3978 72.1556 70.3982 72.1552 70.3986L69.5623 72.9863L66.9671 75.5762C66.3344 76.2076 65.7393 76.4672 65.1979 76.4672C64.6565 76.4672 64.0614 76.2076 63.4287 75.5762L58.4472 70.6048L53.4657 65.6334C53.0884 65.2569 52.8451 64.8801 52.7269 64.498C52.6107 64.1221 52.6059 63.7103 52.7537 63.2401L76.4458 61.9333Z" fill="white" stroke="#ED2D22"/>
<path d="M42.5805 84.9376L42.5811 84.9361C42.9028 84.1154 43.5239 83.6759 44.4073 83.5831C44.5383 83.5714 44.6491 83.5749 44.7902 83.5794C44.8793 83.5822 44.9806 83.5854 45.1067 83.5854H45.1852H45.2636H45.3421H45.4206H45.4991H45.5776H45.656H45.7345H45.813H45.8915H45.9699H46.0484H46.1269H46.2054H46.2838H46.3623H46.4408H46.5193H46.5977H46.6762H46.7547H46.8331H46.9116H46.9901H47.0686H47.147H47.2255H47.304H47.3824H47.4609H47.5394H47.6178H47.6963H47.7748H47.8532H47.9317H48.0101H48.0886H48.1671H48.2455H48.324H48.4025H48.4809H48.5594H48.6378H48.7163H48.7948H48.8732H48.9517H49.0301H49.1086H49.1871H49.2655H49.344H49.4224H49.5009H49.5793H49.6578H49.7362H49.8147H49.8932H49.9716H50.0501H50.1285H50.207H50.2854H50.3639H50.4423H50.5208H50.5992H50.6777H50.7561H50.8346H50.913H50.9915H51.0699H51.1484H51.2268H51.3053H51.3837H51.4622H51.5406H51.619H51.6975H51.7759H51.8544H51.9328H52.0113H52.0897H52.1682H52.2466H52.325H52.4035H52.4819H52.5604H52.6388H52.7173H52.7957H52.8741H52.9526H53.031H53.1095H53.1879H53.2663H53.3448H53.4232H53.5016H53.5801H53.6585H53.737H53.8154H53.8938H53.9723H54.0507H54.1291H54.2076H54.286H54.3644H54.4429H54.5213H54.5998H54.6782H54.7566H54.8351H54.9135H54.9919H55.0704H55.1488H55.2272H55.3057H55.3841H55.4625H55.5409H55.6194H55.6978H55.7762H55.8547H55.9331H56.0115H56.09H56.1684H56.2468H56.3252H56.4037H56.4821H56.5605H56.639H56.7174H56.7958H56.8742H56.9527H57.0311H57.1095H57.188H57.2664H57.3448H57.4232H57.5017H57.5801H57.6585H57.7369H57.8154H57.8938H57.9722H58.0506H58.1291H58.2075H58.2859H58.3643H58.4428H58.5212H58.5996H58.678H58.7564H58.8349H58.9133H58.9917H59.0701H59.1486H59.227H59.3054H59.3838H59.4622H59.5407H59.6191H59.6975H59.7759H59.8543H59.9328H60.0112H60.0896H60.168H60.2465H60.3249H60.4033H60.4817H60.5601H60.6386H60.717H60.7954H60.8738H60.9522H61.0306H61.1091H61.1875H61.2659H61.3443H61.4227H61.5012H61.5796H61.658H61.7364H61.8148H61.8933H61.9717H62.0501H62.1285H62.2069H62.2853H62.3638H62.4422H62.5206H62.599H62.6774H62.7558H62.8343H62.9127H62.9911H63.0695H63.1479H63.2263H63.3048H63.3832H63.4616H63.54H63.6184H63.6968H63.7753H63.8537H63.9321H64.0105H64.0889H64.1673H64.2458H64.3242H64.4026H64.481H64.5594H64.6378H64.7163H64.7947H64.8731H64.9515H65.0299H65.1083H65.1868H65.2652H65.3436H65.422H65.5004H65.5788H65.6573H65.7357H65.8141H65.8925H65.9709H66.0493H66.1278H66.2062H66.2846H66.363H66.4414H66.5198H66.5983H66.6767H66.7551H66.8335H66.9119H66.9903H67.0688H67.1472H67.2256H67.304H67.3824H67.4608H67.5393H67.6177H67.6961H67.7745H67.8529H67.9313H68.0098H68.0882H68.1666H68.245H68.3234H68.4019H68.4803H68.5587H68.6371H68.7155H68.7939H68.8724H68.9508H69.0292H69.1076H69.186H69.2645H69.3429H69.4213H69.4997H69.5781H69.6566H69.735H69.8134H69.8918H69.9702H70.0487H70.1271H70.2055H70.2839H70.3623H70.4408H70.5192H70.5976H70.676H70.7544H70.8329H70.9113H70.9897H71.0681H71.1465H71.225H71.3034H71.3818H71.4602H71.5387H71.6171H71.6955H71.7739H71.8523H71.9308H72.0092H72.0876H72.166H72.2445H72.3229H72.4013H72.4797H72.5582H72.6366H72.715H72.7934H72.8719H72.9503H73.0287H73.1071H73.1856H73.264H73.3424H73.4209H73.4993H73.5777H73.6561H73.7346H73.813H73.8914H73.9698H74.0483H74.1267H74.2051H74.2836H74.362H74.4404H74.5189H74.5973H74.6757H74.7541H74.8326H74.911H74.9894H75.0679H75.1463H75.2247H75.3032H75.3816H75.46H75.5385H75.6169H75.6953H75.7738H75.8522H75.9306H76.0091H76.0875H76.1659H76.2444H76.3228H76.4013H76.4797H76.5581H76.6366H76.715H76.7934H76.8719H76.9503H77.0288H77.1072H77.1856H77.2641H77.3425H77.421H77.4994H77.5778H77.6563H77.7347H77.8132H77.8916H77.97H78.0485H78.1269H78.2054H78.2838H78.3623H78.4407H78.5191H78.5976H78.676H78.7545H78.8329H78.9114H78.9898H79.0683H79.1467H79.2252H79.3036H79.3821H79.4605H79.539H79.6174H79.6959H79.7743H79.8528H79.9312H80.0097H80.0881H80.1666H80.245H80.3235H80.4019H80.4804H80.5588H80.6373H80.7157H80.7942H80.8726H80.9511H81.0296H81.108H81.1865H81.2649H81.3434H81.4218H81.5003H81.5788H81.6572H81.7357H81.8141H81.8926H81.9711H82.0495H82.128H82.2065H82.2849H82.3634H82.4418H82.5203H82.5988H82.6772H82.7557H82.8342H82.9126H82.9911H83.0696H83.148H83.2265H83.305H83.3834H83.4619H83.5404H83.6188H83.6973H83.7758H83.8543H83.9327H84.0112H84.0897H84.1682H84.2466H84.3251H84.4036H84.4821H84.5605H84.639H84.7175H84.796H84.8744H84.9529H85.0314H85.1099H85.1884H85.2668C85.3382 83.5854 85.4058 83.5849 85.4699 83.5844C85.7657 83.582 85.9901 83.5802 86.1939 83.6345L86.2092 83.6385L86.2247 83.6416C87.2923 83.8547 88.039 84.8703 87.9152 85.9475L87.9151 85.9475L87.9144 85.9548C87.8081 87.0157 86.9238 87.8531 85.7727 87.8531L85.7676 87.8531C84.3201 87.8677 82.8851 87.8629 81.443 87.858C80.7192 87.8556 79.9937 87.8531 79.2638 87.8531C74.6002 87.8312 69.8928 87.8312 65.1868 87.8312H65.1468H65.1069H65.0669H65.027H64.987H64.9471H64.9071H64.8672H64.8272H64.7873H64.7473H64.7074H64.6674H64.6275H64.5875H64.5476H64.5076H64.4677H64.4277H64.3878H64.3478H64.3079H64.2679H64.228H64.188H64.1481H64.1081H64.0682H64.0282H63.9883H63.9483H63.9084H63.8684H63.8285H63.7885H63.7486H63.7086H63.6687H63.6287H63.5888H63.5488H63.5089H63.4689H63.429H63.389H63.3491H63.3092H63.2692H63.2293H63.1893H63.1494H63.1094H63.0695H63.0295H62.9896H62.9496H62.9097H62.8697H62.8298H62.7898H62.7499H62.7099H62.67H62.63H62.5901H62.5501H62.5102H62.4702H62.4303H62.3903H62.3504H62.3104H62.2705H62.2305H62.1906H62.1506H62.1107H62.0707H62.0308H61.9908H61.9509H61.9109H61.871H61.831H61.7911H61.7511H61.7112H61.6712H61.6313H61.5913H61.5514H61.5114H61.4715H61.4315H61.3916H61.3516H61.3117H61.2717H61.2318H61.1918H61.1519H61.1119H61.072H61.032H60.9921H60.9522H60.9122H60.8723H60.8323H60.7924H60.7524H60.7125H60.6725H60.6326H60.5926H60.5527H60.5127H60.4728H60.4328H60.3929H60.3529H60.313H60.273H60.2331H60.1931H60.1532H60.1132H60.0733H60.0333H59.9934H59.9534H59.9135H59.8735H59.8336H59.7936H59.7537H59.7137H59.6738H59.6338H59.5939H59.5539H59.514H59.474H59.4341H59.3941H59.3542H59.3142H59.2743H59.2343H59.1944H59.1544H59.1145H59.0745H59.0346H58.9946H58.9547H58.9147H58.8748H58.8348H58.7949H58.7549H58.715H58.6751H58.6351H58.5952H58.5552H58.5153H58.4753H58.4354H58.3954H58.3555H58.3155H58.2756H58.2356H58.1957H58.1557H58.1158H58.0758H58.0359H57.9959H57.956H57.916H57.8761H57.8361H57.7962H57.7562H57.7163H57.6763H57.6364H57.5964H57.5565H57.5165H57.4766H57.4366H57.3967H57.3567H57.3168H57.2768H57.2369H57.1969H57.157H57.117H57.0771H57.0371H56.9972H56.9572H56.9173H56.8773H56.8374H56.7974H56.7575H56.7175H56.6776H56.6376H56.5977H56.5577H56.5178H56.4778H56.4379H56.3979H56.358H56.3181H56.2781H56.2382H56.1982H56.1583H56.1183H56.0784H56.0384H55.9985H55.9585H55.9186H55.8786H55.8387H55.7987H55.7588H55.7188H55.6789H55.6389H55.599H55.559H55.5191H55.4791H55.4392H55.3992H55.3593H55.3193H55.2794H55.2394H55.1995H55.1595H55.1196H55.0796H55.0397H54.9997H54.9598H54.9198H54.8799H54.8399H54.8H54.76H54.7201H54.6801H54.6402H54.6002H54.5603H54.5203H54.4804H54.4404H54.4005H54.3605H54.3206H54.2806H54.2407H54.2007H54.1608H54.1208H54.0809H54.0409H54.001H53.9611H53.9211H53.8812H53.8412H53.8013H53.7613H53.7214H53.6814H53.6415H53.6015H53.5616H53.5216H53.4817H53.4417H53.4018H53.3618H53.3219H53.2819H53.242H53.202H53.1621H53.1221H53.0822H53.0422H53.0023H52.9623H52.9224H52.8824H52.8425H52.8025H52.7626H52.7226H52.6827H52.6427H52.6028H52.5628H52.5229H52.4829H52.443H52.403H52.3631H52.3231H52.2832H52.2432H52.2033H52.1633H52.1234H52.0834H52.0435H52.0035H51.9636H51.9236H51.8837H51.8437H51.8038H51.7638H51.7239H51.6839H51.644H51.6041H51.5641H51.5242H51.4842H51.4443H51.4043H51.3644H51.3244H51.2845H51.2445H51.2046H51.1646H51.1247H51.0847H51.0448H51.0048H50.9649H50.9249H50.885H50.845H50.8051H50.7651H50.7252H50.6852H50.6453H50.6053H50.5654H50.5254H50.4855H50.4455H50.4056H50.3656H50.3257H50.2857H50.2458H50.2058H50.1659H50.1259H50.086H50.046H50.0061H49.9661H49.9262H49.8862H49.8463H49.8063H49.7664H49.7264H49.6865H49.6465H49.6066H49.5666H49.5267H49.4867H49.4468H49.4068H49.3669H49.327H49.287H49.2471H49.2071H49.1672H49.1272H49.0873H49.0473H49.0074H48.9674H48.9275H48.8875H48.8476H48.8076H48.7677H48.7277H48.6878H48.6478H48.6079H48.5679H48.528H48.488H48.4481H48.4081H48.3682H48.3282H48.2883H48.2483H48.2084H48.1684H48.1285H48.0885H48.0486H48.0086H47.9687H47.9287H47.8888H47.8488H47.8089H47.7689H47.729H47.689H47.6491H47.6091H47.5692H47.5292H47.4893H47.4493H47.4094H47.3694H47.3295H47.2895H47.2496H47.2096H47.1697H47.1297H47.0898H47.0498H47.0099H46.97H46.93H46.8901H46.8501H46.8102H46.7702H46.7303H46.6903H46.6504H46.6104H46.5705H46.5305H46.4906H46.4506H46.4107H46.3707H46.3308H46.2908H46.2509H46.2109H46.171H46.131H46.0911H46.0511H46.0112H45.9712H45.9313H45.8913H45.8514H45.8114H45.7715H45.7315H45.6916H45.6516H45.6117H45.5717H45.5318H45.4918H45.4519H45.4119H45.372H45.332H45.2921H45.2521H45.2122H45.1722H45.1323H45.0923H45.0524H45.0124H44.9725H44.9325H44.8926H44.8526H44.8127H44.7727H44.7328C43.0236 87.8312 42.0206 86.3519 42.5805 84.9376Z" fill="white" stroke="#ED2D22"/>
</svg>
