<svg width="130" height="130" viewBox="0 0 130 130" fill="none" xmlns="http://www.w3.org/2000/svg">
<path d="M59.5826 106.134L59.5806 106.133C51.0519 104.899 43.4338 101.614 37.2007 95.7033C24.9975 84.0824 20.7935 69.925 25.204 53.6861C31.0783 32.0654 53.1745 19.4204 74.9373 24.6943L74.9374 24.6943C90.8146 28.5399 103.195 41.8087 105.873 57.8578L105.873 57.86C106.077 59.0504 106.227 60.2518 106.378 61.4587C106.419 61.7793 106.459 62.1003 106.5 62.4216V62.4296V62.4396V62.4496V62.4595V62.4695V62.4795V62.4895V62.4995V62.5095V62.5195V62.5295V62.5395V62.5494V62.5594V62.5694V62.5794V62.5894V62.5994V62.6094V62.6193V62.6293V62.6393V62.6493V62.6593V62.6692V62.6792V62.6892V62.6992V62.7092V62.7191V62.7291V62.7391V62.7491V62.7591V62.769V62.779V62.789V62.799V62.8089V62.8189V62.8289V62.8389V62.8488V62.8588V62.8688V62.8788V62.8887V62.8987V62.9087V62.9186V62.9286V62.9386V62.9486V62.9585V62.9685V62.9785V62.9884V62.9984V63.0084V63.0183V63.0283V63.0383V63.0482V63.0582V63.0682V63.0781V63.0881V63.098V63.108V63.118V63.1279V63.1379V63.1479V63.1578V63.1678V63.1777V63.1877V63.1977V63.2076V63.2176V63.2275V63.2375V63.2475V63.2574V63.2674V63.2773V63.2873V63.2972V63.3072V63.3172V63.3271V63.3371V63.347V63.357V63.3669V63.3769V63.3868V63.3968V63.4068V63.4167V63.4267V63.4366V63.4466V63.4565V63.4665V63.4764V63.4864V63.4963V63.5063V63.5162V63.5262V63.5361V63.5461V63.556V63.566V63.5759V63.5859V63.5958V63.6058V63.6157V63.6257V63.6356V63.6456V63.6555V63.6655V63.6754V63.6853V63.6953V63.7052V63.7152V63.7251V63.7351V63.745V63.755V63.7649V63.7748V63.7848V63.7947V63.8047V63.8146V63.8246V63.8345V63.8444V63.8544V63.8643V63.8743V63.8842V63.8941V63.9041V63.914V63.924V63.9339V63.9439V63.9538V63.9637V63.9737V63.9836V63.9935V64.0035V64.0134V64.0234V64.0333V64.0432V64.0532V64.0631V64.0731V64.083V64.0929V64.1029V64.1128V64.1227V64.1327V64.1426V64.1526V64.1625V64.1724V64.1824V64.1923V64.2022V64.2122V64.2221V64.232V64.242V64.2519V64.2618V64.2718V64.2817V64.2916V64.3016V64.3115V64.3214V64.3314V64.3413V64.3513V64.3612V64.3711V64.3811V64.391V64.4009V64.4109V64.4208V64.4307V64.4407V64.4506V64.4605V64.4704V64.4804V64.4903V64.5002V64.5102V64.5201V64.53V64.54V64.5499V64.5598V64.5698V64.5797V64.5896V64.5996V64.6095V64.6194V64.6294V64.6393V64.6492V64.6591V64.6691V64.679V64.6889V64.6989V64.7088V64.7187V64.7287V64.7386V64.7485V64.7585V64.7684V64.7783V64.7882V64.7982V64.8081V64.818V64.828V64.8379V64.8478V64.8578V64.8677V64.8776V64.8876V64.8975V64.9074V64.9173V64.9273V64.9372V64.9471V64.9571V64.967V64.9769V64.9869V64.9968V65.0067V65.0166V65.0266V65.0365V65.0464V65.0564V65.0663V65.0762V65.0862V65.0961V65.106V65.1159V65.1259V65.1358V65.1457V65.1557V65.1656V65.1755V65.1855V65.1954V65.2053V65.2153V65.2252V65.2351V65.245V65.255V65.2649V65.2748V65.2848V65.2947V65.3046V65.3146V65.3245V65.3344V65.3444V65.3543V65.3642V65.3742V65.3841V65.394V65.404V65.4139V65.4238V65.4338V65.4437V65.4536V65.4636V65.4735V65.4834V65.4934V65.5033V65.5132V65.5232V65.5331V65.543V65.553V65.5629V65.5728V65.5828V65.5927V65.6026V65.6126V65.6225V65.6324V65.6424V65.6523V65.6622V65.6722V65.6821V65.692V65.702V65.7119V65.7219V65.7318V65.7417V65.7517V65.7616V65.7715V65.7815V65.7914V65.8013V65.8113V65.8212V65.8312V65.8411V65.851V65.861V65.8709V65.8809V65.8908V65.9007V65.9107V65.9206V65.9305V65.9405V65.9504V65.9604V65.9703V65.9803V65.9902V66.0001V66.0101V66.02V66.03V66.0399V66.0498V66.0598V66.0697V66.0797V66.0896V66.0996V66.1095V66.1194V66.1294V66.1393V66.1493V66.1592V66.1692V66.1791V66.1891V66.199V66.209V66.2189V66.2288V66.2388V66.2487V66.2587V66.2686V66.2786V66.2885V66.2985V66.3084V66.3184V66.3283V66.3383V66.3482V66.3582V66.3681V66.3781V66.388V66.398V66.4079V66.4179V66.4278V66.4378V66.4477V66.4577V66.4676V66.4776V66.4876V66.4975V66.5075V66.5174V66.5274V66.5373V66.5473V66.5572V66.5672V66.5772V66.5871V66.5971V66.607V66.617V66.6269V66.6369V66.6469V66.6568V66.6668V66.6767V66.6867V66.6967V66.7066V66.7166V66.7265V66.7365V66.7465V66.7564V66.7664V66.7764V66.7863V66.7963V66.8063V66.8162V66.8262V66.8361V66.8461V66.8561V66.866V66.876V66.886V66.896V66.9059V66.9159V66.9259V66.9358V66.9458V66.9558V66.9657V66.9757V66.9857V66.9957V67.0056V67.0156V67.0256V67.0355V67.0455V67.0555V67.0655V67.0754V67.0854V67.0954V67.1054V67.1153V67.1253V67.1353V67.1453V67.1553V67.1652V67.1752V67.1852V67.1952V67.2052V67.2151V67.2251V67.2351V67.2451V67.2551V67.2651V67.275V67.285V67.295V67.305V67.315V67.325V67.3349V67.3449V67.3549V67.3649V67.3749V67.3849V67.3949V67.4049V67.4149V67.4249V67.4332C106.489 67.4827 106.478 67.5301 106.465 67.5833C106.457 67.6151 106.449 67.6491 106.44 67.6867C106.414 67.7971 106.386 67.9265 106.371 68.0692L106.37 68.0775L106.37 68.0859C106.089 72.3237 105.203 76.4231 103.566 80.3017C97.5956 94.3845 87.1055 102.911 72.0721 105.875L72.0708 105.876C71.1033 106.069 70.1397 106.18 69.1523 106.293C68.6027 106.356 68.0457 106.42 67.4767 106.5H67.4732H67.4635H67.4539H67.4443H67.4347H67.4251H67.4155H67.4059H67.3963H67.3867H67.3771H67.3675H67.3579H67.3482H67.3386H67.329H67.3194H67.3098H67.3002H67.2906H67.281H67.2714H67.2618H67.2522H67.2425H67.2329H67.2233H67.2137H67.2041H67.1945H67.1849H67.1753H67.1657H67.1561H67.1465H67.1369H67.1272H67.1176H67.108H67.0984H67.0888H67.0792H67.0696H67.06H67.0504H67.0408H67.0312H67.0215H67.0119H67.0023H66.9927H66.9831H66.9735H66.9639H66.9543H66.9447H66.9351H66.9255H66.9159H66.9062H66.8966H66.887H66.8774H66.8678H66.8582H66.8486H66.839H66.8294H66.8198H66.8102H66.8005H66.7909H66.7813H66.7717H66.7621H66.7525H66.7429H66.7333H66.7237H66.7141H66.7045H66.6949H66.6852H66.6756H66.666H66.6564H66.6468H66.6372H66.6276H66.618H66.6084H66.5988H66.5892H66.5795H66.5699H66.5603H66.5507H66.5411H66.5315H66.5219H66.5123H66.5027H66.4931H66.4835H66.4739H66.4642H66.4546H66.445H66.4354H66.4258H66.4162H66.4066H66.397H66.3874H66.3778H66.3682H66.3585H66.3489H66.3393H66.3297H66.3201H66.3105H66.3009H66.2913H66.2817H66.2721H66.2625H66.2528H66.2432H66.2336H66.224H66.2144H66.2048H66.1952H66.1856H66.176H66.1664H66.1568H66.1472H66.1375H66.1279H66.1183H66.1087H66.0991H66.0895H66.0799H66.0703H66.0607H66.0511H66.0415H66.0318H66.0222H66.0126H66.003H65.9934H65.9838H65.9742H65.9646H65.955H65.9454H65.9358H65.9262H65.9165H65.9069H65.8973H65.8877H65.8781H65.8685H65.8589H65.8493H65.8397H65.8301H65.8205H65.8109H65.8012H65.7916H65.782H65.7724H65.7628H65.7532H65.7436H65.734H65.7244H65.7148H65.7052H65.6955H65.6859H65.6763H65.6667H65.6571H65.6475H65.6379H65.6283H65.6187H65.6091H65.5995H65.5899H65.5802H65.5706H65.561H65.5514H65.5418H65.5322H65.5226H65.513H65.5034H65.4938H65.4842H65.4745H65.4649H65.4553H65.4457H65.4361H65.4265H65.4169H65.4073H65.3977H65.3881H65.3785H65.3689H65.3592H65.3496H65.34H65.3304H65.3208H65.3112H65.3016H65.292H65.2824H65.2728H65.2632H65.2535H65.2439H65.2343H65.2247H65.2151H65.2055H65.1959H65.1863H65.1767H65.1671H65.1575H65.1479H65.1382H65.1286H65.119H65.1094H65.0998H65.0902H65.0806H65.071H65.0614H65.0518H65.0422H65.0325H65.0229H65.0133H65.0037H64.9941H64.9845H64.9749H64.9653H64.9557H64.9461H64.9365H64.9268H64.9172H64.9076H64.898H64.8884H64.8788H64.8692H64.8596H64.85H64.8404H64.8308H64.8212H64.8115H64.8019H64.7923H64.7827H64.7731H64.7635H64.7539H64.7443H64.7347H64.7251H64.7155H64.7058H64.6962H64.6866H64.677H64.6674H64.6578H64.6482H64.6386H64.629H64.6194H64.6098H64.6002H64.5905H64.5809H64.5713H64.5617H64.5521H64.5425H64.5329H64.5233H64.5137H64.5041H64.4945H64.4849H64.4752H64.4656H64.456H64.4464H64.4368H64.4272H64.4176H64.408H64.3984H64.3888H64.3792H64.3695H64.3599H64.3503H64.3407H64.3311H64.3215H64.3119H64.3023H64.2927H64.2831H64.2735H64.2639H64.2542H64.2446H64.235H64.2254H64.2158H64.2062H64.1966H64.187H64.1774H64.1678H64.1582H64.1485H64.1389H64.1293H64.1197H64.1101H64.1005H64.0909H64.0813H64.0717H64.0621H64.0525H64.0429H64.0332H64.0236H64.014H64.0044H63.9948H63.9852H63.9756H63.966H63.9564H63.9468H63.9372H63.9275H63.9179H63.9083H63.8987H63.8891H63.8795H63.8699H63.8603H63.8507H63.8411H63.8315H63.8218H63.8122H63.8026H63.793H63.7834H63.7738H63.7642H63.7546H63.745H63.7354H63.7258H63.7162H63.7065H63.6969H63.6873H63.6777H63.6681H63.6585H63.6489H63.6393H63.6297H63.6201H63.6105H63.6008H63.5912H63.5816H63.572H63.5624H63.5528H63.5432H63.5336H63.524H63.5144H63.5048H63.4952H63.4855H63.4759H63.4663H63.4567H63.4471H63.4375H63.4279H63.4183H63.4087H63.3991H63.3895H63.3798H63.3702H63.3606H63.351H63.3414H63.3318H63.3222H63.3126H63.303H63.2934H63.2838H63.2742H63.2645H63.2549H63.2453H63.2357H63.2261H63.2165H63.2069H63.1973H63.1877H63.1781H63.1685H63.1589H63.1492H63.1396H63.13H63.1204H63.1108H63.1012H63.0916H63.082H63.0724H63.0628H63.0532H63.0435H63.0339H63.0243H63.0147H63.0051H62.9955H62.9859H62.9763H62.9667H62.9571H62.9475H62.9379H62.9282H62.9186H62.909H62.8994H62.8898H62.8802H62.8706H62.861H62.8514H62.8418H62.8322H62.8225H62.8129H62.8033H62.7937H62.7841H62.7745H62.7649H62.7553H62.7457H62.7361H62.7265H62.7169H62.7072H62.6976H62.688H62.6784H62.6688H62.6592H62.6496H62.64H62.6304H62.6208H62.6185C61.5981 106.391 60.5895 106.284 59.5826 106.134ZM93.4702 87.5802L93.576 88.8178L94.3571 87.852C105.245 74.3904 105.843 52.091 90.2412 37.6401L89.9035 38.0048L90.2412 37.6401C75.281 23.7863 51.7864 24.4515 37.6474 39.8335L37.6473 39.8336C23.8628 54.8389 25.8316 75.8737 35.7286 87.7915L36.5071 88.7289L36.6114 87.5148C37.1406 81.3586 38.968 76.1734 42.0578 71.9227C45.1478 67.6717 49.5202 64.3283 55.1809 61.8865L55.9175 61.5688L55.3078 61.0474C47.9968 54.7952 48.2733 44.4193 54.2425 38.4705C60.0235 32.71 69.276 32.4991 75.288 37.9403L75.2881 37.9404C81.7282 43.7669 82.332 54.7804 74.8009 61.043L74.1762 61.5625L74.9215 61.8861C80.5719 64.3388 84.9389 67.6824 88.0263 71.9387C91.1134 76.1947 92.941 81.3909 93.4702 87.5802ZM65.0111 102.274L65.0111 102.274L87.8203 94.4527C88.2671 94.1166 88.6404 93.5292 88.7519 92.9714L88.7529 92.9663C89.222 90.4862 89.2889 87.9834 88.954 85.46L88.9537 85.4575C87.1007 72.016 74.6862 62.7717 61.2699 64.8256L61.2696 64.8257C48.0478 66.8584 38.8265 79.8284 41.3289 92.9452L41.3298 92.9496C41.4412 93.507 41.8142 94.094 42.2606 94.4302C48.9522 99.5927 56.5565 102.141 65.0111 102.274ZM76.0361 49.247C76.0361 43.1965 71.0881 38.2723 65.0408 38.2723C58.9929 38.2723 54.0456 43.219 54.0456 49.247C54.0456 55.317 58.9916 60.2884 65.0864 60.2655C71.1134 60.2425 76.0361 55.2946 76.0361 49.247ZM59.509 106.628L59.509 106.628L59.509 106.628Z" fill="white" stroke="#ED2D22"/>
</svg>
