<svg width="76" height="76" viewBox="0 0 76 76" fill="none" xmlns="http://www.w3.org/2000/svg">
<path d="M74.7952 44.9917C78.5616 25.554 66.1836 6.24422 46.9676 1.63621C45.566 1.30489 44.1378 1.11566 42.7077 0.926182C42.0857 0.843761 41.4633 0.761294 40.8425 0.667065L74.7952 44.9917ZM74.7952 44.9917C73.3508 52.4523 69.9683 58.8889 64.6295 64.2832C59.0347 69.9335 52.3064 73.4992 44.4627 74.8523L74.7952 44.9917ZM11.7429 12.0269C17.2652 6.4498 23.8994 2.95225 31.6392 1.5987C32.6389 1.42995 33.6424 1.3085 34.662 1.18512C35.0542 1.13765 35.4488 1.0899 35.8464 1.03906H35.8488H35.8574H35.866H35.8745H35.8831H35.8917H35.9003H35.9088H35.9174H35.926H35.9345H35.9431H35.9517H35.9602H35.9688H35.9774H35.986H35.9945H36.0031H36.0117H36.0202H36.0288H36.0374H36.046H36.0545H36.0631H36.0717H36.0802H36.0888H36.0974H36.1059H36.1145H36.1231H36.1317H36.1402H36.1488H36.1574H36.1659H36.1745H36.1831H36.1917H36.2002H36.2088H36.2174H36.2259H36.2345H36.2431H36.2516H36.2602H36.2688H36.2774H36.2859H36.2945H36.3031H36.3116H36.3202H36.3288H36.3373H36.3459H36.3545H36.3631H36.3716H36.3802H36.3888H36.3973H36.4059H36.4145H36.423H36.4316H36.4402H36.4488H36.4573H36.4659H36.4745H36.483H36.4916H36.5002H36.5088H36.5173H36.5259H36.5345H36.543H36.5516H36.5602H36.5687H36.5773H36.5859H36.5945H36.603H36.6116H36.6202H36.6287H36.6373H36.6459H36.6545H36.663H36.6716H36.6802H36.6887H36.6973H36.7059H36.7144H36.723H36.7316H36.7402H36.7487H36.7573H36.7659H36.7744H36.783H36.7916H36.8002H36.8087H36.8173H36.8259H36.8344H36.843H36.8516H36.8601H36.8687H36.8773H36.8859H36.8944H36.903H36.9116H36.9201H36.9287H36.9373H36.9459H36.9544H36.963H36.9716H36.9801H36.9887H36.9973H37.0058H37.0144H37.023H37.0316H37.0401H37.0487H37.0573H37.0658H37.0744H37.083H37.0915H37.1001H37.1087H37.1173H37.1258H37.1344H37.143H37.1515H37.1601H37.1687H37.1772H37.1858H37.1944H37.203H37.2115H37.2201H37.2287H37.2372H37.2458H37.2544H37.263H37.2715H37.2801H37.2887H37.2972H37.3058H37.3144H37.3229H37.3315H37.3401H37.3487H37.3572H37.3658H37.3744H37.3829H37.3915H37.4001H37.4087H37.4172H37.4258H37.4344H37.4429H37.4515H37.4601H37.4686H37.4772H37.4858H37.4944H37.5029H37.5115H37.5201H37.5286H37.5372H37.5458H37.5544H37.5629H37.5715H37.5801H37.5886H37.5972H37.6058H37.6143H37.6229H37.6315H37.6401H37.6486H37.6572H37.6658H37.6743H37.6829H37.6915H37.7H37.7086H37.7172H37.7258H37.7343H37.7429H37.7515H37.76H37.7686H37.7772H37.7858H37.7943H37.8029H37.8115H37.82H37.8286H37.8372H37.8457H37.8543H37.8629H37.8715H37.88H37.8886H37.8972H37.9057H37.9143H37.9229H37.9314H37.94H37.9486H37.9572H37.9657H37.9743H37.9829H37.9914H38H38.0086H38.0172H38.0257H38.0343H38.0429H38.0514H38.06H38.0686H38.0771H38.0857H38.0943H38.1029H38.1114H38.12H38.1286H38.1371H38.1457H38.1543H38.1629H38.1714H38.18H38.1886H38.1971H38.2057H38.2143H38.2228H38.2314H38.24H38.2486H38.2571H38.2657H38.2743H38.2828H38.2914H38.3H38.3086H38.3171H38.3257H38.3343H38.3428H38.3514H38.36H38.3685H38.3771H38.3857H38.3943H38.4028H38.4114H38.42H38.4285H38.4371H38.4457H38.4542H38.4628H38.4714H38.48H38.4885H38.4971H38.5057H38.5142H38.5228H38.5314H38.54H38.5485H38.5571H38.5657H38.5742H38.5828H38.5914H38.5999H38.6085H38.6171H38.6257H38.6342H38.6428H38.6514H38.6599H38.6685H38.6771H38.6856H38.6942H38.7028H38.7114H38.7199H38.7285H38.7371H38.7456H38.7542H38.7628H38.7714H38.7799H38.7885H38.7971H38.8056H38.8142H38.8228H38.8313H38.8399H38.8485H38.8571H38.8656H38.8742H38.8828H38.8913H38.8999H38.9085H38.9171H38.9256H38.9342H38.9428H38.9513H38.9599H38.9685H38.977H38.9856H38.9942H39.0028H39.0113H39.0199H39.0285H39.037H39.0456H39.0542H39.0627H39.0713H39.0799H39.0885H39.097H39.1056H39.1142H39.1227H39.1313H39.1399H39.1485H39.157H39.1656H39.1742H39.1827H39.1913H39.1999H39.2084H39.217H39.2256H39.2342H39.2427H39.2513H39.2599H39.2684H39.277H39.2856H39.2942H39.3027H39.3113H39.3199H39.3284H39.337H39.3456H39.3541H39.3627H39.3713H39.3799H39.3884H39.397H39.4056H39.4141H39.4227H39.4313H39.4398H39.4484H39.457H39.4656H39.4741H39.4827H39.4913H39.4998H39.5084H39.517H39.5256H39.5341H39.5427H39.5513H39.5598H39.5684H39.577H39.5855H39.5941H39.6027H39.6113H39.6198H39.6284H39.637H39.6455H39.6541H39.6627H39.6712H39.6798H39.6884H39.697H39.7055H39.7141H39.7227H39.7312H39.7398H39.7484H39.757H39.7655H39.7741H39.7827H39.7912H39.7998H39.8084H39.8169H39.8255H39.8341H39.8427H39.8512H39.8598H39.8684H39.8769H39.8855H39.8941H39.9027H39.9112H39.9198H39.9284H39.9369H39.9455H39.9541H39.9626H39.9712H39.9798H39.9884H39.9969H40.0055H40.0141H40.0226H40.0312H40.0398H40.0484H40.0569H40.0655H40.0741H40.0826H40.0912H40.0998H40.1083H40.1169H40.1255H40.1341H40.1426H40.1512H40.1597C40.242 1.05382 40.3242 1.07161 40.4164 1.09165L40.4209 1.09265C40.5232 1.11489 40.6385 1.13995 40.7603 1.16026L40.7603 1.16031L40.7675 1.1614C41.4089 1.25877 42.0427 1.34271 42.6706 1.42586C44.0882 1.61362 45.4756 1.79736 46.8516 2.12257C65.8057 6.6681 78.0201 25.7203 74.3043 44.8966L74.3043 44.8967C72.8786 52.2609 69.5429 58.608 64.2741 63.9315C58.7511 69.5093 52.1167 73.0244 44.378 74.3595C43.4983 74.508 42.6238 74.6189 41.735 74.7316C41.2186 74.797 40.6974 74.8631 40.1676 74.9375H40.1598H40.1512H40.1426H40.1341H40.1255H40.1169H40.1083H40.0998H40.0912H40.0826H40.0741H40.0655H40.0569H40.0484H40.0398H40.0312H40.0226H40.0141H40.0055H39.9969H39.9884H39.9798H39.9712H39.9626H39.9541H39.9455H39.9369H39.9284H39.9198H39.9112H39.9027H39.8941H39.8855H39.8769H39.8684H39.8598H39.8512H39.8427H39.8341H39.8255H39.8169H39.8084H39.7998H39.7912H39.7827H39.7741H39.7655H39.757H39.7484H39.7398H39.7312H39.7227H39.7141H39.7055H39.697H39.6884H39.6798H39.6712H39.6627H39.6541H39.6455H39.637H39.6284H39.6198H39.6113H39.6027H39.5941H39.5855H39.577H39.5684H39.5598H39.5513H39.5427H39.5341H39.5256H39.517H39.5084H39.4998H39.4913H39.4827H39.4741H39.4656H39.457H39.4484H39.4398H39.4313H39.4227H39.4141H39.4056H39.397H39.3884H39.3799H39.3713H39.3627H39.3541H39.3456H39.337H39.3284H39.3199H39.3113H39.3027H39.2942H39.2856H39.277H39.2684H39.2599H39.2513H39.2427H39.2342H39.2256H39.217H39.2084H39.1999H39.1913H39.1827H39.1742H39.1656H39.157H39.1485H39.1399H39.1313H39.1227H39.1142H39.1056H39.097H39.0885H39.0799H39.0713H39.0627H39.0542H39.0456H39.037H39.0285H39.0199H39.0113H39.0028H38.9942H38.9856H38.977H38.9685H38.9599H38.9513H38.9428H38.9342H38.9256H38.9171H38.9085H38.8999H38.8913H38.8828H38.8742H38.8656H38.8571H38.8485H38.8399H38.8313H38.8228H38.8142H38.8056H38.7971H38.7885H38.7799H38.7714H38.7628H38.7542H38.7456H38.7371H38.7285H38.7199H38.7114H38.7028H38.6942H38.6856H38.6771H38.6685H38.6599H38.6514H38.6428H38.6342H38.6257H38.6171H38.6085H38.5999H38.5914H38.5828H38.5742H38.5657H38.5571H38.5485H38.54H38.5314H38.5228H38.5142H38.5057H38.4971H38.4885H38.48H38.4714H38.4628H38.4542H38.4457H38.4371H38.4285H38.42H38.4114H38.4028H38.3943H38.3857H38.3771H38.3685H38.36H38.3514H38.3428H38.3343H38.3257H38.3171H38.3086H38.3H38.2914H38.2828H38.2743H38.2657H38.2571H38.2486H38.24H38.2314H38.2228H38.2143H38.2057H38.1971H38.1886H38.18H38.1714H38.1629H38.1543H38.1457H38.1371H38.1286H38.12H38.1114H38.1029H38.0943H38.0857H38.0771H38.0686H38.06H38.0514H38.0429H38.0343H38.0257H38.0172H38.0086H38H37.9914H37.9829H37.9743H37.9657H37.9572H37.9486H37.94H37.9314H37.9229H37.9143H37.9057H37.8972H37.8886H37.88H37.8715H37.8629H37.8543H37.8457H37.8372H37.8286H37.82H37.8115H37.8029H37.7943H37.7858H37.7772H37.7686H37.76H37.7515H37.7429H37.7343H37.7258H37.7172H37.7086H37.7H37.6915H37.6829H37.6743H37.6658H37.6572H37.6486H37.6401H37.6315H37.6229H37.6143H37.6058H37.5972H37.5886H37.5801H37.5715H37.5629H37.5544H37.5458H37.5372H37.5286H37.5201H37.5115H37.5029H37.4944H37.4858H37.4772H37.4686H37.4601H37.4515H37.4429H37.4344H37.4258H37.4172H37.4087H37.4001H37.3915H37.3829H37.3744H37.3658H37.3572H37.3487H37.3401H37.3315H37.3229H37.3144H37.3058H37.2972H37.2887H37.2801H37.2715H37.263H37.2544H37.2458H37.2372H37.2287H37.2201H37.2115H37.203H37.1944H37.1858H37.1772H37.1687H37.1601H37.1515H37.143H37.1344H37.1258H37.1173H37.1087H37.1001H37.0915H37.083H37.0744H37.0658H37.0573H37.0487H37.0401H37.0316H37.023H37.0144H37.0058H36.9973H36.9887H36.9801H36.9716H36.963H36.9544H36.9459H36.9373H36.9287H36.9201H36.9116H36.903H36.8944H36.8859H36.8773H36.8687H36.8601H36.8516H36.843H36.8344H36.8259H36.8173H36.8087H36.8002H36.7916H36.783H36.7744H36.7659H36.7573H36.7487H36.7402H36.7316H36.723H36.7144H36.7059H36.6973H36.6887H36.6802H36.6716H36.663H36.6545H36.6459H36.6373H36.6287H36.6202H36.6116H36.603H36.5945H36.5859H36.5773H36.5687H36.5602H36.5516H36.543H36.5345H36.5259H36.5173H36.5088H36.5002H36.4916H36.483H36.4745H36.4659H36.4573H36.4488H36.4402H36.4316H36.423H36.4145H36.4059H36.3973H36.3888H36.3802H36.3716H36.3631H36.3545H36.3459H36.3373H36.3288H36.3202H36.3116H36.3031H36.2945H36.2859H36.2774H36.2688H36.2602H36.2516H36.2431H36.2345H36.2259H36.2174H36.2088H36.2002H36.1917H36.1831H36.1745H36.1659H36.1574H36.1488H36.1402H36.1317H36.1231H36.1145H36.1059H36.0974H36.0888H36.0802H36.0717H36.0631H36.0545H36.046H36.0374H36.0288H36.0202H36.0117H36.0031H35.9945H35.986H35.9774H35.9688H35.9602H35.9517H35.9431H35.9345H35.926H35.9174H35.9088H35.9003H35.8917H35.8831H35.8745H35.866H35.8574H35.8488H35.8422C34.8628 74.8286 33.8936 74.7206 32.9259 74.5772L32.9225 74.5767C25.6299 73.5477 19.1944 70.644 13.6937 65.774L13.6933 65.7736C7.19474 60.0325 3.1394 52.9111 1.64161 44.3402C1.47568 43.357 1.35561 42.371 1.23438 41.3755C1.18486 40.9688 1.13514 40.5606 1.08203 40.1503V40.1483V40.1397V40.1311V40.1226V40.114V40.1054V40.0968V40.0883V40.0797V40.0711V40.0626V40.054V40.0454V40.0368V40.0283V40.0197V40.0111V40.0026V39.994V39.9854V39.9768V39.9683V39.9597V39.9511V39.9426V39.934V39.9254V39.9168V39.9083V39.8997V39.8911V39.8826V39.874V39.8654V39.8568V39.8483V39.8397V39.8311V39.8226V39.814V39.8054V39.7968V39.7883V39.7797V39.7711V39.7626V39.754V39.7454V39.7368V39.7283V39.7197V39.7111V39.7026V39.694V39.6854V39.6768V39.6683V39.6597V39.6511V39.6426V39.634V39.6254V39.6168V39.6083V39.5997V39.5911V39.5826V39.574V39.5654V39.5568V39.5483V39.5397V39.5311V39.5226V39.514V39.5054V39.4968V39.4883V39.4797V39.4711V39.4626V39.454V39.4454V39.4368V39.4283V39.4197V39.4111V39.4026V39.394V39.3854V39.3768V39.3683V39.3597V39.3511V39.3426V39.334V39.3254V39.3168V39.3083V39.2997V39.2911V39.2826V39.274V39.2654V39.2568V39.2483V39.2397V39.2311V39.2226V39.214V39.2054V39.1968V39.1883V39.1797V39.1711V39.1626V39.154V39.1454V39.1368V39.1283V39.1197V39.1111V39.1026V39.094V39.0854V39.0768V39.0683V39.0597V39.0511V39.0426V39.034V39.0254V39.0168V39.0083V38.9997V38.9911V38.9826V38.974V38.9654V38.9568V38.9483V38.9397V38.9311V38.9226V38.914V38.9054V38.8968V38.8883V38.8797V38.8711V38.8626V38.854V38.8454V38.8368V38.8283V38.8197V38.8111V38.8026V38.794V38.7854V38.7768V38.7683V38.7597V38.7511V38.7426V38.734V38.7254V38.7168V38.7083V38.6997V38.6911V38.6826V38.674V38.6654V38.6568V38.6483V38.6397V38.6311V38.6226V38.614V38.6054V38.5968V38.5883V38.5797V38.5711V38.5626V38.554V38.5454V38.5368V38.5283V38.5197V38.5111V38.5026V38.494V38.4854V38.4768V38.4683V38.4597V38.4511V38.4426V38.434V38.4254V38.4168V38.4083V38.3997V38.3911V38.3826V38.374V38.3654V38.3568V38.3483V38.3397V38.3311V38.3226V38.314V38.3054V38.2968V38.2883V38.2797V38.2711V38.2626V38.254V38.2454V38.2368V38.2283V38.2197V38.2111V38.2026V38.194V38.1854V38.1768V38.1683V38.1597V38.1511V38.1426V38.134V38.1254V38.1168V38.1083V38.0997V38.0911V38.0826V38.074V38.0654V38.0568V38.0483V38.0397V38.0311V38.0226V38.014V38.0054V37.9968V37.9883V37.9797V37.9711V37.9626V37.954V37.9454V37.9368V37.9283V37.9197V37.9111V37.9025V37.894V37.8854V37.8768V37.8683V37.8597V37.8511V37.8426V37.834V37.8254V37.8168V37.8083V37.7997V37.7911V37.7826V37.774V37.7654V37.7568V37.7483V37.7397V37.7311V37.7225V37.714V37.7054V37.6968V37.6883V37.6797V37.6711V37.6626V37.654V37.6454V37.6368V37.6283V37.6197V37.6111V37.6026V37.594V37.5854V37.5768V37.5683V37.5597V37.5511V37.5425V37.534V37.5254V37.5168V37.5083V37.4997V37.4911V37.4826V37.474V37.4654V37.4568V37.4483V37.4397V37.4311V37.4226V37.414V37.4054V37.3968V37.3883V37.3797V37.3711V37.3625V37.354V37.3454V37.3368V37.3283V37.3197V37.3111V37.3026V37.294V37.2854V37.2768V37.2683V37.2597V37.2511V37.2425V37.234V37.2254V37.2168V37.2083V37.1997V37.1911V37.1825V37.174V37.1654V37.1568V37.1483V37.1397V37.1311V37.1226V37.114V37.1054V37.0968V37.0883V37.0797V37.0711V37.0625V37.054V37.0454V37.0368V37.0283V37.0197V37.0111V37.0025V36.994V36.9854V36.9768V36.9683V36.9597V36.9511V36.9426V36.934V36.9254V36.9168V36.9083V36.8997V36.8911V36.8825V36.874V36.8654V36.8568V36.8483V36.8397V36.8311V36.8225V36.814V36.8054V36.7968V36.7883V36.7797V36.7711V36.7626V36.754V36.7454V36.7368V36.7283V36.7197V36.7111V36.7025V36.694V36.6854V36.6768V36.6683V36.6597V36.6511V36.6425V36.634V36.6254V36.6168V36.6083V36.5997V36.5911V36.5826V36.574V36.5654V36.5568V36.5483V36.5397V36.5311V36.5225V36.514V36.5054V36.4968V36.4883V36.4797V36.4711V36.4625V36.454V36.4454V36.4368V36.4283V36.4197V36.4111V36.4025V36.394V36.3854V36.3768V36.3683V36.3597V36.3511V36.3425V36.334V36.3254V36.3168V36.3083V36.2997V36.2911V36.2825V36.274V36.2654V36.2568V36.2483V36.2397V36.2311V36.2225V36.214V36.2054V36.1968V36.1883V36.1797V36.1711V36.1625V36.154V36.1454V36.1368V36.1283V36.1197V36.1111V36.1025V36.094V36.0854V36.0768V36.0683V36.0597V36.0511V36.0425V36.034V36.0254V36.0168V36.0083V35.9997V35.9911V35.9825V35.974V35.9654V35.9568V35.9483V35.9397V35.9311V35.9225V35.914V35.9054V35.8968V35.8883V35.8797V35.8711V35.8625V35.854V35.8454V35.8368V35.8303C1.098 35.7235 1.11737 35.6148 1.13824 35.4979L1.13894 35.4939C1.16134 35.3685 1.18548 35.2333 1.20501 35.0967L1.20551 35.0929C1.2743 34.5839 1.32902 34.0874 1.38293 33.5983C1.47761 32.7392 1.5698 31.9029 1.73129 31.0607L1.73135 31.0604C3.13888 23.6971 6.47417 17.3504 11.7429 12.0269ZM11.7429 12.0269L11.3876 11.6751M11.7429 12.0269L11.3876 11.6751M11.3876 11.6751C6.04883 17.0694 2.66636 23.506 1.24024 30.9665L35.8145 0.539062C35.414 0.590416 35.0135 0.638885 34.6134 0.687305C33.5889 0.811299 32.5669 0.934972 31.5545 1.10593C23.7108 2.47736 16.9824 6.02479 11.3876 11.6751ZM49.881 28.6494C49.8233 35.1947 44.4997 40.464 37.9888 40.4449C31.4618 40.4258 26.1553 35.1389 26.1362 28.6092C26.1171 22.097 31.4975 16.6966 38.0283 16.7157C44.5546 16.7348 49.957 22.1504 49.881 28.6494ZM49.881 28.6494C49.881 28.6496 49.881 28.6499 49.881 28.6501L49.381 28.6443L49.881 28.6494ZM29.3109 42.1087L30.1491 41.7682L29.4149 41.2396C21.0648 35.229 21.1743 24.5512 26.5154 18.5728C32.1742 12.2575 41.6803 11.5457 47.8816 16.9703L47.8818 16.9705C51.2581 19.9206 53.1263 23.6314 53.2326 28.107C53.3566 33.599 51.049 37.9125 46.5959 41.226L45.8828 41.7566L46.7066 42.0905C54.8647 45.3973 60.0956 51.2382 62.5033 59.6482L62.7522 60.5176L63.3561 59.8445C74.0714 47.9023 75.3902 26.8513 60.6533 13.2821C46.3801 0.139575 24.1613 1.81119 11.968 16.8829L11.9679 16.883C-0.206443 31.9356 4.14964 50.8505 12.6897 59.8009L13.2934 60.4336L13.5324 59.5924C15.9212 51.1858 21.1682 45.4165 29.3109 42.1087ZM38.5871 71.5489L38.6136 71.5492L38.64 71.5468C38.8714 71.5252 39.1736 71.5045 39.5223 71.4806C40.2894 71.4281 41.2817 71.3601 42.2407 71.234C48.5893 70.4538 54.2143 67.9646 59.1634 63.9612C59.3356 63.8254 59.4519 63.6315 59.5201 63.4593C59.5882 63.2875 59.6375 63.0641 59.6028 62.84C58.0266 50.749 46.5023 42.2579 34.4883 44.2792C25.0232 45.8694 17.744 53.3351 16.4145 62.8215C16.3762 63.0784 16.4556 63.3334 16.5371 63.5112C16.6218 63.6957 16.7546 63.8961 16.9252 64.0329C23.0697 68.9714 30.1089 71.4378 38.5871 71.5489Z" fill="#DC3545" stroke="white"/>
</svg>
