<?xml version="1.0" encoding="utf-8"?>
<!-- Generator: Adobe Illustrator 21.0.0, SVG Export Plug-In . SVG Version: 6.00 Build 0)  -->
<svg version="1.1" id="Layer_1" xmlns="http://www.w3.org/2000/svg" xmlns:xlink="http://www.w3.org/1999/xlink" x="0px" y="0px"
	 viewBox="0 0 512 512" style="enable-background:new 0 0 512 512;" xml:space="preserve">
<style type="text/css">
	.st0{fill:#AEBC1F;}
</style>
<path class="st0" d="M194,80.6h201.5c4.2,0,7.6-3.4,7.6-7.6s-3.4-7.6-7.6-7.6H194c-4.2,0-7.6,3.4-7.6,7.6S189.8,80.6,194,80.6z"/>
<path class="st0" d="M186.4,120.9h209.1c4.2,0,7.6-3.4,7.6-7.6s-3.4-7.6-7.6-7.6H186.4c-4.2,0-7.6,3.4-7.6,7.6
	S182.2,120.9,186.4,120.9z"/>
<path class="st0" d="M116.5,161.1h279c4.2,0,7.6-3.4,7.6-7.6c0-4.2-3.4-7.6-7.6-7.6h-279c-4.2,0-7.6,3.4-7.6,7.6
	C109,157.7,112.3,161.1,116.5,161.1z"/>
<path class="st0" d="M116.5,201.4h209c4.2,0,7.6-3.4,7.6-7.6c0-4.2-3.4-7.6-7.6-7.6h-209c-4.2,0-7.6,3.4-7.6,7.6
	C109,198,112.3,201.4,116.5,201.4z"/>
<path class="st0" d="M116.5,241.7h209c4.2,0,7.6-3.4,7.6-7.6c0-4.2-3.4-7.6-7.6-7.6h-209c-4.2,0-7.6,3.4-7.6,7.6
	C109,238.3,112.3,241.7,116.5,241.7z"/>
<path class="st0" d="M370.5,206.1c-6-2.2-11.9-3.4-11.9-8.5c0-8.7,11.4-5.1,19.5-2.5c5.4-0.3,12.4-11.7-6.7-15v-5.5
	c0-3.6-2.9-6.5-6.5-6.5c-3.6,0-6.5,2.9-6.5,6.5v6.3c-0.1,0.1-12.5,2.5-12.5,17.1c0,12.6,9,16,16.3,18.7c7.3,2.7,10.5,4.2,10.5,10.1
	c0,7.5-5.5,6.8-8.8,7.3c-8.5-0.3-8.1-6.6-13.4-6.6c-3.3,0-6,3.7-6,6.7c0,8.6,13.8,11.8,13.9,11.8h0.1v5.5c0,3.6,2.9,6.5,6.5,6.5
	c3.6,0,6.5-2.9,6.5-6.5V246h0c0.5-0.4,13.9-2.8,13.9-19.6C385.3,210,371.8,207,370.5,206.1z"/>
<path class="st0" d="M146.1,111.8c-8.5-0.3-8.1-6.6-13.4-6.6c-3.3,0-6,3.7-6,6.7c0,8.6,13.8,11.8,13.9,11.8h0.1v5.5
	c0,3.6,2.9,6.5,6.5,6.5c3.6,0,6.5-2.9,6.5-6.5v-5.6h0c0.5-0.4,13.9-2.8,13.9-19.6c0-16.4-13.5-19.4-14.8-20.3
	c-6-2.2-11.9-3.4-11.9-8.5c0-8.7,11.4-5.1,19.5-2.5c5.4-0.3,12.4-11.7-6.7-15v-5.5c0-3.6-2.9-6.5-6.5-6.5c-3.6,0-6.5,2.9-6.5,6.5
	v6.3c-0.1,0.1-12.5,2.5-12.5,17.1c0,12.6,9,16,16.3,18.7c7.2,2.7,10.4,4.2,10.4,10.1C154.9,112,149.4,111.3,146.1,111.8z"/>
<path class="st0" d="M507.7,227.1l-68-32.4V8.6c0-4.2-3.4-7.6-7.6-7.6H79.9c-4.2,0-7.6,3.4-7.6,7.6v186.2l-68,32.4
	C1.7,228.3,0,231,0,233.9v262.9c0,8.1,6.6,14.6,14.6,14.6h141c4.2,0,7.6-3.4,7.6-7.6c0-4.2-3.4-7.6-7.6-7.6H25l159.7-169.7
	l63.4,30.2c5,2.4,10.8,2.4,15.8,0l63.4-30.2l54.1,57.4c1.5,1.6,3.5,2.4,5.5,2.4c6.6,0,10-7.9,5.5-12.7l-50.7-53.9
	c75.7-36,141.4-67.3,155.3-73.9v238.9l-83.8-89.1c-2.9-3-7.6-3.2-10.7-0.3c-3,2.9-3.2,7.6-0.3,10.7l84.9,90.3H185.9
	c-4.2,0-7.6,3.4-7.6,7.6c0,4.2,3.4,7.6,7.6,7.6h311.5c8,0,14.6-6.5,14.6-14.6V233.9C512,231,510.3,228.3,507.7,227.1z M72.3,211.5
	v44.9l-47.2-22.4L72.3,211.5z M15.1,484.8V245.9c0.1,0.1,145.9,69.4,155.3,73.9L15.1,484.8z M424.6,263.5
	c-0.1,0.1-168,80.5-170,79.6c-7-3.3-160.2-76.3-167.2-79.6V16.1h337.2V263.5z M439.7,256.3v-44.9l47.2,22.4L439.7,256.3z"/>
</svg>
