<?xml version="1.0" encoding="utf-8"?>
<!-- Generator: Adobe Illustrator 21.0.0, SVG Export Plug-In . SVG Version: 6.00 Build 0)  -->
<svg version="1.1" id="Layer_1" xmlns="http://www.w3.org/2000/svg" xmlns:xlink="http://www.w3.org/1999/xlink" x="0px" y="0px"
	 viewBox="-294 386.7 21.2 21.3" style="enable-background:new -294 386.7 21.2 21.3;" xml:space="preserve">
<style type="text/css">
	.st0{fill:#AEBC1F;}
</style>
<g>
	<path class="st0" d="M-291.3,401.3h6.08c0.17,0,0.3-0.14,0.3-0.3v-3.65c0-0.17-0.14-0.3-0.3-0.3h-6.08c-0.17,0-0.3,0.14-0.3,0.3
		V401C-291.6,401.16-291.47,401.3-291.3,401.3z M-291,397.65h5.47v3.04H-291V397.65z"/>
	<path class="st0" d="M-284.31,397.05h5.47v0.61h-5.47V397.05z"/>
	<path class="st0" d="M-284.31,398.26h5.47v0.61h-5.47V398.26z"/>
	<path class="st0" d="M-284.31,399.48h5.47v0.61h-5.47V399.48z"/>
	<path class="st0" d="M-279.15,401.91h-12.16c-0.17,0-0.3,0.14-0.3,0.3v3.04c0,0.17,0.14,0.3,0.3,0.3h12.16c0.17,0,0.3-0.14,0.3-0.3
		v-3.04C-278.84,402.04-278.98,401.91-279.15,401.91z M-279.45,404.95H-291v-2.43h11.55V404.95z"/>
	<path class="st0" d="M-274.89,387.93h-8.51c-0.5,0-0.91,0.41-0.91,0.91v3.95h-8.2c-0.17,0-0.3,0.14-0.3,0.3v13.37
		c0,0.17,0.14,0.3,0.3,0.3h14.59c0.17,0,0.3-0.14,0.3-0.3v-11.85h2.73c0.5,0,0.91-0.41,0.91-0.91v-4.86
		C-273.98,388.34-274.39,387.93-274.89,387.93z M-284.31,393.4v0.3c0,0.5,0.41,0.91,0.91,0.91h1.52v0.61h-10.33v-1.82H-284.31z
		 M-292.21,406.16v-10.33h10.33v0.3c0,0.12,0.07,0.23,0.19,0.28c0.04,0.02,0.08,0.02,0.12,0.02c0.08,0,0.16-0.03,0.21-0.09
		l0.52-0.52h2.61v10.33H-292.21z M-278.23,395.22h-2l0.61-0.61h1.39V395.22z M-279.15,391.58c-0.5,0-0.91-0.41-0.91-0.91
		s0.41-0.91,0.91-0.91s0.91,0.41,0.91,0.91S-278.64,391.58-279.15,391.58z M-279.15,392.18c0.1,0,0.21-0.01,0.3-0.03v1.85h-0.61
		v-1.85C-279.35,392.17-279.25,392.18-279.15,392.18z M-274.59,393.7c0,0.17-0.14,0.3-0.3,0.3h-3.34v-2.13h-0.01
		c0.09-0.07,0.18-0.15,0.25-0.24l0.45,0.45c0.06,0.06,0.13,0.09,0.21,0.09h1.22c0.17,0,0.3-0.14,0.3-0.3v-2.43
		c0-0.17-0.14-0.3-0.3-0.3h-1.22c-0.08,0-0.16,0.03-0.21,0.09l-0.45,0.45c-0.28-0.33-0.69-0.54-1.15-0.54
		c-0.46,0-0.88,0.21-1.15,0.54l-0.45-0.45c-0.06-0.06-0.13-0.09-0.21-0.09h-1.22c-0.17,0-0.3,0.14-0.3,0.3v2.43
		c0,0.17,0.14,0.3,0.3,0.3h1.22c0.08,0,0.16-0.03,0.21-0.09l0.45-0.45c0.08,0.09,0.16,0.17,0.25,0.24h-0.01v2.31l-1.22,1.22v-1.09
		c0-0.17-0.14-0.3-0.3-0.3h-1.82c-0.17,0-0.3-0.14-0.3-0.3v-4.86c0-0.17,0.14-0.3,0.3-0.3h8.51c0.17,0,0.3,0.14,0.3,0.3V393.7z
		 M-277.69,390.25l0.5-0.5h0.79v1.82h-0.79l-0.5-0.5c0.04-0.13,0.07-0.27,0.07-0.42C-277.63,390.52-277.65,390.38-277.69,390.25z
		 M-280.6,391.08l-0.5,0.5h-0.79v-1.82h0.79l0.5,0.5c-0.04,0.13-0.07,0.27-0.07,0.42C-280.67,390.81-280.64,390.95-280.6,391.08z"/>
	<path class="st0" d="M-284.31,400.69h5.47v0.61h-5.47V400.69z"/>
</g>
</svg>
