<?xml version="1.0" encoding="utf-8"?>
<!-- Generator: Adobe Illustrator 21.0.0, SVG Export Plug-In . SVG Version: 6.00 Build 0)  -->
<svg version="1.1" id="Layer_1" xmlns="http://www.w3.org/2000/svg" xmlns:xlink="http://www.w3.org/1999/xlink" x="0px" y="0px"
	 viewBox="-294 386.7 21.2 21.3" style="enable-background:new -294 386.7 21.2 21.3;" xml:space="preserve">
<style type="text/css">
	.st0{fill:#AEBC1F;}
</style>
<g>
	<g>
		<path class="st0" d="M-274.3,395.44c-0.45-2.43-1.82-4.54-3.86-5.94c-2.04-1.4-4.5-1.92-6.93-1.47c-2.43,0.45-4.54,1.82-5.94,3.86
			c-1.4,2.04-1.92,4.5-1.47,6.93c0.21,1.13,0.62,2.2,1.23,3.17c-0.14,1.35-0.43,2.59-1.33,4.15c-0.06,0.1-0.07,0.23-0.02,0.34
			c0.05,0.11,0.15,0.19,0.27,0.21c0.42,0.08,0.88,0.11,1.36,0.11c1.49,0,3.15-0.35,4.45-0.97c1.54,0.56,3.21,0.69,4.84,0.39
			c2.43-0.45,4.54-1.82,5.94-3.86C-274.37,400.34-273.85,397.88-274.3,395.44L-274.3,395.44z M-281.84,405.51
			c-1.54,0.29-3.13,0.14-4.59-0.41c-0.1-0.04-0.21-0.03-0.3,0.02c-1.4,0.71-3.41,1.08-4.97,0.93c0.84-1.6,1.07-2.91,1.18-4.09
			c0.01-0.08-0.01-0.16-0.06-0.23c-0.59-0.92-0.99-1.94-1.19-3.02c-0.86-4.62,2.2-9.07,6.81-9.93c2.24-0.42,4.5,0.06,6.38,1.35
			c1.88,1.29,3.14,3.23,3.55,5.46C-274.17,400.2-277.23,404.65-281.84,405.51L-281.84,405.51z"/>
		<path class="st0" d="M-285.48,400.66h1.18c0.2,0,0.37-0.17,0.37-0.37v-1.6c0-0.2-0.17-0.37-0.37-0.37h-1.18
			c-0.13,0-0.24-0.11-0.24-0.24v-0.69h0.87c0.51,0,0.92-0.41,0.92-0.92v-1.91c0-0.51-0.41-0.92-0.92-0.92h-2.28
			c-0.51,0-0.92,0.41-0.92,0.92v3.53C-288.06,399.5-286.9,400.66-285.48,400.66L-285.48,400.66z M-287.32,394.55
			c0-0.1,0.08-0.18,0.18-0.18h2.28c0.1,0,0.18,0.08,0.18,0.18v1.91c0,0.1-0.08,0.18-0.18,0.18h-1.24c-0.2,0-0.37,0.17-0.37,0.37
			v1.06c0,0.54,0.44,0.97,0.97,0.97h0.81v0.86h-0.81c-1.01,0-1.84-0.82-1.84-1.84L-287.32,394.55L-287.32,394.55z"/>
		<path class="st0" d="M-279.67,397.39c0.51,0,0.92-0.41,0.92-0.92v-1.91c0-0.51-0.41-0.92-0.92-0.92h-2.28
			c-0.51,0-0.93,0.41-0.93,0.92v3.53c0,1.42,1.16,2.58,2.58,2.58h1.18c0.2,0,0.37-0.17,0.37-0.37v-1.6c0-0.2-0.17-0.37-0.37-0.37
			h-1.18c-0.13,0-0.24-0.11-0.24-0.24v-0.69H-279.67z M-280.3,399.05h0.81v0.86h-0.81c-1.01,0-1.84-0.82-1.84-1.84v-3.53
			c0-0.1,0.09-0.18,0.19-0.18h2.28c0.1,0,0.18,0.08,0.18,0.18v1.91c0,0.1-0.08,0.18-0.18,0.18h-1.24c-0.2,0-0.37,0.17-0.37,0.37
			v1.06C-281.28,398.62-280.84,399.05-280.3,399.05L-280.3,399.05z"/>
		<path class="st0" d="M-288.44,392.47c0.09,0,0.19-0.04,0.26-0.11l0,0c0.14-0.14,0.14-0.38,0-0.52s-0.38-0.14-0.52,0
			c-0.14,0.14-0.14,0.38,0,0.52C-288.63,392.44-288.53,392.47-288.44,392.47z"/>
		<path class="st0" d="M-282.57,389.69c-1.65-0.18-3.34,0.19-4.75,1.06c-0.17,0.11-0.23,0.33-0.12,0.51
			c0.11,0.17,0.33,0.23,0.51,0.12c2.67-1.64,6.09-1.24,8.31,0.98c2.63,2.63,2.63,6.92,0,9.55c-2.63,2.63-6.92,2.63-9.55,0
			c-2.22-2.22-2.62-5.64-0.98-8.31c0.11-0.17,0.05-0.4-0.12-0.51c-0.17-0.11-0.4-0.05-0.51,0.12c-0.87,1.41-1.24,3.1-1.06,4.75
			c0.19,1.71,0.93,3.25,2.15,4.46c1.46,1.46,3.38,2.19,5.3,2.19c1.92,0,3.84-0.73,5.3-2.19c1.42-1.42,2.2-3.3,2.2-5.3
			c0-2-0.78-3.88-2.2-5.3C-279.3,390.64-280.89,389.88-282.57,389.69L-282.57,389.69z"/>
	</g>
</g>
</svg>
