<?xml version="1.0" encoding="utf-8"?>
<!-- Generator: Adobe Illustrator 21.0.0, SVG Export Plug-In . SVG Version: 6.00 Build 0)  -->
<svg version="1.1" id="Layer_1" xmlns="http://www.w3.org/2000/svg" xmlns:xlink="http://www.w3.org/1999/xlink" x="0px" y="0px"
	 viewBox="-294 386.7 21.2 21.3" style="enable-background:new -294 386.7 21.2 21.3;" xml:space="preserve">
<style type="text/css">
	.st0{fill:#AEBC1F;}
</style>
<g>
	<g>
		<g>
			<path class="st0" d="M-276.72,403.04c-0.53,0-0.97,0.43-0.97,0.97c0,0.53,0.43,0.97,0.97,0.97c0.53,0,0.97-0.43,0.97-0.97
				C-275.76,403.47-276.19,403.04-276.72,403.04z M-276.72,404.4c-0.22,0-0.39-0.18-0.39-0.39c0-0.22,0.18-0.39,0.39-0.39
				s0.39,0.18,0.39,0.39C-276.33,404.22-276.51,404.4-276.72,404.4z"/>
		</g>
	</g>
	<g>
		<g>
			<path class="st0" d="M-274.12,403.95c-0.02-0.71-0.32-1.36-0.84-1.83l-5.76-5.2l5.1-5.1c0.03-0.01,0.07-0.02,0.1-0.04l1.1-0.58
				c0.15-0.08,0.25-0.22,0.28-0.39c0.03-0.17-0.03-0.34-0.15-0.46l-1.24-1.24c-0.12-0.12-0.29-0.18-0.46-0.15
				c-0.17,0.03-0.31,0.13-0.4,0.28l-0.58,1.1c-0.02,0.03-0.03,0.07-0.04,0.1l-2.41,2.41c-0.11,0.11-0.11,0.29,0,0.4
				c0.11,0.11,0.29,0.11,0.4,0l2.21-2.21l0.58,0.58l-5.65,5.65l-0.58-0.58l2.46-2.46c0.11-0.11,0.11-0.29,0-0.4
				c-0.11-0.11-0.29-0.11-0.4,0l-1.79,1.79l-1.95-1.76c0.55-1.59,0.15-3.36-1.04-4.55c-1.23-1.23-3.06-1.62-4.69-1
				c-0.09,0.03-0.16,0.11-0.18,0.21s0.01,0.19,0.08,0.26l2.25,2.25c0.07,0.07,0.1,0.15,0.1,0.25c0,0.09-0.04,0.18-0.1,0.25
				l-1.46,1.46c-0.07,0.07-0.15,0.1-0.25,0.1c-0.09,0-0.18-0.04-0.25-0.1l-2.25-2.25c-0.07-0.07-0.17-0.1-0.26-0.08
				c-0.09,0.02-0.17,0.09-0.21,0.18c-0.62,1.62-0.23,3.46,0.99,4.69c1.17,1.17,2.9,1.58,4.46,1.07l1.5,1.65
				c-0.07,0.14-0.17,0.27-0.28,0.39c-0.43,0.43-1.08,0.57-1.66,0.35c-0.11-0.04-0.23-0.02-0.31,0.06l-3.51,3.51
				c-0.95,0.95-0.95,2.49,0,3.44c0.46,0.46,1.07,0.71,1.72,0.71c0.65,0,1.26-0.25,1.72-0.71l3.51-3.51c0.08-0.08,0.11-0.2,0.06-0.31
				c-0.22-0.57-0.09-1.22,0.35-1.66c0.43-0.43,1.08-0.57,1.66-0.35c0.11,0.04,0.23,0.02,0.31-0.06l0.66-0.66
				c0.2-0.2,0.31-0.46,0.31-0.75c0-0.28-0.11-0.55-0.31-0.75l-0.28-0.28l0.34-0.34l5.79,5.22c0.41,0.37,0.64,0.87,0.65,1.42
				c0.01,0.55-0.19,1.07-0.58,1.45c-0.39,0.39-0.9,0.59-1.45,0.58c-0.55-0.01-1.05-0.24-1.42-0.64l-4.3-4.71
				c-0.11-0.12-0.29-0.12-0.4-0.02c-0.12,0.11-0.12,0.29-0.02,0.4l4.3,4.71c0.48,0.52,1.12,0.81,1.83,0.83c0.02,0,0.04,0,0.06,0
				c0.68,0,1.32-0.26,1.81-0.75C-274.37,405.33-274.1,404.66-274.12,403.95z M-276.46,390.58l0.55-1.04l1.17,1.18l-1.04,0.55
				L-276.46,390.58z M-286.64,396.06c-0.08-0.09-0.2-0.12-0.31-0.08c-1.4,0.52-2.99,0.18-4.04-0.88c-0.96-0.96-1.33-2.35-1-3.64
				l1.91,1.92c0.17,0.17,0.41,0.27,0.65,0.27c0.25,0,0.48-0.1,0.65-0.27l1.46-1.46c0.17-0.17,0.27-0.41,0.27-0.65
				c0-0.25-0.1-0.48-0.27-0.65l-1.91-1.92c1.29-0.33,2.68,0.04,3.64,1c1.08,1.08,1.41,2.7,0.85,4.12c-0.04,0.11-0.01,0.24,0.07,0.32
				l2.07,1.87l-0.27,0.27l-0.28-0.28c-0.2-0.2-0.46-0.31-0.75-0.31c-0.28,0-0.55,0.11-0.75,0.31l-0.66,0.66
				c-0.08,0.08-0.11,0.2-0.06,0.31c0.08,0.2,0.11,0.4,0.1,0.6L-286.64,396.06z M-281.6,399.03l-0.54,0.54
				c-0.74-0.21-1.54-0.01-2.09,0.54h0c-0.55,0.55-0.75,1.35-0.54,2.09l-3.38,3.38c-0.35,0.35-0.82,0.55-1.32,0.54
				c-0.5,0-0.96-0.19-1.32-0.55c-0.73-0.73-0.73-1.91,0-2.63l3.38-3.38c0.74,0.21,1.54,0.01,2.09-0.54
				c0.55-0.55,0.75-1.35,0.54-2.09l0.54-0.54c0.19-0.19,0.49-0.19,0.68,0l0.48,0.48l0.98,0.98l0.48,0.48
				C-281.41,398.54-281.41,398.85-281.6,399.03z"/>
		</g>
	</g>
	<g>
		<g>
			<path class="st0" d="M-286.82,400.64c-0.11-0.11-0.29-0.11-0.4,0l-2.71,2.71c-0.11,0.11-0.11,0.29,0,0.4
				c0.06,0.06,0.13,0.08,0.2,0.08c0.07,0,0.15-0.03,0.2-0.08l2.71-2.71C-286.71,400.94-286.71,400.76-286.82,400.64z"/>
		</g>
	</g>
	<g>
		<g>
			<path class="st0" d="M-285.82,401.65c-0.11-0.11-0.29-0.11-0.4,0l-2.71,2.71c-0.11,0.11-0.11,0.29,0,0.4
				c0.06,0.06,0.13,0.08,0.2,0.08c0.07,0,0.15-0.03,0.2-0.08l2.71-2.71C-285.71,401.94-285.71,401.76-285.82,401.65z"/>
		</g>
	</g>
</g>
</svg>
