<?xml version="1.0" encoding="utf-8"?>
<!-- Generator: Adobe Illustrator 21.0.0, SVG Export Plug-In . SVG Version: 6.00 Build 0)  -->
<svg version="1.1" id="Layer_1" xmlns="http://www.w3.org/2000/svg" xmlns:xlink="http://www.w3.org/1999/xlink" x="0px" y="0px"
	 viewBox="-294 386.7 21.2 21.3" style="enable-background:new -294 386.7 21.2 21.3;" xml:space="preserve">
<style type="text/css">
	.st0{fill:#AEBC1F;}
</style>
<path class="st0" d="M-276.8,390.75c-1.76-1.76-4.11-2.73-6.6-2.73c-2.49,0-4.84,0.97-6.6,2.73s-2.73,4.11-2.73,6.6
	c0,2.49,0.97,4.84,2.73,6.6s4.11,2.73,6.6,2.73c2.49,0,4.84-0.97,6.6-2.73s2.73-4.11,2.73-6.6
	C-274.07,394.86-275.04,392.51-276.8,390.75z M-288.05,404.15c0.39-2.25,2.34-3.91,4.65-3.91c2.32,0,4.26,1.66,4.65,3.91
	c-1.33,0.91-2.93,1.44-4.65,1.44S-286.73,405.06-288.05,404.15z M-286.37,396.18c0-1.64,1.33-2.97,2.97-2.97s2.97,1.33,2.97,2.97
	s-1.33,2.97-2.97,2.97S-286.37,397.81-286.37,396.18z M-277.8,403.39c-0.29-1.05-0.88-2-1.7-2.74c-0.5-0.46-1.07-0.81-1.69-1.07
	c1.11-0.73,1.85-1.98,1.85-3.4c0-2.24-1.82-4.06-4.06-4.06c-2.24,0-4.06,1.82-4.06,4.06c0,1.42,0.74,2.68,1.85,3.4
	c-0.62,0.25-1.19,0.61-1.69,1.07c-0.82,0.74-1.4,1.69-1.7,2.74c-1.62-1.51-2.64-3.65-2.64-6.04c0-4.54,3.7-8.24,8.24-8.24
	s8.24,3.7,8.24,8.24C-275.16,399.73-276.18,401.88-277.8,403.39z"/>
</svg>
