<?xml version="1.0" encoding="utf-8"?>
<!-- Generator: Adobe Illustrator 21.0.0, SVG Export Plug-In . SVG Version: 6.00 Build 0)  -->
<svg version="1.1" id="Layer_1" xmlns="http://www.w3.org/2000/svg" xmlns:xlink="http://www.w3.org/1999/xlink" x="0px" y="0px"
	 viewBox="-294 386.7 21.2 21.3" style="enable-background:new -294 386.7 21.2 21.3;" xml:space="preserve">
<style type="text/css">
	.st0{fill:#E09326;}
</style>
<g>
	<g>
		<g>
			<path class="st0" d="M-274.24,387.87C-274.24,387.87-274.24,387.87-274.24,387.87h-18.33c-0.17,0-0.32,0.14-0.32,0.32
				c0,0,0,0,0,0v6.32h0.63v-6h17.7v6.95h-11.06v0.63h11.38c0.17,0,0.32-0.14,0.32-0.32c0,0,0,0,0,0v-7.58
				C-273.92,388.01-274.06,387.87-274.24,387.87z"/>
		</g>
	</g>
	<g>
		<g>
			<rect x="-282.45" y="389.45" class="st0" width="6.32" height="0.63"/>
		</g>
	</g>
	<g>
		<g>
			<rect x="-281.5" y="391.35" class="st0" width="6.32" height="0.63"/>
		</g>
	</g>
	<g>
		<g>
			<rect x="-282.77" y="393.24" class="st0" width="6.32" height="0.63"/>
		</g>
	</g>
	<g>
		<g>
			<path class="st0" d="M-282.79,390.59c-0.22-0.52-0.81-0.77-1.33-0.55c-0.01,0-0.02,0.01-0.03,0.01l-2.56,1.33
				c0.1-0.21,0.15-0.44,0.16-0.67c0-0.87-0.71-1.58-1.58-1.58c-0.87,0-1.58,0.71-1.58,1.58c0,0.34,0.12,0.68,0.32,0.95h-0.01
				c-0.9,0.01-1.7,0.56-2.01,1.4l-0.84,2.91c-0.2,0.52,0.06,1.11,0.58,1.31c0.24,0.09,0.5,0.09,0.74,0
				c0.27-0.11,0.48-0.33,0.58-0.61l0.33-1.05v4.57c-0.27-0.21-0.61-0.32-0.95-0.32c-0.87,0-1.58,0.7-1.58,1.58
				c0,0.43,0.17,0.84,0.48,1.13c-0.49,0.25-0.79,0.75-0.79,1.29v2.65c0,0.17,0.14,0.32,0.32,0.32c0,0,0,0,0,0h3.16
				c0.17,0,0.32-0.14,0.32-0.32c0,0,0,0,0,0v-2.65c0-0.45-0.21-0.87-0.56-1.14h2.39c-0.35,0.27-0.56,0.7-0.56,1.14v2.65
				c0,0.17,0.14,0.32,0.32,0.32c0,0,0,0,0,0h3.16c0.17,0,0.32-0.14,0.32-0.32c0,0,0,0,0,0v-2.65c0-0.55-0.31-1.04-0.79-1.29
				c0.62-0.61,0.64-1.61,0.03-2.23c-0.38-0.38-0.92-0.55-1.45-0.44v-6.46l2.9-1.51C-282.82,391.71-282.58,391.11-282.79,390.59z
				 M-288.14,389.77c0.52,0,0.95,0.42,0.95,0.95s-0.42,0.95-0.95,0.95c-0.52,0-0.95-0.42-0.95-0.95
				C-289.09,390.19-288.66,389.77-288.14,389.77z M-290.98,400.5c0.52,0,0.95,0.42,0.95,0.95s-0.42,0.95-0.95,0.95
				s-0.95-0.42-0.95-0.95C-291.93,400.92-291.51,400.5-290.98,400.5z M-289.72,406.2h-2.53v-2.33c0-0.46,0.37-0.83,0.83-0.83h0.87
				c0.46,0,0.83,0.37,0.83,0.83V406.2z M-284.66,403.87v2.33h-2.53v-2.33c0-0.46,0.37-0.83,0.83-0.83h0.87
				C-285.04,403.04-284.66,403.41-284.66,403.87z M-285.93,400.5c0.52,0,0.95,0.42,0.95,0.95c0,0.52-0.42,0.95-0.95,0.95
				s-0.95-0.42-0.95-0.95S-286.45,400.5-285.93,400.5z M-283.37,391.12c-0.04,0.11-0.13,0.19-0.24,0.23l-3.1,1.61
				c-0.1,0.05-0.17,0.16-0.17,0.28v6.95c-0.59,0.44-0.8,1.23-0.49,1.9h-0.46v-5.37h-0.63v5.37h-1.09c0.09-0.2,0.14-0.41,0.14-0.63h0
				v-7.9c0-0.17-0.14-0.32-0.32-0.32c-0.14,0-0.26,0.09-0.3,0.22l-0.94,3c-0.07,0.2-0.29,0.3-0.49,0.23
				c-0.01-0.01-0.03-0.01-0.04-0.02c-0.18-0.09-0.26-0.31-0.18-0.5l0.84-2.91c0.23-0.58,0.79-0.97,1.42-0.97h2.24
				c0.05,0,0.1-0.01,0.15-0.04l3.14-1.63c0.19-0.08,0.41,0,0.5,0.18C-283.34,390.91-283.33,391.02-283.37,391.12z"/>
		</g>
	</g>
	<g>
		<g>
			<path class="st0" d="M-279.77,402.58c0.63-0.61,0.64-1.61,0.03-2.23c-0.61-0.63-1.61-0.64-2.23-0.03
				c-0.63,0.61-0.64,1.61-0.03,2.23c0.01,0.01,0.02,0.02,0.03,0.03c-0.49,0.25-0.79,0.75-0.79,1.29v2.65c0,0.17,0.14,0.32,0.32,0.32
				c0,0,0,0,0,0h3.16c0.17,0,0.32-0.14,0.32-0.32c0,0,0,0,0,0v-2.65C-278.98,403.32-279.28,402.82-279.77,402.58z M-280.87,400.5
				c0.52,0,0.95,0.42,0.95,0.95s-0.42,0.95-0.95,0.95s-0.95-0.42-0.95-0.95C-281.82,400.92-281.4,400.5-280.87,400.5z
				 M-279.61,406.2h-2.53v-2.33c0-0.46,0.37-0.83,0.83-0.83h0.87c0.46,0,0.83,0.37,0.83,0.83V406.2z"/>
		</g>
	</g>
</g>
</svg>
