<svg width="400" height="400" viewBox="0 0 400 400" fill="none" xmlns="http://www.w3.org/2000/svg">
<path d="M28.0208 348C27.5023 322.216 36.6621 301.418 58.2654 286.633C69.404 278.973 81.7611 273.857 94.1441 268.699C103.886 264.639 113.524 260.349 123.058 255.829C127.447 253.835 131.148 250.59 133.695 246.504C134.643 244.936 135.184 243.157 135.268 241.328C135.432 233.668 135.355 225.999 135.268 218.33C135.302 217.46 135.057 216.602 134.568 215.88C126.575 206.288 121.779 195.177 118.798 183.178C118.625 182.48 118.409 181.548 117.934 181.22C111.617 177.097 108.601 170.869 106.614 163.968C104.514 156.661 103.736 149.346 106.7 142.057C107.045 140.936 107.564 139.877 108.238 138.917C110.018 136.847 109.845 134.707 109.292 132.249C106.061 117.972 104.375 103.523 105.153 88.8847C105.965 73.7888 109.206 59.3743 118.202 46.7714C125.046 37.1986 134.713 29.9972 145.854 26.1719C163.612 19.8144 181.776 17.9597 200.294 22.5402C207.656 24.3604 214.25 27.7678 219.365 33.5991C219.868 34.1462 220.525 34.5282 221.249 34.6946C233.615 37.3601 242.066 44.9599 248.141 55.6823C253.421 64.99 255.918 75.1172 257.119 85.5981C258.877 100.378 257.999 115.351 254.527 129.825C253.576 133.819 253.248 137.088 255.65 140.763C257.111 142.997 257.612 146.103 257.793 148.872C258.346 157.42 256.929 165.65 252.721 173.267C250.918 176.473 248.339 179.177 245.22 181.134C244.498 181.589 243.952 182.277 243.673 183.083C241.211 192.978 236.605 201.914 231.256 210.489C230.086 212.112 228.732 213.594 227.22 214.906C222.182 219.926 217.11 224.921 211.666 230.286V226.025C211.666 220.909 211.709 215.794 211.666 210.687C211.621 210.086 211.748 209.485 212.033 208.953C212.317 208.422 212.748 207.982 213.273 207.685C215.17 206.47 216.833 204.925 218.182 203.122C224.724 193.656 228.832 182.727 230.141 171.3C230.253 170.282 230.47 169.273 230.668 168.082C232.397 168.082 234.125 167.996 235.853 168.082C236.472 168.172 237.104 168.067 237.661 167.782C238.218 167.498 238.674 167.048 238.964 166.495C241.995 161.177 243.208 155.017 242.42 148.949C242.34 147.839 241.932 146.776 241.247 145.897C240.563 145.017 239.633 144.359 238.575 144.006C237.276 143.449 236.007 142.824 234.773 142.135C236.233 137.511 237.936 133.129 238.99 128.591C243.043 111.149 243.734 93.6119 239.742 76.0575C237.953 68.1904 234.695 61.0133 228.793 55.2941C224.239 50.8775 218.424 49.411 212.375 48.6174C211.657 48.5225 210.646 48.1516 210.361 47.6081C207.155 40.94 201.236 38.0589 194.522 36.8081C177.308 33.5991 160.604 35.402 144.903 43.3899C133.514 49.1867 126.817 58.9171 123.378 70.9939C120.146 82.3805 119.8 93.9915 120.716 105.697C121.691 117.184 123.742 128.554 126.843 139.659C127.266 141.212 127.016 142.083 125.599 142.799C120.336 145.464 119.308 150.045 120.414 155.255C121.192 158.601 122.209 161.887 123.455 165.089C124.216 167.185 125.702 168.453 128.234 168.091C129.753 167.987 131.278 167.987 132.797 168.091C132.995 171.291 132.926 174.345 133.41 177.304C135.047 187.428 139.207 196.98 145.508 205.08C146.563 206.255 147.845 207.206 149.276 207.875C149.767 208.091 150.175 208.46 150.438 208.926C150.701 209.393 150.806 209.932 150.736 210.463C150.624 217.718 150.555 224.964 150.606 232.21C150.639 232.685 150.776 233.146 151.008 233.562C151.239 233.978 151.559 234.338 151.946 234.617C161.348 239.879 170.793 245.054 180.281 250.144C180.705 250.289 181.154 250.344 181.601 250.305C182.047 250.267 182.481 250.135 182.873 249.92C190.823 245.606 198.73 241.19 206.645 236.816C206.931 236.652 207.224 236.514 207.786 236.23C183.772 272.848 182.363 309.967 204.252 347.991L28.0208 348ZM44.5084 332.844H158.142C161.088 315.677 168.226 300.254 177.204 285.537L171.536 280.983C171.164 281.414 170.888 281.707 170.672 282.018C166.014 287.763 161.399 293.542 156.707 299.27C153.251 303.454 148.066 303.54 144.558 299.443C140.799 295.026 137.143 290.515 133.445 286.038L123.006 273.452C111.963 277.972 101.083 282.354 90.2815 286.883C81.3463 290.635 72.6705 294.862 64.8846 300.737C54.1176 308.828 47.0317 319.214 44.5084 332.844ZM136.167 265.378L150.451 282.63L167.82 261.065L148.809 250.454C145.957 256.588 141.576 261.289 136.167 265.378Z" fill="#EE3A2F"/>
<path d="M304.841 211C305.662 216.259 306.457 221.362 307.261 226.473C307.658 228.995 307.995 231.533 308.548 234.02C308.809 234.773 309.355 235.393 310.069 235.747C311.607 236.498 313.336 236.887 314.856 237.681C315.308 237.972 315.843 238.103 316.378 238.053C316.912 238.002 317.414 237.774 317.803 237.405C323.403 233.234 329.037 229.124 334.688 225.005C335.128 224.677 335.552 224.384 335.837 224.22L358.079 246.454C356.697 248.552 355.072 251.022 353.439 253.482C350.795 257.454 348.168 261.435 345.481 265.372C345.161 265.718 344.964 266.159 344.921 266.627C344.877 267.095 344.989 267.564 345.239 267.963C346.004 269.276 346.57 270.696 346.915 272.177C347.312 274.137 348.514 274.534 350.224 274.767C357.466 275.829 364.69 277.003 372 278.152V310.273C365.891 311.447 359.842 312.863 353.715 313.726C349.853 314.236 347.779 315.661 346.673 319.581C345.852 322.465 345.956 324.373 347.84 326.756C352.005 331.997 355.798 337.532 359.799 343.024C359.401 343.49 359.082 343.887 358.701 344.302C351.901 351.106 345.074 357.884 338.317 364.731C337.289 365.776 336.589 365.863 335.388 365.016C329.572 361.036 323.653 357.193 317.812 353.256C317.405 352.898 316.896 352.676 316.357 352.622C315.817 352.567 315.275 352.684 314.805 352.954C313.469 353.683 312.046 354.24 310.57 354.612C308.955 355 308.462 355.993 308.194 357.461C306.967 364.185 305.685 370.897 304.349 377.597C304.245 378.132 303.485 378.935 303.018 378.944C292.995 379.022 282.962 378.996 272.774 378.996C272.109 374.748 271.461 370.603 270.804 366.458C270.243 362.909 269.741 359.361 269.076 355.838C268.953 355.489 268.76 355.169 268.509 354.897C268.258 354.626 267.954 354.408 267.616 354.258C266.242 353.636 264.591 353.506 263.347 352.729C261.213 351.391 259.666 351.978 257.782 353.29C251.949 357.349 245.978 361.217 240.206 365.06L217.16 342.057C221.299 335.848 225.482 329.511 229.75 323.233C230.109 322.837 230.327 322.333 230.369 321.801C230.412 321.268 230.276 320.736 229.984 320.289C229.205 318.824 228.607 317.27 228.204 315.661C227.867 314.348 227.175 313.977 225.914 313.787C218.819 312.716 211.734 311.533 204.639 310.385C204.412 310.301 204.197 310.188 204 310.048V278.195L217.238 276.053C220.237 275.57 223.287 275.19 226.225 274.551C226.978 274.285 227.597 273.737 227.953 273.023C228.739 271.494 229.232 269.811 229.958 268.248C230.298 267.579 230.426 266.823 230.326 266.079C230.226 265.336 229.901 264.641 229.396 264.086C225.482 258.81 221.68 253.457 217.843 248.129C217.566 247.74 217.316 247.335 217.16 247.101L240.128 224.151L252.615 232.897C254.879 234.486 257.099 236.135 259.424 237.621C260.103 237.926 260.87 237.979 261.584 237.767C262.578 237.526 263.468 236.792 264.462 236.654C267.477 236.23 268.48 234.452 268.92 231.594C269.888 225.256 271.21 218.97 272.377 212.666C272.472 212.131 272.627 211.604 272.774 211H304.841ZM219.295 297.234C219.986 297.39 220.582 297.537 221.196 297.649C226.83 298.694 232.429 299.79 238.106 300.74C238.67 300.796 239.202 301.029 239.627 301.403C240.052 301.778 240.348 302.277 240.474 302.83C243.014 309.737 244.795 316.964 249.055 323.225L236.957 340.727L241.476 345.347C247.119 341.582 252.71 337.886 258.257 334.122C259.173 333.508 259.891 333.051 260.997 333.914C265.887 337.696 271.573 339.889 277.415 341.487C280.741 342.35 282.876 343.706 282.599 347.488C282.63 348.18 282.738 348.866 282.919 349.534L284.976 363.583H290.973C291.143 363.106 291.284 362.618 291.396 362.124C292.416 356.339 293.453 350.562 294.403 344.777C294.68 343.05 295.267 342.1 297.116 341.513C303.701 339.458 310.303 337.385 316.256 333.742C316.613 333.647 316.986 333.632 317.349 333.698C317.711 333.764 318.055 333.908 318.356 334.122C323.791 337.8 329.166 341.547 334.394 345.157L339.069 340.632C334.8 334.856 330.549 329.079 326.176 323.156C330.989 317.258 333.21 310.204 335.448 303.158C335.603 302.48 335.965 301.866 336.483 301.402C337.002 300.938 337.651 300.646 338.343 300.567C344.104 299.37 349.833 298.101 355.53 296.759C355.813 296.665 356.068 296.503 356.274 296.288C356.481 296.073 356.631 295.811 356.714 295.525C356.861 293.884 356.774 292.235 356.774 290.43C350.337 289.506 344.063 288.556 337.764 287.753C337.03 287.753 336.319 287.504 335.744 287.048C335.17 286.592 334.767 285.955 334.601 285.241C332.683 279.715 330.886 274.076 328.242 268.895C326.712 265.916 326.643 264.138 328.682 261.53C332.139 257.1 335.18 252.308 338.11 248.086L334.653 243.812C329.097 247.913 323.757 251.842 318.434 255.797C317.57 256.41 316.948 256.919 315.902 256.116C310.45 251.868 303.986 249.778 297.497 247.835C295.379 247.205 294.61 246.108 294.351 243.984C293.634 238.113 292.683 232.267 291.819 226.387H285.684C284.569 232.613 283.386 238.709 282.444 244.848C282.124 246.912 281.493 248.06 279.255 248.146C278.086 248.242 276.94 248.534 275.868 249.01C272.351 250.417 268.661 251.6 265.412 253.482C260.772 256.211 257.117 255.667 253.107 252.144C249.564 249.027 245.33 246.661 241.684 244.123L236.888 248.509L249.081 266.011C244.838 270.329 242.807 275.725 241.571 281.476C241.148 283.453 241.312 286.13 240.085 287.201C238.694 288.41 236.041 288.168 233.933 288.548L219.303 291.199L219.295 297.234Z" fill="#EE3A2F"/>
<path d="M288.079 326C279.918 326.001 272.084 322.843 266.269 317.208C260.454 311.573 257.125 303.914 257.001 295.884C256.878 279.188 270.708 265.104 287.325 265.001C304.609 264.897 318.877 278.325 319 294.737C319.087 312.27 305.608 325.888 288.079 326ZM303.469 295.884C303.545 292.869 302.709 289.899 301.066 287.352C299.423 284.806 297.048 282.797 294.243 281.582C291.437 280.367 288.328 280 285.31 280.527C282.292 281.055 279.501 282.453 277.292 284.545C275.084 286.637 273.557 289.327 272.906 292.275C272.255 295.222 272.509 298.294 273.636 301.099C274.763 303.904 276.712 306.316 279.235 308.029C281.759 309.742 284.742 310.678 287.807 310.718C296.878 310.839 303.355 304.689 303.469 295.884Z" fill="#EE3A2F"/>
</svg>
