<svg width="400" height="400" viewBox="0 0 400 400" fill="none" xmlns="http://www.w3.org/2000/svg">
<path d="M29.7749 349H13C13.3078 317.369 22.6614 289.31 41.0949 264.168C59.4088 239.188 83.6819 222.203 114.008 211.742C108.451 207.829 103.62 204.716 99.0973 201.204C78.6645 185.276 65.2722 162.057 61.7606 136.47C58.2491 110.884 64.8945 84.9434 80.2876 64.1497C112.298 20.9259 172.797 11.2128 217.462 41.8063C220.54 43.9071 225.824 45.3275 229.115 44.2303C276.012 28.5636 323.25 47.6835 343.445 91.0094C363.34 133.655 347.617 182.365 305.825 207.438C304.816 208.042 303.824 208.663 301.943 209.811L327.277 222.45C308.142 231.593 290.837 221.914 273.011 220.494C259.006 219.38 244.796 220.723 230.697 220.97L230.441 223.7C239.7 230.794 248.951 237.896 258.92 245.55L244.386 255.816C202.782 221.667 156.553 211.589 106.732 233.481C57.4423 255.119 33.0751 295.162 29.7749 349ZM242.923 123.355C242.923 77.6731 206.424 40.8537 160.939 40.6836C114.812 40.5135 78.1929 77.1713 77.4832 122.938C76.8762 162.062 109.58 207.353 164.966 205.516C206.612 204.138 242.915 167.021 242.923 123.355V123.355ZM228.765 196.152C259.775 211.801 298.156 203.109 320.249 175.739C341.965 148.905 342.213 109.466 320.83 82.5636C300.31 56.7246 262.691 45.9909 237.084 58.7489C269.898 106.378 267.71 152.009 228.765 196.152Z" fill="#ED2D21"/>
<path d="M329.876 332.705L322.944 326.645C309.182 341.406 295.692 355.963 282.065 370.427C275.252 377.658 269.589 377.794 263.176 371.173C257.274 365.071 257.427 359.375 264.104 353.781C277.305 342.747 290.667 331.891 303.961 320.941C306.218 319.082 308.424 317.164 310.519 315.381C300.299 304.873 290.488 294.713 280.609 284.595C279.8 283.746 278.625 282.575 277.739 282.668C263.474 284.204 262.682 271.073 255 262.729C259.778 259.903 263.883 255.421 267.732 255.633C275.397 256.058 284.067 266.006 285.25 272.414C285.721 274.64 286.793 276.694 288.35 278.356C297.957 288.457 307.751 298.388 318.098 309.007L328.114 301.138C319.435 285.393 319.597 270.157 333.104 257.518C342.362 248.868 353.901 246.84 366.736 251.279C359.744 258.214 353.109 264.775 346.1 271.727L365.688 290.29L384.135 267.372C390.692 281.709 388.342 291.708 381.316 300.867C372.901 311.825 361.004 316.57 348.204 312.546C338.836 309.601 334.578 312.325 330.43 319.897L335.949 326.195C342.012 318.097 346.671 320.763 351.73 326.102C359.471 334.293 367.519 342.229 375.78 349.868C380.779 354.528 381.154 358.263 375.95 363.076C357.998 379.679 363.567 379.993 346.441 363.373C340.905 358 335.608 352.338 329.987 347.093C325.056 342.526 321.113 338.146 329.876 332.705Z" fill="#ED2D21"/>
</svg>
