<svg width="400" height="400" viewBox="0 0 400 400" fill="none" xmlns="http://www.w3.org/2000/svg">
<path d="M95.6198 310.578C95.6198 323.636 95.6198 336.509 95.6198 349.568C108.31 349.568 120.817 349.568 133.781 349.568C133.781 348.178 133.781 346.697 133.781 345.215C133.781 253.343 133.781 161.38 133.781 69.5082C133.781 62.1918 135.15 60.8027 142.271 60.8027C152.04 60.8027 161.9 60.8027 171.851 60.8027C171.942 59.5987 172.034 58.58 172.034 57.5612C172.034 50.2449 172.034 43.0211 172.034 35.7047C172.034 29.0367 173.494 27.4623 179.976 27.4623C190.475 27.4623 200.974 27.4623 211.473 27.4623C233.384 27.4623 255.295 27.1844 277.205 27.5549C285.422 27.6475 293.821 25.5174 301.764 29.0367C305.507 37.1865 302.585 45.8921 303.407 54.3198C303.59 56.3573 303.407 58.3947 303.407 60.8027C312.445 60.8027 321.209 60.8027 329.974 60.8027C331.343 60.8027 332.713 60.8027 334.082 60.8027C340.107 60.8027 341.751 62.4697 341.751 68.6747C341.751 159.99 341.751 251.306 341.751 342.714C341.751 344.937 341.751 347.067 341.751 349.845C343.668 349.845 345.403 349.753 347.229 349.845C350.515 350.031 352.706 352.346 352.706 355.402C352.706 358.458 350.515 360.681 347.229 360.959C346.224 361.051 345.22 360.959 344.124 360.959C243.974 360.959 143.732 360.959 43.5817 360.959C42.5775 360.959 41.4819 361.051 40.4777 360.959C37.1911 360.681 35 358.458 35 355.402C35 352.346 37.1911 350.031 40.4777 349.845C43.8556 349.66 47.3248 349.845 50.7027 349.845C61.7494 349.845 72.7961 349.845 84.2079 349.845C84.2079 346.048 84.2992 342.529 84.1166 339.01C84.1166 338.269 83.295 337.435 82.7472 336.787C78.5477 332.527 74.3481 328.267 70.1485 324.007C67.3184 321.043 67.0445 317.894 69.3269 315.486C71.7005 313.078 74.8959 313.264 77.726 316.135C79.6432 318.079 81.4691 320.117 83.9341 322.71C83.9341 318.172 83.9341 314.56 83.9341 310.763C68.14 307.429 57.0934 298.353 52.7112 282.331C48.4203 266.217 53.5329 252.788 65.6751 241.582C62.0233 234.358 61.019 226.764 63.6666 218.892C65.5838 213.242 68.8704 208.704 73.709 205.185C83.4776 198.147 96.4415 198.239 106.027 205.556C116.8 213.705 119.265 225.375 113.696 241.767C126.112 253.343 131.134 267.328 126.021 283.998C121.821 298.723 111.049 307.244 95.6198 310.578ZM330.795 349.66C330.795 256.955 330.795 164.621 330.795 72.194C268.715 72.194 206.908 72.194 145.01 72.194C145.01 164.806 145.01 257.141 145.01 349.66C165.095 349.66 184.997 349.66 205.082 349.66C205.082 348.178 205.082 346.882 205.082 345.585C205.082 323.636 205.082 301.594 205.082 279.645C205.082 273.903 206.817 272.144 212.386 272.144C229.276 272.144 246.165 272.144 263.055 272.144C269.171 272.144 270.815 273.811 270.815 279.923C270.815 301.872 270.815 323.914 270.815 345.863C270.815 347.067 270.815 348.364 270.815 349.753C290.9 349.66 310.711 349.66 330.795 349.66ZM95.5285 299.001C106.119 297.056 114.609 288.536 116.8 277.978C119.174 266.68 114.792 255.659 105.571 249.083C99.2716 244.638 99.1803 243.434 103.38 237.229C107.397 231.302 107.671 225.189 104.11 218.984C100.915 213.242 94.0678 209.908 87.8597 211.112C80.83 212.409 76.174 216.484 74.2568 223.615C72.7961 229.079 74.1655 233.895 77.5434 238.248C80.9213 242.693 80.4649 245.379 75.7175 248.435C75.0785 248.898 74.3481 249.361 73.709 249.824C64.9447 256.492 60.9277 267.884 63.484 278.812C65.949 288.999 74.622 297.427 84.5731 299.001C84.5731 297.705 84.5731 296.501 84.5731 295.297C84.5731 285.943 84.4818 276.589 84.5731 267.143C84.5731 262.697 88.0423 259.919 91.6941 261.308C94.6156 262.327 95.5285 264.642 95.4372 267.606C95.4372 277.886 95.5285 288.351 95.5285 299.001ZM292.543 38.8536C255.934 38.8536 219.69 38.8536 183.445 38.8536C183.445 46.2625 183.445 53.4863 183.445 60.71C219.963 60.71 256.207 60.71 292.543 60.71C292.543 53.3937 292.543 46.2625 292.543 38.8536ZM216.22 283.257C216.22 305.577 216.22 327.526 216.22 349.475C221.698 349.475 226.993 349.475 232.288 349.475C232.288 327.248 232.288 305.299 232.288 283.257C226.902 283.257 221.698 283.257 216.22 283.257ZM243.518 349.568C249.087 349.568 254.382 349.568 259.494 349.568C259.494 327.341 259.494 305.299 259.494 283.35C254.016 283.35 248.813 283.35 243.518 283.35C243.518 305.392 243.518 327.341 243.518 349.568Z" fill="#ED2D21"/>
<path d="M366.49 360.865C365.851 360.865 365.121 360.865 364.482 360.865C360.739 360.68 358.365 358.457 358.456 355.215C358.547 352.067 360.83 349.936 364.39 349.844C365.851 349.751 367.312 349.751 368.864 349.844C372.516 349.936 374.981 352.252 374.889 355.493C374.798 358.642 372.516 360.772 368.955 360.865C368.133 360.957 367.312 360.865 366.49 360.865Z" fill="#ED2D21"/>
<path d="M205.086 111.181C205.086 118.035 205.086 124.795 205.086 131.649C205.086 136.65 203.168 138.595 198.238 138.595C184.544 138.595 170.85 138.595 157.156 138.595C152.226 138.595 150.309 136.65 150.309 131.649C150.309 117.757 150.309 103.865 150.309 89.9733C150.309 84.9722 152.226 83.0273 157.156 83.0273C170.85 83.0273 184.544 83.0273 198.238 83.0273C203.168 83.0273 205.086 84.9722 205.086 89.9733C205.086 97.1044 205.086 104.143 205.086 111.181ZM193.948 94.4186C182.901 94.4186 172.128 94.4186 161.538 94.4186C161.538 105.625 161.538 116.46 161.538 127.296C172.493 127.296 183.175 127.296 193.948 127.296C193.948 116.275 193.948 105.439 193.948 94.4186Z" fill="#ED2D21"/>
<path d="M237.856 83.0273C244.795 83.0273 251.733 83.0273 258.763 83.0273C263.236 83.0273 265.245 85.0648 265.336 89.6028C265.336 103.68 265.336 117.85 265.336 131.927C265.336 136.465 263.328 138.502 258.854 138.595C244.977 138.595 231.009 138.595 217.132 138.595C212.659 138.595 210.65 136.557 210.65 132.019C210.65 117.942 210.65 103.772 210.65 89.6954C210.65 85.1574 212.659 83.12 217.132 83.12C223.979 83.0273 230.918 83.0273 237.856 83.0273ZM221.606 127.296C232.652 127.296 243.425 127.296 254.015 127.296C254.015 116.09 254.015 105.254 254.015 94.4186C243.06 94.4186 232.379 94.4186 221.606 94.4186C221.606 105.347 221.606 116.183 221.606 127.296Z" fill="#ED2D21"/>
<path d="M297.839 138.603C290.992 138.603 284.144 138.603 277.297 138.603C272.824 138.603 270.815 136.565 270.815 132.027C270.815 117.95 270.815 103.78 270.815 89.7034C270.815 85.1654 272.824 83.1279 277.297 83.1279C291.174 83.1279 305.142 83.1279 319.019 83.1279C323.493 83.1279 325.501 85.1654 325.501 89.7034C325.501 103.78 325.501 117.95 325.501 132.027C325.501 136.565 323.493 138.603 319.019 138.603C311.989 138.695 304.868 138.603 297.839 138.603ZM282.045 94.334C282.045 105.54 282.045 116.468 282.045 127.397C293 127.397 303.682 127.397 314.454 127.397C314.454 116.283 314.454 105.447 314.454 94.334C303.499 94.334 292.817 94.334 282.045 94.334Z" fill="#ED2D21"/>
<path d="M177.694 144.157C184.632 144.157 191.571 144.157 198.6 144.157C203.074 144.157 205.082 146.195 205.082 150.733C205.082 164.81 205.082 178.979 205.082 193.057C205.082 197.595 203.074 199.632 198.6 199.632C184.723 199.632 170.755 199.632 156.878 199.632C152.405 199.632 150.396 197.595 150.396 193.057C150.396 178.979 150.396 164.81 150.396 150.733C150.396 146.195 152.405 144.157 156.878 144.157C163.726 144.157 170.664 144.157 177.694 144.157ZM193.944 155.549C182.897 155.549 172.125 155.549 161.534 155.549C161.534 166.662 161.534 177.59 161.534 188.426C172.49 188.426 183.171 188.426 193.944 188.426C193.944 177.405 193.944 166.662 193.944 155.549Z" fill="#ED2D21"/>
<path d="M238.224 144.157C245.071 144.157 251.918 144.157 258.765 144.157C263.239 144.157 265.247 146.195 265.247 150.733C265.247 164.81 265.247 178.979 265.247 193.057C265.247 197.595 263.239 199.632 258.765 199.632C244.888 199.632 230.92 199.632 217.043 199.632C212.57 199.632 210.562 197.595 210.562 193.057C210.562 178.979 210.562 164.81 210.562 150.733C210.562 146.195 212.57 144.157 217.043 144.157C224.073 144.157 231.194 144.157 238.224 144.157ZM221.608 188.426C232.655 188.426 243.428 188.426 254.018 188.426C254.018 177.312 254.018 166.384 254.018 155.549C243.062 155.549 232.381 155.549 221.608 155.549C221.608 166.477 221.608 177.312 221.608 188.426Z" fill="#ED2D21"/>
<path d="M298.204 144.157C305.051 144.157 311.898 144.157 318.745 144.157C323.675 144.157 325.501 146.102 325.501 151.103C325.501 164.995 325.501 178.887 325.501 192.779C325.501 197.687 323.584 199.632 318.654 199.632C304.96 199.632 291.265 199.632 277.571 199.632C272.733 199.632 270.815 197.687 270.815 192.686C270.815 178.794 270.815 164.902 270.815 151.011C270.815 146.009 272.733 144.157 277.663 144.157C284.51 144.157 291.357 144.157 298.204 144.157ZM281.862 188.426C292.909 188.426 303.682 188.426 314.272 188.426C314.272 177.312 314.272 166.384 314.272 155.549C303.316 155.549 292.635 155.549 281.862 155.549C281.862 166.477 281.862 177.312 281.862 188.426Z" fill="#ED2D21"/>
<path d="M177.602 205.28C184.541 205.28 191.479 205.28 198.509 205.28C202.982 205.28 204.991 207.318 205.082 211.856C205.082 225.933 205.082 240.102 205.082 254.179C205.082 258.717 203.074 260.755 198.6 260.848C184.723 260.848 170.755 260.848 156.878 260.848C152.405 260.848 150.396 258.81 150.396 254.272C150.396 240.195 150.396 226.025 150.396 211.948C150.396 207.41 152.405 205.373 156.878 205.373C163.726 205.28 170.664 205.28 177.602 205.28ZM193.944 216.672C182.897 216.672 172.125 216.672 161.534 216.672C161.534 227.785 161.534 238.713 161.534 249.549C172.49 249.549 183.171 249.549 193.944 249.549C193.944 238.528 193.944 227.785 193.944 216.672Z" fill="#ED2D21"/>
<path d="M210.562 233.064C210.562 226.118 210.562 219.172 210.562 212.226C210.562 207.225 212.479 205.373 217.409 205.28C231.103 205.28 244.798 205.28 258.492 205.28C263.422 205.28 265.339 207.225 265.339 212.226C265.339 226.118 265.339 240.01 265.339 253.902C265.339 258.903 263.422 260.848 258.492 260.848C244.798 260.848 231.103 260.848 217.409 260.848C212.479 260.848 210.653 258.903 210.562 253.902C210.471 246.956 210.562 240.01 210.562 233.064ZM221.7 216.579C221.7 227.785 221.7 238.713 221.7 249.456C232.655 249.456 243.428 249.456 254.11 249.456C254.11 238.343 254.11 227.507 254.11 216.579C243.337 216.579 232.655 216.579 221.7 216.579Z" fill="#ED2D21"/>
<path d="M325.592 233.434C325.592 240.288 325.592 247.048 325.592 253.902C325.592 258.903 323.675 260.848 318.745 260.848C305.051 260.848 291.357 260.848 277.663 260.848C272.733 260.848 270.815 258.903 270.815 253.902C270.815 240.01 270.815 226.118 270.815 212.226C270.815 207.225 272.733 205.28 277.663 205.28C291.357 205.28 305.051 205.28 318.745 205.28C323.675 205.28 325.592 207.225 325.592 212.226C325.592 219.357 325.592 226.396 325.592 233.434ZM314.454 216.672C303.408 216.672 292.635 216.672 282.045 216.672C282.045 227.785 282.045 238.713 282.045 249.549C293 249.549 303.681 249.549 314.454 249.549C314.454 238.528 314.454 227.785 314.454 216.672Z" fill="#ED2D21"/>
<path d="M84.5747 246.673C84.5747 245.654 84.3921 244.542 84.5747 243.524C85.0312 240.56 86.8571 238.8 89.8698 238.615C92.6999 238.43 95.0736 240.653 95.3475 243.709C95.5301 245.746 95.5301 247.877 95.3475 249.914C95.1649 252.97 92.8825 255.1 90.0524 255.193C87.0397 255.285 84.7573 252.97 84.4834 249.729C84.4834 248.803 84.5747 247.784 84.5747 246.673Z" fill="#ED2D21"/>
</svg>
