<svg width="400" height="400" viewBox="0 0 400 400" fill="none" xmlns="http://www.w3.org/2000/svg">
<path d="M390.991 298.075C390.415 302.075 389.977 306.147 389.271 310.146C383.251 343.031 354.008 369.413 318.436 374.14C296.821 377.131 274.799 372.254 256.953 360.523C239.108 348.792 226.815 331.111 222.633 311.162C213.172 267.166 245.855 224.266 293.898 217.803C315.66 214.89 337.786 219.97 355.59 231.967C373.393 243.965 385.477 261.937 389.28 282.077C390.028 285.972 390.432 289.932 391 293.86L390.991 298.075ZM356.477 268.326L275.854 342.823C293.976 355.19 327.149 354.622 348.298 334.32C369.722 313.746 368.458 283.333 356.477 268.286V268.326ZM336.386 249.424C315.228 234.977 278.692 238.785 258.782 262.855C240.72 284.741 245.881 314.594 255.797 323.825L336.386 249.424Z" fill="#ED2D21"/>
<path d="M199.261 24C203.764 24.69 208.292 25.2135 212.744 26.0859C230.466 29.5964 246.655 37.8653 259.26 49.8446C271.865 61.8239 280.318 76.9744 283.548 93.3757C292.175 138.585 261.56 180.93 212.813 191.019C163.574 201.211 113.351 170.992 103.767 125.379C94.2785 80.1224 123.832 37.4357 172.364 26.5063C176.608 25.5466 180.99 25.2056 185.347 24.5552C186.209 24.4124 187.132 24.1904 188.021 24H199.261ZM259.239 110.523C260.49 78.0047 233.024 49.3249 196.267 47.9289C183.21 47.3964 170.275 50.4441 159.106 56.685C147.937 62.9259 139.037 72.0782 133.537 82.9796C128.037 93.881 126.185 106.039 128.216 117.911C130.247 129.782 136.07 140.83 144.946 149.652C153.821 158.474 165.347 164.671 178.061 167.457C190.775 170.243 204.103 169.491 216.352 165.298C228.6 161.105 239.217 153.659 246.853 143.906C254.49 134.153 258.801 122.534 259.239 110.523V110.523Z" fill="#ED2D21"/>
<path d="M10 323.848C10.3724 320.645 10.7708 317.506 11.1259 314.327C14.0447 288.397 26.0057 266.495 45.9782 248.317C63.413 232.453 84.1476 222.251 108.399 218.872C117.711 217.714 127.099 217.144 136.495 217.166C157.36 216.902 178.233 217.03 199.098 217.038C207.014 217.038 212.358 220.682 213.7 226.816C214.075 228.368 214.099 229.974 213.771 231.535C213.443 233.096 212.77 234.577 211.794 235.887C210.819 237.196 209.561 238.305 208.101 239.145C206.641 239.984 205.009 240.536 203.307 240.766C201.355 241.039 199.383 241.165 197.409 241.142C173.911 241.214 150.405 241.182 126.907 241.318C83.4634 241.574 45.4412 271.3 38.1832 310.931C36.5116 320.052 36.0352 329.35 34.9526 339.079H39.3351C91.9888 339.079 144.637 339.079 197.279 339.079C199.248 339.037 201.217 339.169 203.16 339.472C210.322 340.745 214.315 345.726 213.709 352.389C213.163 358.282 207.941 362.799 201.185 362.943C195.988 363.071 190.852 362.943 185.682 362.943C132.947 362.943 80.2068 362.943 27.4608 362.943C25.2995 363.019 23.1351 362.925 20.9909 362.663C14.8416 361.67 11.7322 358.659 10.5976 352.885C10.4491 352.398 10.2549 351.924 10.0173 351.468L10 323.848Z" fill="#ED2D21"/>
</svg>
