<svg width="400" height="400" viewBox="0 0 400 400" fill="none" xmlns="http://www.w3.org/2000/svg">
<path d="M34.1334 387.083C31.1807 387.083 28.349 385.91 26.2611 383.822C24.1731 381.734 23 378.903 23 375.95V13H264.673V211.175H45.2669V375.95C45.2669 378.903 44.0937 381.734 42.0058 383.822C39.9179 385.91 37.0862 387.083 34.1334 387.083ZM45.2669 188.908H242.406V35.2669H45.2669V188.908Z" fill="#ED2D21"/>
<path d="M264.749 88.2293L348.773 88.797C350.621 88.8146 352.388 89.5595 353.69 90.8703C354.992 92.181 355.726 93.9523 355.732 95.8001V213.547C355.732 215.404 354.994 217.186 353.681 218.499C352.367 219.812 350.586 220.55 348.729 220.55H269.136C267.978 220.533 266.872 220.065 266.053 219.246C265.234 218.427 264.767 217.321 264.749 216.163V88.2293ZM242.482 65.8066V216.108C242.482 223.177 245.291 229.956 250.289 234.955C255.288 239.953 262.067 242.761 269.136 242.761H348.729C356.492 242.761 363.936 239.678 369.426 234.188C374.915 228.699 377.998 221.254 377.998 213.492V95.8001C377.999 88.0719 374.943 80.6571 369.497 75.1736C364.051 69.6902 356.657 66.5831 348.929 66.5302L242.482 65.8066Z" fill="#ED2D21"/>
</svg>
