<svg width="400" height="400" viewBox="0 0 400 400" fill="none" xmlns="http://www.w3.org/2000/svg">
<path d="M273.933 30C280.936 31.5215 288.226 32.2659 294.909 34.7036C327.582 46.5977 346.592 70.1323 351.957 104.318C355.233 125.349 350.696 145.039 339.671 163.281C338.393 165.4 336.993 166.193 334.544 166.111C321.521 165.661 309.923 160.982 299.029 154.307C294.475 151.518 290.167 148.319 285.638 145.505C300.139 158.275 317.428 167.482 336.125 172.394C324.863 180.296 313.674 186.873 300.7 189.842C287.038 192.983 273.368 193.041 259.854 189.221C250.991 186.717 243.8 181.114 236.772 175.461C225.781 166.618 216.828 155.919 209.145 143.648C209.866 147.861 218.892 160.565 227.697 168.582C235.323 175.519 243.644 181.67 251.843 188.37C250.672 189.188 248.993 190.423 247.273 191.642C197.436 225.841 147.607 260.051 97.7857 294.271C96.831 295.015 95.7232 295.537 94.5421 295.802C93.3609 296.066 92.1358 296.066 90.9547 295.801C75.1878 292.709 66.1535 281.289 67.0627 265.117C67.1963 263.926 67.7005 262.808 68.5042 261.918C104.15 222.162 139.825 182.428 175.531 142.716C182.395 135.081 189.22 127.405 196.008 119.688C196.74 118.791 197.114 117.654 197.056 116.498C194.198 90.7139 201.241 67.9319 217.721 47.9802L222.824 41.7796C225.936 56.2014 229.524 69.8542 236.494 82.3455C234.618 77.1183 232.227 72.0056 230.982 66.6312C229.245 59.0972 228.361 51.3668 227.099 43.7265C226.755 41.6569 227.591 40.4544 229.507 39.5382C239.07 34.6798 249.45 31.6291 260.124 30.5399C260.881 30.4201 261.63 30.2562 262.368 30.0491L273.933 30ZM239.107 48.1438C239.434 50.5079 239.582 52.7575 240.081 54.9334C240.871 58.787 241.883 62.5917 243.112 66.3285C253.219 94.5422 270.649 117.553 293.771 136.36C303.829 144.54 314.895 150.953 327.828 153.636C330.432 154.176 331.833 153.702 333.07 151.133C343.046 130.413 343.988 109.283 335.576 87.9817C320.423 49.6163 276.087 31.2679 239.107 48.1438ZM193.313 140.581C191.675 142.397 190.348 143.787 189.07 145.211L144.743 194.619C123.174 218.648 101.619 242.684 80.0776 266.728C79.4141 267.443 79.0178 268.365 78.9554 269.338C79.1111 275.882 82.9279 280.905 89.0545 283.13C89.9117 283.497 90.8524 283.625 91.7767 283.501C92.701 283.377 93.5745 283.006 94.3047 282.426C139.353 251.423 184.434 220.464 229.548 189.548C230.268 188.99 230.957 188.395 231.612 187.764C215.461 175.098 202.371 158.963 193.313 140.556V140.581ZM217.565 69.0934C212.89 77.6054 209.914 86.9427 208.801 96.5873C207.982 104.35 207.327 112.13 210.243 119.623C217.419 138.12 229.315 154.42 244.75 166.905C250.574 171.674 256.602 176.378 264.121 178.3C274.431 180.939 285.213 181.158 295.622 178.938C299.881 178.054 304.017 176.566 308.662 175.224C264.686 150.912 235.601 115.017 217.565 69.0689V69.0934Z" fill="#ED2D21"/>
<path d="M47 327.894C48.3614 321.922 49.2882 315.813 51.1909 310.02C53.5529 302.835 57.752 296.546 63.0009 290.469L70.9645 299.658C66.5768 305.271 62.4843 311.878 60.4257 319.601C55.103 339.575 67.5773 355.844 88.3515 356.08C104.377 356.259 118.295 350.182 131.409 341.889C148.345 331.168 162.574 317.393 175.754 302.469C192.468 283.569 210.577 266.218 232.54 253.306C245.392 245.746 258.99 240.06 274.097 239.123C300.136 237.551 321.042 251.147 330.884 275.838C337.773 293.117 338.937 315.006 333.893 333.906L322.731 330.737C323.297 326.949 323.978 323.332 324.372 319.69C325.749 306.249 325.061 293.003 319.803 280.327C310.068 256.817 289.04 246.707 263.796 253.314C246.573 257.819 232.114 267.203 218.409 278.038C203.024 290.217 190.262 304.978 176.968 319.226C163.066 334.117 147.746 347.355 129.613 357.074C118.18 363.208 106.206 367.623 93.1001 368.479C92.4398 368.591 91.7917 368.766 91.1646 369H87.7692C86.5762 368.716 85.3689 368.496 84.1524 368.34C67.848 367.069 54.045 356.626 49.3538 341.636C48.1646 337.84 47.7709 333.8 47.0164 329.873L47 327.894Z" fill="#ED2D21"/>
</svg>
