<svg width="400" height="400" viewBox="0 0 400 400" fill="none" xmlns="http://www.w3.org/2000/svg">
<path d="M44.4991 333.379L44.3502 333.397L44.4991 333.379C42.1702 313.903 41.5455 294.551 47.3654 275.546L47.222 275.502L47.3654 275.546C52.325 259.341 62.8631 248.276 79.2044 243.613C101.119 237.362 121.454 227.866 140.55 215.555C143.412 213.713 146.316 213.041 148.912 213.45C151.507 213.859 153.811 215.349 155.473 217.861L155.473 217.861C157.11 220.332 157.55 223.06 156.885 225.626C156.22 228.193 154.444 230.61 151.627 232.447C131.904 245.277 111.027 255.747 88.2442 261.789L88.2826 261.934L88.2442 261.789C81.139 263.673 75.852 266.98 72.0448 271.526C68.2387 276.07 65.9198 281.843 64.7327 288.645C62.4949 301.461 62.7241 314.368 63.9514 327.268C64.0907 328.743 64.4379 329.97 65.1236 331.013C65.8098 332.056 66.8266 332.904 68.2841 333.635L68.3514 333.501L68.2841 333.635C92.8423 345.946 118.779 353.88 145.788 358.399C187.676 365.4 229.375 364.363 270.769 354.727C291.537 349.894 311.662 343.14 330.533 333.025C331.176 332.681 331.852 332.101 332.388 331.443C332.922 330.788 333.331 330.037 333.416 329.346C335.357 313.963 335.816 298.566 331.777 283.402C328.911 272.628 322.264 265.493 311.179 262.445C287.994 256.06 266.508 245.846 246.417 232.666L246.335 232.791L246.417 232.666C241.843 229.667 239.946 225.655 240.89 221.405C242.454 214.41 250 211.337 256.462 215.121C258.66 216.41 260.843 217.731 263.027 219.052C267.282 221.626 271.542 224.202 275.923 226.553L275.994 226.421L275.923 226.553C288.472 233.279 301.521 238.999 315.333 242.597C326.158 245.419 334.489 250.46 340.621 257.444C346.753 264.428 350.692 273.363 352.719 283.982C355.986 301.134 355.664 318.402 353.031 335.656L353.18 335.679L353.031 335.656C352.549 338.836 351.521 341.491 349.894 343.735C348.267 345.98 346.038 347.82 343.144 349.361C314.937 364.395 284.914 373.841 253.434 378.649L253.455 378.785L253.434 378.65C245.309 379.895 237.111 380.645 228.908 381.395C225.097 381.743 221.285 382.091 217.478 382.49C216.686 382.573 215.899 382.716 215.118 382.858C214.734 382.928 214.352 382.998 213.972 383.06C203.709 383.069 193.436 383.069 183.153 383.069C180.729 382.835 178.303 382.611 175.877 382.388C170.824 381.923 165.772 381.458 160.731 380.893C124.354 376.825 89.5879 367.388 56.9141 350.501C53.201 348.584 50.3423 346.336 48.29 343.556C46.2384 340.776 44.9863 337.455 44.4991 333.379Z" fill="#ED2D21" stroke="white" stroke-width="0.3"/>
<path d="M267.053 168.917L267.19 168.977L267.053 168.917C257.075 191.453 240.869 206.969 216.183 211.797C192.263 216.478 169.804 213.087 150.6 196.779C139.207 187.103 132.078 174.493 127.358 160.477C119.968 138.5 118.713 115.873 120.49 92.9144C121.649 77.9707 124.783 63.6211 132.763 50.7659C144.548 31.7898 161.882 21.1629 183.763 17.4421C198.298 14.9741 212.527 16.0372 226.472 20.6694L226.52 20.527L226.472 20.6694C251.051 28.8296 266.289 45.8944 273.389 70.5147C274.605 74.7421 275.648 79.0781 276.132 83.4303L276.132 83.4304C276.821 89.5931 277.285 95.7736 277.748 101.953C277.936 104.462 278.124 106.972 278.328 109.48C277.89 129.977 275.428 150.014 267.053 168.917ZM257.898 106.005H257.898L257.897 105.993C257.76 104.287 257.64 102.542 257.517 100.77C257.239 96.7621 256.953 92.6215 256.451 88.5109C255.166 77.9605 252.231 67.8849 246.108 59.0068L246.108 59.0067C237.58 46.6549 225.503 40.0473 210.911 37.6362C194.149 34.8651 178.102 36.5961 163.816 46.4749C149.495 56.3774 143.54 71.1814 141.33 87.7486C139.103 104.45 139.313 121.152 142.244 137.769L142.392 137.743L142.244 137.769C144.814 152.32 149.386 166.158 159.569 177.331C173.918 193.081 192.341 195.62 212.026 192.02C231.511 188.462 242.946 175.348 249.937 157.785L249.938 157.785C256.49 141.29 257.85 123.934 257.898 106.005Z" fill="#ED2D21" stroke="white" stroke-width="0.3"/>
</svg>
